<?xml version="1.0" encoding="utf-8"?>
<!-- Generator: Adobe Illustrator 18.1.0, SVG Export Plug-In . SVG Version: 6.00 Build 0)  -->
<!DOCTYPE svg PUBLIC "-//W3C//DTD SVG 1.1//EN" "http://www.w3.org/Graphics/SVG/1.1/DTD/svg11.dtd">
<svg version="1.1" id="character" xmlns="http://www.w3.org/2000/svg" xmlns:xlink="http://www.w3.org/1999/xlink" x="0px" y="0px"
	viewBox="0 0 184.9 385.4" enable-background="new 0 0 184.9 385.4" xml:space="preserve">
	<g id="character">
		<path id="body" fill="#D8AE36" d="M169.9,385.4H15c-8.2,0-15-6.8-15-15V79.3C0,35.7,35.7,0,79.3,0h26.2c43.6,0,79.3,35.7,79.3,79.3
			v291.1C184.9,378.7,178.1,385.4,169.9,385.4z"/>
			<g id="face">
				<circle opacity="0.2" cx="58" cy="77.7" r="30.7"/>
				<circle opacity="0.2" cx="127" cy="77.7" r="30.7"/>
				<circle fill="#EAE9E5" cx="58" cy="72.7" r="30.7"/>
				<path fill="#DDDBD7" d="M74.1,46.6c2.9,4.7,4.6,10.2,4.6,16.1c0,16.9-13.7,30.7-30.7,30.7c-5.9,0-11.4-1.7-16.1-4.6
					c5.4,8.7,15.1,14.6,26.1,14.6c16.9,0,30.7-13.7,30.7-30.7C88.7,61.6,82.8,52,74.1,46.6z"/>
					<circle fill="#EAE9E5" cx="127" cy="72.7" r="30.7"/>
					<path fill="#DDDBD7" d="M137,93.3c-16.9,0-30.7-13.7-30.7-30.7c0-5.9,1.7-11.4,4.6-16.1c-8.7,5.4-14.6,15.1-14.6,26.1
						c0,16.9,13.7,30.7,30.7,30.7c11,0,20.7-5.8,26.1-14.6C148.4,91.7,142.9,93.3,137,93.3z"/>
						<circle fill="#474747" cx="48" cy="62.7" r="4.7"/>
						<circle fill="#474747" cx="137" cy="62.7" r="4.7"/>
						<circle fill="#474747" cx="94.7" cy="135.2" r="3.9"/>
						<g opacity="0.24">
							<path d="M14,143.7c0,0,0.4,0.6,1.3,1.8c0.8,1.2,2,3,3.7,5c0.8,1,1.7,2.2,2.8,3.4c1.1,1.2,2.2,2.5,3.4,3.9c1.3,1.3,2.7,2.7,4.2,4.1
								c1.6,1.4,3.1,2.8,4.9,4.3c0.9,0.7,1.8,1.4,2.7,2.1c0.5,0.4,0.9,0.7,1.4,1.1c0.5,0.4,1,0.7,1.5,1c1,0.7,2,1.4,3,2.1
								c1,0.7,2.1,1.3,3.2,2c2.2,1.4,4.5,2.6,6.9,3.8c0.6,0.3,1.2,0.6,1.8,0.9c0.6,0.3,1.2,0.6,1.9,0.8c1.2,0.6,2.5,1.2,3.8,1.6
								c5.2,2.2,10.8,3.5,16.5,4.8c1.4,0.2,2.9,0.5,4.3,0.7c0.7,0.1,1.5,0.2,2.2,0.3l2.2,0.2l2.2,0.2c0.7,0.1,1.5,0.1,2.2,0.1l4.3,0.1
								l4.6-0.1c0.8,0,1.6,0,2.3-0.1l2.2-0.2l2.2-0.2c0.7-0.1,1.4-0.1,2.2-0.3c1.5-0.2,2.9-0.5,4.3-0.7c5.7-1.2,11.3-2.6,16.5-4.8
								c1.3-0.5,2.6-1.1,3.8-1.6c0.6-0.3,1.2-0.6,1.9-0.8c0.6-0.3,1.3-0.5,1.8-0.9c2.4-1.3,4.8-2.4,6.9-3.8c1.1-0.7,2.2-1.3,3.2-2
								c1-0.7,2-1.4,3-2.1c0.5-0.3,1-0.7,1.5-1c0.5-0.4,0.9-0.7,1.4-1.1c0.9-0.7,1.8-1.4,2.7-2.1c1.7-1.5,3.3-2.9,4.9-4.3
								c1.5-1.5,2.9-2.8,4.2-4.1c1.2-1.4,2.4-2.7,3.4-3.9c1.1-1.2,1.9-2.4,2.8-3.4c1.7-2.1,2.8-3.8,3.7-5c0.8-1.2,1.3-1.8,1.3-1.8
								s-0.3,0.7-1,2c-0.7,1.3-1.5,3.2-3,5.5c-0.7,1.1-1.4,2.5-2.4,3.8c-0.9,1.3-2,2.8-3.1,4.3c-1.2,1.5-2.5,3-3.8,4.7
								c-1.5,1.5-3,3.2-4.6,4.8c-3.4,3.2-7.2,6.6-11.7,9.6c-2.2,1.6-4.6,2.9-7,4.4c-1.2,0.7-2.5,1.3-3.8,2c-1.3,0.6-2.6,1.3-4,1.8
								c-1.4,0.6-2.7,1.1-4.1,1.7c-1.4,0.5-2.9,1-4.3,1.5c-0.7,0.2-1.4,0.5-2.2,0.7c-0.7,0.2-1.5,0.4-2.2,0.6c-1.5,0.4-3,0.8-4.5,1.1
								c-1.5,0.3-3.1,0.6-4.6,0.8c-0.8,0.2-1.6,0.2-2.3,0.3l-2.4,0.3l-2.4,0.3c-0.8,0.1-1.5,0.1-2.3,0.1l-4.6,0.2l-4.8-0.2
								c-0.8,0-1.6,0-2.4-0.1l-2.3-0.3l-2.3-0.3c-0.8-0.1-1.6-0.2-2.3-0.3c-1.5-0.3-3.1-0.6-4.6-0.8c-1.5-0.3-3-0.7-4.5-1.1
								c-0.7-0.2-1.5-0.4-2.2-0.6c-0.7-0.2-1.5-0.5-2.2-0.7c-1.4-0.5-2.9-1-4.3-1.5c-1.4-0.6-2.8-1.1-4.1-1.7c-1.4-0.5-2.7-1.2-4-1.8
								c-1.3-0.7-2.6-1.2-3.8-2c-2.4-1.5-4.9-2.8-7-4.4c-4.5-3-8.3-6.4-11.7-9.6c-1.7-1.6-3.2-3.3-4.6-4.8c-1.3-1.6-2.6-3.2-3.8-4.7
								c-1.1-1.5-2.1-3-3.1-4.3c-0.9-1.3-1.7-2.7-2.4-3.8c-1.5-2.3-2.3-4.2-3-5.5C14.4,144.4,14,143.7,14,143.7z"/>
							</g>
							<circle opacity="0.25" cx="38.7" cy="22.3" r="3.2"/>
							<circle opacity="0.15" cx="38.7" cy="28.3" r="1.6"/>
							<circle opacity="0.2" cx="46.7" cy="22.3" r="1.6"/>
						</g>
					</g>
				</svg>
