<?xml version="1.0" encoding="utf-8"?>
<!-- Generator: Adobe Illustrator 18.1.1, SVG Export Plug-In . SVG Version: 6.00 Build 0)  -->
<!DOCTYPE svg PUBLIC "-//W3C//DTD SVG 1.1//EN" "http://www.w3.org/Graphics/SVG/1.1/DTD/svg11.dtd">
<svg version="1.1" xmlns="http://www.w3.org/2000/svg" xmlns:xlink="http://www.w3.org/1999/xlink" x="0px" y="0px" width="228px"
	 height="399.2px" viewBox="0 0 228 399.2" enable-background="new 0 0 228 399.2" xml:space="preserve">
<g id="megan">
	<g class="body">
		<path fill="#7FE2E5" d="M192.3,399.1H37.4c-8.2,0-15-6.8-15-15V93c0-43.6,35.7-79.3,79.3-79.3h26.2c43.6,0,79.3,35.7,79.3,79.3
			v291.1C207.3,392.3,200.5,399.1,192.3,399.1z"/>
	</g>
	<g class="face">
		<g>
			<circle opacity="0.13" cx="80.6" cy="104.9" r="32.3"/>
			<circle fill="#EAE9E5" cx="79.1" cy="102" r="32.3"/>
			<g>
				<g>
					<path fill="#474747" d="M79.9,109.9c-8.3,0-15.1-6.8-15.1-15.1s6.8-15.1,15.1-15.1S95,86.5,95,94.8S88.2,109.9,79.9,109.9z"/>
					<path fill="#00A6B7" d="M79.9,85.7c5,0,9.1,4.1,9.1,9.1c0,5-4.1,9.1-9.1,9.1s-9.1-4.1-9.1-9.1C70.8,89.8,74.8,85.7,79.9,85.7
						 M79.9,73.7c-11.7,0-21.1,9.4-21.1,21.1c0,11.7,9.4,21.1,21.1,21.1c11.7,0,21.1-9.4,21.1-21.1C101,83.2,91.5,73.7,79.9,73.7
						L79.9,73.7z"/>
				</g>
				<g opacity="0.69">
					<path fill="#474747" d="M79.7,116c0,0-0.2-0.6-0.5-1.8c-0.1-0.6-0.3-1.3-0.4-2.1c-0.1-0.8-0.2-1.7-0.3-2.7
						c-0.1-1-0.1-2.1,0-3.2c0.1-1.1,0.3-2.3,0.5-3.6c0.2-1.2,0.4-2.5,0.3-3.8c0-1.3-0.2-2.6-0.4-3.9c-0.2-1.3-0.4-2.6-0.5-3.9
						c-0.1-1.3-0.2-2.6-0.2-3.8c-0.1-2.5,0-4.8,0.2-6.8c0.2-2,0.5-3.5,0.7-4.7c0.2-1.2,0.5-1.7,0.5-1.7H80c0,0,0.2,0.5,0.5,1.7
						c0.2,1.2,0.5,2.7,0.7,4.7c0.2,2,0.4,4.3,0.2,6.7c-0.1,1.2-0.1,2.5-0.2,3.8c-0.1,1.3-0.3,2.6-0.5,3.9c-0.2,1.3-0.4,2.6-0.4,3.9
						c0,1.3,0.1,2.6,0.3,3.8c0.2,1.2,0.5,2.4,0.5,3.6c0.1,1.1,0,2.2,0,3.2c-0.1,1-0.2,1.9-0.3,2.7c-0.1,0.8-0.2,1.5-0.4,2.1
						c-0.2,1.2-0.5,1.8-0.5,1.8H79.7z"/>
				</g>
				<g opacity="0.8">
					<path fill="#474747" d="M58.5,94.7c0,0,0.7-0.2,1.9-0.5c0.6-0.1,1.3-0.3,2.1-0.4c0.8-0.1,1.7-0.2,2.7-0.3c1-0.1,2.1-0.1,3.2,0
						c1.1,0.1,2.3,0.3,3.6,0.5c1.2,0.2,2.5,0.4,3.8,0.3c1.3,0,2.6-0.2,3.9-0.4c1.3-0.2,2.6-0.4,3.9-0.5c1.3-0.1,2.6-0.2,3.8-0.2
						c2.5-0.1,4.8,0,6.8,0.2c2,0.2,3.4,0.5,4.6,0.7c1.2,0.2,1.6,0.5,1.6,0.5V95c0,0-0.4,0.2-1.6,0.5c-1.2,0.2-2.7,0.5-4.7,0.7
						c-2,0.2-4.2,0.4-6.7,0.2c-1.2-0.1-2.5-0.1-3.8-0.2c-1.3-0.1-2.6-0.3-3.9-0.5c-1.3-0.2-2.6-0.4-3.9-0.4c-1.3,0-2.6,0.1-3.8,0.3
						c-1.2,0.2-2.4,0.5-3.6,0.5c-1.1,0.1-2.2,0-3.2,0c-1-0.1-1.9-0.2-2.7-0.3c-0.8-0.1-1.6-0.2-2.2-0.4c-1.2-0.2-1.9-0.5-1.9-0.5
						V94.7z"/>
				</g>
				<g opacity="0.69">
					<path fill="#474747" d="M60.3,103c0,0,0.5-0.4,1.5-1c1-0.6,2.5-1.4,4.2-2.3c0.9-0.4,1.9-0.9,2.9-1.3c1.1-0.4,2.2-0.7,3.4-1.1
						c2.4-0.7,4.8-1.7,7.1-3c1.2-0.6,2.3-1.3,3.5-1.8c1.2-0.6,2.3-1.1,3.5-1.6c1.1-0.5,2.2-1,3.3-1.4c1.1-0.4,2.1-0.8,3-1.1
						c1.9-0.6,3.5-1.1,4.6-1.4c1.1-0.3,1.8-0.4,1.8-0.4l0.1,0.2c0,0-0.6,0.4-1.6,1c-1,0.6-2.4,1.4-4.2,2.3c-0.9,0.4-1.9,0.9-2.9,1.4
						c-1,0.5-2.1,0.9-3.3,1.4c-1.2,0.4-2.4,0.9-3.6,1.3c-1.2,0.5-2.5,0.8-3.8,1.2c-2.6,0.8-5,1.8-7.2,3c-1.1,0.6-2.1,1.2-3.2,1.7
						c-1,0.5-2,0.9-3,1.2c-1.9,0.7-3.4,1.2-4.6,1.5c-1.1,0.3-1.8,0.4-1.8,0.4L60.3,103z"/>
				</g>
				<g opacity="0.69">
					<path fill="#474747" d="M71.7,75.4c0,0,0.5,0.5,1.2,1.5c0.3,0.5,0.7,1.1,1.1,1.8c0.4,0.7,0.9,1.5,1.3,2.4
						c0.4,0.9,0.9,1.9,1.3,2.9c0.4,1.1,0.6,2.3,0.9,3.5c0.3,1.2,0.6,2.5,1.2,3.7c0.5,1.2,1.2,2.4,1.9,3.5c0.7,1.1,1.4,2.3,2,3.4
						c0.6,1.2,1.2,2.3,1.7,3.4c1.1,2.2,1.8,4.4,2.4,6.3c0.6,1.9,1,3.5,1.2,4.7c0.2,1.2,0.3,1.9,0.3,1.9l-0.3,0.1
						c0,0-0.5-0.5-1.1-1.5c-0.7-1-1.6-2.4-2.5-4.1c-1-1.8-2-3.8-2.8-6.2c-0.4-1.2-0.9-2.4-1.3-3.6c-0.4-1.2-0.7-2.5-1.1-3.8
						c-0.3-1.3-0.7-2.6-1.2-3.8c-0.5-1.2-1.1-2.3-1.8-3.4C75.4,87,74.7,86,74.2,85c-0.5-1-0.9-2-1.2-3c-0.3-0.9-0.6-1.8-0.8-2.6
						c-0.2-0.8-0.4-1.5-0.5-2.1c-0.2-1.2-0.3-1.9-0.3-1.9L71.7,75.4z"/>
				</g>
				<g opacity="0.5">
					<path fill="#474747" d="M99.1,103.6c0,0-0.7-0.1-1.8-0.4c-1.1-0.3-2.7-0.8-4.5-1.6c-0.9-0.4-1.9-0.8-2.9-1.3
						c-1-0.5-2.1-1.1-3.1-1.8c-2.1-1.3-4.6-2.4-7.1-3.2c-1.3-0.4-2.5-0.8-3.7-1.3c-1.2-0.5-2.4-1-3.6-1.4c-1.1-0.5-2.2-0.9-3.3-1.5
						c-1-0.5-2-1-2.9-1.4C64.5,88.8,63,88,62,87.4c-1-0.6-1.5-1-1.5-1l0.1-0.2c0,0,0.7,0.1,1.8,0.5c1.1,0.3,2.7,0.8,4.6,1.5
						c0.9,0.3,1.9,0.7,3,1.2c1.1,0.4,2.1,0.9,3.3,1.5c1.1,0.6,2.3,1.1,3.4,1.7c1.2,0.6,2.3,1.3,3.5,1.9c2.3,1.4,4.7,2.5,7.1,3.2
						c1.2,0.4,2.4,0.7,3.4,1.1c1.1,0.4,2,0.9,2.9,1.3c1.8,0.9,3.2,1.7,4.2,2.3c1,0.6,1.5,1,1.5,1L99.1,103.6z"/>
				</g>
				<g opacity="0.69">
					<path fill="#474747" d="M71,114.1c0,0,0-0.7,0.2-1.9c0.2-1.2,0.5-2.8,1.2-4.7c0.3-0.9,0.7-1.9,1.3-2.9c0.5-1,1.3-2,2.1-3
						c0.8-1,1.5-2.1,2-3.3c0.5-1.2,0.9-2.5,1.2-3.8c0.3-1.3,0.6-2.6,1-3.9c0.4-1.2,0.8-2.5,1.3-3.6c0.8-2.3,2-4.4,3-6.1
						c0.5-0.8,1-1.6,1.5-2.3c0.5-0.7,0.9-1.2,1.3-1.7c0.8-0.9,1.3-1.4,1.3-1.4l0.4,0.2c0,0,0,0.7-0.2,1.9c-0.1,0.6-0.2,1.3-0.4,2.1
						c-0.2,0.8-0.4,1.7-0.7,2.7c-0.6,1.9-1.3,4.1-2.5,6.3c-0.6,1.1-1.2,2.2-1.8,3.4c-0.6,1.1-1.4,2.2-2.2,3.3
						c-0.8,1.1-1.5,2.2-2.1,3.4c-0.6,1.2-0.9,2.4-1.1,3.7c-0.2,1.3-0.4,2.5-0.8,3.5c-0.4,1.1-0.9,2-1.4,2.9c-1,1.7-1.9,3.1-2.7,4
						c-0.8,0.9-1.3,1.4-1.3,1.4L71,114.1z"/>
				</g>
			</g>
			<path opacity="0.34" fill="#F9F9F9" d="M97.7,75.6c3.7,5.2,5.9,11.6,5.9,18.5c0,17.8-14.4,32.3-32.3,32.3
				c-6.9,0-13.3-2.2-18.5-5.9c5.8,8.3,15.5,13.7,26.4,13.7c17.8,0,32.3-14.4,32.3-32.3C111.4,91.1,106,81.4,97.7,75.6z"/>
			<g>
				<defs>
					<path id="SVGID_1_" d="M110.9,106.3c0-9.5-14.4-17.2-32.3-17.2c-11.1,0-21,3-26.8,7.6c-3.5,2.7-7.9,1-9.8-1.9L56.9,51l54,11.5
						l4.8,41.6L110.9,106.3z"/>
				</defs>
				<clipPath id="SVGID_2_">
					<use xlink:href="#SVGID_1_"  overflow="visible"/>
				</clipPath>
				<g clip-path="url(#SVGID_2_)">
					<circle fill="#C17BFF" cx="79.1" cy="102" r="32.3"/>
					<path opacity="0.71" fill="#F9F9F9" d="M97.7,75.6c3.7,5.2,5.9,11.6,5.9,18.5c0,17.8-14.4,32.3-32.3,32.3
						c-6.9,0-13.3-2.2-18.5-5.9c5.8,8.3,15.5,13.7,26.4,13.7c17.8,0,32.3-14.4,32.3-32.3C111.4,91.1,106,81.4,97.7,75.6z"/>
				</g>
			</g>
			<g>
				<path fill="#474747" d="M110.6,106.3c0,0-0.1-0.3-0.3-0.9c-0.2-0.5-0.5-1.3-1-2.1c-0.5-0.8-1.3-1.8-2.3-2.7
					c-1-0.9-2.3-1.8-3.7-2.6c-2.9-1.6-6.7-3-10.9-4.1c-2.1-0.6-4.3-1.1-6.6-1.6c-2.3-0.4-4.6-0.7-7-0.9c-2.4-0.1-4.7-0.1-7.1,0.1
					c-2.3,0.2-4.6,0.5-6.8,1c-4.4,0.9-8.4,2.4-11.4,4.3c-0.4,0.3-0.8,0.5-1.2,0.7c-0.2,0.1-0.4,0.2-0.6,0.3
					c-0.2,0.1-0.5,0.2-0.7,0.3c-0.9,0.4-1.8,0.5-2.7,0.5c-1.7,0-3.1-0.6-4-1.2c-1-0.6-1.6-1.3-1.9-1.8c-0.2-0.2-0.3-0.4-0.4-0.6
					c-0.1-0.1-0.1-0.2-0.1-0.2c-0.1-0.1,0-0.3,0.1-0.4c0.1-0.1,0.3-0.1,0.4,0.1l0,0c0,0,0,0.1,0.1,0.2c0.1,0.1,0.2,0.3,0.4,0.5
					c0.4,0.4,1,0.9,1.9,1.4c0.9,0.4,2.1,0.8,3.4,0.6c0.7-0.1,1.3-0.3,2-0.6c0.1-0.1,0.3-0.2,0.4-0.3c0.2-0.1,0.3-0.3,0.5-0.4
					c0.3-0.3,0.7-0.6,1-0.9c3-2.4,7.1-4.5,11.7-5.9c2.3-0.7,4.7-1.3,7.2-1.7c2.5-0.4,5.1-0.7,7.6-0.8c2.6-0.1,5.2-0.1,7.7,0.1
					c2.6,0.2,5.1,0.5,7.5,1.1c2.4,0.6,4.7,1.5,6.7,2.6c2,1.1,3.9,2.3,5.4,3.7c1.5,1.4,2.8,2.9,3.6,4.3c0.9,1.5,1.4,2.9,1.6,4.1
					c0.2,1.2,0.1,2.2,0.1,2.8c-0.1,0.6-0.2,0.9-0.2,0.9c0,0.2-0.2,0.3-0.4,0.2C110.7,106.5,110.6,106.4,110.6,106.3z"/>
			</g>
			<g>
				<path d="M52.7,63.3c0,0,0.2-0.2,0.5-0.5c0.3-0.3,0.8-0.7,1.5-1.2c0.7-0.5,1.5-1.1,2.6-1.6c0.5-0.3,1.1-0.6,1.7-0.9
					c0.6-0.3,1.2-0.6,1.9-0.9c1.4-0.5,2.9-1.1,4.5-1.5c0.8-0.2,1.7-0.4,2.6-0.5c0.4-0.1,0.9-0.2,1.3-0.2c0.5,0,0.9-0.1,1.4-0.1
					c0.5,0,0.9-0.1,1.4-0.1c0.5,0,1,0,1.4,0c1,0.1,2,0,2.9,0.2c0.5,0.1,1,0.2,1.5,0.2c0.5,0.1,1,0.1,1.5,0.3c1,0.3,1.9,0.6,2.9,0.9
					c1.9,0.8,3.8,1.6,5.4,2.7c0.4,0.3,0.8,0.5,1.3,0.8l0.3,0.2l0.1,0c-0.1,0,0,0,0,0l0.1,0.1l0.6,0.4c0.7,0.5,1.5,1,2.2,1.5
					c1.4,0.9,2.7,1.9,4.1,2.7c0.7,0.4,1.3,0.8,1.9,1.2c0.3,0.2,0.6,0.4,0.9,0.5c0.3,0.2,0.6,0.3,0.9,0.5c0.6,0.3,1.2,0.6,1.7,0.8
					c0.6,0.3,1.1,0.4,1.6,0.6c1,0.3,1.9,0.6,2.7,0.6c0.8,0,1.4-0.1,1.8-0.3c0.4-0.2,0.6-0.3,0.6-0.3s-0.1,0.2-0.4,0.6
					c-0.3,0.3-0.9,0.8-1.8,1c-0.9,0.3-1.9,0.4-3.2,0.3c-1.2-0.1-2.6-0.3-4-0.7c-0.7-0.2-1.5-0.4-2.2-0.7c-0.8-0.3-1.5-0.5-2.3-0.9
					c-1.5-0.6-3.1-1.4-4.7-2.3c-0.8-0.4-1.5-0.9-2.3-1.3L87,65.5l-0.1-0.1l-0.1-0.1l-0.1,0l-0.3-0.1c-0.4-0.2-0.7-0.4-1.1-0.6
					c-1.5-0.9-3.1-1.5-4.6-2.2c-0.8-0.3-1.6-0.5-2.4-0.8c-0.8-0.3-1.7-0.4-2.5-0.6c-0.8-0.2-1.7-0.3-2.5-0.4c-0.4,0-0.8-0.1-1.2-0.1
					c-0.4,0-0.8,0-1.2,0c-0.4,0-0.8,0-1.2-0.1c-0.4,0-0.8,0-1.2,0c-0.8,0-1.6,0-2.3,0.1c-1.5,0.1-3,0.3-4.3,0.5
					c-0.7,0.1-1.3,0.2-1.9,0.4c-0.6,0.1-1.2,0.3-1.7,0.4c-1.1,0.3-2.1,0.5-2.8,0.8C53.6,63,52.7,63.3,52.7,63.3z"/>
			</g>
		</g>
		<g>
			<circle opacity="0.13" cx="148.7" cy="104.9" r="32.3"/>
			<circle fill="#EAE9E5" cx="150.1" cy="102" r="32.3"/>
			<g>
				<g>
					<path fill="#474747" d="M150.1,109.9c-8.3,0-15.1-6.8-15.1-15.1s6.8-15.1,15.1-15.1s15.1,6.8,15.1,15.1
						S158.5,109.9,150.1,109.9z"/>
					<path fill="#00A6B7" d="M150.1,85.7c5,0,9.1,4.1,9.1,9.1c0,5-4.1,9.1-9.1,9.1s-9.1-4.1-9.1-9.1C141,89.8,145.1,85.7,150.1,85.7
						 M150.1,73.7c-11.7,0-21.1,9.4-21.1,21.1c0,11.7,9.4,21.1,21.1,21.1s21.1-9.4,21.1-21.1C171.2,83.2,161.8,73.7,150.1,73.7
						L150.1,73.7z"/>
				</g>
				<g opacity="0.69">
					<path fill="#474747" d="M150,116c0,0-0.2-0.6-0.5-1.8c-0.1-0.6-0.3-1.3-0.4-2.1c-0.1-0.8-0.2-1.7-0.3-2.7c-0.1-1-0.1-2.1,0-3.2
						c0.1-1.1,0.3-2.3,0.5-3.6c0.2-1.2,0.4-2.5,0.3-3.8c0-1.3-0.2-2.6-0.4-3.9c-0.2-1.3-0.4-2.6-0.5-3.9c-0.1-1.3-0.2-2.6-0.2-3.8
						c-0.1-2.5,0-4.8,0.2-6.8c0.2-2,0.5-3.5,0.7-4.7c0.2-1.2,0.5-1.7,0.5-1.7h0.3c0,0,0.2,0.5,0.5,1.7c0.2,1.2,0.5,2.7,0.7,4.7
						c0.2,2,0.4,4.3,0.2,6.7c-0.1,1.2-0.1,2.5-0.2,3.8c-0.1,1.3-0.3,2.6-0.5,3.9c-0.2,1.3-0.4,2.6-0.4,3.9c0,1.3,0.1,2.6,0.3,3.8
						c0.2,1.2,0.5,2.4,0.5,3.6c0.1,1.1,0,2.2,0,3.2c-0.1,1-0.2,1.9-0.3,2.7c-0.1,0.8-0.2,1.5-0.4,2.1c-0.2,1.2-0.5,1.8-0.5,1.8H150z
						"/>
				</g>
				<g opacity="0.8">
					<path fill="#474747" d="M128.5,94.7c0,0,0.9-0.2,2-0.5c0.6-0.1,1.4-0.3,2.2-0.4c0.8-0.1,1.8-0.2,2.8-0.3c1-0.1,2.1-0.1,3.2,0
						c1.1,0.1,2.3,0.3,3.6,0.5c1.2,0.2,2.5,0.4,3.8,0.3c1.3,0,2.6-0.2,3.9-0.4c1.3-0.2,2.6-0.4,3.9-0.5c1.3-0.1,2.6-0.2,3.8-0.2
						c2.5-0.1,4.8,0,6.8,0.2c2,0.2,3.8,0.5,4.9,0.7c1.2,0.2,1.9,0.5,1.9,0.5V95c0,0-0.8,0.2-1.9,0.5c-1.2,0.2-2.9,0.5-4.9,0.7
						c-2,0.2-4.3,0.4-6.8,0.2c-1.2-0.1-2.5-0.1-3.8-0.2c-1.3-0.1-2.6-0.3-4-0.5c-1.3-0.2-2.6-0.4-3.9-0.4c-1.3,0-2.6,0.1-3.8,0.3
						c-1.2,0.2-2.4,0.5-3.6,0.5c-1.1,0.1-2.2,0-3.2,0c-1-0.1-1.9-0.2-2.7-0.3c-0.8-0.1-1.7-0.2-2.3-0.4c-1.2-0.2-2-0.5-2-0.5V94.7z"
						/>
				</g>
				<g opacity="0.69">
					<path fill="#474747" d="M130.6,103c0,0,0.5-0.4,1.5-1c1-0.6,2.5-1.4,4.2-2.3c0.9-0.4,1.9-0.9,2.9-1.3c1.1-0.4,2.2-0.7,3.4-1.1
						c2.4-0.7,4.8-1.7,7.1-3c1.2-0.6,2.3-1.3,3.5-1.8c1.2-0.6,2.3-1.1,3.5-1.6c1.1-0.5,2.2-1,3.3-1.4c1.1-0.4,2.1-0.8,3-1.1
						c1.9-0.6,3.5-1.1,4.6-1.4c1.1-0.3,1.8-0.4,1.8-0.4l0.1,0.2c0,0-0.6,0.4-1.6,1c-1,0.6-2.4,1.4-4.2,2.3c-0.9,0.4-1.9,0.9-2.9,1.4
						c-1,0.5-2.1,0.9-3.3,1.4c-1.2,0.4-2.4,0.9-3.6,1.3c-1.2,0.5-2.5,0.8-3.8,1.2c-2.6,0.8-5,1.8-7.2,3c-1.1,0.6-2.1,1.2-3.2,1.7
						c-1,0.5-2,0.9-3,1.2c-1.9,0.7-3.4,1.2-4.6,1.5c-1.1,0.3-1.8,0.4-1.8,0.4L130.6,103z"/>
				</g>
				<g opacity="0.69">
					<path fill="#474747" d="M142,75.4c0,0,0.5,0.5,1.2,1.5c0.3,0.5,0.7,1.1,1.1,1.8c0.4,0.7,0.9,1.5,1.3,2.4
						c0.4,0.9,0.9,1.9,1.3,2.9c0.4,1.1,0.6,2.3,0.9,3.5c0.3,1.2,0.6,2.5,1.2,3.7c0.5,1.2,1.2,2.4,1.9,3.5c0.7,1.1,1.4,2.3,2,3.4
						c0.6,1.2,1.2,2.3,1.7,3.4c1.1,2.2,1.8,4.4,2.4,6.3c0.6,1.9,1,3.5,1.2,4.7c0.2,1.2,0.3,1.9,0.3,1.9l-0.3,0.1
						c0,0-0.5-0.5-1.1-1.5c-0.7-1-1.6-2.4-2.5-4.1c-1-1.8-2-3.8-2.8-6.2c-0.4-1.2-0.9-2.4-1.3-3.6c-0.4-1.2-0.7-2.5-1.1-3.8
						c-0.3-1.3-0.7-2.6-1.2-3.8c-0.5-1.2-1.1-2.3-1.8-3.4c-0.7-1.1-1.4-2.1-1.9-3.1c-0.5-1-0.9-2-1.2-3c-0.3-0.9-0.6-1.8-0.8-2.6
						c-0.2-0.8-0.4-1.5-0.5-2.1c-0.2-1.2-0.3-1.9-0.3-1.9L142,75.4z"/>
				</g>
				<g opacity="0.5">
					<path fill="#474747" d="M169.4,103.6c0,0-0.7-0.1-1.8-0.4c-1.1-0.3-2.7-0.8-4.5-1.6c-0.9-0.4-1.9-0.8-2.9-1.3
						c-1-0.5-2.1-1.1-3.1-1.8c-2.1-1.3-4.6-2.4-7.1-3.2c-1.3-0.4-2.5-0.8-3.7-1.3c-1.2-0.5-2.4-1-3.6-1.4c-1.1-0.5-2.2-0.9-3.3-1.5
						c-1-0.5-2-1-2.9-1.4c-1.8-0.9-3.2-1.8-4.2-2.4c-1-0.6-1.5-1-1.5-1l0.1-0.2c0,0,0.7,0.1,1.8,0.5c1.1,0.3,2.7,0.8,4.6,1.5
						c0.9,0.3,1.9,0.7,3,1.2c1.1,0.4,2.1,0.9,3.3,1.5c1.1,0.6,2.3,1.1,3.4,1.7c1.2,0.6,2.3,1.3,3.5,1.9c2.3,1.4,4.7,2.5,7.1,3.2
						c1.2,0.4,2.3,0.7,3.4,1.1c1.1,0.4,2,0.9,2.9,1.3c1.8,0.9,3.2,1.7,4.2,2.3c1,0.6,1.5,1,1.5,1L169.4,103.6z"/>
				</g>
				<g opacity="0.69">
					<path fill="#474747" d="M141.3,114.1c0,0,0-0.7,0.2-1.9c0.2-1.2,0.5-2.8,1.2-4.7c0.3-0.9,0.7-1.9,1.3-2.9c0.5-1,1.3-2,2.1-3
						c0.8-1,1.5-2.1,2-3.3c0.5-1.2,0.9-2.5,1.2-3.8c0.3-1.3,0.6-2.6,1-3.9c0.4-1.2,0.8-2.5,1.3-3.6c0.8-2.3,2-4.4,3-6.1
						c0.5-0.8,1-1.6,1.5-2.3c0.5-0.7,0.9-1.2,1.3-1.7c0.8-0.9,1.3-1.4,1.3-1.4l0.4,0.2c0,0,0,0.7-0.2,1.9c-0.1,0.6-0.2,1.3-0.4,2.1
						c-0.2,0.8-0.4,1.7-0.7,2.7c-0.6,1.9-1.3,4.1-2.5,6.3c-0.6,1.1-1.2,2.2-1.8,3.4c-0.6,1.1-1.4,2.2-2.2,3.3
						c-0.8,1.1-1.5,2.2-2.1,3.4c-0.6,1.2-0.9,2.4-1.1,3.7c-0.2,1.3-0.4,2.5-0.8,3.5c-0.4,1.1-0.9,2-1.4,2.9c-1,1.7-1.9,3.1-2.7,4
						c-0.8,0.9-1.3,1.4-1.3,1.4L141.3,114.1z"/>
				</g>
			</g>
			<path opacity="0.34" fill="#F9F9F9" d="M168.7,75.6c3.7,5.2,5.9,11.6,5.9,18.5c0,17.8-14.4,32.3-32.3,32.3
				c-6.9,0-13.3-2.2-18.5-5.9c5.8,8.3,15.5,13.7,26.4,13.7c17.8,0,32.3-14.4,32.3-32.3C182.4,91.1,177,81.4,168.7,75.6z"/>
			<g>
				<defs>
					<path id="SVGID_3_" d="M186.9,94.1c-1.9,2.9-6.3,4.6-9.8,1.9c-5.8-4.6-15.6-7.6-26.8-7.6c-17.8,0-32.3,7.7-32.3,17.2
						l-14.8-35.8L141.5,51l48.8,12L186.9,94.1z"/>
				</defs>
				<clipPath id="SVGID_4_">
					<use xlink:href="#SVGID_3_"  overflow="visible"/>
				</clipPath>
				<g clip-path="url(#SVGID_4_)">
					<circle fill="#C17BFF" cx="150.1" cy="102" r="32.3"/>
					<path opacity="0.71" fill="#F9F9F9" d="M168.7,75.6c3.7,5.2,5.9,11.6,5.9,18.5c0,17.8-14.4,32.3-32.3,32.3
						c-6.9,0-13.3-2.2-18.5-5.9c5.8,8.3,15.5,13.7,26.4,13.7c17.8,0,32.3-14.4,32.3-32.3C182.4,91.1,177,81.4,168.7,75.6z"/>
				</g>
			</g>
			<g>
				<path fill="#474747" d="M117.8,105.5c0,0-0.1-0.3-0.2-0.9c-0.1-0.6-0.1-1.6,0.1-2.8c0.2-1.2,0.7-2.6,1.6-4.1
					c0.9-1.5,2.1-2.9,3.6-4.3c1.5-1.4,3.4-2.6,5.4-3.7c2-1.1,4.3-1.9,6.7-2.6c2.4-0.6,4.9-1,7.5-1.1c2.6-0.2,5.1-0.2,7.7-0.1
					c2.5,0.1,5.2,0.4,7.6,0.8c2.5,0.4,4.9,1,7.2,1.7c4.6,1.4,8.7,3.5,11.7,5.9c0.4,0.3,0.7,0.6,1,0.9c0.2,0.1,0.4,0.3,0.5,0.4
					c0.1,0.1,0.3,0.2,0.4,0.3c0.6,0.3,1.3,0.6,2,0.6c1.3,0.2,2.5-0.2,3.4-0.6c0.9-0.4,1.5-1,1.9-1.4c0.2-0.2,0.3-0.4,0.4-0.5
					c0.1-0.1,0.1-0.2,0.1-0.2l0,0c0.1-0.1,0.3-0.1,0.4,0c0.1,0.1,0.1,0.3,0.1,0.4c0,0,0,0.1-0.1,0.2c-0.1,0.1-0.2,0.3-0.4,0.6
					c-0.4,0.5-1,1.2-1.9,1.8c-1,0.6-2.3,1.2-4,1.2c-0.9,0-1.8-0.2-2.7-0.5c-0.2-0.1-0.5-0.2-0.7-0.3c-0.2-0.1-0.4-0.2-0.6-0.3
					c-0.4-0.2-0.8-0.5-1.2-0.7c-3-1.9-7-3.4-11.4-4.3c-2.2-0.5-4.5-0.8-6.8-1c-2.4-0.2-4.7-0.2-7.1-0.1c-2.4,0.1-4.7,0.4-7,0.9
					c-2.3,0.5-4.5,1-6.6,1.6c-4.2,1.1-8,2.5-10.9,4.1c-1.5,0.8-2.7,1.7-3.7,2.6c-1,0.9-1.8,1.8-2.3,2.7c-0.6,0.8-0.8,1.6-1,2.1
					c-0.2,0.6-0.3,0.9-0.3,0.9c-0.1,0.2-0.2,0.3-0.4,0.2C117.9,105.7,117.8,105.6,117.8,105.5z"/>
			</g>
			<g>
				<path d="M175.9,67.6c0,0-0.9-0.3-2.5-0.8c-1.6-0.5-3.9-1.1-6.6-1.8c-2.7-0.6-5.9-1.3-9.3-1.6c-1.7-0.2-3.5-0.3-5.2-0.3
					c-1.8,0-3.6,0-5.3,0.2c-1.8,0.2-3.5,0.4-5.3,0.8l-0.3,0.1l-0.1,0l0,0c0.1,0,0,0,0,0l0,0l-0.2,0l-0.7,0.2
					c-0.5,0.1-0.9,0.2-1.3,0.3c-0.9,0.2-1.7,0.5-2.5,0.7c-0.8,0.2-1.6,0.5-2.4,0.7c-0.8,0.2-1.6,0.5-2.3,0.8
					c-0.7,0.3-1.5,0.5-2.1,0.8c-0.3,0.1-0.7,0.3-1,0.4c-0.3,0.2-0.6,0.3-1,0.4c-1.3,0.6-2.4,1.2-3.3,1.8c-0.9,0.6-1.8,1.2-2.4,1.7
					c-1.3,1.1-1.8,1.9-1.8,1.9s0-0.2,0.2-0.7c0.2-0.4,0.4-1.1,0.9-1.8c0.4-0.8,1.1-1.6,1.9-2.5c0.8-0.9,1.8-1.9,3-2.7
					c0.3-0.2,0.6-0.5,0.9-0.7c0.3-0.2,0.7-0.4,1-0.7c0.7-0.5,1.4-0.9,2.1-1.3c0.7-0.4,1.5-0.8,2.3-1.2c0.4-0.2,0.8-0.4,1.2-0.6
					c0.4-0.2,0.9-0.3,1.3-0.5c0.9-0.3,1.8-0.7,2.6-1c0.4-0.1,0.9-0.3,1.3-0.4l0.7-0.2l0.2-0.1l0.2-0.1l0.4-0.1
					c1.9-0.6,3.9-0.9,6-1.1c2-0.2,4.1-0.2,6-0.1c2,0.1,3.9,0.4,5.7,0.8c3.7,0.8,6.9,2,9.6,3.3c2.7,1.3,4.7,2.6,6.1,3.6
					C175.2,66.9,175.9,67.6,175.9,67.6z"/>
			</g>
		</g>
		<circle fill="#474747" cx="144.4" cy="142.9" r="2.9"/>
		<g>
			<path opacity="0.15" d="M148,155.6c0,0-5.3,1.9-7.8-1.2s-6.9-8.4-15.6-8.4s-10.3,4.7-10.3,4.7l0,0c0,0-1.9-4.7-10.6-4.7
				s-13.1,5.5-15.6,8.6s-7.8,1.1-7.8,1.1s8.1,20.6,33.9,20.6S148,155.6,148,155.6z"/>
			<path fill="#FC5959" d="M148,155.6c0,0-5.3-0.9-7.8-4.1s-6.9-8.4-15.6-8.4s-10.3,4.7-10.3,4.7l0,0c0,0-1.9-4.7-10.6-4.7
				s-13.1,5.5-15.6,8.6s-7.8,4-7.8,4s8.1,17.7,33.9,17.7S148,155.6,148,155.6z"/>
			<g>
				<path fill="#474747" d="M80.3,155.7c0,0,0.3,0.1,0.8,0.2c0.5,0.1,1.2,0.2,2.1,0.4c1.8,0.4,4.5,0.8,7.6,1.2
					c1.6,0.2,3.3,0.4,5.1,0.6c1.8,0.2,3.7,0.4,5.7,0.5c2,0.1,4,0.3,6.1,0.3c1,0,2.1,0.1,3.2,0.1c1.1,0,2.1,0,3.2,0
					c2.1,0,4.2,0,6.3-0.1c2.1,0,4.1-0.2,6.1-0.3c0.5,0,1-0.1,1.5-0.1c0.5-0.1,1-0.1,1.4-0.2c1-0.1,1.9-0.2,2.8-0.3
					c1.8-0.2,3.5-0.4,5.1-0.7c1.6-0.3,3-0.4,4.3-0.6c1.3-0.2,2.4-0.5,3.3-0.6c1.8-0.3,2.9-0.5,2.9-0.5s-1,0.3-2.8,0.9
					c-0.9,0.3-2,0.6-3.2,1c-1.3,0.4-2.7,0.7-4.3,1c-0.8,0.2-1.6,0.4-2.5,0.6c-0.9,0.2-1.7,0.3-2.7,0.5c-1.8,0.3-3.7,0.7-5.8,0.8
					c-1,0.1-2,0.2-3.1,0.3c-0.5,0.1-1,0.1-1.6,0.2c-0.5,0-1.1,0-1.6,0.1c-2.1,0.1-4.3,0.2-6.4,0.2c-1.1,0-2.2,0-3.2,0
					c-1.1,0-2.1-0.1-3.2-0.1c-2.1-0.1-4.2-0.3-6.2-0.5c-2-0.2-3.9-0.5-5.8-0.8c-1.8-0.3-3.5-0.6-5.1-1c-1.6-0.3-3-0.7-4.3-1
					c-1.3-0.3-2.4-0.7-3.3-0.9C81.3,156.1,80.3,155.7,80.3,155.7z"/>
			</g>
			<g opacity="0.59">
				<path fill="#474747" d="M122.1,159.4c0,0,0.1,0,0.3-0.1c0.2-0.1,0.5-0.3,0.8-0.5c0.3-0.2,0.7-0.6,1-1c0.3-0.4,0.6-0.9,0.8-1.4
					c0.1-0.3,0.2-0.5,0.3-0.8c0.1-0.3,0.2-0.5,0.2-0.8c0.1-0.5,0.2-1,0.2-1.4c0.1-0.4,0-0.8,0.1-1c0-0.3,0-0.4,0-0.4s0,0.1,0,0.4
					c0,0.3,0.1,0.6,0.1,1c0,0.4,0,0.9-0.1,1.5c0,0.3-0.1,0.5-0.1,0.8c0,0.3-0.1,0.6-0.2,0.9c-0.2,0.6-0.4,1.1-0.7,1.6
					c-0.3,0.5-0.7,0.9-1,1.2c-0.3,0.3-0.7,0.5-0.9,0.7c-0.2,0.1-0.4,0.2-0.4,0.2L122.1,159.4z"/>
			</g>
			<g opacity="0.59">
				<path fill="#474747" d="M98.4,159.6c0,0-0.1-0.1-0.2-0.3c-0.1-0.2-0.3-0.4-0.5-0.8c-0.4-0.7-0.8-1.6-1-2.6
					c-0.1-0.2-0.1-0.5-0.1-0.7c0-0.2,0-0.5,0-0.7c0-0.2,0-0.5,0-0.7c0-0.2,0-0.4,0.1-0.6c0.1-0.4,0.1-0.7,0.2-0.9
					c0.1-0.2,0.1-0.3,0.1-0.3s0,0.1,0,0.3c0,0.2-0.1,0.5-0.1,0.9c0,0.2,0,0.4,0,0.6c0,0.2,0,0.4,0.1,0.6c0,0.2,0.1,0.5,0.1,0.7
					c0.1,0.2,0.1,0.5,0.2,0.7c0.3,0.9,0.8,1.7,1.2,2.2c0.4,0.6,0.8,0.8,0.8,0.8L98.4,159.6z"/>
			</g>
			<g opacity="0.59">
				<path fill="#474747" d="M123.3,158.7c0,0,0.3,0,0.9-0.1c0.5-0.1,1.2-0.2,1.9-0.6c0.3-0.2,0.6-0.4,0.9-0.6
					c0.1-0.1,0.3-0.2,0.3-0.4c0.1-0.1,0.2-0.2,0.3-0.4c0.1-0.2,0.2-0.5,0.3-0.6c0.1-0.2,0.1-0.2,0.1-0.2s0,0.1,0,0.3
					c0,0.2-0.1,0.4-0.2,0.7c0,0.1-0.1,0.3-0.2,0.4c-0.1,0.2-0.2,0.3-0.3,0.4c-0.2,0.3-0.5,0.6-0.8,0.8c-1.3,0.9-2.9,1.2-2.9,1.2
					L123.3,158.7z"/>
			</g>
			<g opacity="0.59">
				<path fill="#474747" d="M101.7,159c0,0-0.2-0.3-0.3-0.7c-0.2-0.4-0.4-1-0.5-1.6c-0.3-1.2-0.1-2.4-0.1-2.4s0.1,1.2,0.6,2.3
					c0.2,0.5,0.5,1,0.8,1.4c0.2,0.4,0.4,0.5,0.4,0.5L101.7,159z"/>
			</g>
			<g opacity="0.59">
				<path fill="#474747" d="M114.7,160.2c0,0-0.3,0.7-0.6,1.8c-0.3,1.1-0.7,2.6-0.8,4.1c-0.1,0.8-0.1,1.5-0.1,2.3
					c0,0.4,0.1,0.7,0.1,1c0.1,0.3,0.1,0.6,0.2,0.9c0.1,0.3,0.2,0.5,0.3,0.7c0.1,0.2,0.2,0.4,0.3,0.6c0.2,0.3,0.2,0.5,0.2,0.5
					s-0.1-0.2-0.3-0.5c-0.1-0.2-0.2-0.3-0.3-0.5c-0.1-0.2-0.2-0.5-0.3-0.7c-0.1-0.3-0.2-0.6-0.3-0.9c-0.1-0.3-0.1-0.7-0.2-1
					c-0.1-0.7-0.1-1.5-0.1-2.3c0-1.6,0.3-3.2,0.5-4.3c0.2-1.2,0.5-1.9,0.5-1.9L114.7,160.2z"/>
			</g>
			<g opacity="0.59">
				<path fill="#474747" d="M116.5,159.9c0,0-0.1,0.3-0.1,0.8c-0.1,0.5-0.2,1.2-0.2,1.8c-0.1,1.4-0.1,2.7-0.1,2.7s-0.2-1.4-0.4-2.7
					c-0.1-0.7-0.1-1.4-0.1-1.9c0-0.5,0-0.9,0-0.9L116.5,159.9z"/>
			</g>
			<g opacity="0.59">
				<path fill="#474747" d="M88,158c0,0-0.1,0-0.2,0c-0.1,0-0.2-0.1-0.4-0.2c-0.3-0.1-0.7-0.4-0.9-0.7c-0.3-0.3-0.4-0.7-0.4-1
					c-0.1-0.3,0-0.5,0-0.5s0.1,0.2,0.2,0.4c0.1,0.2,0.4,0.5,0.6,0.7c0.3,0.2,0.6,0.3,0.8,0.3c0.1,0,0.2,0,0.3,0c0.1,0,0.1,0,0.1,0
					L88,158z"/>
			</g>
			<g opacity="0.59">
				<path fill="#474747" d="M136.2,157.8c0,0,0.1,0,0.1,0.1c0.1,0.1,0.2,0.1,0.3,0.2c0.2,0.2,0.4,0.5,0.5,0.8
					c0.3,0.6,0.3,1.2,0.3,1.2s-0.3-0.6-0.7-0.9c-0.2-0.2-0.4-0.3-0.6-0.4c-0.1,0-0.2,0-0.2-0.1c0,0,0,0-0.1,0L136.2,157.8z"/>
			</g>
			<g opacity="0.59">
				<path fill="#474747" d="M100.1,159.5c0,0-0.2,0.2-0.5,0.6c-0.3,0.4-0.7,0.9-0.9,1.5c-0.1,0.3-0.2,0.6-0.2,0.9c0,0.3,0,0.6,0,0.9
					c0.1,0.5,0.3,0.8,0.3,0.8c0,0-0.2-0.3-0.4-0.8c-0.1-0.2-0.2-0.6-0.2-0.9c0-0.3,0-0.7,0-1.1c0.1-0.7,0.4-1.4,0.7-1.9
					c0.3-0.5,0.5-0.8,0.5-0.8L100.1,159.5z"/>
			</g>
		</g>
		<g id="TETTEN">
			<path opacity="0.48" fill="#474747" d="M164.2,202.8c-1.1,0-2.4-0.1-3.9,0c-1.5,0.1-3.2,0.1-5.1,0.3c-0.9,0.1-1.9,0.2-2.9,0.3
				c-1,0.1-2,0.3-3.1,0.5c-0.5,0.1-1.1,0.2-1.6,0.3c-0.5,0.1-1.1,0.3-1.6,0.4c-1.1,0.3-2.2,0.5-3.4,0.9c-1.1,0.4-2.3,0.7-3.4,1.1
				c-1.1,0.4-2.3,0.9-3.5,1.4c-1.1,0.6-2.3,1-3.4,1.7c-1.1,0.6-2.3,1.2-3.3,1.9c-1.1,0.7-2.2,1.4-3.2,2.2c-0.5,0.4-1,0.8-1.5,1.2
				c-0.5,0.4-1,0.9-1.4,1.3c-1.2,1.1-2.4,2.3-3.4,3.6c-0.2-0.4-0.5-0.8-0.8-1.2c-0.3-0.4-0.6-0.9-1-1.4c-0.4-0.5-0.7-1-1.2-1.4
				c-0.4-0.5-0.9-1-1.4-1.5c-0.5-0.5-1-0.9-1.6-1.4c-1.1-1-2.4-1.9-3.6-2.8c-0.7-0.4-1.4-0.8-2-1.3c-0.7-0.4-1.4-0.9-2.1-1.2
				c-1.5-0.7-3-1.5-4.5-2c-0.8-0.3-1.5-0.6-2.3-0.9c-0.8-0.3-1.6-0.5-2.3-0.7c-0.8-0.2-1.5-0.4-2.3-0.6c-0.8-0.2-1.5-0.3-2.3-0.5
				c-1.5-0.3-2.9-0.6-4.3-0.8c-1.4-0.1-2.7-0.3-3.9-0.4c-1.2-0.2-2.3-0.2-3.3-0.2c-1,0-1.8-0.1-2.5-0.1c-1.4,0-2.2-0.1-2.2-0.1
				s0.8,0.1,2.2,0.3c0.7,0.1,1.5,0.2,2.5,0.3c1,0.1,2.1,0.2,3.2,0.5c1.2,0.2,2.5,0.5,3.8,0.8c1.3,0.3,2.7,0.8,4.2,1.1
				c0.7,0.2,1.5,0.4,2.2,0.7c0.7,0.3,1.4,0.6,2.2,0.8c0.7,0.3,1.5,0.5,2.2,0.9c0.7,0.3,1.4,0.7,2.1,1c1.4,0.6,2.7,1.5,4.1,2.3
				c0.7,0.4,1.3,0.8,1.9,1.3c0.6,0.5,1.2,0.9,1.8,1.3c1.1,1,2.2,1.8,3,2.8c0.9,0.9,1.7,1.9,2.4,2.8c0.3,0.4,0.6,0.9,0.9,1.3
				c0.3,0.4,0.5,0.8,0.7,1.2c0.5,0.8,0.8,1.5,1,2c0.2,0.4,0.3,0.8,0.4,1.1c-0.7,1.2-1.4,2.4-2,3.6c-1,2-1.6,4-2.1,5.8
				c-0.5,1.8-0.8,3.6-0.9,5.1c-0.2,1.5-0.1,2.9-0.1,4c0,1.1,0.2,2,0.2,2.5c0.1,0.6,0.2,0.9,0.2,0.9s0.1-1.2,0.6-3.3
				c0.2-1,0.6-2.3,1-3.7c0.5-1.4,1-2.9,1.7-4.6c0.7-1.6,1.6-3.3,2.7-5c1.1-1.7,2.3-3.4,3.7-5c0.7-0.8,1.5-1.6,2.2-2.4
				c0.4-0.4,0.8-0.8,1.2-1.1c0.4-0.4,0.8-0.8,1.3-1.1l1.3-1.1c0.4-0.4,0.9-0.7,1.4-1c0.9-0.7,1.9-1.3,2.9-2c1-0.7,2-1.2,3-1.8
				c1-0.6,2.1-1.1,3.1-1.6c1-0.5,2.1-1,3.1-1.4c1-0.5,2.1-0.8,3.1-1.3c1-0.5,2.1-0.7,3.1-1.1c0.5-0.2,1-0.4,1.5-0.5
				c0.5-0.2,1-0.3,1.5-0.5c1-0.3,1.9-0.6,2.9-0.9c0.9-0.3,1.9-0.5,2.7-0.8c1.7-0.5,3.4-0.9,4.8-1.3c1.4-0.4,2.7-0.7,3.8-0.9
				c2.1-0.5,3.3-0.8,3.3-0.8S166.4,202.9,164.2,202.8z"/>
			<path fill="#F4F2F2" d="M113.4,263c0,0,32.3-69.4,93.9-40c7.6,3.4,3.2,11.9-1.6,11.3c-4.8-0.6,9.2,2.1,2.9,10.1s5.7-1.3,0,9.3
				S169.9,308.3,113.4,263z"/>
			<path fill="#F2F2F2" d="M115.4,263c0,0-32.3-69.4-93.9-40c-7.6,3.4-3.2,11.9,1.6,11.3c4.8-0.6-9.2,2.1-2.9,10.1s-5.7-1.3,0,9.3
				S58.8,308.3,115.4,263z"/>
			<g opacity="0.2">
				<path d="M205.7,234.3c0,0-1.2-0.5-3.3-1.1c-2.1-0.6-5.3-1.4-9-1.8c-1.9-0.2-3.9-0.4-6.1-0.4c-2.2-0.1-4.4,0.1-6.8,0.2
					c-2.3,0.2-4.7,0.6-7.1,1.1c-1.2,0.2-2.4,0.6-3.6,0.9c-1.2,0.3-2.4,0.7-3.6,1.1c-2.4,0.8-4.7,1.8-6.9,2.8
					c-2.2,1.1-4.4,2.2-6.4,3.4c-1,0.6-2,1.2-3,1.8c-0.9,0.6-1.9,1.3-2.8,1.9c-0.9,0.6-1.7,1.3-2.6,1.9c-0.8,0.6-1.6,1.2-2.4,1.8
					c-0.7,0.6-1.5,1.2-2.1,1.7c-0.7,0.6-1.3,1.1-1.9,1.6c-1.2,1-2.2,1.9-3,2.7c-1.6,1.5-2.6,2.4-2.6,2.4s0.8-1,2.2-2.8
					c0.7-0.9,1.6-1.9,2.7-3.1c0.5-0.6,1.1-1.2,1.7-1.9c0.6-0.6,1.3-1.3,2-2c1.4-1.4,3-2.7,4.7-4.2c0.9-0.7,1.8-1.4,2.7-2.1
					c0.9-0.7,2-1.4,3-2.1c1-0.7,2.1-1.3,3.2-2c1.1-0.7,2.2-1.2,3.4-1.8c2.3-1.2,4.7-2.2,7.2-3.1c1.3-0.4,2.5-0.8,3.8-1.1
					c1.3-0.3,2.5-0.7,3.8-0.9c0.6-0.1,1.3-0.2,1.9-0.4c0.6-0.1,1.3-0.2,1.9-0.2c1.3-0.2,2.5-0.2,3.7-0.3c2.5-0.1,4.8-0.1,7.1,0.2
					c2.2,0.2,4.3,0.5,6.3,1c1.9,0.4,3.6,0.9,5.1,1.4c1.5,0.5,2.8,1.1,3.8,1.5c1,0.5,1.8,0.9,2.3,1.2
					C205.4,234.1,205.7,234.3,205.7,234.3z"/>
			</g>
			<g opacity="0.2">
				<path d="M23.1,234.3c0,0,1.3-0.7,3.7-1.6c2.4-0.9,5.9-2,10.3-2.9c2.2-0.4,4.6-0.8,7.1-0.9c2.5-0.2,5.2-0.3,8-0.1
					c2.8,0.1,5.7,0.4,8.6,0.9c1.4,0.3,2.9,0.5,4.3,0.9l2.2,0.5l2.1,0.6c2.9,0.9,5.6,2,8.3,3.2c1.3,0.6,2.6,1.3,3.9,2
					c1.3,0.7,2.5,1.5,3.7,2.2c1.2,0.7,2.3,1.5,3.4,2.3c1.1,0.8,2.1,1.6,3.1,2.4c1,0.8,2,1.6,2.8,2.4c0.9,0.8,1.8,1.5,2.5,2.3
					c1.6,1.6,3,3,4.2,4.4c1.2,1.3,2.2,2.5,3,3.6c1.6,2,2.4,3.2,2.4,3.2s-1.1-1-2.9-2.8c-0.9-0.9-2.1-1.9-3.4-3.1
					c-1.3-1.2-2.9-2.5-4.5-3.9c-0.8-0.7-1.8-1.4-2.7-2.1c-0.9-0.7-1.9-1.5-2.9-2.1c-2-1.4-4.2-2.8-6.6-4.2c-1.2-0.6-2.4-1.3-3.6-2
					c-1.3-0.6-2.5-1.2-3.8-1.8c-2.6-1.1-5.2-2.2-8-3l-2-0.6l-2.1-0.5c-1.4-0.4-2.8-0.6-4.2-0.9c-2.8-0.5-5.5-0.9-8.2-1.1
					c-2.7-0.2-5.3-0.3-7.8-0.3c-2.5,0-4.8,0.2-7,0.4c-2.2,0.2-4.1,0.5-5.9,0.8c-1.7,0.3-3.3,0.6-4.5,0.9
					C24.5,233.8,23.1,234.3,23.1,234.3z"/>
			</g>
			<g opacity="0.2">
				<path d="M21.5,248c0,0,4.1,3.2,10.8,7c1.7,0.9,3.5,1.9,5.5,2.9c2,1,4.1,1.9,6.2,2.9c2.2,0.9,4.5,1.8,6.9,2.6
					c2.4,0.8,4.8,1.6,7.2,2.2c2.5,0.6,4.9,1.2,7.4,1.6c2.5,0.4,4.9,0.8,7.3,1c1.2,0.1,2.3,0.2,3.5,0.3c1.1,0.1,2.3,0.2,3.4,0.1
					c1.1,0,2.2,0,3.2,0c1,0,2,0,3-0.1c1,0,1.9-0.1,2.7-0.2c0.9-0.1,1.7-0.1,2.5-0.2c1.5-0.2,2.9-0.3,4-0.5c2.2-0.3,3.5-0.5,3.5-0.5
					s-1.2,0.4-3.4,1.1c-1.1,0.3-2.4,0.6-4,1c-1.5,0.4-3.3,0.7-5.2,0.9c-1,0.1-2,0.2-3,0.4c-1.1,0.1-2.1,0.1-3.3,0.2
					c-1.1,0.1-2.3,0.1-3.5,0.1c-1.2,0-2.4,0-3.6-0.1c-1.2,0-2.5-0.2-3.7-0.3c-1.3-0.1-2.5-0.3-3.8-0.5c-2.6-0.4-5.1-1-7.7-1.6
					c-2.5-0.7-5-1.5-7.4-2.4c-2.4-0.9-4.7-1.9-7-3c-2.2-1.1-4.3-2.2-6.2-3.3c-1.9-1.1-3.7-2.3-5.3-3.4c-3.2-2.2-5.7-4.4-7.3-5.9
					C22.4,249,21.5,248,21.5,248z"/>
			</g>
			<g opacity="0.2">
				<path d="M206.5,248c0,0-0.7,1.2-2.1,3c-1.4,1.8-3.7,4.3-6.7,7c-1.5,1.3-3.2,2.7-5.2,4c-1.9,1.3-4,2.6-6.3,3.8
					c-2.3,1.2-4.7,2.2-7.2,3.1c-1.3,0.4-2.5,0.9-3.8,1.2c-0.7,0.2-1.3,0.4-2,0.5l-2,0.4c-2.7,0.6-5.4,0.9-8,1.1
					c-1.3,0.1-2.7,0.1-4,0.2c-1.3,0-2.6-0.1-3.9-0.1c-1.3-0.1-2.5-0.2-3.7-0.3c-1.2-0.1-2.4-0.3-3.5-0.5c-1.1-0.1-2.2-0.4-3.3-0.6
					c-1.1-0.2-2.1-0.4-3.1-0.7c-1.9-0.5-3.7-1-5.2-1.6c-1.5-0.5-2.9-1-3.9-1.5c-2.2-0.9-3.4-1.4-3.4-1.4s1.3,0.3,3.5,0.9
					c1.1,0.3,2.5,0.6,4.1,0.9c1.6,0.4,3.4,0.6,5.3,1c1,0.2,2,0.3,3,0.4c1.1,0.1,2.1,0.3,3.3,0.4c1.1,0.1,2.3,0.2,3.4,0.3
					c1.2,0,2.4,0.1,3.6,0.1c1.2,0,2.5,0,3.7-0.1c1.2-0.1,2.5-0.2,3.8-0.3c2.5-0.3,5.1-0.6,7.6-1.2l1.9-0.4c0.6-0.1,1.2-0.3,1.9-0.5
					c1.3-0.3,2.5-0.7,3.7-1.1c1.2-0.4,2.4-0.9,3.6-1.3c1.2-0.5,2.3-0.9,3.4-1.5c2.2-1,4.3-2.1,6.2-3.3c1.9-1.2,3.7-2.3,5.3-3.5
					c1.6-1.2,3-2.2,4.2-3.3c1.2-1,2.3-2,3.1-2.8C205.7,249,206.5,248,206.5,248z"/>
			</g>
			<g opacity="0.2">
				<path d="M44.5,246c0,0,0.3,0.1,0.7,0.3c0.5,0.2,1.2,0.5,2.1,0.9c0.9,0.4,2,0.8,3.2,1.3c1.2,0.5,2.6,1,4.2,1.6
					c1.5,0.6,3.2,1.2,4.9,1.9c1.7,0.7,3.6,1.3,5.5,2c1.9,0.7,3.9,1.2,6,1.9c2.1,0.6,4.1,1.3,6.2,1.8c2.1,0.5,4.2,1.2,6.3,1.6
					c1,0.2,2.1,0.5,3.1,0.7c1,0.3,2,0.4,3,0.6c1,0.2,2,0.3,2.9,0.5c1,0.2,1.9,0.3,2.8,0.4c1.8,0.2,3.6,0.6,5.2,0.6
					c1.6,0.1,3.1,0.3,4.4,0.4c1.3,0,2.5,0.1,3.4,0.1c1.9,0.1,3,0.2,3,0.2s-1.1,0.2-3,0.4c-1,0.1-2.1,0.3-3.5,0.4
					c-1.3,0.1-2.9,0.1-4.5,0.2c-1.7,0.1-3.5,0-5.4-0.1c-0.9-0.1-1.9-0.1-2.9-0.2c-1-0.1-2-0.3-3-0.4c-2.1-0.2-4.2-0.6-6.3-1.1
					c-2.1-0.4-4.3-1-6.4-1.5c-2.1-0.6-4.2-1.3-6.3-1.9c-1-0.3-2-0.7-3-1.1c-1-0.4-2-0.7-2.9-1.1c-1.9-0.8-3.8-1.5-5.5-2.4
					c-0.9-0.4-1.7-0.8-2.5-1.2c-0.8-0.4-1.6-0.8-2.3-1.2c-1.5-0.7-2.8-1.5-3.9-2.2c-1.2-0.7-2.2-1.3-3-1.8c-0.8-0.5-1.4-1-1.9-1.2
					C44.8,246.2,44.5,246,44.5,246z"/>
			</g>
			<g opacity="0.2">
				<path d="M124.7,263.1c0,0,4.5-0.9,11.4-2.3c1.7-0.4,3.5-0.7,5.5-1.1c1.9-0.4,4-0.9,6.1-1.3c2.1-0.5,4.3-1,6.5-1.5
					c2.2-0.5,4.5-1,6.7-1.6c1.1-0.3,2.2-0.5,3.4-0.8c1.1-0.3,2.2-0.6,3.3-0.9c1.1-0.3,2.2-0.6,3.3-0.9c1.1-0.3,2.1-0.6,3.2-0.9
					c1-0.3,2.1-0.6,3.1-0.9c1-0.3,2-0.6,2.9-0.9c1.9-0.6,3.7-1.1,5.3-1.6c1.6-0.5,3.2-1,4.5-1.4c1.3-0.5,2.5-0.9,3.5-1.2
					c1.9-0.6,3-1,3-1s-1,0.6-2.8,1.5c-0.9,0.5-2,1.1-3.3,1.7c-1.3,0.6-2.7,1.3-4.3,2c-1.6,0.7-3.3,1.4-5.2,2.1
					c-0.9,0.4-1.9,0.7-2.9,1.1c-1,0.4-2,0.7-3,1c-2.1,0.7-4.2,1.4-6.4,2c-2.2,0.7-4.5,1.3-6.7,1.8c-2.3,0.6-4.5,1-6.8,1.5
					c-2.2,0.5-4.5,0.8-6.6,1.3c-4.3,0.7-8.3,1.3-11.8,1.6c-1.7,0.2-3.3,0.3-4.7,0.4c-1.4,0.1-2.7,0.1-3.7,0.2
					C125.8,263.1,124.7,263.1,124.7,263.1z"/>
			</g>
		</g>
		<g id="haar">
			<path fill="#474747" d="M70.2,23c0,0,39.5-43.3,126.2-9.3c69.2,27.1,0.4,99.8,17.3,141.9s4.8,56.1,4.8,56.1s-6.6,14,8.5,18
				c-19.7-1.3-32-13.2-30.5-23.3c1.5-10,6.1-22.6,0-33c-6.1-10.4-23-41.2-9.6-87.1S70.2,23,70.2,23z"/>
			<g opacity="0.25">
				<path d="M209.3,211.4c1.5-10,6.1-22.6,0-33c-6.1-10.4-23-41.2-9.6-87.1c6.4-21.9-19.7-37.2-48.8-47.4
					c23.3,10,41.2,23.8,35.8,42.4c-13.4,45.9,3.5,76.7,9.6,87.1c6.1,10.4,1.5,22.9,0,33c-1.3,8.8,8.1,19.1,23.8,22.4
					C212.5,224.1,208.4,217.4,209.3,211.4z"/>
			</g>
			<path fill="#474747" d="M80.8,17.7c0,0,1.8-8.7-16.4-11.3S2.3,24.8,13.1,70.9c7.1,26.8,0.5,51.1,0.5,51.1s-3.3,8.6,0,15.1
				c0-5.1,1.4-7.4,2.6-9.9c1.2-2.5,12.6-15,12.1-28.3C27.8,85.7,52.5,36,71.8,30.3C82.2,26.7,80.8,17.7,80.8,17.7z"/>
			<path opacity="0.15" fill="#FFFFFF" d="M19.8,122.1c1.3-10.4,2-26.8-2.6-44.2C6.1,30.7,47.7,7.5,69.2,7.3c-1.4-0.4-3-0.7-4.7-0.9
				C46.3,3.7,2.3,24.8,13.1,70.9c7.1,26.8,0.5,51.1,0.5,51.1s-3.3,8.6,0,15.1c0-5.1,1.4-7.4,2.6-9.9
				C16.7,126.4,18.1,124.6,19.8,122.1z"/>
			<g opacity="0.22">
				<path d="M92.9,17.7c0,0,0.9-0.4,2.6-1.1c1.7-0.7,4.3-1.7,7.6-2.8c3.3-1.1,7.3-2.3,12.1-3.5c4.7-1.1,10.1-2.2,16.1-2.7
					c3-0.3,6.1-0.4,9.4-0.4c1.6,0,3.3,0.1,5,0.2c1.6,0.1,3.4,0.3,5.1,0.4c6.8,0.7,14,1.9,21.3,3.9c7.3,2,14.7,4.4,21.8,8.3
					c3.5,1.9,7,4.2,10.1,7.1c1.5,1.5,3,3.1,4.2,5l0.4,0.7l0.2,0.4l0.2,0.3c0.2,0.4,0.5,0.8,0.7,1.3c0.5,0.9,0.9,1.9,1.4,2.8
					c1.7,3.8,3,7.8,3.8,11.8c0.8,4.1,1,8.2,0.9,12.2c-0.2,8.1-1.9,15.8-3.8,23c-1.9,7.3-4.3,14-6.1,20.5c-1.8,6.5-3.4,12.7-4.3,18.5
					c-1,5.8-1.4,11.1-1.5,15.9c0,4.8,0.4,8.9,0.9,12.3c0.1,0.9,0.2,1.7,0.4,2.4c0.1,0.8,0.3,1.5,0.4,2.1c0.2,1.3,0.5,2.4,0.7,3.3
					c0.4,1.8,0.6,2.8,0.6,2.8s-0.3-0.9-0.9-2.7c-0.3-0.9-0.6-2-1-3.3c-0.2-0.6-0.4-1.3-0.6-2.1c-0.2-0.8-0.4-1.6-0.6-2.4
					c-0.4-1.7-0.7-3.6-1.1-5.7c-0.1-1-0.3-2.1-0.4-3.3c-0.1-1.1-0.2-2.3-0.3-3.5c-0.3-4.9-0.2-10.4,0.5-16.4c0.7-6,1.9-12.4,3.6-19
					c0.8-3.3,1.7-6.7,2.7-10.2c0.9-3.5,2-6.9,2.8-10.5c1.7-7.1,3-14.6,3.2-22.1c0.1-3.8-0.2-7.5-0.9-11.2c-0.7-3.7-1.9-7.2-3.5-10.7
					c-0.4-0.9-0.8-1.7-1.2-2.5c-0.2-0.4-0.5-0.9-0.7-1.3l-0.2-0.3l-0.2-0.3l-0.3-0.6c-0.9-1.5-2.1-2.8-3.4-4.1
					c-2.6-2.5-5.8-4.6-9-6.5c-6.6-3.6-13.7-6.3-20.7-8.3c-7-2-14-3.4-20.6-4.4c-1.7-0.2-3.3-0.4-4.9-0.6c-1.6-0.2-3.2-0.3-4.8-0.4
					c-3.1-0.2-6.2-0.2-9.1-0.1c-5.8,0.3-11.2,0.9-15.9,1.7c-4.7,0.8-8.8,1.7-12.2,2.5C96.6,16.4,92.9,17.7,92.9,17.7z"/>
			</g>
			<g opacity="0.22">
				<path d="M92.9,20.2c1.7-0.5,3.5-0.9,5.3-1.2c1.8-0.3,3.6-0.6,5.3-0.8c1.8-0.2,3.6-0.4,5.4-0.6c1.8-0.1,3.6-0.3,5.4-0.3
					c1.8,0,3.6-0.1,5.4,0l5.4,0.2l5.4,0.5l1.4,0.1l1.3,0.2l2.7,0.4l2.7,0.4c0.9,0.2,1.8,0.4,2.7,0.6c1.8,0.4,3.6,0.7,5.3,1.2
					l5.2,1.5c1.8,0.4,3.5,1.1,5.2,1.7l2.6,0.9c0.9,0.3,1.7,0.6,2.5,1l5,2.3c1.7,0.7,3.3,1.6,4.9,2.5l4.8,2.7l0.1,0l0,0l1.8,1.5
					c0.3,0.3,0.6,0.5,0.9,0.8l0.9,0.8c0.6,0.6,1.2,1.1,1.7,1.7l1.6,1.8c0.5,0.6,1,1.2,1.5,1.9c0.5,0.6,1,1.3,1.4,1.9
					c0.4,0.7,0.9,1.3,1.3,2l1.1,2.1c0.4,0.7,0.7,1.4,1,2.1l0.5,1.1l0.4,1.1c0.6,1.5,1,3,1.5,4.5c0.4,1.5,0.8,3,1,4.6
					c0.1,0.8,0.3,1.5,0.4,2.3c0.1,0.8,0.2,1.5,0.3,2.3l0.2,2.3l0.1,2.3c0,1.5,0,3.1,0,4.6c0,1.5-0.2,3.1-0.3,4.6
					c-0.1,1.5-0.3,3.1-0.6,4.6c-0.2,1.5-0.5,3-0.8,4.5c-0.3,1.5-0.6,3-1,4.5c-0.7,3-1.6,5.9-2.7,8.7c0.4-1.5,0.8-2.9,1.1-4.4
					c0.3-1.5,0.6-3,0.9-4.5c0.3-1.5,0.5-3,0.7-4.5c0.2-1.5,0.4-3,0.5-4.5c0.1-1.5,0.2-3,0.3-4.5c0.1-1.5,0.1-3,0.1-4.5
					c0-1.5-0.1-3-0.2-4.5l-0.2-2.2l-0.3-2.2c-0.1-0.7-0.2-1.5-0.3-2.2c-0.1-0.7-0.3-1.5-0.4-2.2c-0.3-1.5-0.7-2.9-1.1-4.3
					c-0.5-1.4-0.9-2.8-1.5-4.2l-0.4-1l-0.5-1c-0.3-0.7-0.6-1.3-1-2l-1.1-1.9c-0.4-0.6-0.8-1.2-1.2-1.8c-0.4-0.6-0.8-1.2-1.3-1.8
					c-0.5-0.6-0.9-1.2-1.4-1.7l-1.5-1.6c-0.5-0.5-1.1-1-1.6-1.5l-0.8-0.8c-0.3-0.2-0.6-0.5-0.9-0.7l-1.7-1.4l0.1,0.1l-4.7-2.6
					l-2.3-1.3c-0.8-0.5-1.6-0.8-2.4-1.2l-4.8-2.2c-0.8-0.4-1.6-0.7-2.5-1l-2.5-0.9c-1.7-0.6-3.3-1.3-5-1.8l-5.1-1.6
					c-1.7-0.5-3.5-0.8-5.2-1.3c-0.9-0.2-1.7-0.4-2.6-0.6l-2.6-0.5l-2.6-0.5l-1.3-0.2l-1.3-0.2l-5.3-0.7l-5.3-0.4
					c-1.8-0.1-3.6-0.1-5.4-0.2c-1.8,0-3.6,0-5.4,0c-1.8,0-3.6,0.1-5.4,0.2c-1.8,0.1-3.6,0.2-5.4,0.5C96.4,19.7,94.6,19.9,92.9,20.2z
					"/>
			</g>
		</g>
	</g>
</g>
<g id="lenny">
	<g class="body">
		<path fill="#E8887E" d="M192.1,397.1H37.2c-8.2,0-15-6.8-15-15V91c0-43.6,35.7-79.3,79.3-79.3h26.2c43.6,0,79.3,35.7,79.3,79.3
			v291.1C207.1,390.3,200.3,397.1,192.1,397.1z"/>
	</g>
	<g class="face">
		<circle opacity="0.2" cx="118.4" cy="98.9" r="28.1"/>
		<circle fill="#EAE9E5" cx="118.4" cy="92.9" r="28.1"/>
		<circle fill="#474747" cx="118.4" cy="92.9" r="18.1"/>
		<circle fill="#EAE9E5" cx="117.4" cy="92.9" r="4.1"/>
		<path fill="#EAE9E5" d="M110.8,89.3c2.5-3.6,8.9-3.3,5.4-5.8c-3.6-2.5-8.5-1.7-11,1.9c-2.5,3.6-1.7,8.5,1.9,11
			S108.3,92.8,110.8,89.3z"/>
		<path fill="none" stroke="#474747" stroke-width="4" stroke-linecap="round" stroke-miterlimit="10" d="M54,93
			c0,35,28.8,64.4,64.4,64.4c35.6,0,64.4-29.4,64.4-64.4"/>
		<path fill="none" stroke="#474747" stroke-width="4" stroke-linecap="round" stroke-miterlimit="10" d="M46.2,84.1
			c0,4.5,3.7,8.3,8.3,8.3c4.6,0,8.3-3.8,8.3-8.3"/>
		<path fill="none" stroke="#474747" stroke-width="4" stroke-linecap="round" stroke-miterlimit="10" d="M174.2,84.1
			c0,4.5,3.7,8.3,8.3,8.3s8.3-3.8,8.3-8.3"/>
		<g>
			<defs>
				<path id="SVGID_5_" d="M192.1,397.1H37.2c-8.2,0-15-6.8-15-15V91c0-43.6,35.7-79.3,79.3-79.3h26.2c43.6,0,79.3,35.7,79.3,79.3
					v291.1C207.1,390.3,200.3,397.1,192.1,397.1z"/>
			</defs>
			<clipPath id="SVGID_6_">
				<use xlink:href="#SVGID_5_"  overflow="visible"/>
			</clipPath>
			<g opacity="0.52" clip-path="url(#SVGID_6_)">
				<path fill="#FFFFFF" d="M32.7,59.3c0,0,0.4-1.1,1.2-2.8c0.8-1.7,2-4.2,3.7-6.9c1.7-2.8,3.9-5.9,6.5-9c1.3-1.5,2.8-3.1,4.3-4.6
					c1.5-1.5,3.1-3,4.8-4.4c1.7-1.4,3.5-2.7,5.2-3.9c1.8-1.2,3.6-2.3,5.4-3.3c1.8-1,3.6-1.8,5.3-2.5c0.9-0.3,1.7-0.7,2.5-1
					c0.8-0.3,1.6-0.6,2.4-0.8c1.6-0.5,3-0.9,4.3-1.2c1.3-0.3,2.4-0.5,3.4-0.7c1.9-0.3,2.9-0.4,2.9-0.4c0.4-0.1,0.7,0.2,0.8,0.6
					c0,0.2,0,0.3-0.1,0.4L85,19.5c0,0-0.2,0.3-0.6,1c-0.4,0.6-0.9,1.5-1.6,2.4c-0.7,1-1.5,2.2-2.4,3.4c-0.4,0.6-0.9,1.2-1.4,1.9
					c-0.5,0.7-1,1.2-1.5,1.9c-0.5,0.7-1,1.3-1.5,2c-0.5,0.7-1,1.3-1.6,2c-1.1,1.3-2.2,2.6-3.3,3.8c-1.1,1.2-2.3,2.4-3.5,3.6
					c-1.2,1.1-2.5,2.3-3.8,3.3c-1.3,1.1-2.7,2.1-4,3.1c-1.4,1-2.8,1.9-4.3,2.8c-1.5,0.9-3,1.7-4.6,2.6c-1.5,0.8-3.1,1.5-4.6,2.2
					c-1.5,0.7-3,1.3-4.4,1.9c-1.4,0.6-2.7,1-3.8,1.4c-1.1,0.4-2.1,0.7-2.7,0.9c-0.7,0.2-1.1,0.3-1.1,0.3l-0.7,0.2
					c-0.4,0.1-0.8-0.1-0.9-0.5C32.7,59.6,32.7,59.5,32.7,59.3z"/>
			</g>
		</g>
	</g>
</g>
<g id="dirk">
	<g class="body">
		<path fill="#D8AE36" d="M191.1,398.1H36.2c-8.2,0-15-6.8-15-15V92c0-43.6,35.7-79.3,79.3-79.3h26.2c43.6,0,79.3,35.7,79.3,79.3
			v291.1C206.1,391.3,199.3,398.1,191.1,398.1z"/>
	</g>
	<g class="face">
		<circle opacity="0.2" cx="79.2" cy="90.3" r="30.7"/>
		<circle opacity="0.2" cx="148.2" cy="90.3" r="30.7"/>
		<circle fill="#EAE9E5" cx="79.2" cy="85.3" r="30.7"/>
		<path fill="#DDDBD7" d="M95.3,59.2c2.9,4.7,4.6,10.2,4.6,16.1c0,16.9-13.7,30.7-30.7,30.7c-5.9,0-11.4-1.7-16.1-4.6
			c5.4,8.7,15.1,14.6,26.1,14.6c16.9,0,30.7-13.7,30.7-30.7C109.9,74.3,104,64.6,95.3,59.2z"/>
		<circle fill="#EAE9E5" cx="148.2" cy="85.3" r="30.7"/>
		<path fill="#DDDBD7" d="M158.2,106c-16.9,0-30.7-13.7-30.7-30.7c0-5.9,1.7-11.4,4.6-16.1c-8.7,5.4-14.6,15.1-14.6,26.1
			c0,16.9,13.7,30.7,30.7,30.7c11,0,20.7-5.8,26.1-14.6C169.6,104.3,164.1,106,158.2,106z"/>
		<circle fill="#474747" cx="69.2" cy="75.3" r="4.7"/>
		<circle fill="#474747" cx="158.2" cy="75.3" r="4.7"/>
		<circle fill="#474747" cx="115.9" cy="147.9" r="3.9"/>
		<g opacity="0.24">
			<path d="M35.2,156.3c0,0,0.4,0.6,1.3,1.8c0.8,1.2,2,3,3.7,5c0.8,1,1.7,2.2,2.8,3.4c1.1,1.2,2.2,2.5,3.4,3.9
				c1.3,1.3,2.7,2.7,4.2,4.1c1.6,1.4,3.1,2.8,4.9,4.3c0.9,0.7,1.8,1.4,2.7,2.1c0.5,0.4,0.9,0.7,1.4,1.1c0.5,0.4,1,0.7,1.5,1
				c1,0.7,2,1.4,3,2.1c1,0.7,2.1,1.3,3.2,2c2.2,1.4,4.5,2.6,6.9,3.8c0.6,0.3,1.2,0.6,1.8,0.9c0.6,0.3,1.2,0.6,1.9,0.8
				c1.2,0.6,2.5,1.2,3.8,1.6c5.2,2.2,10.8,3.5,16.5,4.8c1.4,0.2,2.9,0.5,4.3,0.7c0.7,0.1,1.5,0.2,2.2,0.3l2.2,0.2l2.2,0.2
				c0.7,0.1,1.5,0.1,2.2,0.1l4.3,0.1l4.6-0.1c0.8,0,1.6,0,2.3-0.1l2.2-0.2l2.2-0.2c0.7-0.1,1.4-0.1,2.2-0.3c1.5-0.2,2.9-0.5,4.3-0.7
				c5.7-1.2,11.3-2.6,16.5-4.8c1.3-0.5,2.6-1.1,3.8-1.6c0.6-0.3,1.2-0.6,1.9-0.8c0.6-0.3,1.3-0.5,1.8-0.9c2.4-1.3,4.8-2.4,6.9-3.8
				c1.1-0.7,2.2-1.3,3.2-2c1-0.7,2-1.4,3-2.1c0.5-0.3,1-0.7,1.5-1c0.5-0.4,0.9-0.7,1.4-1.1c0.9-0.7,1.8-1.4,2.7-2.1
				c1.7-1.5,3.3-2.9,4.9-4.3c1.5-1.5,2.9-2.8,4.2-4.1c1.2-1.4,2.4-2.7,3.4-3.9c1.1-1.2,1.9-2.4,2.8-3.4c1.7-2.1,2.8-3.8,3.7-5
				c0.8-1.2,1.3-1.8,1.3-1.8s-0.3,0.7-1,2c-0.7,1.3-1.5,3.2-3,5.5c-0.7,1.1-1.4,2.5-2.4,3.8c-0.9,1.3-2,2.8-3.1,4.3
				c-1.2,1.5-2.5,3-3.8,4.7c-1.5,1.5-3,3.2-4.6,4.8c-3.4,3.2-7.2,6.6-11.7,9.6c-2.2,1.6-4.6,2.9-7,4.4c-1.2,0.7-2.5,1.3-3.8,2
				c-1.3,0.6-2.6,1.3-4,1.8c-1.4,0.6-2.7,1.1-4.1,1.7c-1.4,0.5-2.9,1-4.3,1.5c-0.7,0.2-1.4,0.5-2.2,0.7c-0.7,0.2-1.5,0.4-2.2,0.6
				c-1.5,0.4-3,0.8-4.5,1.1c-1.5,0.3-3.1,0.6-4.6,0.8c-0.8,0.2-1.6,0.2-2.3,0.3l-2.4,0.3l-2.4,0.3c-0.8,0.1-1.5,0.1-2.3,0.1
				l-4.6,0.2l-4.8-0.2c-0.8,0-1.6,0-2.4-0.1l-2.3-0.3l-2.3-0.3c-0.8-0.1-1.6-0.2-2.3-0.3c-1.5-0.3-3.1-0.6-4.6-0.8
				c-1.5-0.3-3-0.7-4.5-1.1c-0.7-0.2-1.5-0.4-2.2-0.6c-0.7-0.2-1.5-0.5-2.2-0.7c-1.4-0.5-2.9-1-4.3-1.5c-1.4-0.6-2.8-1.1-4.1-1.7
				c-1.4-0.5-2.7-1.2-4-1.8c-1.3-0.7-2.6-1.2-3.8-2c-2.4-1.5-4.9-2.8-7-4.4c-4.5-3-8.3-6.4-11.7-9.6c-1.7-1.6-3.2-3.3-4.6-4.8
				c-1.3-1.6-2.6-3.2-3.8-4.7c-1.1-1.5-2.1-3-3.1-4.3c-0.9-1.3-1.7-2.7-2.4-3.8c-1.5-2.3-2.3-4.2-3-5.5
				C35.6,157,35.2,156.3,35.2,156.3z"/>
		</g>
		<circle opacity="0.25" cx="59.9" cy="34.9" r="3.2"/>
		<circle opacity="0.15" cx="59.9" cy="40.9" r="1.6"/>
		<circle opacity="0.2" cx="67.9" cy="34.9" r="1.6"/>
	</g>
</g>
<g id="boris">
	<g class="body">
		<path fill="#F794C1" d="M190.7,397.2H35.8c-8.3,0-15-6.8-15-15V91.1c0-43.6,35.7-79.3,79.3-79.3h26.2c43.6,0,79.3,35.7,79.3,79.3
			v291.1C205.7,390.5,198.9,397.2,190.7,397.2z"/>
	</g>
	<path fill="#F2F2F2" d="M180.7,172.1c0,27.5-30.1,49.9-67.3,49.9c-37.1,0-67.3-22.4-67.3-49.9c0-14.2-25.7-1.1-25.7-1.1l0,141
		c0,6.6,5.4,12,12,12c53.9,14.6,107.6,14.7,161,0c6.7,0,12-5.4,12-12V210.5l1-39.5C206.5,171,180.7,161.9,180.7,172.1z"/>
	<g opacity="0.42">
		<path fill="#353535" d="M52.5,255.7c0,0,0.4-0.2,1.3-0.6c0.8-0.4,2.1-0.9,3.7-1.5c1.6-0.6,3.5-1.3,5.8-2.1
			c2.3-0.7,4.8-1.5,7.7-2.2c1.4-0.4,2.9-0.8,4.4-1.1c1.5-0.3,3.1-0.7,4.8-1c1.6-0.4,3.3-0.7,5.1-0.9c1.7-0.3,3.5-0.6,5.3-0.9
			c1.8-0.2,3.7-0.4,5.5-0.7c1.9-0.2,3.8-0.4,5.7-0.5c3.8-0.3,7.8-0.5,11.7-0.5c2,0,3.9,0,5.9,0c2,0.1,3.9,0.2,5.8,0.3
			c1.9,0.1,3.8,0.2,5.7,0.4c1.9,0.2,3.7,0.5,5.6,0.7c1.8,0.3,3.6,0.4,5.4,0.7c1.7,0.3,3.4,0.7,5.1,1c1.6,0.3,3.3,0.7,4.8,1
			c1.5,0.4,3,0.8,4.4,1.2c2.8,0.8,5.4,1.6,7.7,2.3c2.2,0.9,4.2,1.7,5.7,2.3c1.6,0.6,2.8,1.2,3.6,1.5c0.8,0.4,1.3,0.6,1.3,0.6
			s-0.5-0.1-1.4-0.2c-0.9-0.1-2.2-0.3-3.9-0.6c-1.7-0.3-3.7-0.6-6-1c-2.3-0.3-4.9-0.6-7.8-1c-1.4-0.2-2.9-0.4-4.4-0.6
			c-1.5-0.1-3.1-0.3-4.8-0.4c-1.6-0.2-3.3-0.3-5-0.5c-1.7-0.1-3.5-0.2-5.3-0.3c-1.8-0.1-3.6-0.2-5.4-0.3c-0.9-0.1-1.8,0-2.8-0.1
			c-0.9,0-1.9,0-2.8-0.1c-1.9,0-3.8-0.1-5.6-0.1c-1.9,0-3.8,0-5.7,0.1c-3.8-0.1-7.6,0.2-11.4,0.3c-3.7,0.1-7.4,0.4-11,0.6
			c-1.8,0.1-3.5,0.3-5.3,0.4c-1.7,0.1-3.4,0.3-5,0.4c-1.6,0.2-3.2,0.3-4.8,0.4c-1.5,0.1-3,0.3-4.5,0.5c-2.9,0.3-5.5,0.6-7.8,0.9
			c-2.3,0.3-4.4,0.5-6.1,0.8C54.5,255.4,52.5,255.7,52.5,255.7z"/>
	</g>
	<g>
		<defs>
			<path id="SVGID_7_" d="M180.7,172.1c0,27.5-30.1,49.9-67.3,49.9c-37.1,0-67.3-22.4-67.3-49.9c0-14.2-25.7-1.1-25.7-1.1l0,141
				c0,6.6,5.4,12,12,12c53.9,14.6,107.6,14.7,161,0c6.7,0,12-5.4,12-12V210.5l1-39.5C206.5,171,180.7,161.9,180.7,172.1z"/>
		</defs>
		<clipPath id="SVGID_8_">
			<use xlink:href="#SVGID_7_"  overflow="visible"/>
		</clipPath>
		<path opacity="9.000000e-02" clip-path="url(#SVGID_8_)" d="M16.5,193.7c0,0,5.8-8.7,13.8-6c8,2.7-5.4,13.8-0.1,13.9
			s3.5,10.7,0.1,9.4s-13.9,7.1-13.9,6.9S16.5,193.7,16.5,193.7z"/>
		<path opacity="9.000000e-02" clip-path="url(#SVGID_8_)" d="M213.5,184.3c0,0-11.3-6.7-14,0c-2.7,6.7,3.3,8-4,13
			c-7.3,5,3.3,4.2,3.3,4.2s9.4,0.5,4.4,2.9s3,9.7,6.3,7.4S213.5,184.3,213.5,184.3z"/>
	</g>
	<g class="face">
		<g>
			<circle fill="#353535" cx="60.5" cy="96.9" r="8"/>
			<circle fill="#353535" cx="166.5" cy="96.9" r="8"/>
		</g>
		<path fill="none" stroke="#353535" stroke-width="8" stroke-linecap="round" stroke-miterlimit="10" d="M89.3,132.2
			c0,0,19.1-4.6,48.2,0"/>

			<line fill="none" stroke="#353535" stroke-width="18" stroke-linecap="round" stroke-miterlimit="10" x1="44.5" y1="71" x2="180.5" y2="71"/>
		<path fill="none" stroke="#353535" stroke-width="6" stroke-linecap="round" stroke-miterlimit="10" d="M92.5,13.5
			c0,0,4-10.5,20-10.5s19,10.5,19,10.5"/>
	</g>
</g>
<g id="filip">
	<g class="body">
		<path fill="#32E0AA" d="M189.3,399.2H34.4c-8.2,0-15-6.8-15-15V93.1c0-43.6,35.7-79.3,79.3-79.3h26.2c43.6,0,79.3,35.7,79.3,79.3
			v291.1C204.3,392.5,197.5,399.2,189.3,399.2z"/>
	</g>
	<g class="face">
		<g>
			<circle fill="#D3F4E9" cx="65.2" cy="106" r="38.1"/>
			<circle fill="#D3F4E9" cx="158.4" cy="106" r="38.1"/>
			<path fill="#353535" d="M65.2,80.9c-2,0-3.8,0.2-5.7,0.6c5.9,2,10.1,7.5,10.1,14.1c0,8.2-6.6,14.8-14.8,14.8
				c-6.5,0-12.1-4.2-14.1-10.1c-0.4,1.8-0.6,3.7-0.6,5.7c0,13.9,11.2,25.1,25.1,25.1s25.1-11.2,25.1-25.1S79.1,80.9,65.2,80.9z"/>
			<path fill="#353535" d="M158.4,80.9c-2,0-3.8,0.2-5.7,0.6c5.9,2,10.1,7.5,10.1,14.1c0,8.2-6.6,14.8-14.8,14.8
				c-6.5,0-12.1-4.2-14.1-10.1c-0.4,1.8-0.6,3.7-0.6,5.7c0,13.9,11.2,25.1,25.1,25.1s25.1-11.2,25.1-25.1S172.3,80.9,158.4,80.9z"/>
			<path fill="#494949" d="M110.7,150.2c0,6.2-5.1,11.3-11.3,11.3c-19.4,0-23.4,11-23.4,4.8s6.6-27.4,23.4-27.4
				C105.6,138.9,110.7,143.9,110.7,150.2z"/>
			<path fill="#494949" d="M112,150.2c0,6.2,5.1,11.3,11.3,11.3c19.4,0,23.4,11,23.4,4.8s-6.6-27.4-23.4-27.4
				C117.1,138.9,112,143.9,112,150.2z"/>
		</g>
		<path opacity="0.27" d="M118.9,225.9c3.5-1.7,5.8-5.2,5.8-9.3c0-5.7-4.6-10.4-10.4-10.4c-5.7,0-10.4,4.6-10.4,10.4
			c0,4.1,2.3,7.6,5.7,9.3l-12.5,98.5l17.1,22.4l17.1-22.4L118.9,225.9z"/>
		<g id="DAS">
			<g>
				<defs>
					<polygon id="SVGID_9_" points="128.7,321.7 115,214 108.2,214 94.5,321.7 111.6,344.1 					"/>
				</defs>
				<clipPath id="SVGID_10_">
					<use xlink:href="#SVGID_9_"  overflow="visible"/>
				</clipPath>
				<polygon clip-path="url(#SVGID_10_)" fill="#FFFFFF" points="128.7,321.7 115,214 108.2,214 94.5,321.7 111.6,344.1 				"/>
				<g clip-path="url(#SVGID_10_)">

						<rect x="25.8" y="249.7" transform="matrix(0.7071 -0.7071 0.7071 0.7071 -153.7273 136.4294)" fill="#FF5050" width="124" height="8.2"/>

						<rect x="35.3" y="259.1" transform="matrix(0.7071 -0.7071 0.7071 0.7071 -157.64 145.8753)" fill="#FF5050" width="124" height="8.2"/>

						<rect x="44.7" y="268.6" transform="matrix(0.7071 -0.7071 0.7071 0.7071 -161.5526 155.3213)" fill="#FF5050" width="124" height="8.2"/>

						<rect x="54.2" y="278" transform="matrix(0.7071 -0.7071 0.7071 0.7071 -165.4653 164.7673)" fill="#FF5050" width="124" height="8.2"/>

						<rect x="63.6" y="287.5" transform="matrix(0.7071 -0.7071 0.7071 0.7071 -169.3779 174.2132)" fill="#FF5050" width="124" height="8.2"/>

						<rect x="73.1" y="296.9" transform="matrix(0.7071 -0.7071 0.7071 0.7071 -173.2905 183.6592)" fill="#FF5050" width="124" height="8.2"/>

						<rect x="82.5" y="306.4" transform="matrix(0.7071 -0.7071 0.7071 0.7071 -177.2032 193.1052)" fill="#FF5050" width="124" height="8.2"/>
				</g>
			</g>
			<path opacity="0.15" d="M106.7,225.2c1.5,0.8,3.2,1.5,5,1.5c1.8,0,3.4-0.8,4.9-1.6L115,213h-6.8L106.7,225.2z"/>
			<g>
				<defs>
					<circle id="SVGID_11_" cx="111.7" cy="214" r="10.4"/>
				</defs>
				<defs>
					<circle id="SVGID_12_" cx="111.7" cy="214" r="10.4"/>
				</defs>
				<use xlink:href="#SVGID_11_"  overflow="visible" fill="#FFFFFF"/>
				<clipPath id="SVGID_13_">
					<use xlink:href="#SVGID_11_"  overflow="visible"/>
				</clipPath>
				<clipPath id="SVGID_14_" clip-path="url(#SVGID_13_)">
					<use xlink:href="#SVGID_12_"  overflow="visible"/>
				</clipPath>
				<g clip-path="url(#SVGID_14_)">

						<rect x="14.3" y="204.7" transform="matrix(0.7071 -0.7071 0.7071 0.7071 -125.267 115.0772)" fill="#FF5050" width="124" height="8.2"/>

						<rect x="23.7" y="214.1" transform="matrix(0.7071 -0.7071 0.7071 0.7071 -129.1796 124.5232)" fill="#FF5050" width="124" height="8.2"/>

						<rect x="33.2" y="223.6" transform="matrix(0.7071 -0.7071 0.7071 0.7071 -133.0923 133.9691)" fill="#FF5050" width="124" height="8.2"/>

						<rect x="42.6" y="233" transform="matrix(0.7071 -0.7071 0.7071 0.7071 -137.0049 143.4151)" fill="#FF5050" width="124" height="8.2"/>

						<rect x="52.1" y="242.5" transform="matrix(0.7071 -0.7071 0.7071 0.7071 -140.9176 152.861)" fill="#FF5050" width="124" height="8.2"/>

						<rect x="61.5" y="251.9" transform="matrix(0.7071 -0.7071 0.7071 0.7071 -144.8302 162.307)" fill="#FF5050" width="124" height="8.2"/>

						<rect x="71" y="261.3" transform="matrix(0.7071 -0.7071 0.7071 0.7071 -148.7429 171.753)" fill="#FF5050" width="124" height="8.2"/>
				</g>
				<path opacity="0.22" clip-path="url(#SVGID_14_)" d="M90.5,187v40h37v-40H90.5z M107.7,220.3c-5.7,0-10.4-4.6-10.4-10.4
					c0-5.7,4.6-10.4,10.4-10.4c5.7,0,10.4,4.6,10.4,10.4C118.1,215.7,113.4,220.3,107.7,220.3z"/>
			</g>
		</g>
	</g>
</g>
<g id="daryl">
	<g>
		<path fill="#666666" d="M174.2,29c28.9,20.7,47.8,54.5,47.8,92.8c0,63-51,114-114,114c-22.1,0-42.7-6.3-60.2-17.2
			c18.7,13.3,41.5,21.2,66.2,21.2c63,0,114-51,114-114C228,85,206.5,49.1,174.2,29z"/>
		<path fill="#333333" d="M222,121.8c0-38.3-18.9-72.1-47.8-92.8c-17.5-10.9-38.1-17.2-60.2-17.2c-63,0-114,51-114,114
			c0,38.3,18.9,72.1,47.8,92.8c17.5,10.9,38.1,17.2,60.2,17.2C171,235.8,222,184.8,222,121.8z"/>
	</g>
	<g class="body">
		<path fill="#B235DB" d="M191.4,397.2H36.6c-8.3,0-15-5.1-15-11.4V164.1c0-33.2,35.7-60.4,79.3-60.4h26.2
			c43.6,0,79.3,27.2,79.3,60.4v221.7C206.4,392.1,199.7,397.2,191.4,397.2z"/>
	</g>
	<g class="face">
		<path fill="#48E5C6" d="M88.8,208.5H58.2c-9.9,0-18-8.1-18-18v-30.7c0-9.9,8.1-18,18-18h30.7c9.9,0,18,8.1,18,18v30.7
			C106.8,200.4,98.7,208.5,88.8,208.5z"/>
		<path fill="#48E5C6" d="M169.8,208.5h-30.7c-9.9,0-18-8.1-18-18v-30.7c0-9.9,8.1-18,18-18h30.7c9.9,0,18,8.1,18,18v30.7
			C187.8,200.4,179.7,208.5,169.8,208.5z"/>
		<polyline fill="none" stroke="#D4F9F7" stroke-width="10" stroke-linejoin="round" stroke-miterlimit="10" points="186.3,160
			149.3,197.3 155.3,153.5 120.6,189.1 		"/>
		<polyline fill="none" stroke="#D4F9F7" stroke-width="10" stroke-linejoin="round" stroke-miterlimit="10" points="106.3,160
			69.3,197.3 75.3,153.5 40.6,189.1 		"/>
		<path fill="none" stroke="#494949" stroke-width="8" stroke-miterlimit="10" d="M88.8,208.5H58.2c-9.9,0-18-8.1-18-18v-30.7
			c0-9.9,8.1-18,18-18h30.7c9.9,0,18,8.1,18,18v30.7C106.8,200.4,98.7,208.5,88.8,208.5z"/>
		<path fill="none" stroke="#494949" stroke-width="8" stroke-miterlimit="10" d="M169.8,208.5h-30.7c-9.9,0-18-8.1-18-18v-30.7
			c0-9.9,8.1-18,18-18h30.7c9.9,0,18,8.1,18,18v30.7C187.8,200.4,179.7,208.5,169.8,208.5z"/>
		<line fill="#48E5C6" stroke="#494949" stroke-width="8" stroke-miterlimit="10" x1="107.5" y1="163" x2="121.5" y2="163"/>
	</g>
	<path fill="#B235DB" d="M219.8,63.6c-6.8-4.9-13.3-20.3-3.9-21.8c1.6-0.2,2.9-1.2,4-2.4c2.8-3.3,3.1-8.1,0.3-11.4
		c-3.9-4.6-10.6-4.2-13.8,0.3c-1.2,1.6-1.9,3.6-1.6,5.4c1.5,9.5-16.1,7.2-21.7,3.1c-3-2.2-7.2-1.5-9.4,1.5L154.1,65
		c0.8,0.4,1.7,0.8,2.6,1l14.8-20.3c0.3-0.4,0.8-0.4,1.1-0.2l1.8,1.3c0.4,0.3,0.4,0.8,0.2,1.1l-13.5,18.6c0.8,0,1.5-0.1,2.1-0.1
		L176,48.9c0.3-0.4,0.8-0.4,1.1-0.2l1.8,1.3c0.4,0.3,0.4,0.8,0.2,1.1l-12.2,16.8c0.4,0.3,0.7,0.7,1.1,1.2l12.4-17
		c0.3-0.4,0.8-0.4,1.1-0.2l1.8,1.3c0.4,0.3,0.4,0.8,0.2,1.1l-13.2,18.1c0.3,0.5,0.6,1,0.9,1.5l13.5-18.6c0.3-0.4,0.8-0.4,1.1-0.2
		l1.8,1.3c0.4,0.3,0.4,0.8,0.2,1.1l-14.3,19.6c0.4,0.5,0.7,0.9,1.1,1.3l14.5-19.9c0.3-0.4,0.8-0.4,1.1-0.2l1.8,1.3
		c0.4,0.3,0.4,0.8,0.2,1.1l-14.8,20.3c0.5,0.3,0.9,0.6,1.4,0.9l14.7-20.2c0.3-0.4,0.8-0.4,1.1-0.2l1.8,1.3c0.4,0.3,0.4,0.8,0.2,1.1
		l-14.2,19.6c0.7,0.2,1.2,0.3,1.8,0.4l13.8-19c0.3-0.4,0.8-0.4,1.1-0.2l1.8,1.3c0.4,0.3,0.4,0.8,0.2,1.1l-12.4,17
		c0.5,0.2,1,0.4,1.5,0.8l12.3-16.8c0.3-0.4,0.8-0.4,1.1-0.2l1.8,1.3c0.4,0.3,0.4,0.8,0.2,1.1L191.4,90c0,0,0,0,0,0
		c-0.2,0.9,0,1.7,0.3,2.3l15.2-20.9c0.3-0.4,0.8-0.4,1.1-0.2l1.8,1.3c0.4,0.3,0.4,0.8,0.2,1.1l-15.4,21.1c0.5,0.2,1,0.4,1.6,0.6
		l15.1-20.8c0.3-0.4,0.8-0.4,1.1-0.2l1.8,1.3c0.4,0.3,0.4,0.8,0.2,1.1l-14.2,19.5c1.4,0.2,2.7,0.4,3.7,0.5L221.3,73
		C223.5,70,222.8,65.8,219.8,63.6z M210.5,31.6c1.1-1.5,3.1-1.8,4.6-0.7c1.5,1.1,1.8,3.1,0.7,4.6c-1.1,1.5-3.1,1.8-4.6,0.7
		C209.8,35.1,209.5,33.1,210.5,31.6z"/>
	<path opacity="0.3" d="M206.5,322h-54v-4.8c0-6.6-5.4-12.2-12-12.2H87.5c-6.6,0-11.9,5.6-11.9,12.2v4.8h-54v20h54v4.8
		c0,6.6,5.3,12.2,11.9,12.2h53.1c6.6,0,12-5.7,12-12.2V342h54V322z"/>
	<g id="belt">
		<rect x="21.6" y="320" fill="#E0E0E0" width="184.9" height="20"/>
		<g id="buckle">
			<path fill="#EFBD41" d="M140.5,303.2H87.5c-6.6,0-12,5.4-12,12v29.5c0,6.6,5.4,12,12,12h53.1c6.6,0,12-5.4,12-12v-29.5
				C152.5,308.6,147.1,303.2,140.5,303.2z"/>
			<path fill="#303030" d="M131.8,309.3H96.2c-6.6,0-12,5.4-12,12v17.4c0,6.6,5.4,12,12,12h35.7c6.6,0,12-5.4,12-12v-17.4
				C143.8,314.7,138.4,309.3,131.8,309.3z"/>
			<g id="led_array">
				<circle fill="#8E8E8E" cx="90.3" cy="319.7" r="2.3"/>
				<circle fill="#00FFFF" cx="102.2" cy="319.7" r="2.3"/>
				<circle fill="#8E8E8E" cx="114" cy="319.7" r="2.3"/>
				<circle fill="#00FFFF" cx="120" cy="319.7" r="2.3"/>
				<circle fill="#8E8E8E" cx="131.8" cy="319.7" r="2.3"/>
				<circle fill="#8E8E8E" cx="137.7" cy="319.7" r="2.3"/>
				<circle fill="#00FFFF" cx="125.9" cy="319.7" r="2.3"/>
				<circle fill="#00FFFF" cx="108.1" cy="319.7" r="2.3"/>
				<circle fill="#8E8E8E" cx="96.3" cy="319.7" r="2.3"/>
				<circle fill="#8E8E8E" cx="90.3" cy="324.9" r="2.3"/>
				<circle fill="#8E8E8E" cx="102.2" cy="324.7" r="2.3"/>
				<circle fill="#00FFFF" cx="114" cy="324.7" r="2.3"/>
				<circle fill="#8E8E8E" cx="120" cy="324.7" r="2.3"/>
				<circle fill="#00FFFF" cx="131.8" cy="324.7" r="2.3"/>
				<circle fill="#8E8E8E" cx="137.7" cy="324.9" r="2.3"/>
				<circle fill="#8E8E8E" cx="125.9" cy="324.7" r="2.3"/>
				<circle fill="#8E8E8E" cx="108.1" cy="324.7" r="2.3"/>
				<circle fill="#00FFFF" cx="96.3" cy="324.7" r="2.3"/>
				<circle fill="#8E8E8E" cx="90.3" cy="330.2" r="2.3"/>
				<circle fill="#8E8E8E" cx="114" cy="330.2" r="2.3"/>
				<circle fill="#8E8E8E" cx="120" cy="330.2" r="2.3"/>
				<circle fill="#8E8E8E" cx="131.8" cy="330.2" r="2.3"/>
				<circle fill="#8E8E8E" cx="137.7" cy="330.2" r="2.3"/>
				<circle fill="#00FFFF" cx="125.9" cy="330.2" r="2.3"/>
				<circle fill="#8E8E8E" cx="108.1" cy="330.2" r="2.3"/>
				<circle fill="#8E8E8E" cx="96.3" cy="330.2" r="2.3"/>
				<circle fill="#8E8E8E" cx="90.3" cy="335.5" r="2.3"/>
				<circle fill="#8E8E8E" cx="102.2" cy="335.7" r="2.3"/>
				<circle fill="#8E8E8E" cx="114" cy="335.7" r="2.3"/>
				<circle fill="#8E8E8E" cx="131.8" cy="335.7" r="2.3"/>
				<circle fill="#8E8E8E" cx="137.7" cy="335.5" r="2.3"/>
				<circle fill="#8E8E8E" cx="125.9" cy="335.7" r="2.3"/>
				<circle fill="#00FFFF" cx="108.1" cy="335.7" r="2.3"/>
				<circle fill="#8E8E8E" cx="96.3" cy="335.7" r="2.3"/>
				<circle fill="#8E8E8E" cx="90.3" cy="340.7" r="2.3"/>
				<circle fill="#8E8E8E" cx="102.2" cy="340.7" r="2.3"/>
				<circle fill="#00FFFF" cx="114" cy="340.7" r="2.3"/>
				<circle fill="#8E8E8E" cx="120" cy="340.7" r="2.3"/>
				<circle fill="#8E8E8E" cx="131.8" cy="340.7" r="2.3"/>
				<circle fill="#8E8E8E" cx="137.7" cy="340.7" r="2.3"/>
				<circle fill="#8E8E8E" cx="125.9" cy="340.7" r="2.3"/>
				<circle fill="#8E8E8E" cx="108.1" cy="340.7" r="2.3"/>
				<circle fill="#8E8E8E" cx="96.3" cy="340.7" r="2.3"/>
				<circle fill="#8E8E8E" cx="102.2" cy="313.7" r="2.3"/>
				<circle fill="#8E8E8E" cx="114" cy="313.7" r="2.3"/>
				<circle fill="#8E8E8E" cx="120" cy="313.7" r="2.3"/>
				<circle fill="#8E8E8E" cx="131.8" cy="313.7" r="2.3"/>
				<circle fill="#8E8E8E" cx="125.9" cy="313.7" r="2.3"/>
				<circle fill="#8E8E8E" cx="108.1" cy="313.7" r="2.3"/>
				<circle fill="#8E8E8E" cx="96.3" cy="313.7" r="2.3"/>
				<circle fill="#8E8E8E" cx="102.2" cy="346.7" r="2.3"/>
				<circle fill="#8E8E8E" cx="114" cy="346.7" r="2.3"/>
				<circle fill="#8E8E8E" cx="120" cy="346.7" r="2.3"/>
				<circle fill="#8E8E8E" cx="131.8" cy="346.7" r="2.3"/>
				<circle fill="#8E8E8E" cx="125.9" cy="346.7" r="2.3"/>
				<circle fill="#8E8E8E" cx="108.1" cy="346.7" r="2.3"/>
				<circle fill="#8E8E8E" cx="96.3" cy="346.7" r="2.3"/>
				<circle fill="#00FFFF" cx="102.2" cy="330.2" r="2.3"/>
				<circle fill="#00FFFF" cx="120" cy="335.7" r="2.3"/>
			</g>
			<g opacity="0.6">
				<path fill="#FFFFFF" d="M76.4,314c0,0,0.1-1,0.5-2.3c0.1-0.3,0.2-0.7,0.4-1.1c0.1-0.4,0.3-0.8,0.5-1.2c0.4-0.8,0.9-1.6,1.5-2.4
					c0.3-0.3,0.6-0.7,1-1c0.4-0.3,0.7-0.6,1.1-0.8c0.2-0.1,0.4-0.2,0.6-0.3c0.2-0.1,0.4-0.2,0.6-0.2c0.2-0.1,0.4-0.1,0.6-0.2
					c0.2-0.1,0.4-0.1,0.5-0.1c0.4-0.1,0.7-0.2,1-0.2c0.3,0,0.5,0,0.7,0c0.4,0,0.6,0,0.6,0c0.1,0,0.1,0.1,0.1,0.1c0,0,0,0.1,0,0.1
					l-0.1,0.1c0,0-0.2,0.2-0.6,0.6c-0.2,0.2-0.4,0.3-0.6,0.5c-0.2,0.2-0.4,0.5-0.7,0.7c-0.2,0.2-0.5,0.4-0.7,0.7
					c-0.1,0.1-0.2,0.2-0.3,0.3c-0.1,0.1-0.2,0.3-0.3,0.4c-0.1,0.1-0.2,0.2-0.3,0.3c-0.1,0.1-0.2,0.3-0.3,0.4
					c-0.2,0.2-0.4,0.5-0.6,0.7c-0.2,0.3-0.4,0.5-0.7,0.8c-0.2,0.3-0.5,0.5-0.7,0.8c-0.3,0.3-0.5,0.6-0.7,0.8
					c-0.3,0.3-0.5,0.5-0.8,0.8c-0.2,0.3-0.5,0.5-0.7,0.7c-0.2,0.2-0.4,0.4-0.6,0.6c-0.4,0.3-0.6,0.5-0.6,0.5l-0.1,0.1
					C76.5,314.1,76.5,314.1,76.4,314C76.4,314,76.4,314,76.4,314z"/>
			</g>
			<g opacity="0.6">
				<path fill="#FFFFFF" d="M141.4,304.2c0,0,1,0.1,2.3,0.5c0.3,0.1,0.7,0.2,1.1,0.4c0.4,0.1,0.8,0.3,1.2,0.5
					c0.8,0.4,1.6,0.9,2.4,1.5c0.3,0.3,0.7,0.6,1,1c0.3,0.4,0.6,0.7,0.8,1.1c0.1,0.2,0.2,0.4,0.3,0.6c0.1,0.2,0.2,0.4,0.2,0.6
					c0.1,0.2,0.1,0.4,0.2,0.6c0.1,0.2,0.1,0.4,0.1,0.5c0.1,0.4,0.2,0.7,0.2,1c0,0.3,0,0.5,0,0.7c0,0.4,0,0.6,0,0.6
					c0,0.1-0.1,0.1-0.1,0.1c0,0-0.1,0-0.1,0l-0.1-0.1c0,0-0.2-0.2-0.6-0.6c-0.2-0.2-0.3-0.4-0.5-0.6c-0.2-0.2-0.5-0.4-0.7-0.7
					c-0.2-0.2-0.4-0.5-0.7-0.7c-0.1-0.1-0.2-0.2-0.3-0.3c-0.1-0.1-0.3-0.2-0.4-0.3c-0.1-0.1-0.2-0.2-0.3-0.3
					c-0.1-0.1-0.3-0.2-0.4-0.3c-0.2-0.2-0.5-0.4-0.7-0.6c-0.3-0.2-0.5-0.4-0.8-0.7c-0.3-0.2-0.5-0.5-0.8-0.7
					c-0.3-0.3-0.6-0.5-0.8-0.7c-0.3-0.3-0.5-0.5-0.8-0.8c-0.3-0.2-0.5-0.5-0.7-0.7c-0.2-0.2-0.4-0.4-0.6-0.6
					c-0.3-0.4-0.5-0.6-0.5-0.6l-0.1-0.1C141.3,304.4,141.3,304.3,141.4,304.2C141.4,304.2,141.4,304.2,141.4,304.2z"/>
			</g>
		</g>
		<circle opacity="0.93" fill="#303030" cx="68" cy="330.2" r="2.3"/>
		<circle opacity="0.93" fill="#303030" cx="60" cy="330.2" r="2.3"/>
		<rect x="184.4" y="319" fill="#EFBD41" width="3.5" height="21.7"/>
	</g>
</g>
</svg>
