<?xml version="1.0" encoding="utf-8"?>
<!-- Generator: Adobe Illustrator 18.1.1, SVG Export Plug-In . SVG Version: 6.00 Build 0)  -->
<!DOCTYPE svg PUBLIC "-//W3C//DTD SVG 1.1//EN" "http://www.w3.org/Graphics/SVG/1.1/DTD/svg11.dtd">
<svg version="1.1" id="Layer_1" xmlns="http://www.w3.org/2000/svg" xmlns:xlink="http://www.w3.org/1999/xlink" x="0px" y="0px"
	 width="729.9px" height="1275.7px" viewBox="0 0 729.9 1275.7" enable-background="new 0 0 729.9 1275.7" xml:space="preserve">
<g id="boris" transform="scale(0.1,0.1)">
	<path fill="#F794C1" d="M1528.9,3179H289.3c-65.3,0-120.3-54-120.3-120.3V729.1c0-348.8,285.8-634.5,634.5-634.5h209.3
		c348.8,0,634.5,285.8,634.5,634.5v2329.7C1649.1,3125,1595.1,3179,1528.9,3179z"/>
	<g>
		<g>
			<circle fill="#353535" cx="487" cy="775.1" r="64"/>
			<circle fill="#353535" cx="1335.3" cy="775.1" r="64"/>
		</g>
		<path fill="#353535" d="M1103.6,1090.1c-1,0-3.3,0-4.5,0c-223.8-34.8-372.3-1-373.5-1c-16.8,4.5-34.8-6.8-38.3-23.5
			c-4.5-16.8,6.8-34.8,23.5-38.3c6.8-1,162-37,398.3-1c18,2.3,29.3,19,25.8,37C1132.8,1078.8,1119.3,1090.1,1103.6,1090.1z"/>
		<path fill="#353535" d="M1447.9,640H358.8c-40.5,0-72-31.5-72-72s31.5-72,72-72h1088.8c40.5,0,72,31.5,72,72
			S1488.4,640,1447.9,640z"/>
	</g>
	<path fill="#F2F2F2" d="M1448.9,1376.8c0,220.5-240.8,399.3-538.8,399.3c-297,0-538.8-178.8-538.8-399.3c1-113.5-204.8-9-204.8-9
		v1129.3c0,52.8,42.8,95.5,95.5,95.5c430.8,117,861.8,118,1289.1,0c54,0,95.5-42.8,95.5-95.5v-812.1l7.8-316
		C1655.9,1369.1,1448.9,1295.8,1448.9,1376.8z"/>
	<path opacity="0.42" fill="#353535" enable-background="new    " d="M423,2046.1c0,0,3.3-1.3,10-4.5c6.8-3.3,16.8-6.8,29.3-12.3
		c12.3-4.5,28-10,46-16.8c18-5.5,38.3-12.3,61.8-18c11.3-3.3,23.5-6.8,34.8-9c12.3-2.3,24.8-5.5,38.3-7.8
		c12.3-3.3,25.8-5.5,40.5-6.8c13.5-2.3,28-4.5,42.8-6.8c14.5-1.3,29.3-3.3,43.8-5.5c15.8-1,30.3-3.3,46-4.5
		c30.3-2.3,61.8-4.5,93.3-4.5c15.8,0,31.5,0,47.3,0c15.8,1,31.5,1,46,2.3c15.8,1,30.3,1,46,3.3c15.8,1.3,29.3,4.5,45,5.5
		c14.5,2.3,29.3,3.3,42.8,5.5c13.5,2.3,27,5.5,40.5,7.8c12.3,2.3,25.8,5.5,38.3,7.8c12.3,3.3,23.5,6.8,34.8,10
		c22.5,6.8,42.8,12.3,61.8,18c18,6.8,33.8,13.5,46,18c12.3,4.5,22.5,10,29.3,12.3c6.8,3.3,10,4.5,10,4.5s-4.5-1-11.3-1
		c-6.8-1-18-2.3-31.5-4.5c-13.5-2.3-29.3-4.5-48.3-7.8c-18-2.3-39.3-4.5-61.8-7.8c-11.3-1-23.5-3.3-34.8-4.5
		c-12.3-1-24.8-2.3-38.3-3.3c-12.3-1-25.8-2.3-40.5-4.5c-13.5-1-28-1-42.8-2.3s-29.3-1.3-42.8-2.3c-6.8-1-14.5,0-22.5-1
		c-6.8,0-15.8,0-22.5-1c-15.8,0-30.3-1.3-45-1.3c-15.8,0-30.3,0-46,1.3c-30.3-1.3-60.8,1-91,2.3c-29.3,1-59.5,3.3-87.8,4.5
		c-14.5,1.3-28,2.3-42.8,3.3c-13.5,1-27,2.3-40.5,3.3c-12.3,1-25.8,2.3-38.3,3.3c-12.3,1-23.5,2.3-36,4.5
		c-23.5,2.3-43.8,4.5-61.8,6.8c-18,2.3-34.8,4.5-48.3,6.8C438.8,2043.9,423,2046.1,423,2046.1z"/>
	<g>
		<g>
			<g>
				<g>
					<defs>
						<path id="SVGID_2_" d="M1448.9,1376.8c0,220.5-240.8,399.3-538.8,399.3c-297,0-538.8-178.8-538.8-399.3
							c1-113.5-204.8-9-204.8-9v1129.3c0,52.8,42.8,95.5,95.5,95.5c430.8,117,861.8,118,1289.1,0c54,0,95.5-42.8,95.5-95.5v-812.1
							l7.8-316C1655.9,1369.1,1448.9,1295.8,1448.9,1376.8z"/>
					</defs>
					<clipPath id="SVGID_3_">
						<use xlink:href="#SVGID_2_"  overflow="visible"/>
					</clipPath>
					<path opacity="9.000000e-02" clip-path="url(#SVGID_3_)" enable-background="new    " d="M135,1550.1c0,0,46-69.8,110.3-48.3
						c64,21.3-42.8,110.3-1,111.3c42.8,1,28,85.5,1,75.3c-27-10-110.3,57.3-110.3,55C135,1742.6,135,1550.1,135,1550.1z"/>
				</g>
			</g>
		</g>
		<g>
			<g>
				<g>
					<defs>
						<path id="SVGID_4_" d="M1448.9,1376.8c0,220.5-240.8,399.3-538.8,399.3c-297,0-538.8-178.8-538.8-399.3
							c1-113.5-204.8-9-204.8-9v1129.3c0,52.8,42.8,95.5,95.5,95.5c430.8,117,861.8,118,1289.1,0c54,0,95.5-42.8,95.5-95.5v-812.1
							l7.8-316C1655.9,1369.1,1448.9,1295.8,1448.9,1376.8z"/>
					</defs>
					<clipPath id="SVGID_5_">
						<use xlink:href="#SVGID_4_"  overflow="visible"/>
					</clipPath>
					<path opacity="9.000000e-02" clip-path="url(#SVGID_5_)" enable-background="new    " d="M1712.1,1474.9c0,0-90-54-112.5,0
						c-21.3,54,25.8,64-31.5,103.5c-57.3,39.3,25.8,33.8,25.8,33.8s75.3,4.5,34.8,23.5c-40.5,19,23.5,77.5,50.5,59.5
						C1706.6,1677.4,1712.1,1474.9,1712.1,1474.9z"/>
				</g>
			</g>
		</g>
		<g>
			<g>
				<g>
					<defs>
						<path id="SVGID_6_" d="M1448.9,1376.8c0,220.5-240.8,399.3-538.8,399.3c-297,0-538.8-178.8-538.8-399.3
							c1-113.5-204.8-9-204.8-9v1129.3c0,52.8,42.8,95.5,95.5,95.5c430.8,117,861.8,118,1289.1,0c54,0,95.5-42.8,95.5-95.5v-812.1
							l7.8-316C1655.9,1369.1,1448.9,1295.8,1448.9,1376.8z"/>
					</defs>
					<clipPath id="SVGID_7_">
						<use xlink:href="#SVGID_6_"  overflow="visible"/>
					</clipPath>
					<path opacity="8.000000e-02" clip-path="url(#SVGID_7_)" enable-background="new    " d="M1103.6,2713.4c0,0-90-182.3,64-250.8
						c154-69.8,101.3,85.5,231.8,42.8s141.8-138.3,87.8-149.5c-54-10-101.3-234,208-182.3c309.3,54,64,486,64,486L1103.6,2713.4z"/>
				</g>
			</g>
		</g>
	</g>
	<path fill="#353535" d="M1055.3,131.5c-10,0-20.3-6.8-23.5-18c-1-2.3-21.3-66.3-129.3-66.3c-109,0-137.3,65.3-137.3,68.5
		c-4.5,12.3-19,18-31.5,13.5c-12.3-4.5-18-18-13.5-30.3c2.3-3.3,40.5-99,183.3-99c145,0,173.3,97.8,175.5,101.3
		c4.5,12.3-4.5,25.8-16.8,29.3C1059.8,131.5,1058.6,131.5,1055.3,131.5z"/>
</g>
<g id="lenny" transform="scale(0.1,0.1)">
	<path fill="#E8887E" d="M1510.9,3181.2H271.3c-65.3,0-120.3-54-120.3-120.3V731.3c0-348.8,285.8-634.5,634.5-634.5h209.3
		c348.8,0,634.5,285.8,634.5,634.5V3061C1631.1,3127.2,1577.1,3181.2,1510.9,3181.2z"/>
	<g>
		<circle opacity="0.2" enable-background="new    " cx="921.3" cy="794.3" r="225"/>
		<circle fill="#EAE9E5" cx="921.3" cy="745.8" r="225"/>
		<circle fill="#474747" cx="921.3" cy="745.8" r="145"/>
		<circle fill="#EAE9E5" cx="913.6" cy="745.8" r="32.5"/>
		<path fill="#EAE9E5" d="M860.6,717.8c20.3-29.3,70.8-25.8,42.8-46c-29.3-20.3-67.5-13.5-87.8,15.8c-20.3,29.3-13.5,67.5,15.8,87.8
			C859.6,793.1,840.3,745.8,860.6,717.8z"/>
		<path fill="#474747" d="M921.3,1279.1c-141.8,0-275.5-56.3-375.8-157.5c-100-101.3-155.3-234-155.3-373.5c0-9,6.8-15.8,15.8-15.8
			c9,0,15.8,6.8,15.8,15.8c0,131.5,51.8,256.5,146.3,351c95.5,95.5,220.5,148.5,353.3,148.5s258.8-52.8,353.3-148.5
			c94.5-95.5,146.3-220.5,146.3-351c0-9,6.8-15.8,15.8-15.8s15.8,6.8,15.8,15.8c0,140.5-55,273.3-155.3,373.5
			C1197.1,1222.8,1063.1,1279.1,921.3,1279.1z"/>
		<path fill="#474747" d="M408.3,758.3c-46,0-82-37-82-82c0-9,6.8-15.8,15.8-15.8s15.8,6.8,15.8,15.8c0,27,23.5,50.5,50.5,50.5
			c27,0,50.5-23.5,50.5-50.5c0-9,6.8-15.8,15.8-15.8s15.8,6.8,15.8,15.8C491.5,721.1,454.5,758.3,408.3,758.3z"/>
		<path fill="#474747" d="M1433.1,758.3c-46,0-82-37-82-82c0-9,6.8-15.8,15.8-15.8c9,0,15.8,6.8,15.8,15.8c0,27,23.5,50.5,50.5,50.5
			s50.5-23.5,50.5-50.5c0-9,6.8-15.8,15.8-15.8s15.8,6.8,15.8,15.8C1515.4,721.1,1479.4,758.3,1433.1,758.3z"/>
	</g>
	<g>
		<g>
			<g>
				<g>
					<defs>
						<path id="SVGID_8_" d="M1465.9,1473.6c0,220.5-240.8,399.3-538.8,399.3c-297,0-538.8-178.8-538.8-399.3
							c1-113.5-204.8-9-204.8-9v1128.3c0,52.8,42.8,95.5,95.5,95.5c430.8,117,861.8,118,1289.1,0c54,0,95.5-42.8,95.5-95.5v-812.1
							l7.8-316C1671.6,1464.6,1465.9,1392.6,1465.9,1473.6z"/>
					</defs>
					<clipPath id="SVGID_9_">
						<use xlink:href="#SVGID_8_"  overflow="visible"/>
					</clipPath>
					<g opacity="0.52" clip-path="url(#SVGID_9_)">
						<path fill="#FFFFFF" d="M235.3,478c0,0,3.3-9,10-22.5c6.8-13.5,15.8-33.8,29.3-55c13.5-22.5,31.5-47.3,51.8-72
							c10-12.3,22.5-24.8,34.8-37c12.3-12.3,24.8-23.5,38.3-34.8c13.5-11.3,28-21.3,41.5-31.5c14.5-10,29.3-18,42.8-25.8
							c14.5-7.8,29.3-14.5,42.8-20.3c6.8-2.3,13.5-5.5,20.3-7.8c6.8-2.3,12.3-4.5,19-6.8c12.3-4.5,23.5-6.8,34.8-10
							c10-2.3,19-4.5,27-5.5c15.8-2.3,23.5-3.3,23.5-3.3c3.3-1,5.5,1,6.8,4.5c0,1,0,2.3-1,3.3l-3,3.8c0,0-1,2.3-4.5,7.8
							c-3.3,4.5-6.8,12.3-12.3,19c-5.5,7.8-12.3,18-19,27c-3.3,4.5-6.8,10-11.3,15.8s-7.8,10-12.3,15.8c-4.5,5.8-7.8,10-12.3,15.8
							c-4.5,5.8-7.8,10-12.3,15.8c-9,10-18,20.3-25.8,30.3c-9,10-18,19-28,29.3c-10,9-20.3,18-30.3,25.8c-10,9-21.3,16.8-31.5,24.8
							c-11.3,7.8-22.5,15.8-34.8,22.5c-12.3,6.8-23.5,13.5-37,20.3c-12.3,6.8-24.8,12.3-37,18c-12.3,5.5-23.5,10-34.8,15.8
							c-11.3,5.5-21.3,7.8-30.3,11.3c-9,3.3-16.8,5.5-21.3,6.8c-5.5,1-9,2.3-9,2.3l-5.5,1c-3.3,1-6.8-1-6.8-4.5
							C235.3,479.3,235.3,479.3,235.3,478z"/>
					</g>
				</g>
			</g>
		</g>
	</g>
</g>
<g id="filip" transform="scale(0.1,0.1)">
	<path fill="#32E0AA" d="M1532.1,3182.5H292.5c-65.3,0-120.3-54-120.3-120.3V733.6C172.3,384.8,458,99,806.8,99h209.3
		c348.8,0,634.5,285.8,634.5,634.5v2329.7C1651.4,3129.5,1597.4,3182.5,1532.1,3182.5z"/>
	<g>
		<g>
			<circle fill="#D3F4E9" cx="538.8" cy="835.8" r="304.8"/>
			<circle fill="#D3F4E9" cx="1284.8" cy="835.8" r="304.8"/>
			<path fill="#353535" d="M538.8,634.5c-15.8,0-30.3,1-46,4.5c47.3,15.8,81,59.5,81,112.5c0,65.3-52.8,118-118,118
				c-51.8,0-96.8-33.8-112.5-81c-3.3,14.5-4.5,29.3-4.5,46c0,111.3,90,201.3,201.3,201.3s201.3-88.8,201.3-200.3
				S650.3,634.5,538.8,634.5z"/>
			<path fill="#353535" d="M1284.8,634.5c-15.8,0-30.3,1-46,4.5c47.3,15.8,81,59.5,81,112.5c0,65.3-52.8,118-118,118
				c-51.8,0-96.8-33.8-112.5-81c-3.3,14.5-4.5,29.3-4.5,46c0,111.3,90,201.3,201.3,201.3s201.3-90,201.3-201.3
				S1396.1,634.5,1284.8,634.5z"/>
			<path fill="#494949" d="M902.3,1190.1c0,49.5-40.5,90-90,90c-155.3,0-186.8,87.8-186.8,38.3s52.8-220.5,186.8-220.5
				C861.8,1099.1,902.3,1139.6,902.3,1190.1z"/>
			<path fill="#494949" d="M913.6,1190.1c0,49.5,40.5,90,90,90c155.3,0,186.8,87.8,186.8,38.3s-52.8-219.3-186.8-219.3
				C954.1,1099.1,913.6,1139.6,913.6,1190.1z"/>
		</g>
		<path opacity="0.27" enable-background="new    " d="M968.6,1795.4c28-13.5,46-41.5,46-74.3c0-46-37-83.3-83.3-83.3
			c-46,0-83.3,37-83.3,83.3c0,32.5,18,60.8,46,74.3l-100,788.6l137.3,178.8l137.3-178.8L968.6,1795.4z"/>
		<g id="DAS_1_">
			<g>
				<g>
					<g>
						<g>
							<defs>
								<polygon id="SVGID_10_" points="1055.3,2578.4 942.8,1686.4 885.3,1686.4 772.8,2578.4 913.6,2763.9 								"/>
							</defs>
							<clipPath id="SVGID_11_">
								<use xlink:href="#SVGID_10_"  overflow="visible"/>
							</clipPath>
							<polygon clip-path="url(#SVGID_11_)" fill="#FFFFFF" points="1055.3,2578.4 942.8,1686.4 885.3,1686.4 772.8,2578.4
								913.6,2763.9 							"/>
						</g>
					</g>
				</g>
				<g>
					<g>
						<g>
							<defs>
								<polygon id="SVGID_12_" points="1055.3,2578.4 942.8,1686.4 885.3,1686.4 772.8,2578.4 913.6,2763.9 								"/>
							</defs>
							<clipPath id="SVGID_13_">
								<use xlink:href="#SVGID_12_"  overflow="visible"/>
							</clipPath>
							<g clip-path="url(#SVGID_13_)">

									<rect x="204.5" y="1982.5" transform="matrix(-0.7071 0.7071 -0.7071 -0.7071 2650.3423 2934.6357)" fill="#FF5050" width="1025.8" height="67.5"/>

									<rect x="282.5" y="2061" transform="matrix(-0.7071 0.7071 -0.7071 -0.7071 2838.9717 3013.5134)" fill="#FF5050" width="1025.8" height="67.5"/>

									<rect x="361.1" y="2139.5" transform="matrix(-0.7071 0.7071 -0.7071 -0.7071 3028.7832 3091.9414)" fill="#FF5050" width="1025.8" height="67.5"/>

									<rect x="438.9" y="2217.1" transform="matrix(-0.7071 0.7071 -0.7071 -0.7071 3216.5366 3169.4604)" fill="#FF5050" width="1025.8" height="67.5"/>

									<rect x="517.6" y="2295.7" transform="matrix(-0.7071 0.7071 -0.7071 -0.7071 3406.3455 3247.8879)" fill="#FF5050" width="1025.8" height="67.5"/>

									<rect x="595.3" y="2373.5" transform="matrix(-0.7071 0.7071 -0.7071 -0.7071 3593.9248 3325.8337)" fill="#FF5050" width="1025.8" height="67.5"/>

									<rect x="673.9" y="2451.7" transform="matrix(-0.7071 0.7071 -0.7071 -0.7071 3783.4829 3403.6584)" fill="#FF5050" width="1025.8" height="67.5"/>
							</g>
						</g>
					</g>
				</g>
			</g>
			<path opacity="0.15" enable-background="new    " d="M873.1,1779.6c12.3,6.8,27,12.3,41.5,12.3c14.5,0,28-6.8,40.5-13.5
				l-12.3-101.3h-56.3L873.1,1779.6z"/>
			<g>
				<g>
					<circle id="SVGID_1_" fill="#FFFFFF" cx="914.6" cy="1686.4" r="85.5"/>
				</g>
				<g>
					<g>
						<g>
							<defs>
								<circle id="SVGID_14_" cx="914.6" cy="1686.4" r="13.7"/>
							</defs>
							<clipPath id="SVGID_15_">
								<use xlink:href="#SVGID_14_"  overflow="visible"/>
							</clipPath>
						</g>
						<g>
							<defs>
								<circle id="SVGID_16_" cx="914.6" cy="1686.4" r="13.7"/>
							</defs>
							<defs>
								<circle id="SVGID_17_" cx="914.6" cy="1686.4" r="13.7"/>
							</defs>
							<clipPath id="SVGID_18_">
								<use xlink:href="#SVGID_16_"  overflow="visible"/>
							</clipPath>
							<clipPath id="SVGID_19_" clip-path="url(#SVGID_18_)">
								<use xlink:href="#SVGID_17_"  overflow="visible"/>
							</clipPath>
							<g clip-path="url(#SVGID_19_)">

									<rect x="109" y="1610.7" transform="matrix(-0.7071 0.7071 -0.7071 -0.7071 2224.5107 2367.4592)" fill="#FF5050" width="1025.8" height="67.5"/>

									<rect x="187.5" y="1687.8" transform="matrix(-0.7071 0.7071 -0.7071 -0.7071 2412.9285 2443.5955)" fill="#FF5050" width="1025.8" height="67.5"/>

									<rect x="264.7" y="1765.5" transform="matrix(-0.7071 0.7071 -0.7071 -0.7071 2599.7471 2521.6292)" fill="#FF5050" width="1025.8" height="67.5"/>

									<rect x="342.6" y="1844.7" transform="matrix(-0.7071 0.7071 -0.7071 -0.7071 2788.7156 2601.8691)" fill="#FF5050" width="1025.8" height="67.5"/>

									<rect x="421.2" y="1921.7" transform="matrix(-0.7071 0.7071 -0.7071 -0.7071 2977.313 2677.5764)" fill="#FF5050" width="1025.8" height="67.5"/>

									<rect x="499.1" y="2000.9" transform="matrix(-0.7071 0.7071 -0.7071 -0.7071 3166.282 2757.8162)" fill="#FF5050" width="1025.8" height="67.5"/>

									<rect x="577.5" y="2078" transform="matrix(-0.7071 0.7071 -0.7071 -0.7071 3354.7004 2833.9495)" fill="#FF5050" width="1025.8" height="67.5"/>
							</g>
						</g>
					</g>
				</g>
				<g>
					<g>
						<g>
							<defs>
								<circle id="SVGID_20_" cx="914.6" cy="1686.4" r="13.7"/>
							</defs>
							<clipPath id="SVGID_21_">
								<use xlink:href="#SVGID_20_"  overflow="visible"/>
							</clipPath>
						</g>
						<g>
							<defs>
								<circle id="SVGID_22_" cx="914.6" cy="1686.4" r="13.7"/>
							</defs>
							<defs>
								<circle id="SVGID_23_" cx="914.6" cy="1686.4" r="13.7"/>
							</defs>
							<clipPath id="SVGID_24_">
								<use xlink:href="#SVGID_22_"  overflow="visible"/>
							</clipPath>
							<clipPath id="SVGID_25_" clip-path="url(#SVGID_24_)">
								<use xlink:href="#SVGID_23_"  overflow="visible"/>
							</clipPath>
							<path opacity="0.22" clip-path="url(#SVGID_25_)" enable-background="new    " d="M739.1,1463.6v330.8h306v-330.8H739.1z
								 M880.8,1739.1c-47.3,0-85.5-38.3-85.5-85.5s38.3-85.5,85.5-85.5c47.3,0,85.5,38.3,85.5,85.5S928.1,1739.1,880.8,1739.1z"/>
						</g>
					</g>
				</g>
			</g>
		</g>
	</g>
</g>
<g id="dirk" transform="scale(0.1,0.1)">
	<path fill="#D8AE36" d="M1532.1,3184.7H292.5c-65.3,0-120.3-54-120.3-120.3V734.6c0-348.8,285.5-634.5,634.3-634.5h209.3
		c348.8,0,634.5,285.8,634.5,634.5v2329.7C1651.4,3131.7,1597.4,3184.7,1532.1,3184.7z"/>
	<g>
		<circle opacity="0.2" enable-background="new    " cx="636.8" cy="722.3" r="245.3"/>
		<circle opacity="0.2" enable-background="new    " cx="1188.1" cy="722.3" r="245.3"/>
		<circle fill="#EAE9E5" cx="636.8" cy="681.8" r="245.3"/>
		<path fill="#DDDBD7" d="M765.1,473.5c23.5,37,37,82,37,129.3c0,135-109,245.3-245.3,245.3c-47.3,0-91-13.5-129.3-37
			c42.8,69.8,120.3,117,209.3,117c135,0,245.3-109,245.3-245.3C882.1,592.8,834.8,516.3,765.1,473.5z"/>
		<circle fill="#EAE9E5" cx="1188.1" cy="681.8" r="245.3"/>
		<path fill="#DDDBD7" d="M1269.1,847.1c-135,0-245.3-109-245.3-245.3c0-47.3,13.5-91,37-129.3c-69.8,42.8-117,120.3-117,209.3
			c0,135,109,245.3,245.3,245.3c87.8,0,165.3-46,209.3-117C1360.1,834.8,1316.1,847.1,1269.1,847.1z"/>
		<circle fill="#474747" cx="555.8" cy="601.8" r="37"/>
		<circle fill="#474747" cx="1269.1" cy="601.8" r="37"/>
		<circle fill="#474747" cx="930.3" cy="1182.3" r="31.5"/>
		<path opacity="0.24" enable-background="new    " d="M283.5,1249.8c0,0,3.3,4.5,10,14.5c6.8,10,15.8,23.5,29.3,40.5
			c6.8,7.8,13.5,18,22.5,27c9,10,18,20.3,27,31.5c10,10,21.3,21.3,33.8,32.5c12.3,11.3,24.8,22.5,39.3,34.8
			c6.8,5.5,14.5,11.3,21.3,16.8c4.5,3.3,6.8,5.5,11.3,9c4.5,3.3,7.8,5.5,12.3,7.8c7.8,5.5,15.8,11.3,23.5,16.8
			c7.8,5.5,16.8,10,25.8,15.8c18,11.3,36,20.3,55,30.3c4.5,2.3,10,4.5,14.5,6.8c4.5,2.3,10,4.5,15.8,6.8c10,4.5,20.3,10,30.3,12.3
			c41.5,18,86.5,28,131.5,38.3c11.3,1,23.5,4.5,34.8,5.5c5.5,1.2,12.3,1.2,18,2.3l18,1l18,1c5.5,1.3,12.3,1.3,18,1.3l34.8,1l37-1
			c6.8,0,12.3,0,18-1.3l18-1l18-1c5.5-1.2,11.3-1.2,18-2.3c12.3-1,23.5-4.5,34.8-5.5c46-10,90-20.3,131.5-38.3
			c10-4.5,20.3-9,30.3-12.3c4.5-2.3,10-4.5,15.8-6.8c4.5-2.3,10-4.5,14.5-6.8c19-10,38.3-19,55-30.3c9-5.5,18-10,25.8-15.8
			c7.8-5.5,15.8-11.3,23.5-16.8c4.5-2.3,7.8-5.5,12.3-7.8c4.5-3.3,6.8-5.5,11.3-9c6.8-5.5,14.5-11.3,21.3-16.8
			c13.5-12.3,25.8-23.5,39.3-34.8c12.3-12.3,23.5-22.5,33.8-32.5c10-11.3,19-21.3,27-31.5c9-10,15.8-19,22.5-27
			c13.5-16.8,22.5-30.3,29.3-40.5s10-14.5,10-14.5s-2.3,5.5-7.8,15.8c-5.5,10-12.3,25.8-23.5,43.8c-5.5,9-11.3,20.3-19,30.3
			c-6.8,10-15.8,22.5-24.8,34.8c-10,12.3-20.3,23.5-30.3,37c-12.3,12.3-23.5,25.8-37,38.3c-27,25.8-57.3,52.8-93.3,76.5
			c-18,12.3-37,23.5-56.3,34.8c-10,5.5-20.3,10-30.3,15.8c-10,4.5-20.3,10-31.5,14.5c-11.3,4.5-21.3,9-32.5,13.5
			c-11.3,4.5-23.5,7.8-34.8,12.3c-5.5,1-11.3,4.5-18,5.5c-5.5,1-12.3,3.3-18,4.5c-12.3,3.3-23.5,6.8-36,9c-12.3,2.3-24.8,4.5-37,6.8
			c-6.8,1-12.3,1-18,2.3l-19,2.3l-19,2.3c-6.8,1-12.3,1-18,1l-37,1.2l-38.3-1.2c-6.8,0-12.3,0-19-1l-18-2.3l-18-2.3
			c-6.8-1-12.3-1-18-2.3c-12.3-2.3-24.8-4.5-37-6.8s-23.5-5.5-36-9c-5.5-1.2-12.3-3.3-18-4.5c-5.5-1.3-12.3-4.5-18-5.5
			c-11.3-4.5-23.5-7.8-34.8-12.3c-11.3-4.5-22.5-9-32.5-13.5c-11.3-4.5-21.3-10-31.5-14.5c-10-5.5-20.3-10-30.3-15.8
			c-19-12.3-39.3-22.5-56.3-34.8c-36-23.5-66.3-51.8-93.3-76.5c-13.5-12.3-25.8-25.8-37-38.3c-10-12.3-20.3-25.8-30.3-37
			c-9-12.3-16.8-23.5-24.8-34.8c-6.8-10-13.5-21.3-19-30.3c-12.3-18-18-33.8-23.5-43.8C287,1255.3,283.5,1249.8,283.5,1249.8z"/>
	</g>
	<circle opacity="0.25" enable-background="new    " cx="481.5" cy="279" r="25.8"/>
	<circle opacity="0.15" enable-background="new    " cx="481.5" cy="326.3" r="12.3"/>
	<circle opacity="0.2" enable-background="new    " cx="545.5" cy="279" r="12.3"/>
</g>
<g id="daryl" transform="scale(0.1,0.1)">
	<g>
		<path fill="#666666" d="M1393.8,239.5c231.8,165.3,382.5,436.5,382.5,742.6c0,504-408.3,912.3-912.3,912.3
			c-176.5,0-342-50.5-481.5-137.3c149.5,106.8,331.8,169.8,529.8,169.8c504,0,912.3-408.3,912.3-912.3
			C1823.6,687.3,1651.4,400.5,1393.8,239.5z"/>
		<path fill="#333333" d="M1776.4,982.1c0-307-150.8-577-382.5-742.6c-140.5-87.8-304.8-137.3-481.5-137.3
			C408.3,102.3,0,510.5,0,1014.6c0,307,150.8,577,382.5,742.6c140.5,87.8,304.8,137.3,481.5,137.3
			C1367.8,1895.6,1776.4,1487.1,1776.4,982.1z"/>
	</g>
	<path fill="#B235DB" d="M1531.1,3187H292.5c-66.3,0-120.3-40.5-120.3-91V1320.8c0-265.5,285.8-483.8,634.5-483.8h209.3
		c348.8,0,634.5,218.3,634.5,483.8V3095C1651.4,3146.5,1597.4,3187,1531.1,3187z"/>
	<g>
		<path fill="#48E5C6" d="M709.8,1676.1H464.5c-78.8,0-144-65.3-144-144v-245.3c0-78.8,65.3-144,144-144h245.3
			c78.8,0,144,65.3,144,144v245.3C853.8,1612.1,788.6,1676.1,709.8,1676.1z"/>
		<path fill="#48E5C6" d="M1357.8,1676.1h-245.3c-78.8,0-144-65.3-144-144v-245.3c0-78.8,65.3-144,144-144h245.3
			c78.8,0,144,65.3,144,144v245.3C1501.9,1612.1,1437.6,1676.1,1357.8,1676.1z"/>
		<polyline fill="none" stroke="#D4F9F7" stroke-width="10" stroke-linejoin="round" stroke-miterlimit="10" points="1490.6,1288.1
			1193.6,1587.4 1242.1,1236.3 964.1,1520.9 		"/>
		<polyline fill="none" stroke="#D4F9F7" stroke-width="10" stroke-linejoin="round" stroke-miterlimit="10" points="850.6,1288.1
			553.5,1587.4 601.8,1236.3 324,1520.9 		"/>
		<path fill="none" stroke="#494949" stroke-width="8" stroke-miterlimit="10" d="M709.8,1676.1H464.5c-78.8,0-144-65.3-144-144
			v-245.3c0-78.8,65.3-144,144-144h245.3c78.8,0,144,65.3,144,144v245.3C853.8,1612.1,788.6,1676.1,709.8,1676.1z"/>
		<path fill="none" stroke="#494949" stroke-width="8" stroke-miterlimit="10" d="M1357.8,1676.1h-245.3c-78.8,0-144-65.3-144-144
			v-245.3c0-78.8,65.3-144,144-144h245.3c78.8,0,144,65.3,144,144v245.3C1501.9,1612.1,1437.6,1676.1,1357.8,1676.1z"/>
		<line fill="none" stroke="#494949" stroke-width="8" stroke-miterlimit="10" x1="859.6" y1="1312.8" x2="972.1" y2="1312.8"/>
	</g>
	<path fill="#B235DB" d="M1758.4,516.3c-54-39.3-106.8-162-31.5-174.3c12.3-1,23.5-10,31.5-19c22.5-25.8,24.8-65.3,2.3-91
		c-31.5-37-84.3-33.8-110.3,2.3c-10,12.3-15.8,29.3-12.3,42.8c12.3,76.5-129.3,57.3-173.3,24.8c-23.5-18-57.3-12.3-75.3,12.3
		l-156.3,213.8c6.8,3.3,13.5,6.8,20.3,7.8l118-162c2.3-3.3,6.8-3.3,9-1l14.5,10c3.3,2.3,3.3,6.8,1,9L1289.3,540c6.8,0,12.3-1,16.8-1
		l101.3-140.5c2.3-3.3,6.8-3.3,9-1l14.5,10c3.3,2.3,3.3,6.8,1,9l-97.8,135c3.3,2.3,5.5,5.5,9,10l99-136c2.3-3.3,6.8-3.3,9-1l14.5,10
		c3.3,2.3,3.3,6.8,1,9l-105.8,145c2.3,4.5,4.5,7.8,6.8,12.3l109-150.8c2.3-3.3,6.8-3.3,9-1l14.5,10c3.3,2.3,3.3,6.8,1,9
		l-114.8,156.3c3.3,4.5,5.5,6.8,9,10l115.8-159.8c2.3-3.3,6.8-3.3,9-1l14.5,10c3.3,2.3,3.3,6.8,1,9l-118,162
		c4.5,2.3,6.8,4.5,11.3,6.8l118-160.8c2.3-3.3,6.8-3.3,9-1l14.5,10c3.3,2.3,3.3,6.8,1,9l-113.5,156.3c5.5,1,10,2.3,14.5,3.3
		l110.3-151.8c2.3-3.3,6.8-3.3,9-1l14.5,10c3.3,2.3,3.3,6.8,1,9l-99,136c4.5,1,7.8,3.3,12.3,6.8l99-135c2.3-3.3,6.8-3.3,9-1l14.5,10
		c3.3,2.3,3.3,6.8,1,9l-113.5,156.3l0,0c-1,6.8,0,13.5,2.3,18l121.5-167.5c2.3-3.3,6.8-3.3,9-1l14.5,10c3.3,2.3,3.3,6.8,1,9
		l-123.8,171c4.5,1,7.8,3.3,12.3,4.5L1688.6,605c2.3-3.3,6.8-3.3,9-1l14.5,10c3.3,2.3,3.3,6.8,1,9l-113.5,156.3
		c11.3,1,21.3,3.3,29.3,4.5l139.5-190C1787.6,568,1781.9,533.3,1758.4,516.3z M1684.1,261c9-12.3,24.8-14.5,37-5.5
		c12.3,9,14.5,24.8,5.5,37c-9,12.3-24.8,14.5-37,5.5C1678.4,289,1676.1,272.3,1684.1,261z"/>
	<path opacity="0.3" enable-background="new    " d="M1651.4,2585.2h-432v-38.3c0-52.8-42.8-97.8-95.5-97.8h-424
		c-52.8,0-95.5,45-95.5,97.8v38.3h-432v159.8h432v38.3c0,52.8,42.8,97.8,95.5,97.8h425.3c52.8,0,95.5-46,95.5-97.8v-38.3h432
		L1651.4,2585.2L1651.4,2585.2z"/>
	<g id="belt">
		<rect x="172.3" y="2569.4" fill="#E0E0E0" width="1480.4" height="159.8"/>
		<g id="buckle">
			<path fill="#EFBD41" d="M1123.8,2434.4h-424c-52.8,0-95.5,42.8-95.5,95.5v236.3c0,52.8,42.8,95.5,95.5,95.5h425.3
				c52.8,0,95.5-42.8,95.5-95.5v-236.3C1219.6,2478.2,1176.8,2434.4,1123.8,2434.4z"/>
			<path fill="#303030" d="M1054.1,2482.7H769.6c-52.8,0-95.5,42.8-95.5,95.5v139.5c0,52.8,42.8,95.5,95.5,95.5h285.8
				c52.8,0,95.5-42.8,95.5-95.5v-139.5C1149.8,2526.7,1107.1,2482.7,1054.1,2482.7z"/>
			<g id="led_array">
				<circle fill="#8E8E8E" cx="722.3" cy="2565.9" r="18"/>
				<circle fill="#00FFFF" cx="816.8" cy="2565.9" r="18"/>
				<circle fill="#8E8E8E" cx="911.3" cy="2565.9" r="18"/>
				<circle fill="#00FFFF" cx="959.6" cy="2565.9" r="18"/>
				<circle fill="#8E8E8E" cx="1054.1" cy="2565.9" r="18"/>
				<circle fill="#8E8E8E" cx="1101.3" cy="2565.9" r="18"/>
				<circle fill="#00FFFF" cx="1006.8" cy="2565.9" r="18"/>
				<circle fill="#00FFFF" cx="864.1" cy="2565.9" r="18"/>
				<circle fill="#8E8E8E" cx="769.6" cy="2565.9" r="18"/>
				<circle fill="#8E8E8E" cx="722.3" cy="2607.7" r="18"/>
				<circle fill="#8E8E8E" cx="816.8" cy="2605.4" r="18"/>
				<circle fill="#00FFFF" cx="911.3" cy="2605.4" r="18"/>
				<circle fill="#8E8E8E" cx="959.6" cy="2605.4" r="18"/>
				<circle fill="#00FFFF" cx="1054.1" cy="2605.4" r="18"/>
				<circle fill="#8E8E8E" cx="1101.3" cy="2607.7" r="18"/>
				<circle fill="#8E8E8E" cx="1006.8" cy="2605.4" r="18"/>
				<circle fill="#8E8E8E" cx="864.1" cy="2605.4" r="18"/>
				<circle fill="#00FFFF" cx="769.6" cy="2605.4" r="18"/>
				<circle fill="#8E8E8E" cx="722.3" cy="2650.4" r="18"/>
				<circle fill="#8E8E8E" cx="911.3" cy="2649.2" r="18"/>
				<circle fill="#8E8E8E" cx="959.6" cy="2649.2" r="18"/>
				<circle fill="#8E8E8E" cx="1054.1" cy="2649.2" r="18"/>
				<circle fill="#8E8E8E" cx="1101.3" cy="2650.4" r="18"/>
				<circle fill="#00FFFF" cx="1006.8" cy="2650.4" r="18"/>
				<circle fill="#8E8E8E" cx="864.1" cy="2649.2" r="18"/>
				<circle fill="#8E8E8E" cx="769.6" cy="2649.2" r="18"/>
				<circle fill="#8E8E8E" cx="722.3" cy="2691.9" r="18"/>
				<circle fill="#8E8E8E" cx="816.8" cy="2694.2" r="18"/>
				<circle fill="#8E8E8E" cx="911.3" cy="2694.2" r="18"/>
				<circle fill="#8E8E8E" cx="1054.1" cy="2694.2" r="18"/>
				<circle fill="#8E8E8E" cx="1101.3" cy="2691.9" r="18"/>
				<circle fill="#8E8E8E" cx="1006.8" cy="2694.2" r="18"/>
				<circle fill="#00FFFF" cx="864.1" cy="2694.2" r="18"/>
				<circle fill="#8E8E8E" cx="769.6" cy="2694.2" r="18"/>
				<circle fill="#8E8E8E" cx="722.3" cy="2734.7" r="18"/>
				<circle fill="#8E8E8E" cx="816.8" cy="2734.7" r="18"/>
				<circle fill="#00FFFF" cx="911.3" cy="2734.7" r="18"/>
				<circle fill="#8E8E8E" cx="959.6" cy="2734.7" r="18"/>
				<circle fill="#8E8E8E" cx="1054.1" cy="2734.7" r="18"/>
				<circle fill="#8E8E8E" cx="1101.3" cy="2734.7" r="18"/>
				<circle fill="#8E8E8E" cx="1006.8" cy="2734.7" r="18"/>
				<circle fill="#8E8E8E" cx="864.1" cy="2734.7" r="18"/>
				<circle fill="#8E8E8E" cx="769.6" cy="2734.7" r="18"/>
				<circle fill="#8E8E8E" cx="816.8" cy="2517.7" r="18"/>
				<circle fill="#8E8E8E" cx="911.3" cy="2517.7" r="18"/>
				<circle fill="#8E8E8E" cx="959.6" cy="2517.7" r="18"/>
				<circle fill="#8E8E8E" cx="1054.1" cy="2517.7" r="18"/>
				<circle fill="#8E8E8E" cx="1006.8" cy="2517.7" r="18"/>
				<circle fill="#8E8E8E" cx="864.1" cy="2517.7" r="18"/>
				<circle fill="#8E8E8E" cx="769.6" cy="2517.7" r="18"/>
				<circle fill="#8E8E8E" cx="816.8" cy="2781.9" r="18"/>
				<circle fill="#8E8E8E" cx="911.3" cy="2781.9" r="18"/>
				<circle fill="#8E8E8E" cx="959.6" cy="2781.9" r="18"/>
				<circle fill="#8E8E8E" cx="1054.1" cy="2781.9" r="18"/>
				<circle fill="#8E8E8E" cx="1006.8" cy="2781.9" r="18"/>
				<circle fill="#8E8E8E" cx="864.1" cy="2781.9" r="18"/>
				<circle fill="#8E8E8E" cx="769.6" cy="2781.9" r="18"/>
				<circle fill="#00FFFF" cx="816.8" cy="2649.2" r="18"/>
				<circle fill="#00FFFF" cx="959.6" cy="2694.2" r="18"/>
			</g>
			<g opacity="0.6">
				<path fill="#FFFFFF" d="M610.8,2520.9c0,0,1-7.8,4.5-18c1-2.3,1-5.5,3.3-9c1-3.3,2.3-6.8,4.5-10c3.3-6.8,6.8-12.3,12.3-19
					c2.3-2.3,4.5-5.5,7.8-7.8c3.3-2.3,5.5-4.5,9-6.8c1-1.3,3.3-1.3,4.5-2.3c1-1,3.3-1,4.5-1c1-1.2,3.3-1.2,4.5-1.2s3.3-1,4.5-1
					c3.3-1,5.5-1,7.8-1c2.3,0,4.5,0,5.5,0c3.3,0,4.5,0,4.5,0c1,0,1,1,1,1v1l-1,1.2c0,0-1,1-4.5,4.5c-1,1-3.3,2.2-4.5,4.5
					c-1,2.3-3.3,4.5-5.5,5.5c-1,1.3-4.5,3.3-5.5,5.5c-1,1-1,1-2.3,2.3c-1,1-1,2.3-2.3,3.3c-1,1-1,1-2.3,2.3c-1.3,1.2-1,2.3-2.3,3.3
					c-1,1.2-3.3,4.5-4.5,5.5c-1,2.3-3.3,4.5-5.5,6.8c-1,2.3-4.5,4.5-5.5,6.8c-2.3,2.3-4.5,4.5-5.5,6.8c-2.3,2.2-4.5,4.5-6.8,6.8
					c-1,2.3-4.5,4.5-5.5,5.5c-1,1-3.3,3.3-4.5,4.5c-3.3,2.2-4.5,4.5-4.5,4.5l-1,1C610.8,2522.2,610.8,2522.2,610.8,2520.9
					L610.8,2520.9z"/>
			</g>
			<g opacity="0.6">
				<path fill="#FFFFFF" d="M1130.6,2442.2c0,0,7.8,1,18,4.5c2.3,1,5.5,1,9,3.3c3.3,1,6.8,2.3,10,4.5c6.8,3.3,12.3,6.8,19,12.3
					c2.3,2.3,5.5,4.5,7.8,7.8c2.3,3.3,4.5,5.5,6.8,9c1,1,1,3.3,2.3,4.5c1,1,1,3.3,1,4.5c1,1,1,3.2,1,4.5c1.3,1,1.3,3.3,1.3,4.5
					c1,3.3,1,5.5,1,7.8c0,2.3,0,4.5,0,5.5c0,3.2,0,4.5,0,4.5c0,1.2-1,1.2-1,1.2h-1.3v-1c0,0-1-1.3-4.5-4.5c-1-1.2-2.3-3.2-4.5-4.5
					c-1-1.2-4.5-3.3-5.5-5.5c-1.3-1-3.3-4.5-5.5-5.5c-1-1.2-1-1.2-2.3-2.3c-1-1-2.3-1-3.3-2.3s-1-1.2-2.3-2.3c-1-1-2.3-1-3.3-2.3
					c-1.2-1.2-4.5-3.3-5.5-4.5c-2.3-1.2-4.5-3.3-6.8-5.5c-2.3-1-4.5-4.5-6.8-5.5c-2.3-2.3-4.5-4.5-6.8-5.5c-2.3-2.3-4.5-4.5-6.8-6.8
					c-2.3-1.2-4.5-4.5-5.5-5.5c-1-1-3.3-3.3-4.5-4.5c-2.3-3.3-4.5-4.5-4.5-4.5l-1-1C1130.6,2444.4,1130.6,2443.4,1130.6,2442.2
					L1130.6,2442.2z"/>
			</g>
		</g>
		<circle opacity="0.93" fill="#303030" enable-background="new    " cx="543.3" cy="2650.4" r="18"/>
		<circle opacity="0.93" fill="#303030" enable-background="new    " cx="479.3" cy="2650.4" r="18"/>
		<rect x="1474.9" y="2561.4" fill="#EFBD41" width="28" height="173.3"/>
	</g>
</g>
<g id="megan" transform="scale(0.1,0.1)">
	<path fill="#7FE2E5" d="M1492.9,3189.2H253.3c-65.3,0-120.3-54-120.3-120.3V739.1c0-348.8,285.8-634.5,634.5-634.5h209.3
		c348.8,0,634.5,285.8,634.5,634.5v2329.7C1612.1,3135.2,1559.1,3189.2,1492.9,3189.2z"/>
	<g>
		<g>
			<circle opacity="0.13" enable-background="new    " cx="598.5" cy="833.6" r="258.8"/>
			<circle fill="#EAE9E5" cx="587.3" cy="811.1" r="258.8"/>
			<g>
				<g>
					<circle fill="#474747" cx="592.8" cy="753.8" r="168.8"/>
					<path fill="#00A6B7" d="M592.8,680.5c40.5,0,73,32.5,73,73c0,40.5-32.5,73-73,73s-73-32.5-73-73
						C519.8,713.3,552.3,680.5,592.8,680.5 M592.8,585C499.5,585,424,660.3,424,753.8s75.3,168.8,168.8,168.8
						s168.8-75.3,168.8-168.8S686.3,585,592.8,585L592.8,585z"/>
				</g>
				<path opacity="0.69" fill="#474747" enable-background="new    " d="M591.8,923.6c0,0-1-4.5-4.5-14.5c-1-4.5-2.3-10-3.3-16.8
					c-1-6.8-1-13.5-2.3-21.3c-1-7.8-1-16.8,0-25.8s2.3-18,4.5-29.3c1-10,3.3-20.3,2.3-30.3c0-10-1-20.3-3.3-31.5
					c-1-10-3.3-20.3-4.5-31.5c-1-10-1-20.3-1-30.3c-1-20.3,0-38.3,1-54c1-15.8,4.5-28,5.5-37c1-9,4.5-13.5,4.5-13.5h2.3
					c0,0,1,4.5,4.5,13.5c1,10,4.5,21.3,5.5,37c1,15.8,3.3,34.8,1,54c-1,10-1,20.3-1,30.3c-1,10-2.3,20.3-4.5,31.5
					c-1,10-3.3,20.3-3.3,31.5c0,10,1,20.3,2.3,30.3c1,10,4.5,19,4.5,29.3c1,9,0,18,0,25.8c-1,7.8-1,15.8-2.3,21.3
					c-1,6.8-1,12.3-3.3,16.8C595,918.1,592.8,922.6,591.8,923.6L591.8,923.6L591.8,923.6z"/>
				<path opacity="0.8" fill="#474747" enable-background="new    " d="M421.8,753.8c0,0,5.5-1,15.8-4.5c4.5-1,10-2.3,16.8-3.3
					c6.8-1,13.5-1,21.3-2.3c7.8-1,16.8-1,25.8,0c9,1,18,2.3,29.3,4.5c10,1,20.3,3.3,30.3,2.3c10,0,20.3-1,31.5-3.3
					c10-1,20.3-3.3,31.5-4.5c10-1,20.3-1,30.3-1c20.3-1,38.3,0,54,1c15.8,1,27,4.5,37,5.5c10,1,12.3,4.5,12.3,4.5v2.3
					c0,0-3.3,1-12.3,4.5c-10,1-21.3,4.5-37,5.5c-15.8,1-33.8,3.3-54,1c-10-1-20.3-1-30.3-1c-10-1-20.3-2.3-31.5-4.5
					s-20.3-3.3-31.5-3.3c-10,0-20.3,1-30.3,2.3c-10,1-19,4.5-29.3,4.5c-9,1-18,0-25.8,0c-7.8-1-15.8-1-21.3-2.3
					c-6.8-1-12.3-1-18-3.3C427.5,756.1,421.8,753.8,421.8,753.8L421.8,753.8L421.8,753.8z"/>
				<path opacity="0.69" fill="#474747" enable-background="new    " d="M436.5,820.1c0,0,4.5-3.3,12.3-7.8s20.3-11.3,33.8-18
					c6.8-3.3,15.8-6.8,23.5-10c9-3.3,18-5.5,27-9c19-5.5,38.3-13.5,57.3-23.5c10-4.5,18-10,28-14.5c10-4.5,18-9,28-12.3
					c9-4.5,18-7.8,25.8-11.3c7.8-3.3,16.8-6.8,23.5-9c15.8-4.5,28-9,37-11.3c9-2.3,14.5-3.3,14.5-3.3l1,1c0,0-4.5,3.3-12.3,7.8
					c-7.8,4.5-19,11.3-33.8,18c-6.8,3.3-15.8,6.8-23.5,11.3s-16.8,6.8-25.8,11.3c-10,3.3-19,6.8-29.3,10c-10,4.5-20.3,6.8-30.3,10
					c-20.3,6.8-40.5,14.5-57.3,23.5c-9,4.5-16.8,10-25.8,13.5c-7.8,4.5-15.8,6.8-23.5,10c-15.8,5.5-27,10-37,12.3
					c-9,2.3-14.5,3.3-14.5,3.3L436.5,820.1z"/>
				<path opacity="0.69" fill="#474747" enable-background="new    " d="M527.5,597.3c0,0,4.5,4.5,10,12.3c2.3,4.5,5.5,9,9,14.5
					c3.3,5.5,6.8,12.3,10,19s6.8,15.8,10,23.5c3.3,9,4.5,18,6.8,28c2.3,10,4.5,20.3,10,29.3c4.5,10,10,19,15.8,28
					c5.5,9,11.3,18,15.8,27c4.5,10,10,18,13.5,27c9,18,14.5,34.8,19,50.5c4.5,15.8,7.8,28,10,37c1,10,2.3,15.8,2.3,15.8l-2.3,1
					c0,0-4.5-4.5-9-12.3c-5.5-7.8-12.3-19-20.3-32.5c-7.8-14.5-15.8-30.3-22.5-49.5c-3.3-10-6.8-19-10-29.3s-5.5-20.3-9-30.3
					c-2.3-10-5.5-20.3-10-30.3s-9-18-14.5-27c-5.5-9-11.3-16.8-15.8-24.8c-4.5-7.8-6.8-15.8-10-23.5c-2.3-6.8-4.5-14.5-6.8-20.3
					c-1-6.8-3.3-12.3-4.5-16.8c-1-10-2.3-15.8-2.3-15.8L527.5,597.3z"/>
				<path opacity="0.5" fill="#474747" enable-background="new    " d="M747.1,824.6c0,0-5.5-1-14.5-3.3c-9-2.3-21.3-6.8-36-12.3
					c-6.8-3.3-15.8-6.8-23.5-10c-7.8-4.5-16.8-9-24.8-14.5c-16.8-10-37-19-57.3-25.8c-10-3.3-20.3-6.8-29.3-10
					c-10-4.5-19-7.8-29.3-11.3c-9-4.5-18-6.8-25.8-12.3c-7.8-4.5-15.8-7.8-23.5-11.3c-14.5-6.8-25.8-14.5-33.8-19
					c-7.8-4.5-12.3-7.8-12.3-7.8l1-1c0,0,5.5,1,14.5,4.5c9,2.3,21.3,6.8,37,12.3c6.8,2.3,15.8,5.5,23.5,10c9,3.3,16.8,6.8,25.8,12.3
					c9,4.5,18,9,27,13.5c10,4.5,18,10,28,15.8c18,11.3,37,20.3,57.3,25.8c10,3.3,19,5.5,27,9c9,3.3,15.8,6.8,23.5,10
					c14.5,6.8,25.8,13.5,33.8,18c7.8,4.5,12.3,7.8,12.3,7.8L747.1,824.6z"/>
				<path opacity="0.69" fill="#474747" enable-background="new    " d="M522,909.1c0,0,0-5.5,1-15.8c1-10,4.5-22.5,10-37
					c2.3-6.8,5.5-15.8,10-23.5c4.5-7.8,10-15.8,16.8-23.5c6.8-7.8,12.3-16.8,15.8-25.8c4.5-10,6.8-20.3,10-30.3
					c2.3-10,4.5-20.3,7.8-31.5c3.3-10,6.8-20.3,10-29.3c6.8-18,15.8-34.8,23.5-48.3c4.5-6.8,7.8-12.3,12.3-18
					c4.5-5.5,6.8-10,10-13.5c6.8-6.8,10-11.3,10-11.3l3.3,1c0,0,0,5.5-1,15.8c-1,4.5-1,10-3.3,16.8c-1,6.8-3.3,13.5-5.5,21.3
					c-4.5,15.8-10,32.5-20.3,50.5c-4.5,9-10,18-14.5,27c-4.5,9-11.3,18-18,25.8c-6.8,9-12.3,18-16.8,27c-4.5,10-6.8,19-9,29.3
					c-1,10-3.3,20.3-6.8,28c-3.3,9-6.8,15.8-11.3,23.5c-7.8,13.5-15.8,24.8-21.3,31.5c-6.8,6.8-10,11.3-10,11.3L522,909.1z"/>
			</g>
			<g>
				<g>
					<g>
						<g>
							<defs>
								<path id="SVGID_26_" d="M840.3,842.6c0-76.5-114.8-137.3-258.8-137.3c-88.8,0-167.5,23.5-214.8,60.8
									c-28,21.3-63,7.8-78.8-15.8l118-351l432,92.3l38.3,333L840.3,842.6z"/>
							</defs>
							<clipPath id="SVGID_27_">
								<use xlink:href="#SVGID_26_"  overflow="visible"/>
							</clipPath>
							<g clip-path="url(#SVGID_27_)">
								<circle fill="#C17BFF" cx="586" cy="808.8" r="258.8"/>
								<path opacity="0.71" fill="#F9F9F9" enable-background="new    " d="M734.6,596.3c29.3,41.5,47.3,93.3,47.3,148.5
									c0,142.8-114.8,258.8-258.8,258.8c-55,0-106.8-18-148.5-47.3c46,66.3,123.8,109,211.5,109c142.8,0,258.8-114.8,258.8-258.8
									C844.8,721.1,801.1,643.5,734.6,596.3z"/>
							</g>
						</g>
					</g>
				</g>
			</g>
			<path opacity="0.34" fill="#F9F9F9" enable-background="new    " d="M735.8,599.5c29.3,41.5,47.3,93.3,47.3,148.5
				c0,142.8-114.8,258.8-258.8,258.8c-55,0-106.8-18-148.5-47.3c46,66.3,123.8,109,211.5,109c142.8,0,258.8-114.8,258.8-258.8
				C846.1,723.3,802.1,646.8,735.8,599.5z"/>
			<path fill="#474747" d="M839.3,846.1c0,0-1-2.3-2.3-6.8c-1-4.5-4.5-10-7.8-16.8c-4.5-6.8-10-14.5-18-21.3
				c-7.8-6.8-18-14.5-29.3-20.3c-23.5-12.3-54-23.5-87.8-32.5c-16.8-4.5-34.8-9-52.8-12.3s-37-5.5-56.3-6.8c-19-1-37-1-57.3,1
				c-18,1-37,4.5-54,7.8c-34.8,6.8-67.5,19-91,34.8c-3.3,2.3-6.8,4.5-10,5.5c-1,1-3.3,1-4.5,2.3c-1,1-4.5,1-5.5,2.3
				c-6.8,3.3-14.5,4.5-21.3,4.5c-13.5,0-24.8-4.5-31.5-10c-7.8-4.5-12.3-10-15.8-14.5c-1-1-2.3-3.3-3.3-4.5c-1-1-1-1-1-1
				c-1-1,0-2.3,1-3.3c1-1,2.3-1,3.3,1l0,0c0,0,0,1,1,1c1,1,1,2.3,3.3,4.5c3.3,3.3,7.8,6.8,15.8,11.3c6.8,3.3,16.8,6.8,27,4.5
				c5.5-1,10-2.3,15.8-4.5c1-1,2.3-1,3.3-2.3c1-1,2.3-2.3,4.5-3.3c2.3-2.3,5.5-4.5,7.8-6.8c23.5-19,57.3-36,93.3-47.3
				c18-5.5,37-10,57.3-13.5c20.3-3.5,40.5-5.5,60.8-6.8c20.3-1,41.5-1,61.8,1c20.3,1,40.5,4.5,59.5,9c19,4.5,37,12.3,54,20.3
				c15.8,9,31.5,18,42.8,29.3s22.5,23.5,29.3,34.8c6.8,12.3,11.3,23.5,12.3,32.5c1,10,1,18,1,22.5c-1,4.5-1,6.8-1,6.8
				C842.6,847.1,841.6,847.1,839.3,846.1C840.3,847.1,839.3,847.1,839.3,846.1z"/>
			<path fill="#474747" d="M375.8,501.8c0,0,1-1,4.5-4.5c2.3-2.3,6.8-5.5,12.3-10c5.5-4.5,12.3-9,20.3-12.3c4.5-2.3,9-4.5,13.5-6.8
				c4.5-2.3,10-4.5,15.8-6.8c11.3-4.5,23.5-9,36-12.3c6.8-1,13.5-3.3,20.3-4.5c3.3-1,6.8-1,10-1c4.5,0,6.8-1,11.3-1
				c4.5,0,6.8-1,11.3-1c4.5,0,7.8,0,11.3,0c7.8,1,15.8,0,23.5,1c4.5,1,7.8,1,12.3,1c4.5,1,7.8,1,12.3,2.3c7.8,2.3,15.8,4.5,23.5,6.8
				c15.8,6.8,30.3,12.3,42.8,21.3c3.3,2.3,6.8,4.5,10,6.8l2.3,1h1c-1,0,0,0,0,0l1,1l4.5,3.3c5.5,4.5,12.3,7.8,18,12.3
				c11.3,6.8,21.3,15.8,32.5,21.3c5.5,3.3,10,6.8,15.8,10c2.3,1,4.5,3.3,6.8,4.5c2.3,1,4.5,2.3,6.8,4.5c4.5,2.3,10,4.5,13.5,6.8
				c4.5,2.3,9,3.3,12.3,4.5c7.8,2.3,15.8,4.5,21.3,4.5c6.8,0,11.3-1,14.5-2.3c3.3-1,4.5-2.3,4.5-2.3s-1,1-3.3,4.5
				c-2.3,2.3-6.8,6.8-14.5,7.8c-6.8,2.3-15.8,3.3-25.8,2.3c-10-1-20.3-2.3-31.5-5.5c-5.5-1-12.3-3.3-18-5.5
				c-6.8-2.3-12.3-4.5-18-6.8c-12.3-4.5-24.8-11.3-37-18c-6.8-3.3-12.3-6.8-18-10l-4.5-2.3l-1-1l-1-1h-1l-2.3-1
				c-3.3-1-5.5-3.3-9-4.5c-12.3-6.8-24.8-12.3-37-18c-6.8-2.3-12.3-4.5-19-6.8c-6.8-2.3-13.5-3.3-20.3-4.5c-6.8-1-13.5-2.3-20.3-3.3
				c-3.3,0-6.8-1-10-1s-6.8,0-10,0c-3.3,0-6.8,0-10-1c-3.3,0-6.8,0-10,0c-6.8,0-12.3,0-18,1c-12.3,1-23.5,2.3-34.8,4.5
				c-5.5,1-10,1-15.8,3.3c-4.5,1-10,2.3-13.5,3.3c-9,2.3-16.8,4.5-22.5,6.8C383.5,499.5,375.8,501.8,375.8,501.8z"/>
		</g>
		<g>
			<circle opacity="0.13" enable-background="new    " cx="1144.1" cy="833.6" r="258.8"/>
			<circle fill="#EAE9E5" cx="1155.3" cy="811.1" r="258.8"/>
			<g>
				<g>
					<circle fill="#474747" cx="1155.3" cy="753.8" r="168.8"/>
					<path fill="#00A6B7" d="M1155.3,680.5c40.5,0,73,32.5,73,73c0,40.5-32.5,73-73,73c-40.5,0-73-32.5-73-73
						C1082.3,713.3,1116.1,680.5,1155.3,680.5 M1155.3,585c-93.3,0-168.8,75.3-168.8,168.8s75.3,168.8,168.8,168.8
						c93.5,0,168.8-75.3,168.8-168.8S1248.8,585,1155.3,585L1155.3,585z"/>
				</g>
				<path opacity="0.69" fill="#474747" enable-background="new    " d="M1155.3,923.6c0,0-1.2-4.5-4.5-14.5c-1-4.5-2.3-10-3.3-16.8
					c-1-6.8-1-13.5-2.3-21.3c-1.3-7.8-1-16.8,0-25.8c1.3-9,2.3-18,4.5-29.3c1-10,3.3-20.3,2.3-30.3c0-10-1-20.3-3.3-31.5
					c-1-10-3.3-20.3-4.5-31.5c-1-10-1-20.3-1-30.3c-1-20.3,0-38.3,1-54c1-15.8,4.5-28,5.5-37c1-10,4.5-13.5,4.5-13.5h2.3
					c0,0,1,4.5,4.5,13.5c1,10,4.5,21.3,5.5,37c1.3,15.8,3.3,34.8,1.3,54c-1.3,10-1.3,20.3-1.3,30.3c-1,10-2.3,20.3-4.5,31.5
					c-1,10-3.3,20.3-3.3,31.5c0,10,1,20.3,2.3,30.3c1,10,4.5,19,4.5,29.3c1,9,0,18,0,25.8c-1,7.8-1,15.8-2.3,21.3
					c-1,5.5-1,12.3-3.3,16.8C1157.6,918.1,1155.3,922.6,1155.3,923.6L1155.3,923.6L1155.3,923.6z"/>
				<path opacity="0.8" fill="#474747" enable-background="new    " d="M983.3,753.8c0,0,6.8-1,15.8-4.5c4.5-1,11.3-2.3,18-3.3
					c6.8-1,14.5-1,22.5-1c7.8-1,16.8-1,25.8,0c9,1,18,2.3,29.3,4.5c10,1,20.3,3.3,30.3,2.3c10,0,20.3-1,31.5-3.3
					c11.3-2.3,20.3-3.3,31.5-4.5c11.3-1,20.3-1,30.3-1c20.3-1,38.3,0,54,1c15.8,1,30.3,4.5,39.3,5.5c10,1,15.8,4.5,15.8,4.5v2.3
					c0,0-6.8,1-15.8,4.5c-10,1-23.5,4.5-39.3,5.5c-15.8,1-34.8,3.3-54,1c-10-1-20.3-1-30.3-1c-10-1-20.3-2.3-31.5-4.5
					c-10-1-20.3-3.3-31.5-3.3c-11.3,0-20.3,1-30.3,2.3c-10,1-19,4.5-29.3,4.5c-9,1-18,0-25.8,0c-7.8-1-15.8-1-21.3-2.3
					c-6.8-1-13.5-1-18-3.3c-10-1-15.8-4.5-15.8-4.5L983.3,753.8L983.3,753.8z"/>
				<path opacity="0.69" fill="#474747" enable-background="new    " d="M999.1,820.1c0,0,4.5-3.3,12.3-7.8s20.3-11.3,33.8-18
					c6.8-3.3,15.8-6.8,23.5-10c9-3.3,18-5.5,27-9c19-5.5,38.3-13.5,57.3-23.5c10-4.5,18-10,28-14.5c10-4.5,18-9,28-12.3
					c9-4.5,18-7.8,25.8-11.3c9-3.3,16.8-6.8,23.5-9c15.8-4.5,28-9,37-11.3c9-2.3,14.5-3.3,14.5-3.3l1,1c0,0-4.5,3.3-12.3,7.8
					c-7.8,4.5-19,11.3-33.8,18c-6.8,3.3-15.8,6.8-23.5,11.3s-16.8,6.8-25.8,11.3c-10,3.3-19,6.8-29.3,10c-10,4.5-20.3,6.8-30.3,10
					c-20.3,6.8-40.5,14.5-57.3,23.5c-9,4.5-16.8,10-25.8,13.5c-7.8,4.5-15.8,6.8-23.5,10c-15.8,5.5-27,10-37,12.3
					c-9,2.3-14.5,3.3-14.5,3.3L999.1,820.1z"/>
				<path opacity="0.69" fill="#474747" enable-background="new    " d="M1091.3,597.3c0,0,4.5,4.5,10,12.3c2.3,4.5,5.5,9,9,14.5
					c3.3,5.5,6.8,12.3,10,19s6.8,15.8,10,23.5c3.3,9,4.5,18,6.8,28c2.2,10,4.5,20.3,10,29.3c4.5,10,10,19,15.8,28
					c5.5,9,11.3,18,15.8,27c4.5,10,10,18,13.5,27c9,18,14.5,34.8,19,50.5c4.5,15.8,7.8,28,10,37c1,10,2.3,15.8,2.3,15.8l-2.3,1
					c0,0-4.5-4.5-9-12.3c-5.5-7.8-12.3-19-20.3-32.5c-7.8-14.5-15.8-30.3-22.5-49.5c-3.3-10-6.8-19-10-29.3c-3.3-10-5.5-20.3-9-30.3
					c-2.3-10-5.5-20.3-10-30.3c-4.5-10-9-18-14.5-27c-5.5-9-11.3-16.8-15.8-24.8c-4.5-7.8-6.8-15.8-10-23.5
					c-2.3-6.8-4.5-14.5-6.8-20.3c-1-6.8-3.3-12.3-4.5-16.8c-1-10-2.3-15.8-2.3-15.8L1091.3,597.3z"/>
				<path opacity="0.5" fill="#474747" enable-background="new    " d="M1310.6,824.6c0,0-5.5-1-14.5-3.3c-9-2.3-21.3-6.8-36-12.3
					c-6.8-3.3-15.8-6.8-23.5-10c-7.8-4.5-16.8-9-24.8-14.5c-16.8-10-37-19-57.3-25.8c-10-3.3-20.3-6.8-29.3-10s-19-7.8-29.3-11.3
					c-9-4.5-18-6.8-25.8-12.3c-7.8-4.5-15.8-7.8-23.5-11.3c-14.5-6.8-25.8-14.5-33.8-19c-7.8-4.5-12.3-7.8-12.3-7.8l1-1
					c0,0,5.5,1,14.5,4.5c9,2.3,21.3,6.8,37,12.3c6.8,2.3,15.8,5.5,23.5,10c9,3.3,16.8,6.8,25.8,12.3c9,4.5,18,9,27,13.5
					c10,4.5,18,10,28,15.8c18,11.3,37,20.3,57.3,25.8c10,3.3,18,5.5,27,9c9,3.3,15.8,6.8,23.5,10c14.5,6.8,25.8,13.5,33.8,18
					c7.8,4.5,12.3,7.8,12.3,7.8L1310.6,824.6z"/>
				<path opacity="0.69" fill="#474747" enable-background="new    " d="M1085.6,909.1c0,0,0-5.5,1-15.8c1-10.3,4.5-22.5,10-37
					c2.3-6.8,5.5-15.8,10-23.5c4.5-7.8,10-15.8,16.8-23.5c6.8-7.8,12.3-16.8,15.8-25.8c4.5-10,6.8-20.3,10-30.3
					c2.3-10,4.5-20.3,7.8-31.5c3.3-10,6.8-20.3,10-29.3c6.8-18,15.8-34.8,23.5-48.3c4.5-6.8,7.8-12.3,12.3-18
					c4.5-5.5,6.8-10,10-13.5c6.8-6.8,10-11.3,10-11.3l3.3,1c0,0,0,5.5-1,15.8c-1.3,4.5-1.3,10-3.3,16.8c-1,6.8-3.3,13.5-5.5,21.3
					c-4.5,15.8-10,32.5-20.3,50.5c-4.5,9-10,18-14.5,27c-4.5,9-11.3,18-18,25.8c-6.8,7.8-12.3,18-16.8,27c-4.5,10-6.8,19-9,29.3
					c-1,10-3.3,20.3-6.8,28c-3.3,9-6.8,15.8-11.3,23.5c-7.8,13.5-15.8,24.8-21.3,31.5c-6.8,6.8-10,11.3-10,11.3L1085.6,909.1z"/>
			</g>
			<g>
				<g>
					<g>
						<g>
							<defs>
								<path id="SVGID_28_" d="M1445.6,743.6c-15.8,23.5-50.5,37-78.8,15.8c-46-37-124.8-60.8-214.8-60.8
									c-142.8,0-258.8,61.8-258.8,137.3L775.3,549l306-150.8l390.3,95.5L1445.6,743.6z"/>
							</defs>
							<clipPath id="SVGID_29_">
								<use xlink:href="#SVGID_28_"  overflow="visible"/>
							</clipPath>
							<g clip-path="url(#SVGID_29_)">
								<circle fill="#C17BFF" cx="1152.1" cy="807.8" r="258.8"/>
								<path opacity="0.71" fill="#F9F9F9" enable-background="new    " d="M1299.3,595c29.3,41.5,47.3,93.3,47.3,148.5
									c0,142.8-114.8,258.8-258.8,258.8c-55,0-106.8-18-148.5-47.3c46,66.3,123.8,109,211.5,109c142.8,0,258.8-114.8,258.8-258.8
									C1409.6,720.1,1365.6,642.3,1299.3,595z"/>
							</g>
						</g>
					</g>
				</g>
			</g>
			<path opacity="0.34" fill="#F9F9F9" enable-background="new    " d="M1303.8,599.5c29.3,41.5,47.3,93.3,47.3,148.5
				c0,142.8-114.8,258.8-258.8,258.8c-55,0-106.8-18-148.5-47.3c46,66.3,123.8,109,211.5,109c142.8,0,258.8-114.8,258.8-258.8
				C1414.1,723.3,1370.1,646.8,1303.8,599.5z"/>
			<path fill="#474747" d="M896.6,839.3c0,0-1-2.3-1-6.8c0-4.5-1-12.3,1-22.5c1-10,5.5-20.3,12.3-32.5c6.8-12.3,16.8-23.5,29.3-34.8
				c12.3-11.3,27-20.3,42.8-29.3c15.8-9,34.8-15.8,54-20.3s39.3-7.8,59.5-9c20.3-1,40.5-1,61.8-1c20.3,1,41.5,3.3,60.8,6.8
				c20.3,3.3,39.3,7.8,57.3,13.5c37,11.3,69.8,28,93.3,47.3c3.3,2.3,5.5,4.5,7.8,6.8c1,1,3.3,2.3,4.5,3.3c1,1,2.3,1,3.3,2.3
				c4.5,2.3,10,4.5,15.8,4.5c10,1,20.3-1,27-4.5c6.8-3.5,12.3-7.8,15.8-11.3c1-1,2.3-3.3,3.3-4.5c1-1,1-1,1-1l0,0c1-1,2.3-1,3.3,0
				s1,2.3,1,3.3c0,0,0,1-1,1c-1,1-1,2.3-3.3,4.5c-3.3,4.5-7.8,10-15.8,14.5c-7.8,4.5-18,10-31.5,10c-6.8,0-14.5-1-21.3-4.5
				c-1-1-4.5-1-5.5-2.3c-1-1.3-3.3-1-4.5-2.3c-3.3-1-6.8-4.5-10-5.5c-23.5-15.8-56.3-27-91-34.8c-18-4.5-36-6.8-54-7.8
				c-19-1-37-1-57.3-1c-19,1-37,3.3-56.3,6.8c-18,4.5-36,7.8-52.8,12.3c-33.8,9-64,20.3-87.8,32.5c-12.3,6.8-21.3,13.5-29.3,20.3
				c-7.8,6.8-14.5,14.5-18,21.3c-4.5,6.8-6.8,12.3-7.8,16.8c-1,4.5-2.3,6.8-2.3,6.8c-1,1-1,2.3-3.3,1
				C896.6,841.6,896.6,840.3,896.6,839.3z"/>
			<path fill="#474747" d="M1362.3,536.5c0,0-6.8-2.3-20.3-6.8c-12.3-4.5-31.5-9-52.8-14.5c-21.3-4.5-47.3-10-74.3-12.3
				c-13.5-1-28-2.3-41.5-2.3c-14.5,0-29.3,0-42.8,1c-14.5,1-28,3.3-42.8,6.8l-2.3,1h-1.3l0,0c1.3,0,0,0,0,0l0,0h-1l-5.5,1
				c-4.5,1-6.8,1-10,2.3c-6.8,1-13.5,4.5-20.3,5.5s-12.3,4.5-19,5.5s-12.3,4.5-18,6.8c-5.8,2.3-12.3,4.5-16.8,6.8
				c-2.3,1-5.5,2.3-7.8,3.3c-2.3,1-4.5,2.3-7.8,3.3c-10,4.5-19,10-25.8,14.5c-6.8,4.5-14.5,10-19,13.5c-10,9-14.5,15.8-14.5,15.8
				s0-1,1-5.5c1-3.3,3.3-9,6.8-14.5c3.3-6.8,9-12.3,15.8-20.3c6.8-7.8,14.5-15.8,23.5-21.3c2.3-1,4.5-4.5,6.8-5.5
				c2.3-1,5.5-3.3,7.8-5.5c5.5-4.5,11.3-6.8,16.8-10c5.5-3.3,12.3-6.8,18-10c3.3-1,6.8-3.3,10-4.5c3.3-1,6.8-2.3,10-4.5
				c6.8-2.3,14.5-5.5,20.3-7.8c3.3-1,6.8-2.3,10-3.3l6.8-2.3l1.2-1l1-1l3.3-1c15.8-4.5,31.5-6.8,48.3-9c15.8-1,32.5-1,48.3-1
				c15.8,1,31.5,3.3,46,6.8c29.3,6.8,55,15.8,76.5,25.8c21.3,10,37,20.3,48.3,29.3C1356.6,531,1362.3,536.5,1362.3,536.5z"/>
		</g>
		<circle fill="#474747" cx="1110.3" cy="1138.3" r="23.5"/>
		<g>
			<path opacity="0.15" enable-background="new    " d="M1138.6,1240.8c0,0-42.8,15.8-61.8-10c-20.3-24.8-55-67.5-124.8-67.5
				s-82,37-82,37l0,0c0,0-15.8-37-84.3-37c-69.8,0-104.5,43.8-124.8,68.5c-20.3,24.8-61.8,9-61.8,9s65.3,165.3,271,165.3
				C1075.6,1406.1,1138.6,1240.8,1138.6,1240.8z"/>
			<path fill="#FC5959" d="M1138.6,1240.8c0,0-42.8-6.8-61.8-32.5c-20.3-24.8-55-67.5-124.8-67.5s-82,37-82,37l0,0
				c0,0-15.8-37-84.3-37c-69.8,0-104.5,43.8-124.8,68.5c-20.3,24.8-61.8,31.5-61.8,31.5s65.3,141.8,271,141.8
				C1075.6,1382.6,1138.6,1240.8,1138.6,1240.8z"/>
			<path fill="#474747" d="M597.3,1240.8c0,0,2.3,1,6.8,1c4.5,1,10,1,16.8,3.3c14.5,3.3,36,6.8,60.8,10c12.3,1,25.8,3.3,40.5,4.5
				c14.5,1,29.3,3.3,46,4.5c15.8,1,31.5,2.3,48.3,2.3c7.8,0,16.8,1,25.8,1c9,0,16.8,0,25.8,0c16.8,0,33.8,0,50.5-1
				c16.8,0,32.5-1,48.3-2.3c4.5,0,7.8-1,12.3-1c4.5-1,7.8-1,11.3-1c7.8-1,15.8-1,22.5-2.3c14.5-1,28-3.3,40.5-5.5
				c12.3-2.3,23.5-3.3,34.8-4.5c10-1,19-4.5,25.8-4.5c14.5-2.3,23.5-4.5,23.5-4.5s-7.8,2.3-22.5,6.8c-6.8,2.3-15.8,4.5-25.8,7.8
				s-21.3,5.5-34.8,7.8c-6.8,1-12.3,3.3-20.3,4.5c-6.8,1-13.5,2.3-21.3,4.5c-14.5,2.3-29.3,5.5-46,6.8c-7.8,1-15.8,1-24.8,2.3
				c-4.5,1-7.8,1-12.3,1s-9,0-12.3,1c-16.8,1-34.8,1-51.8,1c-9,0-18,0-25.8,0c-9,0-16.8-1-25.8-1c-16.8-1-33.8-2.3-49.5-4.5
				c-15.8-1-31.5-4.5-46-6.8c-14.5-2.3-28-4.5-40.5-7.8c-12.3-2.3-23.5-5.5-34.8-7.8c-10-2.3-19-5.5-25.8-6.8
				C605.3,1244.1,597.3,1240.8,597.3,1240.8z"/>
			<path opacity="0.59" fill="#474747" enable-background="new    " d="M931.6,1270.1c0,0,1,0,2.3-1c1-1,4.5-2.3,6.8-4.5
				c2.3-2.3,5.5-4.5,7.8-7.8c2.3-3.3,4.5-6.8,6.8-11.3c1-2.3,1-4.5,2.3-6.8c1.3-2.3,1-4.5,1-6.8c1-4.5,1-7.8,1-11.3
				c1-3.3,0-6.8,1-7.8c0-2.3,0-3.3,0-3.3s0,1,0,3.3s1.3,4.5,1.3,7.8c0,3.3,0,6.8-1.3,12.3c0,2.3-1,4.5-1,6.8s-1,4.5-1,6.8
				c-1,4.5-3.3,9-5.5,12.3c-2.3,4.5-5.5,6.8-7.8,10c-2.3,2.3-5.5,4.5-6.8,5.5c-1,1-3.3,1-3.3,1L931.6,1270.1z"/>
			<path opacity="0.59" fill="#474747" enable-background="new    " d="M741.3,1272.3c0,0-1-1-1-2.3c-1-1-2.3-3.3-4.5-6.8
				c-3.3-5.5-6.8-12.3-7.8-20.3c-1-1-1-4.5-1-5.5c0-1,0-4.5,0-5.5s0-4.5,0-5.5c0-1,0-3.3,1-4.5c1-3.3,1-5.5,1-6.8c0-1,1-2.3,1-2.3
				s0,1,0,2.3c0,1-1,4.5-1,6.8c0,1,0,3.3,0,4.5c0,1,0,3.3,1,4.5c0,1,1,4.5,1,5.5c1,1,1,4.5,1,5.5c2.3,6.8,6.8,13.5,10,18
				c3.3,4.5,6.8,6.8,6.8,6.8L741.3,1272.3z"/>
			<path opacity="0.59" fill="#474747" enable-background="new    " d="M940.6,1264.3c0,0,2.3,0,6.8-1c4.5-1,10-1,15.8-4.5
				c2.3-1,4.5-3.3,6.8-4.5c1.3-1,2.3-1,2.3-3.3c1-1,1-1,2.3-3.3c1.3-2.3,1-4.5,2.3-4.5c1-1,1-1,1-1s0,1,0,2.3c0,1-1,3.3-1,5.5
				c0,1-1,2.3-1,3.3c-1.3,1-1.3,2.3-2.3,3.3c-1,2.3-4.5,4.5-6.8,6.8c-10,6.8-23.5,10-23.5,10L940.6,1264.3z"/>
			<path opacity="0.59" fill="#474747" enable-background="new    " d="M767.3,1267.8c0,0-1-2.3-2.3-5.5c-1.3-3.3-3.3-7.8-4.5-12.3
				c-2.3-10-1-19-1-19s1,10,4.5,18c1,4.5,4.5,7.8,6.8,11.3c1,3.3,3.3,4.5,3.3,4.5L767.3,1267.8z"/>
			<path opacity="0.59" fill="#474747" enable-background="new    " d="M871.8,1277.8c0,0-2.3,5.5-4.5,14.5s-5.5,20.3-6.8,32.5
				c-1,6.8-1,12.3-1,18c0,3.3,1,5.5,1,7.8c1,2.3,1,4.5,1,6.8c1,2.3,1,4.5,2.3,5.5s1,3.3,2.3,4.5c1,2.3,1,4.5,1,4.5s-1-1-2.3-4.5
				c-1-1-1-2.3-2.3-4.5c-1-2.3-1-4.5-2.3-5.5c-1.3-2.3-1.3-4.5-2.3-6.8s-1-5.5-1-7.8c-1-5.5-1-12.3-1-18c0-12.3,2.3-25.8,4.5-34.8
				c1-10,4.5-15.8,4.5-15.8L871.8,1277.8z"/>
			<path opacity="0.59" fill="#474747" enable-background="new    " d="M885.3,1274.6c0,0-1.3,2.3-1.3,6.8c-1,4.5-1,10-1,14.5
				c-1,11.3-1,21.3-1,21.3s-1-11.3-3.3-21.3c-1-5.5-1-11.3-1-15.8c0-4.5,0-6.8,0-6.8L885.3,1274.6z"/>
			<path opacity="0.59" fill="#474747" enable-background="new    " d="M658,1259.8h-1c-1,0-1-1-3.3-1c-2.3-1-5.5-3.3-6.8-5.5
				c-2.3-2.3-3.3-5.5-3.3-7.8c-1-2.3,0-4.5,0-4.5s1,1,1,3.3c1,1,3.3,4.5,4.5,5.5c2.3,1,4.5,2.3,6.8,2.3c1,0,1,0,2.3,0c1.3,0,1,0,1,0
				L658,1259.8z"/>
			<path opacity="0.59" fill="#474747" enable-background="new    " d="M1044.1,1257.6C1044.1,1257.6,1045.1,1257.6,1044.1,1257.6
				c1,1,2.3,1,3.3,2.3c1,1,3.3,4.5,4.5,6.8c2.3,4.5,2.3,10,2.3,10s-2.3-4.5-5.5-6.8c-1.3-1-3.3-2.3-4.5-3.3c-1,0-1,0-1-1
				c0,0,0,0-1,0L1044.1,1257.6z"/>
			<path opacity="0.59" fill="#474747" enable-background="new    " d="M754.8,1272.3c0,0-1,1-4.5,4.5c-2.3,3.3-5.5,6.8-6.8,12.3
				c-1,2.3-1,4.5-1,6.8s0,4.5,0,6.8c1,4.5,2.3,6.8,2.3,6.8s-1-2.3-3.3-6.8c-1-1-1-4.5-1-6.8s0-5.5,0-9c1-5.5,3.3-11.3,5.5-15.8
				c2.3-4.5,4.5-6.8,4.5-6.8L754.8,1272.3z"/>
		</g>
		<g id="TETTEN">
			<path opacity="0.48" fill="#474747" enable-background="new    " d="M1269.1,1618.9c-9,0-19-1-31.5,0
				c-12.3,1.2-25.8,1.2-40.5,2.3c-6.8,1-15.8,1-23.5,2.3c-7.8,1.3-15.8,2.3-24.8,4.5c-4.5,1.2-9,1.2-12.3,2.3c-4.5,1-9,2.3-12.3,3.3
				c-9,2.3-18,4.5-27,6.8c-9,3.3-18,5.5-27,9c-9,3.3-18,6.8-28,11.3c-9,4.5-18,7.8-27,13.5c-9,4.5-18,10-25.8,15.8
				c-9,5.5-18,11.3-25.8,18c-4.5,3.3-7.8,6.8-12.3,10c-4.5,3.3-7.8,6.8-11.3,10c-10,9-19,18-27,29.3c-1-3.3-4.5-6.8-6.8-10
				c-2.3-3.3-4.5-6.8-7.8-11.3c-3.3-4.5-5.5-7.8-10-11.3c-3.3-4.5-6.8-7.8-11.3-12.3s-7.8-6.8-12.3-11.3c-9-7.8-19-15.8-29.3-22.5
				c-5.5-3.3-11.3-6.8-15.8-10c-5.5-3.3-11.3-6.8-16.8-10c-12.3-5.5-23.5-12.3-36-15.8c-6.8-2.3-12.3-4.5-18-6.8
				c-6.8-2.3-12.3-4.5-18-5.5c-6.8-1-12.3-3.3-18-4.5c-5.8-1.3-12.3-2.3-18-4.5c-12.3-2.3-23.5-4.5-34.8-6.8
				c-11.3-1-21.3-2.3-31.5-3.3c-10-1-18-1-25.8-1s-14.5-1-20.3-1c-11.3,0-18-1.3-18-1.3s6.8,1.3,18,2.3c5.5,1,12.3,1,20.3,2.3
				c7.8,1.3,16.8,1.3,25.8,4.5c10,1.2,20.3,4.5,30.3,6.8c10,2.3,21.3,6.8,33.8,9c5.5,1.2,12.3,3.3,18,5.5c5.5,2.3,11.3,4.5,18,6.8
				c5.5,2.3,12.3,4.5,18,6.8c5.8,2.3,11.3,5.5,16.8,7.8c11.3,4.5,21.3,12.3,32.5,18c5.5,3.3,10,6.8,15.8,10c5.8,3.3,10,6.8,14.5,10
				c9,7.8,18,14.5,23.5,22.5c6.8,6.8,13.5,15.8,19,22.5c2.3,3.3,4.5,6.8,6.8,10c2.3,3.3,4.5,6.8,5.5,10c4.5,6.8,6.8,12.3,7.8,15.8
				c1,3.3,2.3,6.8,3.3,9c-5.5,10-11.3,19-15.8,29.3c-7.8,15.8-12.3,31.5-16.8,46c-4.5,14.5-6.8,29.3-6.8,40.5c-1,12.3-1,23.5-1,31.5
				c0,7.8,1,15.8,1,20.3c1,4.5,1,6.8,1,6.8s1-10,4.5-25.8c1-7.8,4.5-18,7.8-29.3c4.5-11.3,7.8-23.5,13.5-37
				c5.5-12.3,12.3-25.8,21.3-40.5c9-13.5,18-27,29.3-40.5c5.5-6.8,12.3-12.3,18-19c3.3-3.3,6.8-6.8,10-9c3.3-3.3,6.8-6.8,10-9l10-9
				c3.3-3.3,6.8-5.5,11.3-7.8c6.8-5.5,15.8-10,23.5-15.8c7.8-5.5,15.8-10,23.5-14.5c7.8-4.5,16.8-9,24.8-12.3
				c7.8-4.5,16.8-7.8,24.8-11.3c7.8-4.5,16.8-6.8,24.8-10c7.8-4.5,16.8-5.5,24.8-9c4.5-1,7.8-3.3,12.3-4.5c4.5-1.3,7.8-2.3,12.3-4.5
				c7.8-2.3,15.8-4.5,23.5-6.8c6.8-2.3,15.8-4.5,21.3-6.8c13.5-4.5,27-6.8,38.3-10c11.3-3.3,21.3-5.5,30.3-6.8
				c16.8-4.5,25.8-6.8,25.8-6.8S1284.8,1618.9,1269.1,1618.9z"/>
			<path fill="#F4F2F2" d="M861.8,2100.1c0,0,258.8-555.8,751.6-320.5c60.8,27,25.8,95.5-12.3,90c-38.3-4.5,73,16.8,23.5,81
				c-50.5,64,46-10,0,74.3C1578.4,2110.4,1313.8,2462.4,861.8,2100.1z"/>
			<path fill="#F2F2F2" d="M877.6,2100.1c0,0-258.8-555.8-751.6-320.5c-60.8,27-25.8,95.5,12.3,90c38.3-4.5-73,16.8-23.5,81
				c50.5,64-46-10,0,74.3C161,2110.4,425.3,2462.4,877.6,2100.1z"/>
			<path opacity="0.2" enable-background="new    " d="M1599.6,1869.6c0,0-10-4.5-25.8-9c-16.8-4.5-42.8-11.3-72-14.5
				c-15.8-1.3-31.5-3.3-48.3-3.3c-18-1-34.8,1-54,1c-18,1.3-37,4.5-57.3,9c-10,1.2-19,4.5-29.3,6.8c-10,2.3-19,5.5-29.3,9
				c-19,6.8-37,14.5-55,22.5c-18,9-34.8,18-51.8,27c-7.8,4.5-15.8,10-23.5,14.5c-6.8,4.5-15.8,10-22.5,15.8
				c-6.8,4.5-13.5,10-20.3,15.8c-6.8,4.5-12.3,10-19,14.5c-5.5,4.5-12.3,10-16.8,13.5c-5.5,4.5-10,9-15.8,12.3
				c-10,7.8-18,15.8-23.5,21.3c-12.3,12.3-20.3,19-20.3,19s6.8-7.8,18-22.5c5.5-6.8,12.3-15.8,21.3-24.8c4.5-4.5,9-10,13.5-15.8
				c4.5-4.5,10-10,15.8-15.8c11.3-11.3,23.5-21.3,37-33.8c6.8-5.5,14.5-11.3,21.3-16.8c6.8-5.5,15.8-11.3,23.5-16.8
				c7.8-5.5,16.8-10,25.8-15.8c9-5.5,18-10,27-14.5c18-10,37-18,57.3-24.8c10-3.3,20.3-6.8,30.3-9c10-2.3,20.3-5.5,30.3-6.8
				c4.5-1,10-1,15.8-3.3c4.5-1.2,10-1.2,15.8-1.2c10-1,20.3-1,29.3-2.3c20.3-1.3,38.3-1.3,57.3,1c18,1,34.8,4.5,50.5,7.8
				c15.8,3.3,29.3,6.8,40.5,11.3c12.3,4.5,22.5,9,30.3,12.3c7.8,4.5,14.5,6.8,18,10C1598.6,1868.6,1599.6,1869.6,1599.6,1869.6z"/>
			<path opacity="0.2" enable-background="new    " d="M139.5,1869.6c0,0,10-5.5,29.3-12.3c19-6.8,47.3-15.8,82-23.5
				c18-3.3,37-6.8,57.3-6.8c20.3-1,41.5-2.3,64-1c22.5,1,46,3.3,68.5,6.8c11.3,2.3,23.5,4.5,34.8,6.8l18,4.5l16.8,4.5
				c23.5,6.8,45,15.8,66.3,25.8c10,4.5,20.3,10,31.5,15.8c10,5.5,20.3,12.3,29.3,18c10,5.5,18,12.3,27,18c9,5.5,16.8,12.3,24.8,19
				c7.8,6.8,15.8,12.3,22.5,19c6.8,6.8,14.5,12.3,20.3,18c12.3,12.3,23.5,23.5,33.8,34.8c10,10,18,20.3,23.5,29.3
				c12.3,15.8,19,25.8,19,25.8s-9-7.8-23.5-22.5c-6.8-6.8-16.8-15.8-27-24.8c-10-10-23.5-20.3-36-31.5c-6.8-5.5-14.5-11.3-21.3-16.8
				c-6.8-5.5-15.8-12.3-23.5-16.8c-15.8-11.3-33.8-22.5-52.8-33.8c-10-4.5-19-10-29.3-15.8c-10-4.5-20.3-10-30.3-14.5
				c-20.3-9-41.5-18-64-23.5l-15.8-4.5l-16.8-4.5c-11.3-3.3-22.5-4.5-33.8-6.8c-22.5-4.5-43.8-6.8-65.3-9c-21.3-1-42.8-2.3-61.8-2.3
				c-19,0-38.3,1-56.3,3.3c-18,1.2-32.5,4.5-47.3,6.8c-13.5,2.3-25.8,4.5-36,6.8C150.8,1866.4,139.5,1869.6,139.5,1869.6z"/>
			<path opacity="0.2" enable-background="new    " d="M126,1979.9c0,0,32.5,25.8,86.5,56.3c13.5,6.8,28,15.8,43.8,23.5
				s32.5,15.8,49.5,23.5c18,6.8,36,14.5,55,20.3c19,6.8,38.3,12.3,57.3,18c20.3,4.5,39.3,10,59.5,12.3c20.3,3.3,39.3,6.8,58.5,7.8
				c10,1.2,18,1.2,28,2.3c9,1,18,1,27,1c9,0,18,0,25.8,0s15.8,0,23.5-1c7.8,0,15.8-1,21.3-1c6.8-1.2,13.5-1.2,20.3-1.2
				c12.3-1,23.5-2.3,31.5-4.5c18-2.3,28-4.5,28-4.5s-10,3.2-27,9c-9,2.3-19,4.5-31.5,7.8c-12.3,3.3-25.8,5.5-41.5,6.8
				c-7.8,1-15.8,1-23.5,3.3c-9,1-16.8,1-25.8,1c-9,1.3-18,1.3-28,1.3c-10,0-19,0-29.3-1.3c-10,0-20.3-1-29.3-2.3
				c-10-1.2-20.3-2.3-30.3-4.5c-20.3-3.3-40.5-7.8-61.8-12.3c-20.3-5.5-40.5-12.3-59.5-19c-19-6.8-37-15.8-56.3-23.5
				c-18-9-34.8-18-49.5-25.8c-15.8-9-29.3-18-42.8-27c-25.8-18-46-34.8-58.5-47.3C134,1987.9,126,1979.9,126,1979.9z"/>
			<path opacity="0.2" enable-background="new    " d="M1607.6,1979.9c0,0-5.5,10-16.8,23.5c-11.3,14.5-29.3,34.8-54,56.3
				c-12.3,10-25.8,21.3-41.5,31.5c-15.8,10-31.5,20.3-50.5,30.3c-18,10-37,18-57.3,24.8c-10,3.3-20.3,6.8-30.3,10
				c-5.5,1-10,3.3-15.8,4.5l-15.8,3.3c-21.3,4.5-42.8,6.8-64,9c-10,1-21.3,1-31.5,1c-10,0-20.3-1-31.5-1c-10-1-20.3-1-29.3-2.3
				c-10-1-19-2.3-28-4.5c-9-1-18-3.3-25.8-4.5c-9-1-16.8-3.3-24.8-5.5c-15.8-4.5-29.3-7.8-41.5-12.3c-12.3-4.5-23.5-7.8-31.5-12.3
				c-18-6.8-27-11.3-27-11.3s10,2.3,28,6.8c9,2.3,20.3,4.5,32.5,6.8c12.3,3.3,27,4.5,42.8,7.8c7.8,1.3,15.8,2.3,23.5,3.3
				c9,1,16.8,2.3,25.8,3.3c9,1,18,1,27,2.3c10,0,19,1,29.3,1c10,0,20.3,0,29.3-1c9-1.2,20.3-1.2,30.3-2.3c20.3-2.3,40.5-4.5,60.8-10
				l15.8-3.3c4.5-1.2,10-2.3,15.8-4.5c10-2.3,20.3-5.5,29.3-9c9-3.3,19-6.8,29.3-10c10-4.5,18-6.8,27-12.3
				c18-7.8,34.8-16.8,49.5-25.8c15.8-10,29.3-18,42.8-28c12.3-10,23.5-18,33.8-25.8c10-7.8,18-15.8,24.8-22.5
				C1599.6,1987.9,1607.6,1979.9,1607.6,1979.9z"/>
			<path opacity="0.2" enable-background="new    " d="M310.5,1964.1c0,0,2.3,1,5.5,2.3c4.5,1.3,10,4.5,16.8,6.8
				c6.8,3.3,15.8,6.8,25.8,10c10,4.5,20.3,7.8,33.8,12.3c12.3,4.5,25.8,10,39.3,15.8c13.5,5.5,29.3,10,43.8,15.8
				c14.5,5.5,31.5,10,48.3,15.8c16.8,4.5,32.5,10,49.5,14.5c16.8,4.5,33.8,10,50.5,12.3c7.8,1,16.8,4.5,24.8,5.5
				c7.8,2.3,15.8,3.3,23.5,4.5c7.8,1,15.8,2.3,23.5,4.5c7.8,1,15.8,2.3,22.5,3.2c14.5,1,29.3,4.5,41.5,4.5c12.3,1,24.8,2.3,34.8,3.2
				c10,0,20.3,1,27,1c15.8,1,23.5,1,23.5,1s-9,1.2-23.5,3.2c-7.8,1.3-16.8,2.3-28,3.3c-10,1.3-23.5,1.3-36,1.3
				c-13.5,1-28,0-42.8-1.3c-6.8-1-15.8-1-23.5-1s-15.8-2.3-23.5-3.3c-16.8-1-33.8-4.5-50.5-9c-16.8-3.2-34.8-7.8-51.8-12.3
				c-16.8-4.5-33.8-10-50.5-15.8c-7.8-2.3-15.8-5.5-23.5-9s-15.8-5.5-23.5-9c-15.8-6.8-30.3-12.3-43.8-19c-6.8-3.3-13.5-6.8-20.3-10
				c-6.8-3.3-12.3-6.8-18-10c-12.3-5.5-22.5-12.3-31.5-18c-10-5.5-18-10-23.5-14.5c-6.8-4.5-11.3-7.8-15.8-10
				C311.8,1965.4,310.5,1964.1,310.5,1964.1z"/>
			<path opacity="0.2" enable-background="new    " d="M951.8,2100.1c0,0,36-6.8,91-18c13.5-3.3,28-5.5,43.8-9
				c15.8-3.5,31.5-6.8,48.3-10c16.8-4.5,34.8-7.8,51.8-12.3c16.8-4.5,36-7.8,54-12.3c9-2.3,18-4.5,27-6.8c9-2.3,18-4.5,25.8-6.8
				c9-2.3,18-4.5,25.8-6.8c9-2.3,16.8-4.5,25.8-6.8c7.8-2.3,16.8-4.5,24.8-6.8c7.8-2.3,15.8-4.5,23.5-6.8c15.8-4.5,29.3-9,42.8-12.3
				c12.3-4.5,25.8-7.8,36-11.3c10-4.5,20.3-6.8,28-10c15.8-4.5,23.5-7.8,23.5-7.8s-7.8,4.5-22.5,12.3c-6.8,4.5-15.8,9-25.8,13.5
				c-10,4.5-21.3,10-34.8,15.8c-13.5,5.5-25.8,11.3-41.5,16.8c-6.8,3.3-15.8,5.5-23.5,9c-7.8,3.3-15.8,5.5-23.5,7.8
				c-16.8,5.5-33.8,11.3-51.8,15.8c-18,5.5-36,10-54,14.5c-18,4.5-36,7.8-54,12.3c-18,4.5-36,6.8-52.8,10
				c-34.8,5.5-66.3,10-94.5,12.3c-13.5,1-25.8,2.3-37,3.3c-11.3,1-21.3,1-29.3,1C960.8,2100.1,951.8,2100.1,951.8,2100.1z"/>
		</g>
	</g>
	<g id="haar">
		<path fill="#474747" d="M515.3,178.8c0,0,316-346.5,1010.1-74.3c553.5,217,3.3,798.8,138.3,1136.1
			c135,337.5,38.3,448.8,38.3,448.8s-52.8,112.5,67.5,144c-157.5-10-256.5-105.8-244-186.8c12.3-79.8,48.3-181,0-264.3
			c-48.3-83.3-184.5-329.5-76.5-697.5C1556.9,317.3,515.3,178.8,515.3,178.8z"/>
		<g opacity="0.25">
			<path d="M1628.9,1686.4c12.3-79.8,48.3-181,0-264.3s-184.5-329.5-76.5-697.5c51.8-175.5-157.5-298-390.3-379
				c186.8,79.8,329.5,190,286.8,339.8c-106.8,367.8,28,614.3,76.5,697.5c48.3,83.3,12.3,183.3,0,264.3c-10,70.8,65.3,153,190,178.8
				C1653.6,1787.6,1622.1,1734.6,1628.9,1686.4z"/>
		</g>
		<path fill="#474747" d="M600.8,136c0,0,14.5-69.8-131.5-90S-28,193.5,58.5,562.5C115.8,777.3,63,972.1,63,972.1
			s-25.8,68.5,0,120.3c0-40.5,11.3-59.5,20.3-78.8c10-20.3,101.3-120.3,96.8-226c-4.5-106.8,192.3-504,347.5-549
			C612,208,600.8,136,600.8,136z"/>
		<path opacity="0.15" fill="#FFFFFF" enable-background="new    " d="M112.5,972.1c10-83.3,15.8-214.8-20.3-353.3
			c-88.8-379.3,244-563.8,415-566c-11.3-3.3-23.5-5.5-37-6.8C324,23.5-27,193.5,58.5,562.5C115.8,777.3,63,972.1,63,972.1
			s-25.8,68.5,0,120.3c0-40.5,11.3-59.5,20.3-78.8C86.8,1006.8,99,992.3,112.5,972.1z"/>
		<g opacity="0.22">
			<path d="M697.5,136c0,0,6.8-3.3,20.3-9c13.5-5.8,34.8-13.5,60.8-22.5c25.8-9,58.5-18,96.8-28c37-9,81-18,129.3-21.3
				c23.5-2.3,48.3-3.3,75.3-3.3c12.3,0,25.8,1,40.5,1c12.3,1,27,2.3,40.5,3.3c54,5.5,112.5,15.8,171,31.5
				c58.5,15.8,118,34.8,174.3,66.3c28,15.8,56.3,33.8,81,57.3c12.3,12.3,23.5,24.8,33.8,40.5l3.3,5.5l1,3.3l1,2.3
				c1,3.3,4.5,6.8,5.5,10c4.5,6.8,6.8,15.8,11.3,22.5c13.5,30.3,23.5,61.8,30.3,94.5c6.8,32.5,7.8,65.3,6.8,97.8
				c-1,65.3-15.8,126-30.3,184.5c-15.8,58.5-34.8,112.5-48.3,164.3c-14.5,51.8-27,101.3-34.8,148.5c-7.8,46-11.3,88.8-12.3,127
				c0,38.3,3.3,70.8,6.8,99c1,6.8,1,13.5,3.3,19c1,6.8,2.3,12.3,3.3,16.8c1,10,4.5,19,5.5,25.8c3.3,14.5,4.5,22.5,4.5,22.5
				s-2.3-6.8-6.8-21.3c-2.3-6.8-4.5-15.8-7.8-25.8c-1.3-4.5-3.3-10-4.5-16.8c-1-6.8-3.3-12.3-4.5-19c-3.3-13.5-5.5-29.3-9-46
				c-1-7.8-2.3-16.8-3.3-25.8s-1-18-2.3-28c-2.3-39.3-1-83.3,4.5-131.5c5.5-48.3,15.8-99,29.3-151.8c6.8-25.8,13.5-54,21.3-82
				c6.8-28,15.8-55,22.5-84.3c13.5-57.3,23.5-117,25.8-176.5c1.3-30.3-1-59.5-6.8-90c-5.5-29.3-15.8-57.3-28-85.5
				c-3.3-6.8-6.8-13.5-10-20.3c-1-3.3-4.5-6.8-5.5-10l-1-2.3l-1-2.3l-2.3-4.5c-6.8-12.3-16.8-22.5-27-32.5c-20.3-20.3-46-37-72-51.8
				c-52.8-29.3-109-50.5-165.3-66.3c-56.3-15.8-112.5-27-165.3-34.8c-13.5-1-25.8-3.3-39.3-4.5c-12.3-1-25.8-2.3-38.3-3.3
				c-24.8-1-49.5-1-73-1c-46,2.3-90,6.8-127,13.5c-37,6.8-70.8,13.5-97.8,20.3C727.8,126,697.5,136,697.5,136z"/>
		</g>
		<g opacity="0.22">
			<path d="M697.5,156.3c13.5-4.5,28-6.8,42.8-10c14.5-2.3,29.3-4.5,42.8-6.8c14.5-1,29.3-3.3,42.8-4.5c14.5-1,29.3-2.3,42.8-2.3
				c14.5,0,29.3-1,42.8,0l42.8,1l42.8,4.5l11.3,1l10,1l21.3,3.3l21.3,3.3c6.8,1,14.5,3.3,21.3,4.5c14.5,3.3,29.3,5.5,42.8,10
				l41.5,12.3c14.5,3.3,28,9,41.5,13.5l20.3,6.8c6.8,2.3,13.5,4.5,20.3,7.8l40.5,18c13.5,5.5,25.8,12.3,39.3,20.3l38.3,21.3h1l0,0
				l14.5,12.3c2.3,2.3,4.5,4.5,6.8,6.8l6.8,6.8c4.5,4.5,10,9,13.5,13.5l12.3,14.5c4.5,4.5,7.8,10,12.3,15.8
				c4.5,4.5,7.8,10,11.3,15.8c3.3,5.5,6.8,10,10,15.8l9,16.8c3.3,5.5,5.5,11.3,7.8,16.8l4.5,9l3.3,9c4.5,12.3,7.8,23.5,12.3,36
				c3.3,12.3,6.8,23.5,7.8,37c1.3,6.8,2.3,12.3,3.3,18c1.3,6.8,1.3,12.3,2.3,18l1,18l1,18c0,12.3,0,24.8,0,37c0,12.3-1,24.8-2.3,37
				c-1,12.3-2.3,24.8-4.5,37c-1,12.3-4.5,23.5-6.8,36c-2.3,12.3-4.5,23.5-7.8,36c-5.5,23.5-12.3,47.3-21.3,69.8
				c3.3-12.3,6.8-23.5,9-34.8s4.5-23.5,6.8-36c2.3-12.3,4.5-23.5,5.5-36c1.3-12.3,3.3-23.5,4.5-36c1.3-12.5,1-23.5,2.3-36
				c1-12.3,1-23.5,1-36c0-12.3-1-23.5-1-36l-1-18l-2.3-18c-1-5.5-1-12.3-2.3-18c-1-5.5-2.3-12.3-3.3-18c-2.3-12.3-5.5-23.5-9-34.8
				c-4.5-11.3-6.8-22.5-12.3-33.8l-3.3-7.8l-4.5-7.8c-2.3-5.5-4.5-10-7.8-15.8l-9-15.8c-3.3-4.5-6.8-10-10-14.5
				c-3.3-4.5-6.8-10-10-14.5c-4.5-4.5-6.8-10-11.3-13.5l-12.3-12.3c-4.5-4.5-9-7.8-12.3-12.3l-6.8-6.8c-2.3-1-4.5-4.5-6.8-5.5
				l-13.5-11.3l1,1l-37-20.3l-18-10c-6.8-4.5-12.3-6.8-19-10l-38.3-18c-6.8-3.3-12.3-5.5-20.3-7.8l-20.3-6.8
				c-13.5-4.5-25.8-10-40.5-14.5l-40.5-12.3c-13.5-4.5-28-6.8-41.5-10c-6.8-1-13.5-3.3-20.3-4.5l-20.3-4.5l-20.3-4.5l-10-1l-10-1
				l-42.8-5.5l-42.8-3.3c-14.5-1-29.3-1-42.8-1c-14.5,0-29.3,0-42.8,0c-14.5,0-29.3,1-42.8,1c-14.5,1-29.3,1-42.8,4.5
				C725.6,153,711.1,154,697.5,156.3z"/>
		</g>
	</g>
</g>
</svg>
