<?xml version="1.0" encoding="utf-8"?>
<!-- Generator: Adobe Illustrator 18.1.1, SVG Export Plug-In . SVG Version: 6.00 Build 0)  -->
<!DOCTYPE svg PUBLIC "-//W3C//DTD SVG 1.1//EN" "http://www.w3.org/Graphics/SVG/1.1/DTD/svg11.dtd">
<svg version="1.1" xmlns="http://www.w3.org/2000/svg" xmlns:xlink="http://www.w3.org/1999/xlink" x="0px" y="0px" width="401.3px"
	 height="400px" viewBox="0 0 401.3 400" enable-background="new 0 0 401.3 400" xml:space="preserve">
<g id="mobile">
	<g>
		<path fill="#32E0AA" d="M304.6,147.3h-67.8c-8.2,0-15-6.8-15-15V27c0-8.2,6.8-15,15-15h67.8c8.2,0,15,6.7,15,15v105.3
			C319.6,140.5,312.8,147.3,304.6,147.3z"/>
		<path fill="#477F6A" d="M306.7,24.8v103.7h-72.2V24.8H306.7 M308.3,12h-75.2c-6.2,0-11.3,5.1-11.3,11.3V136
			c0,6.2,5.1,11.3,11.3,11.3h75.2c6.2,0,11.3-5.1,11.3-11.3V23.3C319.6,17.1,314.5,12,308.3,12L308.3,12z"/>
	</g>
	<polygon fill="#60EABC" points="234.6,25 285.6,61.4 306.7,25 	"/>
	<polygon fill="#0CC482" points="285.6,61.6 273.5,129 306.8,129 306.7,25 	"/>
	<polygon fill="#15AA6D" points="285.7,61.7 234.7,95 234.7,129 273.7,129 	"/>
	<circle fill="#67B293" cx="273.5" cy="137.7" r="4.4"/>
	<path fill="none" stroke="#477F6A" stroke-width="6" stroke-miterlimit="10" d="M330.7,127v6c0,13.3-10.7,24-24,24h0"/>
	<path fill="none" stroke="#477F6A" stroke-width="6" stroke-miterlimit="10" d="M345.9,129v8.7c0,19.2-15.5,34.7-34.7,34.7h0"/>
	<path fill="none" stroke="#477F6A" stroke-width="6" stroke-miterlimit="10" d="M208.2,127v6c0,13.3,10.7,24,24,24h0"/>
	<path fill="none" stroke="#477F6A" stroke-width="6" stroke-miterlimit="10" d="M193,129v8.7c0,19.2,15.5,34.7,34.7,34.7h0"/>
	<path fill="none" stroke="#477F6A" stroke-width="6" stroke-miterlimit="10" d="M188.4,95.4h-46.8c-15.6,0-28.2-12.6-28.2-28.2
		V35.4"/>
	<polyline fill="none" stroke="#477F6A" stroke-width="6" stroke-miterlimit="10" points="87.8,58 113.2,32.6 139.2,58.7 	"/>
</g>
<g id="desktop">
	<polygon fill="#477F6A" points="133.3,305.2 87.7,305.2 97.1,264.3 124,264.3 	"/>
	<path fill="#32E0AA" d="M182.3,289H38.8c-8.2,0-15-6.8-15-15v-96.7c0-8.2,6.8-15,15-15h143.6c8.2,0,15,6.8,15,15V274
		C197.3,282.2,190.6,289,182.3,289z"/>
	<path fill="#477F6A" d="M182.3,175.3c1.1,0,2,0.9,2,2V274c0,1.1-0.9,2-2,2H38.8c-1.1,0-2-0.9-2-2v-96.7c0-1.1,0.9-2,2-2H182.3
		 M182.3,162.3H38.8c-8.3,0-15,6.8-15,15V274c0,8.2,6.8,15,15,15h143.6c8.2,0,15-6.8,15-15v-96.7
		C197.3,169.1,190.6,162.3,182.3,162.3L182.3,162.3z"/>
	<polygon fill="#15AA6D" points="36.8,177.3 36.6,260.6 82.7,276 	"/>
	<polygon fill="#0CC482" points="62.2,231.9 82.7,276 184.3,272.1 42.5,189.7 	"/>
	<polygon fill="#60EABC" points="106.3,226.6 164.2,175.3 184.7,211.7 184.7,272 	"/>
</g>
</svg>
