<?xml version="1.0" encoding="utf-8"?>
<!-- Generator: Adobe Illustrator 18.1.1, SVG Export Plug-In . SVG Version: 6.00 Build 0)  -->
<!DOCTYPE svg PUBLIC "-//W3C//DTD SVG 1.1//EN" "http://www.w3.org/Graphics/SVG/1.1/DTD/svg11.dtd">
<svg version="1.1" id="ready" xmlns="http://www.w3.org/2000/svg" xmlns:xlink="http://www.w3.org/1999/xlink" x="0px" y="0px"
	 width="100px" height="50px" viewBox="10 16 100 50" enable-background="new 10 16 100 50" xml:space="preserve">
<g id="readyButton">
	<path fill="#32E0AA" d="M103,66H17c-3.8,0-7-3.2-7-7V23c0-3.8,3.2-7,7-7h86c3.8,0,7,3.2,7,7v36C110,62.8,106.8,66,103,66z"/>
	<path fill="#2AC692" d="M47.2,35L10.1,21.9C10,22.3,10,22.6,10,23v36c0,3.8,3.2,7,7,7h86c3.8,0,7-3.2,7-7V23c0-0.7-0.1-1.3-0.3-1.9
		L47.2,35z"/>
	<polygon fill="#23AF7C" points="110,50 47.2,35 57.1,66 110,53.1 	"/>
	<path fill="#26A577" d="M10,46.7V59c0,3.8,3.2,7,7,7h40.1l-47-44.1L10,46.7z"/>
	<line fill="none" x1="103" y1="16" x2="17" y2="16"/>
	<g enable-background="new    ">
		<path fill="#FFFFFF" d="M39.4,37.9c0,1.5-0.6,2.9-1.6,3.9c1,1,1.6,2.3,1.6,3.9v6.9c0,0.4-0.3,0.7-0.7,0.7h-1.5
			c-0.4,0-0.7-0.4-0.7-0.7v-6.9c0-1.3-1.1-2.4-2.4-2.4h-2.4v9.3c0,0.4-0.4,0.7-0.7,0.7h-1.5c-0.4,0-0.7-0.4-0.7-0.7V31.9
			c0-0.8,0.6-1.5,1.5-1.5h3.9c3,0,5.3,2.4,5.3,5.3V37.9z M36.4,35.7c0-1.3-1.1-2.4-2.4-2.4h-2.4v7h2.4c1.3,0,2.4-1.1,2.4-2.4V35.7z"
			/>
		<path fill="#FFFFFF" d="M46.2,33.3v7h4c0.4,0,0.7,0.3,0.7,0.7v1.5c0,0.4-0.3,0.7-0.7,0.7h-4v7.1h4c0.4,0,0.7,0.3,0.7,0.7v1.5
			c0,0.4-0.3,0.7-0.7,0.7h-5.5c-0.8,0-1.5-0.7-1.5-1.5v-20c0-0.8,0.6-1.5,1.5-1.5h5.5c0.4,0,0.7,0.3,0.7,0.7v1.5
			c0,0.4-0.3,0.7-0.7,0.7H46.2z"/>
		<path fill="#FFFFFF" d="M65.6,35.8v16.8c0,0.4-0.3,0.7-0.7,0.7h-1.5c-0.4,0-0.7-0.3-0.7-0.7v-9.2h-4.8v9.2c0,0.4-0.3,0.7-0.7,0.7
			h-1.5c-0.4,0-0.7-0.3-0.7-0.7V35.8c0-2.9,2.4-5.3,5.4-5.3C63.2,30.4,65.6,32.8,65.6,35.8z M62.6,35.8c0-1.3-1.1-2.4-2.4-2.4
			c-1.3,0-2.4,1.1-2.4,2.4v4.6h4.8V35.8z"/>
		<path fill="#FFFFFF" d="M80.1,35.8V48c0,3-2.4,5.4-5.3,5.4h-3.9c-0.8,0-1.5-0.7-1.5-1.5v-20c0-0.8,0.7-1.5,1.5-1.5h3.9
			C77.8,30.4,80.1,32.8,80.1,35.8z M77.2,35.8c0-1.3-1.1-2.4-2.4-2.4h-2.4v17h2.4c1.3,0,2.4-1.1,2.4-2.4V35.8z"/>
		<path fill="#FFFFFF" d="M94.2,31.1v6.8c0,2.5-1.6,4.5-3.9,5.1v9.5c0,0.4-0.4,0.7-0.7,0.7h-1.5c-0.4,0-0.7-0.4-0.7-0.7v-9.5
			c-2.3-0.6-3.9-2.7-3.9-5.1v-6.8c0-0.4,0.3-0.7,0.7-0.7h1.5c0.4,0,0.7,0.3,0.7,0.7v6.8c0,1.3,1.1,2.4,2.4,2.4
			c1.3,0,2.4-1.1,2.4-2.4v-6.8c0-0.4,0.3-0.7,0.7-0.7h1.5C93.9,30.4,94.2,30.7,94.2,31.1z"/>
	</g>
</g>
</svg>
