<?xml version="1.0" encoding="utf-8"?>
<!-- Generator: Adobe Illustrator 18.0.0, SVG Export Plug-In . SVG Version: 6.00 Build 0)  -->
<!DOCTYPE svg PUBLIC "-//W3C//DTD SVG 1.0//EN" "http://www.w3.org/TR/2001/REC-SVG-20010904/DTD/svg10.dtd">
<svg version="1.0" id="characters" xmlns="http://www.w3.org/2000/svg" xmlns:xlink="http://www.w3.org/1999/xlink" x="0px" y="0px"
	 viewBox="0 0 283.5 283.5" enable-background="new 0 0 283.5 283.5" xml:space="preserve">
<g class="character" id="boris">
	<path id="colorBody" fill="#F794C1" d="M196.6,282.6H86.4c-5.8,0-10.7-4.8-10.7-10.7V64.8c0-31,25.4-56.4,56.4-56.4h18.6
		c31,0,56.4,25.4,56.4,56.4v207.1C207.3,277.8,202.5,282.6,196.6,282.6z"/>
	<g id="face">
		<g>
			<circle fill="#353535" cx="104" cy="68.9" r="5.7"/>
			<circle fill="#353535" cx="179.4" cy="68.9" r="5.7"/>
		</g>
		<path fill="#353535" d="M158.8,96.9c-0.1,0-0.3,0-0.4,0c-19.9-3.1-33.1-0.1-33.2-0.1c-1.5,0.4-3.1-0.6-3.4-2.1
			c-0.4-1.5,0.6-3.1,2.1-3.4c0.6-0.1,14.4-3.3,35.4-0.1c1.6,0.2,2.6,1.7,2.3,3.3C161.4,95.9,160.2,96.9,158.8,96.9z"/>
		<path fill="#353535" d="M189.4,56.9H92.6c-3.6,0-6.4-2.8-6.4-6.4s2.8-6.4,6.4-6.4h96.8c3.6,0,6.4,2.8,6.4,6.4S193,56.9,189.4,56.9
			z"/>
	</g>
	<path fill="#F2F2F2" d="M189.5,122.4c0,19.6-21.4,35.5-47.9,35.5c-26.4,0-47.9-15.9-47.9-35.5c0.1-10.1-18.2-0.8-18.2-0.8V222
		c0,4.7,3.8,8.5,8.5,8.5c38.3,10.4,76.6,10.5,114.6,0c4.8,0,8.5-3.8,8.5-8.5v-72.2l0.7-28.1C207.9,121.7,189.5,115.2,189.5,122.4z"
		/>
	<path opacity="0.42" fill="#353535" enable-background="new    " d="M98.3,181.9c0,0,0.3-0.1,0.9-0.4c0.6-0.3,1.5-0.6,2.6-1.1
		c1.1-0.4,2.5-0.9,4.1-1.5c1.6-0.5,3.4-1.1,5.5-1.6c1-0.3,2.1-0.6,3.1-0.8c1.1-0.2,2.2-0.5,3.4-0.7c1.1-0.3,2.3-0.5,3.6-0.6
		c1.2-0.2,2.5-0.4,3.8-0.6c1.3-0.1,2.6-0.3,3.9-0.5c1.4-0.1,2.7-0.3,4.1-0.4c2.7-0.2,5.5-0.4,8.3-0.4c1.4,0,2.8,0,4.2,0
		c1.4,0.1,2.8,0.1,4.1,0.2c1.4,0.1,2.7,0.1,4.1,0.3c1.4,0.1,2.6,0.4,4,0.5c1.3,0.2,2.6,0.3,3.8,0.5c1.2,0.2,2.4,0.5,3.6,0.7
		c1.1,0.2,2.3,0.5,3.4,0.7c1.1,0.3,2.1,0.6,3.1,0.9c2,0.6,3.8,1.1,5.5,1.6c1.6,0.6,3,1.2,4.1,1.6c1.1,0.4,2,0.9,2.6,1.1
		c0.6,0.3,0.9,0.4,0.9,0.4s-0.4-0.1-1-0.1c-0.6-0.1-1.6-0.2-2.8-0.4c-1.2-0.2-2.6-0.4-4.3-0.7c-1.6-0.2-3.5-0.4-5.5-0.7
		c-1-0.1-2.1-0.3-3.1-0.4c-1.1-0.1-2.2-0.2-3.4-0.3c-1.1-0.1-2.3-0.2-3.6-0.4c-1.2-0.1-2.5-0.1-3.8-0.2s-2.6-0.1-3.8-0.2
		c-0.6-0.1-1.3,0-2-0.1c-0.6,0-1.4,0-2-0.1c-1.4,0-2.7-0.1-4-0.1c-1.4,0-2.7,0-4.1,0.1c-2.7-0.1-5.4,0.1-8.1,0.2
		c-2.6,0.1-5.3,0.3-7.8,0.4c-1.3,0.1-2.5,0.2-3.8,0.3c-1.2,0.1-2.4,0.2-3.6,0.3c-1.1,0.1-2.3,0.2-3.4,0.3c-1.1,0.1-2.1,0.2-3.2,0.4
		c-2.1,0.2-3.9,0.4-5.5,0.6c-1.6,0.2-3.1,0.4-4.3,0.6C99.7,181.7,98.3,181.9,98.3,181.9z"/>
	<g>
		<g>
			<defs>
				<path id="SVGID_2_" d="M189.5,122.4c0,19.6-21.4,35.5-47.9,35.5c-26.4,0-47.9-15.9-47.9-35.5c0.1-10.1-18.2-0.8-18.2-0.8V222
					c0,4.7,3.8,8.5,8.5,8.5c38.3,10.4,76.6,10.5,114.6,0c4.8,0,8.5-3.8,8.5-8.5v-72.2l0.7-28.1C207.9,121.7,189.5,115.2,189.5,122.4
					z"/>
			</defs>
			<clipPath id="SVGID_3_">
				<use xlink:href="#SVGID_2_"  overflow="visible"/>
			</clipPath>
			<path opacity="9.000000e-02" clip-path="url(#SVGID_3_)" enable-background="new    " d="M72.7,137.8c0,0,4.1-6.2,9.8-4.3
				c5.7,1.9-3.8,9.8-0.1,9.9c3.8,0.1,2.5,7.6,0.1,6.7c-2.4-0.9-9.8,5.1-9.8,4.9C72.7,154.9,72.7,137.8,72.7,137.8z"/>
		</g>
		<g>
			<defs>
				<path id="SVGID_4_" d="M189.5,122.4c0,19.6-21.4,35.5-47.9,35.5c-26.4,0-47.9-15.9-47.9-35.5c0.1-10.1-18.2-0.8-18.2-0.8V222
					c0,4.7,3.8,8.5,8.5,8.5c38.3,10.4,76.6,10.5,114.6,0c4.8,0,8.5-3.8,8.5-8.5v-72.2l0.7-28.1C207.9,121.7,189.5,115.2,189.5,122.4
					z"/>
			</defs>
			<clipPath id="SVGID_5_">
				<use xlink:href="#SVGID_4_"  overflow="visible"/>
			</clipPath>
			<path opacity="9.000000e-02" clip-path="url(#SVGID_5_)" enable-background="new    " d="M212.9,131.1c0,0-8-4.8-10,0
				c-1.9,4.8,2.3,5.7-2.8,9.2s2.3,3,2.3,3s6.7,0.4,3.1,2.1c-3.6,1.7,2.1,6.9,4.5,5.3C212.4,149.1,212.9,131.1,212.9,131.1z"/>
		</g>
		<g>
			<defs>
				<path id="SVGID_6_" d="M189.5,122.4c0,19.6-21.4,35.5-47.9,35.5c-26.4,0-47.9-15.9-47.9-35.5c0.1-10.1-18.2-0.8-18.2-0.8V222
					c0,4.7,3.8,8.5,8.5,8.5c38.3,10.4,76.6,10.5,114.6,0c4.8,0,8.5-3.8,8.5-8.5v-72.2l0.7-28.1C207.9,121.7,189.5,115.2,189.5,122.4
					z"/>
			</defs>
			<clipPath id="SVGID_7_">
				<use xlink:href="#SVGID_6_"  overflow="visible"/>
			</clipPath>
			<path opacity="8.000000e-02" clip-path="url(#SVGID_7_)" enable-background="new    " d="M158.8,241.2c0,0-8-16.2,5.7-22.3
				c13.7-6.2,9,7.6,20.6,3.8c11.6-3.8,12.6-12.3,7.8-13.3c-4.8-0.9-9-20.8,18.5-16.2c27.5,4.8,5.7,43.2,5.7,43.2L158.8,241.2z"/>
		</g>
	</g>
	<path fill="#353535" d="M154.5,11.7c-0.9,0-1.8-0.6-2.1-1.6c-0.1-0.2-1.9-5.9-11.5-5.9c-9.7,0-12.2,5.8-12.2,6.1
		c-0.4,1.1-1.7,1.6-2.8,1.2c-1.1-0.4-1.6-1.6-1.2-2.7C124.9,8.5,128.3,0,141,0c12.9,0,15.4,8.7,15.6,9c0.4,1.1-0.4,2.3-1.5,2.6
		C154.9,11.7,154.8,11.7,154.5,11.7z"/>
</g>
<g class="character" id="lenny">
	<path id="bodyColor" fill="#E8887E" d="M195,282.8H84.8c-5.8,0-10.7-4.8-10.7-10.7V65c0-31,25.4-56.4,56.4-56.4h18.6
		c31,0,56.4,25.4,56.4,56.4v207.1C205.7,278,200.9,282.8,195,282.8z"/>
	<g id="face">
		<circle opacity="0.2" enable-background="new    " cx="142.6" cy="70.6" r="20"/>
		<circle fill="#EAE9E5" cx="142.6" cy="66.3" r="20"/>
		<circle fill="#474747" cx="142.6" cy="66.3" r="12.9"/>
		<circle fill="#EAE9E5" cx="141.9" cy="66.3" r="2.9"/>
		<path fill="#EAE9E5" d="M137.2,63.8c1.8-2.6,6.3-2.3,3.8-4.1c-2.6-1.8-6-1.2-7.8,1.4c-1.8,2.6-1.2,6,1.4,7.8
			C137.1,70.5,135.4,66.3,137.2,63.8z"/>
		<path fill="#474747" d="M142.6,113.7c-12.6,0-24.5-5-33.4-14c-8.9-9-13.8-20.8-13.8-33.2c0-0.8,0.6-1.4,1.4-1.4
			c0.8,0,1.4,0.6,1.4,1.4c0,11.7,4.6,22.8,13,31.2c8.5,8.5,19.6,13.2,31.4,13.2s23-4.7,31.4-13.2c8.4-8.5,13-19.6,13-31.2
			c0-0.8,0.6-1.4,1.4-1.4s1.4,0.6,1.4,1.4c0,12.5-4.9,24.3-13.8,33.2C167.1,108.7,155.2,113.7,142.6,113.7z"/>
		<path fill="#474747" d="M97,67.4c-4.1,0-7.3-3.3-7.3-7.3c0-0.8,0.6-1.4,1.4-1.4s1.4,0.6,1.4,1.4c0,2.4,2.1,4.5,4.5,4.5
			c2.4,0,4.5-2.1,4.5-4.5c0-0.8,0.6-1.4,1.4-1.4c0.8,0,1.4,0.6,1.4,1.4C104.4,64.1,101.1,67.4,97,67.4z"/>
		<path fill="#474747" d="M188.1,67.4c-4.1,0-7.3-3.3-7.3-7.3c0-0.8,0.6-1.4,1.4-1.4s1.4,0.6,1.4,1.4c0,2.4,2.1,4.5,4.5,4.5
			c2.4,0,4.5-2.1,4.5-4.5c0-0.8,0.6-1.4,1.4-1.4s1.4,0.6,1.4,1.4C195.4,64.1,192.2,67.4,188.1,67.4z"/>
	</g>
	<g>
		<g>
			<defs>
				<path id="SVGID_8_" d="M191,131c0,19.6-21.4,35.5-47.9,35.5c-26.4,0-47.9-15.9-47.9-35.5c0.1-10.1-18.2-0.8-18.2-0.8v100.3
					c0,4.7,3.8,8.5,8.5,8.5c38.3,10.4,76.6,10.5,114.6,0c4.8,0,8.5-3.8,8.5-8.5v-72.2l0.7-28.1C209.3,130.2,191,123.8,191,131z"/>
			</defs>
			<clipPath id="SVGID_9_">
				<use xlink:href="#SVGID_8_"  overflow="visible"/>
			</clipPath>
			<g opacity="0.52" clip-path="url(#SVGID_9_)">
				<path fill="#FFFFFF" d="M81.6,42.5c0,0,0.3-0.8,0.9-2c0.6-1.2,1.4-3,2.6-4.9c1.2-2,2.8-4.2,4.6-6.4c0.9-1.1,2-2.2,3.1-3.3
					c1.1-1.1,2.2-2.1,3.4-3.1s2.5-1.9,3.7-2.8c1.3-0.9,2.6-1.6,3.8-2.3c1.3-0.7,2.6-1.3,3.8-1.8c0.6-0.2,1.2-0.5,1.8-0.7
					c0.6-0.2,1.1-0.4,1.7-0.6c1.1-0.4,2.1-0.6,3.1-0.9c0.9-0.2,1.7-0.4,2.4-0.5c1.4-0.2,2.1-0.3,2.1-0.3c0.3-0.1,0.5,0.1,0.6,0.4
					c0,0.1,0,0.2-0.1,0.3l-0.3,0.4c0,0-0.1,0.2-0.4,0.7c-0.3,0.4-0.6,1.1-1.1,1.7c-0.5,0.7-1.1,1.6-1.7,2.4c-0.3,0.4-0.6,0.9-1,1.4
					c-0.4,0.5-0.7,0.9-1.1,1.4c-0.4,0.5-0.7,0.9-1.1,1.4c-0.4,0.5-0.7,0.9-1.1,1.4c-0.8,0.9-1.6,1.8-2.3,2.7
					c-0.8,0.9-1.6,1.7-2.5,2.6c-0.9,0.8-1.8,1.6-2.7,2.3c-0.9,0.8-1.9,1.5-2.8,2.2c-1,0.7-2,1.4-3.1,2c-1.1,0.6-2.1,1.2-3.3,1.8
					c-1.1,0.6-2.2,1.1-3.3,1.6c-1.1,0.5-2.1,0.9-3.1,1.4s-1.9,0.7-2.7,1s-1.5,0.5-1.9,0.6c-0.5,0.1-0.8,0.2-0.8,0.2l-0.5,0.1
					c-0.3,0.1-0.6-0.1-0.6-0.4C81.6,42.6,81.6,42.6,81.6,42.5z"/>
			</g>
		</g>
	</g>
</g>
<g class="character" id="filip">
	<path id="bodyColor" fill="#32E0AA" d="M196.9,282.9H86.7c-5.8,0-10.7-4.8-10.7-10.7V65.2c0-31,25.4-56.4,56.4-56.4h18.6
		c31,0,56.4,25.4,56.4,56.4v207.1C207.5,278.2,202.7,282.9,196.9,282.9z"/>
	<g id="face">
		<g>
			<circle fill="#D3F4E9" cx="108.6" cy="74.3" r="27.1"/>
			<circle fill="#D3F4E9" cx="174.9" cy="74.3" r="27.1"/>
			<path fill="#353535" d="M108.6,56.4c-1.4,0-2.7,0.1-4.1,0.4c4.2,1.4,7.2,5.3,7.2,10c0,5.8-4.7,10.5-10.5,10.5
				c-4.6,0-8.6-3-10-7.2c-0.3,1.3-0.4,2.6-0.4,4.1c0,9.9,8,17.9,17.9,17.9s17.9-7.9,17.9-17.8S118.5,56.4,108.6,56.4z"/>
			<path fill="#353535" d="M174.9,56.4c-1.4,0-2.7,0.1-4.1,0.4c4.2,1.4,7.2,5.3,7.2,10c0,5.8-4.7,10.5-10.5,10.5
				c-4.6,0-8.6-3-10-7.2c-0.3,1.3-0.4,2.6-0.4,4.1c0,9.9,8,17.9,17.9,17.9s17.9-8,17.9-17.9S184.8,56.4,174.9,56.4z"/>
			<path fill="#494949" d="M140.9,105.8c0,4.4-3.6,8-8,8c-13.8,0-16.6,7.8-16.6,3.4c0-4.4,4.7-19.6,16.6-19.6
				C137.3,97.7,140.9,101.3,140.9,105.8z"/>
			<path fill="#494949" d="M141.9,105.8c0,4.4,3.6,8,8,8c13.8,0,16.6,7.8,16.6,3.4c0-4.4-4.7-19.5-16.6-19.5
				C145.5,97.7,141.9,101.3,141.9,105.8z"/>
		</g>
		<path opacity="0.27" enable-background="new    " d="M146.8,159.6c2.5-1.2,4.1-3.7,4.1-6.6c0-4.1-3.3-7.4-7.4-7.4
			c-4.1,0-7.4,3.3-7.4,7.4c0,2.9,1.6,5.4,4.1,6.6l-8.9,70.1l12.2,15.9l12.2-15.9L146.8,159.6z"/>
		<g id="DAS_1_">
			<g>
				<g>
					<defs>
						<polygon id="SVGID_10_" points="154.5,229.2 144.5,149.9 139.4,149.9 129.4,229.2 141.9,245.7 						"/>
					</defs>
					<clipPath id="SVGID_11_">
						<use xlink:href="#SVGID_10_"  overflow="visible"/>
					</clipPath>
					<polygon clip-path="url(#SVGID_11_)" fill="#FFFFFF" points="154.5,229.2 144.5,149.9 139.4,149.9 129.4,229.2 141.9,245.7
											"/>
				</g>
				<g>
					<defs>
						<polygon id="SVGID_12_" points="154.5,229.2 144.5,149.9 139.4,149.9 129.4,229.2 141.9,245.7 						"/>
					</defs>
					<clipPath id="SVGID_13_">
						<use xlink:href="#SVGID_12_"  overflow="visible"/>
					</clipPath>
					<g clip-path="url(#SVGID_13_)">

							<rect x="78.9" y="176.2" transform="matrix(-0.7071 0.7071 -0.7071 -0.7071 339.2252 217.9047)" fill="#FF5050" width="91.2" height="6"/>

							<rect x="85.8" y="183.1" transform="matrix(-0.7071 0.7071 -0.7071 -0.7071 355.9162 224.8861)" fill="#FF5050" width="91.2" height="6"/>

							<rect x="92.7" y="190.1" transform="matrix(-0.7071 0.7071 -0.7071 -0.7071 372.7327 231.9194)" fill="#FF5050" width="91.2" height="6"/>

							<rect x="99.7" y="197" transform="matrix(-0.7071 0.7071 -0.7071 -0.7071 389.4756 238.7753)" fill="#FF5050" width="91.2" height="6"/>

							<rect x="106.6" y="204" transform="matrix(-0.7071 0.7071 -0.7071 -0.7071 406.2919 245.8086)" fill="#FF5050" width="91.2" height="6"/>

							<rect x="113.6" y="210.9" transform="matrix(-0.7071 0.7071 -0.7071 -0.7071 423.0349 252.6644)" fill="#FF5050" width="91.2" height="6"/>

							<rect x="120.5" y="217.9" transform="matrix(-0.7071 0.7071 -0.7071 -0.7071 439.8513 259.6978)" fill="#FF5050" width="91.2" height="6"/>
					</g>
				</g>
			</g>
			<path opacity="0.15" enable-background="new    " d="M138.3,158.2c1.1,0.6,2.4,1.1,3.7,1.1s2.5-0.6,3.6-1.2l-1.1-9h-5
				L138.3,158.2z"/>
			<g>
				<g>
					<circle id="SVGID_1_" fill="#FFFFFF" cx="142" cy="149.9" r="7.6"/>
				</g>
				<g>
					<defs>
						<circle id="SVGID_14_" cx="142" cy="149.9" r="7.6"/>
					</defs>
					<clipPath id="SVGID_15_">
						<use xlink:href="#SVGID_14_"  overflow="visible"/>
					</clipPath>
				</g>
				<g>
					<defs>
						<circle id="SVGID_16_" cx="142" cy="149.9" r="7.6"/>
					</defs>
					<defs>
						<circle id="SVGID_17_" cx="142" cy="149.9" r="7.6"/>
					</defs>
					<clipPath id="SVGID_18_">
						<use xlink:href="#SVGID_16_"  overflow="visible"/>
					</clipPath>
					<clipPath id="SVGID_19_" clip-path="url(#SVGID_18_)">
						<use xlink:href="#SVGID_17_"  overflow="visible"/>
					</clipPath>
					<g clip-path="url(#SVGID_19_)">

							<rect x="70.4" y="143.1" transform="matrix(-0.7071 0.7071 -0.7071 -0.7071 301.3216 167.4554)" fill="#FF5050" width="91.2" height="6"/>

							<rect x="77.3" y="150" transform="matrix(-0.7071 0.7071 -0.7071 -0.7071 318.0645 174.3113)" fill="#FF5050" width="91.2" height="6"/>

							<rect x="84.2" y="157" transform="matrix(-0.7071 0.7071 -0.7071 -0.7071 334.7554 181.2926)" fill="#FF5050" width="91.2" height="6"/>

							<rect x="91.2" y="164" transform="matrix(-0.7071 0.7071 -0.7071 -0.7071 351.5718 188.326)" fill="#FF5050" width="91.2" height="6"/>

							<rect x="98.1" y="170.9" transform="matrix(-0.7071 0.7071 -0.7071 -0.7071 368.3148 195.1817)" fill="#FF5050" width="91.2" height="6"/>

							<rect x="105.1" y="177.9" transform="matrix(-0.7071 0.7071 -0.7071 -0.7071 385.1313 202.2151)" fill="#FF5050" width="91.2" height="6"/>

							<rect x="112" y="184.8" transform="matrix(-0.7071 0.7071 -0.7071 -0.7071 401.8741 209.0709)" fill="#FF5050" width="91.2" height="6"/>
					</g>
				</g>
				<g>
					<defs>
						<circle id="SVGID_20_" cx="142" cy="149.9" r="7.6"/>
					</defs>
					<defs>
						<circle id="SVGID_21_" cx="142" cy="149.9" r="7.6"/>
					</defs>
					<clipPath id="SVGID_22_">
						<use xlink:href="#SVGID_20_"  overflow="visible"/>
					</clipPath>
					<clipPath id="SVGID_23_" clip-path="url(#SVGID_22_)">
						<use xlink:href="#SVGID_21_"  overflow="visible"/>
					</clipPath>
					<path opacity="0.22" clip-path="url(#SVGID_23_)" enable-background="new    " d="M126.4,130.1v29.4h27.2v-29.4H126.4z
						 M139,154.6c-4.2,0-7.6-3.4-7.6-7.6c0-4.2,3.4-7.6,7.6-7.6c4.2,0,7.6,3.4,7.6,7.6S143.2,154.6,139,154.6z"/>
				</g>
			</g>
		</g>
	</g>
</g>
<g class="character" id="dirk">
	<path id="bodyColor" fill="#D8AE36" d="M196.9,283.1H86.7c-5.8,0-10.7-4.8-10.7-10.7V65.3c0-31,25.4-56.4,56.4-56.4h18.6
		c31,0,56.4,25.4,56.4,56.4v207.1C207.5,278.4,202.7,283.1,196.9,283.1z"/>
	<g id="face">
		<circle opacity="0.2" enable-background="new    " cx="117.3" cy="64.2" r="21.8"/>
		<circle opacity="0.2" enable-background="new    " cx="166.3" cy="64.2" r="21.8"/>
		<circle fill="#EAE9E5" cx="117.3" cy="60.6" r="21.8"/>
		<path fill="#DDDBD7" d="M128.7,42.1c2.1,3.3,3.3,7.3,3.3,11.5c0,12-9.7,21.8-21.8,21.8c-4.2,0-8.1-1.2-11.5-3.3
			c3.8,6.2,10.7,10.4,18.6,10.4c12,0,21.8-9.7,21.8-21.8C139.1,52.7,134.9,45.9,128.7,42.1z"/>
		<circle fill="#EAE9E5" cx="166.3" cy="60.6" r="21.8"/>
		<path fill="#DDDBD7" d="M173.5,75.3c-12,0-21.8-9.7-21.8-21.8c0-4.2,1.2-8.1,3.3-11.5c-6.2,3.8-10.4,10.7-10.4,18.6
			c0,12,9.7,21.8,21.8,21.8c7.8,0,14.7-4.1,18.6-10.4C181.6,74.2,177.7,75.3,173.5,75.3z"/>
		<circle fill="#474747" cx="110.1" cy="53.5" r="3.3"/>
		<circle fill="#474747" cx="173.5" cy="53.5" r="3.3"/>
		<circle fill="#474747" cx="143.4" cy="105.1" r="2.8"/>
		<path opacity="0.24" enable-background="new    " d="M85.9,111.1c0,0,0.3,0.4,0.9,1.3c0.6,0.9,1.4,2.1,2.6,3.6
			c0.6,0.7,1.2,1.6,2,2.4c0.8,0.9,1.6,1.8,2.4,2.8c0.9,0.9,1.9,1.9,3,2.9c1.1,1,2.2,2,3.5,3.1c0.6,0.5,1.3,1,1.9,1.5
			c0.4,0.3,0.6,0.5,1,0.8c0.4,0.3,0.7,0.5,1.1,0.7c0.7,0.5,1.4,1,2.1,1.5c0.7,0.5,1.5,0.9,2.3,1.4c1.6,1,3.2,1.8,4.9,2.7
			c0.4,0.2,0.9,0.4,1.3,0.6c0.4,0.2,0.9,0.4,1.4,0.6c0.9,0.4,1.8,0.9,2.7,1.1c3.7,1.6,7.7,2.5,11.7,3.4c1,0.1,2.1,0.4,3.1,0.5
			c0.5,0.1,1.1,0.1,1.6,0.2l1.6,0.1l1.6,0.1c0.5,0.1,1.1,0.1,1.6,0.1l3.1,0.1l3.3-0.1c0.6,0,1.1,0,1.6-0.1l1.6-0.1l1.6-0.1
			c0.5-0.1,1-0.1,1.6-0.2c1.1-0.1,2.1-0.4,3.1-0.5c4.1-0.9,8-1.8,11.7-3.4c0.9-0.4,1.8-0.8,2.7-1.1c0.4-0.2,0.9-0.4,1.4-0.6
			c0.4-0.2,0.9-0.4,1.3-0.6c1.7-0.9,3.4-1.7,4.9-2.7c0.8-0.5,1.6-0.9,2.3-1.4c0.7-0.5,1.4-1,2.1-1.5c0.4-0.2,0.7-0.5,1.1-0.7
			c0.4-0.3,0.6-0.5,1-0.8c0.6-0.5,1.3-1,1.9-1.5c1.2-1.1,2.3-2.1,3.5-3.1c1.1-1.1,2.1-2,3-2.9c0.9-1,1.7-1.9,2.4-2.8
			c0.8-0.9,1.4-1.7,2-2.4c1.2-1.5,2-2.7,2.6-3.6c0.6-0.9,0.9-1.3,0.9-1.3s-0.2,0.5-0.7,1.4c-0.5,0.9-1.1,2.3-2.1,3.9
			c-0.5,0.8-1,1.8-1.7,2.7c-0.6,0.9-1.4,2-2.2,3.1c-0.9,1.1-1.8,2.1-2.7,3.3c-1.1,1.1-2.1,2.3-3.3,3.4c-2.4,2.3-5.1,4.7-8.3,6.8
			c-1.6,1.1-3.3,2.1-5,3.1c-0.9,0.5-1.8,0.9-2.7,1.4c-0.9,0.4-1.8,0.9-2.8,1.3c-1,0.4-1.9,0.8-2.9,1.2c-1,0.4-2.1,0.7-3.1,1.1
			c-0.5,0.1-1,0.4-1.6,0.5c-0.5,0.1-1.1,0.3-1.6,0.4c-1.1,0.3-2.1,0.6-3.2,0.8c-1.1,0.2-2.2,0.4-3.3,0.6c-0.6,0.1-1.1,0.1-1.6,0.2
			l-1.7,0.2l-1.7,0.2c-0.6,0.1-1.1,0.1-1.6,0.1l-3.3,0.1l-3.4-0.1c-0.6,0-1.1,0-1.7-0.1l-1.6-0.2l-1.6-0.2c-0.6-0.1-1.1-0.1-1.6-0.2
			c-1.1-0.2-2.2-0.4-3.3-0.6c-1.1-0.2-2.1-0.5-3.2-0.8c-0.5-0.1-1.1-0.3-1.6-0.4c-0.5-0.1-1.1-0.4-1.6-0.5c-1-0.4-2.1-0.7-3.1-1.1
			c-1-0.4-2-0.8-2.9-1.2c-1-0.4-1.9-0.9-2.8-1.3c-0.9-0.5-1.8-0.9-2.7-1.4c-1.7-1.1-3.5-2-5-3.1c-3.2-2.1-5.9-4.6-8.3-6.8
			c-1.2-1.1-2.3-2.3-3.3-3.4c-0.9-1.1-1.8-2.3-2.7-3.3c-0.8-1.1-1.5-2.1-2.2-3.1c-0.6-0.9-1.2-1.9-1.7-2.7c-1.1-1.6-1.6-3-2.1-3.9
			C86.2,111.6,85.9,111.1,85.9,111.1z"/>
	</g>
	<circle opacity="0.25" enable-background="new    " cx="103.5" cy="24.8" r="2.3"/>
	<circle opacity="0.15" enable-background="new    " cx="103.5" cy="29" r="1.1"/>
	<circle opacity="0.2" enable-background="new    " cx="109.2" cy="24.8" r="1.1"/>
</g>
<g class="character" id="daryl">
	<g>
		<path fill="#666666" d="M184.6,21.3c20.6,14.7,34,38.8,34,66c0,44.8-36.3,81.1-81.1,81.1c-15.7,0-30.4-4.5-42.8-12.2
			c13.3,9.5,29.5,15.1,47.1,15.1c44.8,0,81.1-36.3,81.1-81.1C222.8,61.1,207.5,35.6,184.6,21.3z"/>
		<path fill="#333333" d="M218.6,87.3c0-27.3-13.4-51.3-34-66c-12.5-7.8-27.1-12.2-42.8-12.2c-44.8,0-81.1,36.3-81.1,81.1
			c0,27.3,13.4,51.3,34,66c12.5,7.8,27.1,12.2,42.8,12.2C182.3,168.5,218.6,132.2,218.6,87.3z"/>
	</g>
	<path id="bodyColor" fill="#B235DB" d="M196.8,283.3H86.7c-5.9,0-10.7-3.6-10.7-8.1V117.4c0-23.6,25.4-43,56.4-43h18.6
		c31,0,56.4,19.4,56.4,43v157.7C207.5,279.7,202.7,283.3,196.8,283.3z"/>
	<g id="face">
		<path fill="#48E5C6" d="M123.8,149H102c-7,0-12.8-5.8-12.8-12.8v-21.8c0-7,5.8-12.8,12.8-12.8h21.8c7,0,12.8,5.8,12.8,12.8v21.8
			C136.6,143.3,130.8,149,123.8,149z"/>
		<path fill="#48E5C6" d="M181.4,149h-21.8c-7,0-12.8-5.8-12.8-12.8v-21.8c0-7,5.8-12.8,12.8-12.8h21.8c7,0,12.8,5.8,12.8,12.8v21.8
			C194.2,143.3,188.5,149,181.4,149z"/>
		<polyline fill="none" stroke="#D4F9F7" stroke-width="10" stroke-linejoin="round" stroke-miterlimit="10" points="193.2,114.5
			166.8,141.1 171.1,109.9 146.4,135.2 		"/>
		<polyline fill="none" stroke="#D4F9F7" stroke-width="10" stroke-linejoin="round" stroke-miterlimit="10" points="136.3,114.5
			109.9,141.1 114.2,109.9 89.5,135.2 		"/>
		<path fill="none" stroke="#494949" stroke-width="8" stroke-miterlimit="10" d="M123.8,149H102c-7,0-12.8-5.8-12.8-12.8v-21.8
			c0-7,5.8-12.8,12.8-12.8h21.8c7,0,12.8,5.8,12.8,12.8v21.8C136.6,143.3,130.8,149,123.8,149z"/>
		<path fill="none" stroke="#494949" stroke-width="8" stroke-miterlimit="10" d="M181.4,149h-21.8c-7,0-12.8-5.8-12.8-12.8v-21.8
			c0-7,5.8-12.8,12.8-12.8h21.8c7,0,12.8,5.8,12.8,12.8v21.8C194.2,143.3,188.5,149,181.4,149z"/>
		<line fill="none" stroke="#494949" stroke-width="8" stroke-miterlimit="10" x1="137.1" y1="116.7" x2="147.1" y2="116.7"/>
	</g>
	<path fill="#B235DB" d="M217,45.9c-4.8-3.5-9.5-14.4-2.8-15.5c1.1-0.1,2.1-0.9,2.8-1.7c2-2.3,2.2-5.8,0.2-8.1
		c-2.8-3.3-7.5-3-9.8,0.2c-0.9,1.1-1.4,2.6-1.1,3.8c1.1,6.8-11.5,5.1-15.4,2.2c-2.1-1.6-5.1-1.1-6.7,1.1l-13.9,19
		c0.6,0.3,1.2,0.6,1.8,0.7l10.5-14.4c0.2-0.3,0.6-0.3,0.8-0.1l1.3,0.9c0.3,0.2,0.3,0.6,0.1,0.8L175.3,48c0.6,0,1.1-0.1,1.5-0.1
		l9-12.5c0.2-0.3,0.6-0.3,0.8-0.1l1.3,0.9c0.3,0.2,0.3,0.6,0.1,0.8l-8.7,12c0.3,0.2,0.5,0.5,0.8,0.9l8.8-12.1
		c0.2-0.3,0.6-0.3,0.8-0.1l1.3,0.9c0.3,0.2,0.3,0.6,0.1,0.8l-9.4,12.9c0.2,0.4,0.4,0.7,0.6,1.1L192,40c0.2-0.3,0.6-0.3,0.8-0.1
		l1.3,0.9c0.3,0.2,0.3,0.6,0.1,0.8l-10.2,13.9c0.3,0.4,0.5,0.6,0.8,0.9l10.3-14.2c0.2-0.3,0.6-0.3,0.8-0.1l1.3,0.9
		c0.3,0.2,0.3,0.6,0.1,0.8l-10.5,14.4c0.4,0.2,0.6,0.4,1,0.6l10.5-14.3c0.2-0.3,0.6-0.3,0.8-0.1l1.3,0.9c0.3,0.2,0.3,0.6,0.1,0.8
		l-10.1,13.9c0.5,0.1,0.9,0.2,1.3,0.3l9.8-13.5c0.2-0.3,0.6-0.3,0.8-0.1l1.3,0.9c0.3,0.2,0.3,0.6,0.1,0.8l-8.8,12.1
		c0.4,0.1,0.7,0.3,1.1,0.6l8.8-12c0.2-0.3,0.6-0.3,0.8-0.1l1.3,0.9c0.3,0.2,0.3,0.6,0.1,0.8l-10.1,13.9l0,0c-0.1,0.6,0,1.2,0.2,1.6
		l10.8-14.9c0.2-0.3,0.6-0.3,0.8-0.1l1.3,0.9c0.3,0.2,0.3,0.6,0.1,0.8l-11,15.2c0.4,0.1,0.7,0.3,1.1,0.4L211,53.8
		c0.2-0.3,0.6-0.3,0.8-0.1l1.3,0.9c0.3,0.2,0.3,0.6,0.1,0.8l-10.1,13.9c1,0.1,1.9,0.3,2.6,0.4l12.4-16.9
		C219.6,50.5,219.1,47.4,217,45.9z M210.4,23.2c0.8-1.1,2.2-1.3,3.3-0.5c1.1,0.8,1.3,2.2,0.5,3.3s-2.2,1.3-3.3,0.5
		C209.9,25.7,209.7,24.2,210.4,23.2z"/>
	<path opacity="0.3" enable-background="new    " d="M207.5,229.8h-38.4v-3.4c0-4.7-3.8-8.7-8.5-8.7h-37.7c-4.7,0-8.5,4-8.5,8.7v3.4
		H76V244h38.4v3.4c0,4.7,3.8,8.7,8.5,8.7h37.8c4.7,0,8.5-4.1,8.5-8.7V244h38.4L207.5,229.8L207.5,229.8z"/>
	<g id="belt">
		<rect x="76" y="228.4" fill="#E0E0E0" width="131.6" height="14.2"/>
		<g id="buckle">
			<path fill="#EFBD41" d="M160.6,216.4h-37.7c-4.7,0-8.5,3.8-8.5,8.5v21c0,4.7,3.8,8.5,8.5,8.5h37.8c4.7,0,8.5-3.8,8.5-8.5v-21
				C169.1,220.3,165.3,216.4,160.6,216.4z"/>
			<path fill="#303030" d="M154.4,220.7h-25.3c-4.7,0-8.5,3.8-8.5,8.5v12.4c0,4.7,3.8,8.5,8.5,8.5h25.4c4.7,0,8.5-3.8,8.5-8.5v-12.4
				C162.9,224.6,159.1,220.7,154.4,220.7z"/>
			<g id="led_array">
				<circle fill="#8E8E8E" cx="124.9" cy="228.1" r="1.6"/>
				<circle fill="#00FFFF" cx="133.3" cy="228.1" r="1.6"/>
				<circle fill="#8E8E8E" cx="141.7" cy="228.1" r="1.6"/>
				<circle fill="#00FFFF" cx="146" cy="228.1" r="1.6"/>
				<circle fill="#8E8E8E" cx="154.4" cy="228.1" r="1.6"/>
				<circle fill="#8E8E8E" cx="158.6" cy="228.1" r="1.6"/>
				<circle fill="#00FFFF" cx="150.2" cy="228.1" r="1.6"/>
				<circle fill="#00FFFF" cx="137.5" cy="228.1" r="1.6"/>
				<circle fill="#8E8E8E" cx="129.1" cy="228.1" r="1.6"/>
				<circle fill="#8E8E8E" cx="124.9" cy="231.8" r="1.6"/>
				<circle fill="#8E8E8E" cx="133.3" cy="231.6" r="1.6"/>
				<circle fill="#00FFFF" cx="141.7" cy="231.6" r="1.6"/>
				<circle fill="#8E8E8E" cx="146" cy="231.6" r="1.6"/>
				<circle fill="#00FFFF" cx="154.4" cy="231.6" r="1.6"/>
				<circle fill="#8E8E8E" cx="158.6" cy="231.8" r="1.6"/>
				<circle fill="#8E8E8E" cx="150.2" cy="231.6" r="1.6"/>
				<circle fill="#8E8E8E" cx="137.5" cy="231.6" r="1.6"/>
				<circle fill="#00FFFF" cx="129.1" cy="231.6" r="1.6"/>
				<circle fill="#8E8E8E" cx="124.9" cy="235.6" r="1.6"/>
				<circle fill="#8E8E8E" cx="141.7" cy="235.5" r="1.6"/>
				<circle fill="#8E8E8E" cx="146" cy="235.5" r="1.6"/>
				<circle fill="#8E8E8E" cx="154.4" cy="235.5" r="1.6"/>
				<circle fill="#8E8E8E" cx="158.6" cy="235.6" r="1.6"/>
				<circle fill="#00FFFF" cx="150.2" cy="235.6" r="1.6"/>
				<circle fill="#8E8E8E" cx="137.5" cy="235.5" r="1.6"/>
				<circle fill="#8E8E8E" cx="129.1" cy="235.5" r="1.6"/>
				<circle fill="#8E8E8E" cx="124.9" cy="239.3" r="1.6"/>
				<circle fill="#8E8E8E" cx="133.3" cy="239.5" r="1.6"/>
				<circle fill="#8E8E8E" cx="141.7" cy="239.5" r="1.6"/>
				<circle fill="#8E8E8E" cx="154.4" cy="239.5" r="1.6"/>
				<circle fill="#8E8E8E" cx="158.6" cy="239.3" r="1.6"/>
				<circle fill="#8E8E8E" cx="150.2" cy="239.5" r="1.6"/>
				<circle fill="#00FFFF" cx="137.5" cy="239.5" r="1.6"/>
				<circle fill="#8E8E8E" cx="129.1" cy="239.5" r="1.6"/>
				<circle fill="#8E8E8E" cx="124.9" cy="243.1" r="1.6"/>
				<circle fill="#8E8E8E" cx="133.3" cy="243.1" r="1.6"/>
				<circle fill="#00FFFF" cx="141.7" cy="243.1" r="1.6"/>
				<circle fill="#8E8E8E" cx="146" cy="243.1" r="1.6"/>
				<circle fill="#8E8E8E" cx="154.4" cy="243.1" r="1.6"/>
				<circle fill="#8E8E8E" cx="158.6" cy="243.1" r="1.6"/>
				<circle fill="#8E8E8E" cx="150.2" cy="243.1" r="1.6"/>
				<circle fill="#8E8E8E" cx="137.5" cy="243.1" r="1.6"/>
				<circle fill="#8E8E8E" cx="129.1" cy="243.1" r="1.6"/>
				<circle fill="#8E8E8E" cx="133.3" cy="223.8" r="1.6"/>
				<circle fill="#8E8E8E" cx="141.7" cy="223.8" r="1.6"/>
				<circle fill="#8E8E8E" cx="146" cy="223.8" r="1.6"/>
				<circle fill="#8E8E8E" cx="154.4" cy="223.8" r="1.6"/>
				<circle fill="#8E8E8E" cx="150.2" cy="223.8" r="1.6"/>
				<circle fill="#8E8E8E" cx="137.5" cy="223.8" r="1.6"/>
				<circle fill="#8E8E8E" cx="129.1" cy="223.8" r="1.6"/>
				<circle fill="#8E8E8E" cx="133.3" cy="247.3" r="1.6"/>
				<circle fill="#8E8E8E" cx="141.7" cy="247.3" r="1.6"/>
				<circle fill="#8E8E8E" cx="146" cy="247.3" r="1.6"/>
				<circle fill="#8E8E8E" cx="154.4" cy="247.3" r="1.6"/>
				<circle fill="#8E8E8E" cx="150.2" cy="247.3" r="1.6"/>
				<circle fill="#8E8E8E" cx="137.5" cy="247.3" r="1.6"/>
				<circle fill="#8E8E8E" cx="129.1" cy="247.3" r="1.6"/>
				<circle fill="#00FFFF" cx="133.3" cy="235.5" r="1.6"/>
				<circle fill="#00FFFF" cx="146" cy="239.5" r="1.6"/>
			</g>
			<g opacity="0.6">
				<path fill="#FFFFFF" d="M115,224.1c0,0,0.1-0.7,0.4-1.6c0.1-0.2,0.1-0.5,0.3-0.8c0.1-0.3,0.2-0.6,0.4-0.9
					c0.3-0.6,0.6-1.1,1.1-1.7c0.2-0.2,0.4-0.5,0.7-0.7s0.5-0.4,0.8-0.6c0.1-0.1,0.3-0.1,0.4-0.2c0.1-0.1,0.3-0.1,0.4-0.1
					c0.1-0.1,0.3-0.1,0.4-0.1s0.3-0.1,0.4-0.1c0.3-0.1,0.5-0.1,0.7-0.1c0.2,0,0.4,0,0.5,0c0.3,0,0.4,0,0.4,0c0.1,0,0.1,0.1,0.1,0.1
					v0.1l-0.1,0.1c0,0-0.1,0.1-0.4,0.4c-0.1,0.1-0.3,0.2-0.4,0.4s-0.3,0.4-0.5,0.5c-0.1,0.1-0.4,0.3-0.5,0.5
					c-0.1,0.1-0.1,0.1-0.2,0.2c-0.1,0.1-0.1,0.2-0.2,0.3c-0.1,0.1-0.1,0.1-0.2,0.2c-0.1,0.1-0.1,0.2-0.2,0.3
					c-0.1,0.1-0.3,0.4-0.4,0.5c-0.1,0.2-0.3,0.4-0.5,0.6c-0.1,0.2-0.4,0.4-0.5,0.6c-0.2,0.2-0.4,0.4-0.5,0.6
					c-0.2,0.2-0.4,0.4-0.6,0.6c-0.1,0.2-0.4,0.4-0.5,0.5s-0.3,0.3-0.4,0.4c-0.3,0.2-0.4,0.4-0.4,0.4l-0.1,0.1
					C115,224.2,115,224.2,115,224.1L115,224.1z"/>
			</g>
			<g opacity="0.6">
				<path fill="#FFFFFF" d="M161.2,217.1c0,0,0.7,0.1,1.6,0.4c0.2,0.1,0.5,0.1,0.8,0.3c0.3,0.1,0.6,0.2,0.9,0.4
					c0.6,0.3,1.1,0.6,1.7,1.1c0.2,0.2,0.5,0.4,0.7,0.7s0.4,0.5,0.6,0.8c0.1,0.1,0.1,0.3,0.2,0.4c0.1,0.1,0.1,0.3,0.1,0.4
					c0.1,0.1,0.1,0.3,0.1,0.4c0.1,0.1,0.1,0.3,0.1,0.4c0.1,0.3,0.1,0.5,0.1,0.7s0,0.4,0,0.5c0,0.3,0,0.4,0,0.4
					c0,0.1-0.1,0.1-0.1,0.1h-0.1V224c0,0-0.1-0.1-0.4-0.4c-0.1-0.1-0.2-0.3-0.4-0.4c-0.1-0.1-0.4-0.3-0.5-0.5
					c-0.1-0.1-0.3-0.4-0.5-0.5c-0.1-0.1-0.1-0.1-0.2-0.2c-0.1-0.1-0.2-0.1-0.3-0.2c-0.1-0.1-0.1-0.1-0.2-0.2
					c-0.1-0.1-0.2-0.1-0.3-0.2c-0.1-0.1-0.4-0.3-0.5-0.4c-0.2-0.1-0.4-0.3-0.6-0.5c-0.2-0.1-0.4-0.4-0.6-0.5
					c-0.2-0.2-0.4-0.4-0.6-0.5c-0.2-0.2-0.4-0.4-0.6-0.6c-0.2-0.1-0.4-0.4-0.5-0.5c-0.1-0.1-0.3-0.3-0.4-0.4
					c-0.2-0.3-0.4-0.4-0.4-0.4l-0.1-0.1C161.2,217.3,161.2,217.2,161.2,217.1L161.2,217.1z"/>
			</g>
		</g>
		<circle opacity="0.93" fill="#303030" enable-background="new    " cx="109" cy="235.6" r="1.6"/>
		<circle opacity="0.93" fill="#303030" enable-background="new    " cx="103.3" cy="235.6" r="1.6"/>
		<rect x="191.8" y="227.7" fill="#EFBD41" width="2.5" height="15.4"/>
	</g>
</g>
<g class="character" id="megan">
	<path id="bodyColor" fill="#7FE2E5" d="M193.4,283.5H83.2c-5.8,0-10.7-4.8-10.7-10.7V65.7c0-31,25.4-56.4,56.4-56.4h18.6
		c31,0,56.4,25.4,56.4,56.4v207.1C204,278.7,199.3,283.5,193.4,283.5z"/>
	<g id="face">
		<g>
			<circle opacity="0.13" enable-background="new    " cx="113.9" cy="74.1" r="23"/>
			<circle fill="#EAE9E5" cx="112.9" cy="72.1" r="23"/>
			<g>
				<g>
					<circle fill="#474747" cx="113.4" cy="67" r="15"/>
					<path fill="#00A6B7" d="M113.4,60.5c3.6,0,6.5,2.9,6.5,6.5s-2.9,6.5-6.5,6.5s-6.5-2.9-6.5-6.5S109.8,60.5,113.4,60.5 M113.4,52
						c-8.3,0-15,6.7-15,15s6.7,15,15,15s15-6.7,15-15S121.7,52,113.4,52L113.4,52z"/>
				</g>
				<path opacity="0.69" fill="#474747" enable-background="new    " d="M113.3,82.1c0,0-0.1-0.4-0.4-1.3c-0.1-0.4-0.2-0.9-0.3-1.5
					c-0.1-0.6-0.1-1.2-0.2-1.9s-0.1-1.5,0-2.3c0.1-0.8,0.2-1.6,0.4-2.6c0.1-0.9,0.3-1.8,0.2-2.7c0-0.9-0.1-1.8-0.3-2.8
					c-0.1-0.9-0.3-1.8-0.4-2.8c-0.1-0.9-0.1-1.8-0.1-2.7c-0.1-1.8,0-3.4,0.1-4.8s0.4-2.5,0.5-3.3s0.4-1.2,0.4-1.2h0.2
					c0,0,0.1,0.4,0.4,1.2c0.1,0.9,0.4,1.9,0.5,3.3s0.3,3.1,0.1,4.8c-0.1,0.9-0.1,1.8-0.1,2.7c-0.1,0.9-0.2,1.8-0.4,2.8
					c-0.1,0.9-0.3,1.8-0.3,2.8c0,0.9,0.1,1.8,0.2,2.7c0.1,0.9,0.4,1.7,0.4,2.6c0.1,0.8,0,1.6,0,2.3c-0.1,0.7-0.1,1.4-0.2,1.9
					c-0.1,0.6-0.1,1.1-0.3,1.5C113.6,81.6,113.4,82,113.3,82.1L113.3,82.1L113.3,82.1z"/>
				<path opacity="0.8" fill="#474747" enable-background="new    " d="M98.2,67c0,0,0.5-0.1,1.4-0.4c0.4-0.1,0.9-0.2,1.5-0.3
					c0.6-0.1,1.2-0.1,1.9-0.2c0.7-0.1,1.5-0.1,2.3,0c0.8,0.1,1.6,0.2,2.6,0.4c0.9,0.1,1.8,0.3,2.7,0.2c0.9,0,1.8-0.1,2.8-0.3
					c0.9-0.1,1.8-0.3,2.8-0.4c0.9-0.1,1.8-0.1,2.7-0.1c1.8-0.1,3.4,0,4.8,0.1c1.4,0.1,2.4,0.4,3.3,0.5c0.9,0.1,1.1,0.4,1.1,0.4v0.2
					c0,0-0.3,0.1-1.1,0.4c-0.9,0.1-1.9,0.4-3.3,0.5s-3,0.3-4.8,0.1c-0.9-0.1-1.8-0.1-2.7-0.1c-0.9-0.1-1.8-0.2-2.8-0.4
					s-1.8-0.3-2.8-0.3c-0.9,0-1.8,0.1-2.7,0.2c-0.9,0.1-1.7,0.4-2.6,0.4c-0.8,0.1-1.6,0-2.3,0c-0.7-0.1-1.4-0.1-1.9-0.2
					c-0.6-0.1-1.1-0.1-1.6-0.3C98.7,67.2,98.2,67,98.2,67L98.2,67L98.2,67z"/>
				<path opacity="0.69" fill="#474747" enable-background="new    " d="M99.5,72.9c0,0,0.4-0.3,1.1-0.7s1.8-1,3-1.6
					c0.6-0.3,1.4-0.6,2.1-0.9c0.8-0.3,1.6-0.5,2.4-0.8c1.7-0.5,3.4-1.2,5.1-2.1c0.9-0.4,1.6-0.9,2.5-1.3c0.9-0.4,1.6-0.8,2.5-1.1
					c0.8-0.4,1.6-0.7,2.3-1s1.5-0.6,2.1-0.8c1.4-0.4,2.5-0.8,3.3-1s1.3-0.3,1.3-0.3l0.1,0.1c0,0-0.4,0.3-1.1,0.7
					c-0.7,0.4-1.7,1-3,1.6c-0.6,0.3-1.4,0.6-2.1,1c-0.7,0.4-1.5,0.6-2.3,1c-0.9,0.3-1.7,0.6-2.6,0.9c-0.9,0.4-1.8,0.6-2.7,0.9
					c-1.8,0.6-3.6,1.3-5.1,2.1c-0.8,0.4-1.5,0.9-2.3,1.2c-0.7,0.4-1.4,0.6-2.1,0.9c-1.4,0.5-2.4,0.9-3.3,1.1
					c-0.8,0.2-1.3,0.3-1.3,0.3L99.5,72.9z"/>
				<path opacity="0.69" fill="#474747" enable-background="new    " d="M107.6,53.1c0,0,0.4,0.4,0.9,1.1c0.2,0.4,0.5,0.8,0.8,1.3
					c0.3,0.5,0.6,1.1,0.9,1.7s0.6,1.4,0.9,2.1c0.3,0.8,0.4,1.6,0.6,2.5c0.2,0.9,0.4,1.8,0.9,2.6c0.4,0.9,0.9,1.7,1.4,2.5
					s1,1.6,1.4,2.4c0.4,0.9,0.9,1.6,1.2,2.4c0.8,1.6,1.3,3.1,1.7,4.5s0.7,2.5,0.9,3.3c0.1,0.9,0.2,1.4,0.2,1.4l-0.2,0.1
					c0,0-0.4-0.4-0.8-1.1c-0.5-0.7-1.1-1.7-1.8-2.9c-0.7-1.3-1.4-2.7-2-4.4c-0.3-0.9-0.6-1.7-0.9-2.6c-0.3-0.9-0.5-1.8-0.8-2.7
					c-0.2-0.9-0.5-1.8-0.9-2.7c-0.4-0.9-0.8-1.6-1.3-2.4c-0.5-0.8-1-1.5-1.4-2.2c-0.4-0.7-0.6-1.4-0.9-2.1c-0.2-0.6-0.4-1.3-0.6-1.8
					c-0.1-0.6-0.3-1.1-0.4-1.5c-0.1-0.9-0.2-1.4-0.2-1.4L107.6,53.1z"/>
				<path opacity="0.5" fill="#474747" enable-background="new    " d="M127.1,73.3c0,0-0.5-0.1-1.3-0.3c-0.8-0.2-1.9-0.6-3.2-1.1
					c-0.6-0.3-1.4-0.6-2.1-0.9c-0.7-0.4-1.5-0.8-2.2-1.3c-1.5-0.9-3.3-1.7-5.1-2.3c-0.9-0.3-1.8-0.6-2.6-0.9c-0.9-0.4-1.7-0.7-2.6-1
					c-0.8-0.4-1.6-0.6-2.3-1.1c-0.7-0.4-1.4-0.7-2.1-1c-1.3-0.6-2.3-1.3-3-1.7c-0.7-0.4-1.1-0.7-1.1-0.7l0.1-0.1
					c0,0,0.5,0.1,1.3,0.4c0.8,0.2,1.9,0.6,3.3,1.1c0.6,0.2,1.4,0.5,2.1,0.9c0.8,0.3,1.5,0.6,2.3,1.1c0.8,0.4,1.6,0.8,2.4,1.2
					c0.9,0.4,1.6,0.9,2.5,1.4c1.6,1,3.3,1.8,5.1,2.3c0.9,0.3,1.7,0.5,2.4,0.8c0.8,0.3,1.4,0.6,2.1,0.9c1.3,0.6,2.3,1.2,3,1.6
					c0.7,0.4,1.1,0.7,1.1,0.7L127.1,73.3z"/>
				<path opacity="0.69" fill="#474747" enable-background="new    " d="M107.1,80.8c0,0,0-0.5,0.1-1.4c0.1-0.9,0.4-2,0.9-3.3
					c0.2-0.6,0.5-1.4,0.9-2.1c0.4-0.7,0.9-1.4,1.5-2.1c0.6-0.7,1.1-1.5,1.4-2.3c0.4-0.9,0.6-1.8,0.9-2.7c0.2-0.9,0.4-1.8,0.7-2.8
					c0.3-0.9,0.6-1.8,0.9-2.6c0.6-1.6,1.4-3.1,2.1-4.3c0.4-0.6,0.7-1.1,1.1-1.6c0.4-0.5,0.6-0.9,0.9-1.2c0.6-0.6,0.9-1,0.9-1
					l0.3,0.1c0,0,0,0.5-0.1,1.4c-0.1,0.4-0.1,0.9-0.3,1.5c-0.1,0.6-0.3,1.2-0.5,1.9c-0.4,1.4-0.9,2.9-1.8,4.5
					c-0.4,0.8-0.9,1.6-1.3,2.4c-0.4,0.8-1,1.6-1.6,2.3c-0.6,0.8-1.1,1.6-1.5,2.4c-0.4,0.9-0.6,1.7-0.8,2.6c-0.1,0.9-0.3,1.8-0.6,2.5
					c-0.3,0.8-0.6,1.4-1,2.1c-0.7,1.2-1.4,2.2-1.9,2.8c-0.6,0.6-0.9,1-0.9,1L107.1,80.8z"/>
			</g>
			<g>
				<g>
					<defs>
						<path id="SVGID_24_" d="M135.4,74.9c0-6.8-10.2-12.2-23-12.2c-7.9,0-14.9,2.1-19.1,5.4c-2.5,1.9-5.6,0.7-7-1.4l10.5-31.2
							l38.4,8.2l3.4,29.6L135.4,74.9z"/>
					</defs>
					<clipPath id="SVGID_25_">
						<use xlink:href="#SVGID_24_"  overflow="visible"/>
					</clipPath>
					<g clip-path="url(#SVGID_25_)">
						<circle fill="#C17BFF" cx="112.8" cy="71.9" r="23"/>
						<path opacity="0.71" fill="#F9F9F9" enable-background="new    " d="M126,53c2.6,3.7,4.2,8.3,4.2,13.2c0,12.7-10.2,23-23,23
							c-4.9,0-9.5-1.6-13.2-4.2c4.1,5.9,11,9.7,18.8,9.7c12.7,0,23-10.2,23-23C135.8,64.1,131.9,57.2,126,53z"/>
					</g>
				</g>
			</g>
			<path opacity="0.34" fill="#F9F9F9" enable-background="new    " d="M126.1,53.3c2.6,3.7,4.2,8.3,4.2,13.2c0,12.7-10.2,23-23,23
				c-4.9,0-9.5-1.6-13.2-4.2c4.1,5.9,11,9.7,18.8,9.7c12.7,0,23-10.2,23-23C135.9,64.3,132,57.5,126.1,53.3z"/>
			<path fill="#474747" d="M135.3,75.2c0,0-0.1-0.2-0.2-0.6c-0.1-0.4-0.4-0.9-0.7-1.5c-0.4-0.6-0.9-1.3-1.6-1.9
				c-0.7-0.6-1.6-1.3-2.6-1.8c-2.1-1.1-4.8-2.1-7.8-2.9c-1.5-0.4-3.1-0.8-4.7-1.1c-1.6-0.3-3.3-0.5-5-0.6c-1.7-0.1-3.3-0.1-5.1,0.1
				c-1.6,0.1-3.3,0.4-4.8,0.7c-3.1,0.6-6,1.7-8.1,3.1c-0.3,0.2-0.6,0.4-0.9,0.5c-0.1,0.1-0.3,0.1-0.4,0.2s-0.4,0.1-0.5,0.2
				c-0.6,0.3-1.3,0.4-1.9,0.4c-1.2,0-2.2-0.4-2.8-0.9c-0.7-0.4-1.1-0.9-1.4-1.3c-0.1-0.1-0.2-0.3-0.3-0.4c-0.1-0.1-0.1-0.1-0.1-0.1
				c-0.1-0.1,0-0.2,0.1-0.3c0.1-0.1,0.2-0.1,0.3,0.1l0,0c0,0,0,0.1,0.1,0.1c0.1,0.1,0.1,0.2,0.3,0.4c0.3,0.3,0.7,0.6,1.4,1
				c0.6,0.3,1.5,0.6,2.4,0.4c0.5-0.1,0.9-0.2,1.4-0.4c0.1-0.1,0.2-0.1,0.3-0.2c0.1-0.1,0.2-0.2,0.4-0.3c0.2-0.2,0.5-0.4,0.7-0.6
				c2.1-1.7,5.1-3.2,8.3-4.2c1.6-0.5,3.3-0.9,5.1-1.2c1.8-0.3,3.6-0.5,5.4-0.6c1.8-0.1,3.7-0.1,5.5,0.1c1.8,0.1,3.6,0.4,5.3,0.8
				s3.3,1.1,4.8,1.8c1.4,0.8,2.8,1.6,3.8,2.6s2,2.1,2.6,3.1c0.6,1.1,1,2.1,1.1,2.9c0.1,0.9,0.1,1.6,0.1,2c-0.1,0.4-0.1,0.6-0.1,0.6
				C135.6,75.3,135.5,75.3,135.3,75.2C135.4,75.3,135.3,75.3,135.3,75.2z"/>
			<path d="M94.1,44.6c0,0,0.1-0.1,0.4-0.4c0.2-0.2,0.6-0.5,1.1-0.9s1.1-0.8,1.8-1.1c0.4-0.2,0.8-0.4,1.2-0.6
				c0.4-0.2,0.9-0.4,1.4-0.6c1-0.4,2.1-0.8,3.2-1.1c0.6-0.1,1.2-0.3,1.8-0.4c0.3-0.1,0.6-0.1,0.9-0.1c0.4,0,0.6-0.1,1-0.1
				c0.4,0,0.6-0.1,1-0.1c0.4,0,0.7,0,1,0c0.7,0.1,1.4,0,2.1,0.1c0.4,0.1,0.7,0.1,1.1,0.1c0.4,0.1,0.7,0.1,1.1,0.2
				c0.7,0.2,1.4,0.4,2.1,0.6c1.4,0.6,2.7,1.1,3.8,1.9c0.3,0.2,0.6,0.4,0.9,0.6l0.2,0.1h0.1c-0.1,0,0,0,0,0l0.1,0.1l0.4,0.3
				c0.5,0.4,1.1,0.7,1.6,1.1c1,0.6,1.9,1.4,2.9,1.9c0.5,0.3,0.9,0.6,1.4,0.9c0.2,0.1,0.4,0.3,0.6,0.4c0.2,0.1,0.4,0.2,0.6,0.4
				c0.4,0.2,0.9,0.4,1.2,0.6c0.4,0.2,0.8,0.3,1.1,0.4c0.7,0.2,1.4,0.4,1.9,0.4c0.6,0,1-0.1,1.3-0.2c0.3-0.1,0.4-0.2,0.4-0.2
				s-0.1,0.1-0.3,0.4c-0.2,0.2-0.6,0.6-1.3,0.7c-0.6,0.2-1.4,0.3-2.3,0.2c-0.9-0.1-1.8-0.2-2.8-0.5c-0.5-0.1-1.1-0.3-1.6-0.5
				c-0.6-0.2-1.1-0.4-1.6-0.6c-1.1-0.4-2.2-1-3.3-1.6c-0.6-0.3-1.1-0.6-1.6-0.9l-0.4-0.2l-0.1-0.1l-0.1-0.1h-0.1l-0.2-0.1
				c-0.3-0.1-0.5-0.3-0.8-0.4c-1.1-0.6-2.2-1.1-3.3-1.6c-0.6-0.2-1.1-0.4-1.7-0.6s-1.2-0.3-1.8-0.4c-0.6-0.1-1.2-0.2-1.8-0.3
				c-0.3,0-0.6-0.1-0.9-0.1s-0.6,0-0.9,0c-0.3,0-0.6,0-0.9-0.1c-0.3,0-0.6,0-0.9,0c-0.6,0-1.1,0-1.6,0.1c-1.1,0.1-2.1,0.2-3.1,0.4
				c-0.5,0.1-0.9,0.1-1.4,0.3c-0.4,0.1-0.9,0.2-1.2,0.3c-0.8,0.2-1.5,0.4-2,0.6C94.8,44.4,94.1,44.6,94.1,44.6z"/>
		</g>
		<g>
			<circle opacity="0.13" enable-background="new    " cx="162.4" cy="74.1" r="23"/>
			<circle fill="#EAE9E5" cx="163.4" cy="72.1" r="23"/>
			<g>
				<g>
					<circle fill="#474747" cx="163.4" cy="67" r="15"/>
					<path fill="#00A6B7" d="M163.4,60.5c3.6,0,6.5,2.9,6.5,6.5s-2.9,6.5-6.5,6.5s-6.5-2.9-6.5-6.5S159.9,60.5,163.4,60.5 M163.4,52
						c-8.3,0-15,6.7-15,15s6.7,15,15,15c8.3,0,15-6.7,15-15S171.7,52,163.4,52L163.4,52z"/>
				</g>
				<path opacity="0.69" fill="#474747" enable-background="new    " d="M163.4,82.1c0,0-0.1-0.4-0.4-1.3c-0.1-0.4-0.2-0.9-0.3-1.5
					c-0.1-0.6-0.1-1.2-0.2-1.9c-0.1-0.7-0.1-1.5,0-2.3c0.1-0.8,0.2-1.6,0.4-2.6c0.1-0.9,0.3-1.8,0.2-2.7c0-0.9-0.1-1.8-0.3-2.8
					c-0.1-0.9-0.3-1.8-0.4-2.8c-0.1-0.9-0.1-1.8-0.1-2.7c-0.1-1.8,0-3.4,0.1-4.8s0.4-2.5,0.5-3.3c0.1-0.9,0.4-1.2,0.4-1.2h0.2
					c0,0,0.1,0.4,0.4,1.2c0.1,0.9,0.4,1.9,0.5,3.3c0.1,1.4,0.3,3.1,0.1,4.8c-0.1,0.9-0.1,1.8-0.1,2.7c-0.1,0.9-0.2,1.8-0.4,2.8
					c-0.1,0.9-0.3,1.8-0.3,2.8c0,0.9,0.1,1.8,0.2,2.7c0.1,0.9,0.4,1.7,0.4,2.6c0.1,0.8,0,1.6,0,2.3c-0.1,0.7-0.1,1.4-0.2,1.9
					s-0.1,1.1-0.3,1.5C163.6,81.6,163.4,82,163.4,82.1L163.4,82.1L163.4,82.1z"/>
				<path opacity="0.8" fill="#474747" enable-background="new    " d="M148.1,67c0,0,0.6-0.1,1.4-0.4c0.4-0.1,1-0.2,1.6-0.3
					c0.6-0.1,1.3-0.1,2-0.1c0.7-0.1,1.5-0.1,2.3,0c0.8,0.1,1.6,0.2,2.6,0.4c0.9,0.1,1.8,0.3,2.7,0.2c0.9,0,1.8-0.1,2.8-0.3
					s1.8-0.3,2.8-0.4s1.8-0.1,2.7-0.1c1.8-0.1,3.4,0,4.8,0.1c1.4,0.1,2.7,0.4,3.5,0.5c0.9,0.1,1.4,0.4,1.4,0.4v0.2
					c0,0-0.6,0.1-1.4,0.4c-0.9,0.1-2.1,0.4-3.5,0.5c-1.4,0.1-3.1,0.3-4.8,0.1c-0.9-0.1-1.8-0.1-2.7-0.1c-0.9-0.1-1.8-0.2-2.8-0.4
					c-0.9-0.1-1.8-0.3-2.8-0.3s-1.8,0.1-2.7,0.2c-0.9,0.1-1.7,0.4-2.6,0.4c-0.8,0.1-1.6,0-2.3,0c-0.7-0.1-1.4-0.1-1.9-0.2
					c-0.6-0.1-1.2-0.1-1.6-0.3c-0.9-0.1-1.4-0.4-1.4-0.4L148.1,67L148.1,67z"/>
				<path opacity="0.69" fill="#474747" enable-background="new    " d="M149.5,72.9c0,0,0.4-0.3,1.1-0.7s1.8-1,3-1.6
					c0.6-0.3,1.4-0.6,2.1-0.9c0.8-0.3,1.6-0.5,2.4-0.8c1.7-0.5,3.4-1.2,5.1-2.1c0.9-0.4,1.6-0.9,2.5-1.3c0.9-0.4,1.6-0.8,2.5-1.1
					c0.8-0.4,1.6-0.7,2.3-1c0.8-0.3,1.5-0.6,2.1-0.8c1.4-0.4,2.5-0.8,3.3-1c0.8-0.2,1.3-0.3,1.3-0.3l0.1,0.1c0,0-0.4,0.3-1.1,0.7
					c-0.7,0.4-1.7,1-3,1.6c-0.6,0.3-1.4,0.6-2.1,1c-0.7,0.4-1.5,0.6-2.3,1c-0.9,0.3-1.7,0.6-2.6,0.9c-0.9,0.4-1.8,0.6-2.7,0.9
					c-1.8,0.6-3.6,1.3-5.1,2.1c-0.8,0.4-1.5,0.9-2.3,1.2c-0.7,0.4-1.4,0.6-2.1,0.9c-1.4,0.5-2.4,0.9-3.3,1.1
					c-0.8,0.2-1.3,0.3-1.3,0.3L149.5,72.9z"/>
				<path opacity="0.69" fill="#474747" enable-background="new    " d="M157.7,53.1c0,0,0.4,0.4,0.9,1.1c0.2,0.4,0.5,0.8,0.8,1.3
					c0.3,0.5,0.6,1.1,0.9,1.7c0.3,0.6,0.6,1.4,0.9,2.1c0.3,0.8,0.4,1.6,0.6,2.5c0.2,0.9,0.4,1.8,0.9,2.6c0.4,0.9,0.9,1.7,1.4,2.5
					s1,1.6,1.4,2.4c0.4,0.9,0.9,1.6,1.2,2.4c0.8,1.6,1.3,3.1,1.7,4.5c0.4,1.4,0.7,2.5,0.9,3.3c0.1,0.9,0.2,1.4,0.2,1.4l-0.2,0.1
					c0,0-0.4-0.4-0.8-1.1c-0.5-0.7-1.1-1.7-1.8-2.9c-0.7-1.3-1.4-2.7-2-4.4c-0.3-0.9-0.6-1.7-0.9-2.6c-0.3-0.9-0.5-1.8-0.8-2.7
					c-0.2-0.9-0.5-1.8-0.9-2.7c-0.4-0.9-0.8-1.6-1.3-2.4c-0.5-0.8-1-1.5-1.4-2.2c-0.4-0.7-0.6-1.4-0.9-2.1c-0.2-0.6-0.4-1.3-0.6-1.8
					c-0.1-0.6-0.3-1.1-0.4-1.5c-0.1-0.9-0.2-1.4-0.2-1.4L157.7,53.1z"/>
				<path opacity="0.5" fill="#474747" enable-background="new    " d="M177.2,73.3c0,0-0.5-0.1-1.3-0.3c-0.8-0.2-1.9-0.6-3.2-1.1
					c-0.6-0.3-1.4-0.6-2.1-0.9c-0.7-0.4-1.5-0.8-2.2-1.3c-1.5-0.9-3.3-1.7-5.1-2.3c-0.9-0.3-1.8-0.6-2.6-0.9s-1.7-0.7-2.6-1
					c-0.8-0.4-1.6-0.6-2.3-1.1c-0.7-0.4-1.4-0.7-2.1-1c-1.3-0.6-2.3-1.3-3-1.7c-0.7-0.4-1.1-0.7-1.1-0.7l0.1-0.1
					c0,0,0.5,0.1,1.3,0.4c0.8,0.2,1.9,0.6,3.3,1.1c0.6,0.2,1.4,0.5,2.1,0.9c0.8,0.3,1.5,0.6,2.3,1.1c0.8,0.4,1.6,0.8,2.4,1.2
					c0.9,0.4,1.6,0.9,2.5,1.4c1.6,1,3.3,1.8,5.1,2.3c0.9,0.3,1.6,0.5,2.4,0.8s1.4,0.6,2.1,0.9c1.3,0.6,2.3,1.2,3,1.6
					c0.7,0.4,1.1,0.7,1.1,0.7L177.2,73.3z"/>
				<path opacity="0.69" fill="#474747" enable-background="new    " d="M157.2,80.8c0,0,0-0.5,0.1-1.4c0.1-0.9,0.4-2,0.9-3.3
					c0.2-0.6,0.5-1.4,0.9-2.1c0.4-0.7,0.9-1.4,1.5-2.1s1.1-1.5,1.4-2.3c0.4-0.9,0.6-1.8,0.9-2.7c0.2-0.9,0.4-1.8,0.7-2.8
					c0.3-0.9,0.6-1.8,0.9-2.6c0.6-1.6,1.4-3.1,2.1-4.3c0.4-0.6,0.7-1.1,1.1-1.6c0.4-0.5,0.6-0.9,0.9-1.2c0.6-0.6,0.9-1,0.9-1
					l0.3,0.1c0,0,0,0.5-0.1,1.4c-0.1,0.4-0.1,0.9-0.3,1.5c-0.1,0.6-0.3,1.2-0.5,1.9c-0.4,1.4-0.9,2.9-1.8,4.5
					c-0.4,0.8-0.9,1.6-1.3,2.4c-0.4,0.8-1,1.6-1.6,2.3s-1.1,1.6-1.5,2.4c-0.4,0.9-0.6,1.7-0.8,2.6c-0.1,0.9-0.3,1.8-0.6,2.5
					c-0.3,0.8-0.6,1.4-1,2.1c-0.7,1.2-1.4,2.2-1.9,2.8c-0.6,0.6-0.9,1-0.9,1L157.2,80.8z"/>
			</g>
			<g>
				<g>
					<defs>
						<path id="SVGID_26_" d="M189.2,66.1c-1.4,2.1-4.5,3.3-7,1.4c-4.1-3.3-11.1-5.4-19.1-5.4c-12.7,0-23,5.5-23,12.2l-10.5-25.5
							l27.2-13.4l34.7,8.5L189.2,66.1z"/>
					</defs>
					<clipPath id="SVGID_27_">
						<use xlink:href="#SVGID_26_"  overflow="visible"/>
					</clipPath>
					<g clip-path="url(#SVGID_27_)">
						<circle fill="#C17BFF" cx="163.1" cy="71.8" r="23"/>
						<path opacity="0.71" fill="#F9F9F9" enable-background="new    " d="M176.2,52.9c2.6,3.7,4.2,8.3,4.2,13.2
							c0,12.7-10.2,23-23,23c-4.9,0-9.5-1.6-13.2-4.2c4.1,5.9,11,9.7,18.8,9.7c12.7,0,23-10.2,23-23C186,64,182.1,57.1,176.2,52.9z"
							/>
					</g>
				</g>
			</g>
			<path opacity="0.34" fill="#F9F9F9" enable-background="new    " d="M176.6,53.3c2.6,3.7,4.2,8.3,4.2,13.2c0,12.7-10.2,23-23,23
				c-4.9,0-9.5-1.6-13.2-4.2c4.1,5.9,11,9.7,18.8,9.7c12.7,0,23-10.2,23-23C186.4,64.3,182.5,57.5,176.6,53.3z"/>
			<path fill="#474747" d="M140.4,74.6c0,0-0.1-0.2-0.1-0.6s-0.1-1.1,0.1-2c0.1-0.9,0.5-1.8,1.1-2.9c0.6-1.1,1.5-2.1,2.6-3.1
				c1.1-1,2.4-1.8,3.8-2.6c1.4-0.8,3.1-1.4,4.8-1.8c1.7-0.4,3.5-0.7,5.3-0.8c1.8-0.1,3.6-0.1,5.5-0.1c1.8,0.1,3.7,0.3,5.4,0.6
				c1.8,0.3,3.5,0.7,5.1,1.2c3.3,1,6.2,2.5,8.3,4.2c0.3,0.2,0.5,0.4,0.7,0.6c0.1,0.1,0.3,0.2,0.4,0.3c0.1,0.1,0.2,0.1,0.3,0.2
				c0.4,0.2,0.9,0.4,1.4,0.4c0.9,0.1,1.8-0.1,2.4-0.4c0.6-0.3,1.1-0.7,1.4-1c0.1-0.1,0.2-0.3,0.3-0.4c0.1-0.1,0.1-0.1,0.1-0.1l0,0
				c0.1-0.1,0.2-0.1,0.3,0c0.1,0.1,0.1,0.2,0.1,0.3c0,0,0,0.1-0.1,0.1c-0.1,0.1-0.1,0.2-0.3,0.4c-0.3,0.4-0.7,0.9-1.4,1.3
				c-0.7,0.4-1.6,0.9-2.8,0.9c-0.6,0-1.3-0.1-1.9-0.4c-0.1-0.1-0.4-0.1-0.5-0.2c-0.1-0.1-0.3-0.1-0.4-0.2c-0.3-0.1-0.6-0.4-0.9-0.5
				c-2.1-1.4-5-2.4-8.1-3.1c-1.6-0.4-3.2-0.6-4.8-0.7c-1.7-0.1-3.3-0.1-5.1-0.1c-1.7,0.1-3.3,0.3-5,0.6c-1.6,0.4-3.2,0.7-4.7,1.1
				c-3,0.8-5.7,1.8-7.8,2.9c-1.1,0.6-1.9,1.2-2.6,1.8c-0.7,0.6-1.3,1.3-1.6,1.9c-0.4,0.6-0.6,1.1-0.7,1.5c-0.1,0.4-0.2,0.6-0.2,0.6
				c-0.1,0.1-0.1,0.2-0.3,0.1C140.4,74.8,140.4,74.7,140.4,74.6z"/>
			<path d="M181.8,47.7c0,0-0.6-0.2-1.8-0.6c-1.1-0.4-2.8-0.8-4.7-1.3c-1.9-0.4-4.2-0.9-6.6-1.1c-1.2-0.1-2.5-0.2-3.7-0.2
				c-1.3,0-2.6,0-3.8,0.1c-1.3,0.1-2.5,0.3-3.8,0.6l-0.2,0.1h-0.1l0,0c0.1,0,0,0,0,0l0,0H157l-0.5,0.1c-0.4,0.1-0.6,0.1-0.9,0.2
				c-0.6,0.1-1.2,0.4-1.8,0.5s-1.1,0.4-1.7,0.5c-0.6,0.1-1.1,0.4-1.6,0.6s-1.1,0.4-1.5,0.6c-0.2,0.1-0.5,0.2-0.7,0.3
				c-0.2,0.1-0.4,0.2-0.7,0.3c-0.9,0.4-1.7,0.9-2.3,1.3s-1.3,0.9-1.7,1.2c-0.9,0.8-1.3,1.4-1.3,1.4s0-0.1,0.1-0.5
				c0.1-0.3,0.3-0.8,0.6-1.3c0.3-0.6,0.8-1.1,1.4-1.8s1.3-1.4,2.1-1.9c0.2-0.1,0.4-0.4,0.6-0.5c0.2-0.1,0.5-0.3,0.7-0.5
				c0.5-0.4,1-0.6,1.5-0.9c0.5-0.3,1.1-0.6,1.6-0.9c0.3-0.1,0.6-0.3,0.9-0.4s0.6-0.2,0.9-0.4c0.6-0.2,1.3-0.5,1.8-0.7
				c0.3-0.1,0.6-0.2,0.9-0.3L156,42l0.1-0.1l0.1-0.1l0.3-0.1c1.4-0.4,2.8-0.6,4.3-0.8c1.4-0.1,2.9-0.1,4.3-0.1
				c1.4,0.1,2.8,0.3,4.1,0.6c2.6,0.6,4.9,1.4,6.8,2.3c1.9,0.9,3.3,1.8,4.3,2.6C181.3,47.2,181.8,47.7,181.8,47.7z"/>
		</g>
		<circle fill="#474747" cx="159.4" cy="101.2" r="2.1"/>
		<g>
			<path opacity="0.15" enable-background="new    " d="M161.9,110.3c0,0-3.8,1.4-5.5-0.9c-1.8-2.2-4.9-6-11.1-6s-7.3,3.3-7.3,3.3
				l0,0c0,0-1.4-3.3-7.5-3.3c-6.2,0-9.3,3.9-11.1,6.1c-1.8,2.2-5.5,0.8-5.5,0.8s5.8,14.7,24.1,14.7S161.9,110.3,161.9,110.3z"/>
			<path fill="#FC5959" d="M161.9,110.3c0,0-3.8-0.6-5.5-2.9c-1.8-2.2-4.9-6-11.1-6s-7.3,3.3-7.3,3.3l0,0c0,0-1.4-3.3-7.5-3.3
				c-6.2,0-9.3,3.9-11.1,6.1s-5.5,2.8-5.5,2.8s5.8,12.6,24.1,12.6S161.9,110.3,161.9,110.3z"/>
			<path fill="#474747" d="M113.8,110.3c0,0,0.2,0.1,0.6,0.1c0.4,0.1,0.9,0.1,1.5,0.3c1.3,0.3,3.2,0.6,5.4,0.9
				c1.1,0.1,2.3,0.3,3.6,0.4c1.3,0.1,2.6,0.3,4.1,0.4c1.4,0.1,2.8,0.2,4.3,0.2c0.7,0,1.5,0.1,2.3,0.1s1.5,0,2.3,0c1.5,0,3,0,4.5-0.1
				c1.5,0,2.9-0.1,4.3-0.2c0.4,0,0.7-0.1,1.1-0.1c0.4-0.1,0.7-0.1,1-0.1c0.7-0.1,1.4-0.1,2-0.2c1.3-0.1,2.5-0.3,3.6-0.5
				c1.1-0.2,2.1-0.3,3.1-0.4c0.9-0.1,1.7-0.4,2.3-0.4c1.3-0.2,2.1-0.4,2.1-0.4s-0.7,0.2-2,0.6c-0.6,0.2-1.4,0.4-2.3,0.7
				c-0.9,0.3-1.9,0.5-3.1,0.7c-0.6,0.1-1.1,0.3-1.8,0.4c-0.6,0.1-1.2,0.2-1.9,0.4c-1.3,0.2-2.6,0.5-4.1,0.6
				c-0.7,0.1-1.4,0.1-2.2,0.2c-0.4,0.1-0.7,0.1-1.1,0.1c-0.4,0-0.8,0-1.1,0.1c-1.5,0.1-3.1,0.1-4.6,0.1c-0.8,0-1.6,0-2.3,0
				c-0.8,0-1.5-0.1-2.3-0.1c-1.5-0.1-3-0.2-4.4-0.4c-1.4-0.1-2.8-0.4-4.1-0.6c-1.3-0.2-2.5-0.4-3.6-0.7c-1.1-0.2-2.1-0.5-3.1-0.7
				c-0.9-0.2-1.7-0.5-2.3-0.6C114.5,110.6,113.8,110.3,113.8,110.3z"/>
			<path opacity="0.59" fill="#474747" enable-background="new    " d="M143.5,112.9c0,0,0.1,0,0.2-0.1c0.1-0.1,0.4-0.2,0.6-0.4
				c0.2-0.2,0.5-0.4,0.7-0.7c0.2-0.3,0.4-0.6,0.6-1c0.1-0.2,0.1-0.4,0.2-0.6c0.1-0.2,0.1-0.4,0.1-0.6c0.1-0.4,0.1-0.7,0.1-1
				c0.1-0.3,0-0.6,0.1-0.7c0-0.2,0-0.3,0-0.3s0,0.1,0,0.3c0,0.2,0.1,0.4,0.1,0.7c0,0.3,0,0.6-0.1,1.1c0,0.2-0.1,0.4-0.1,0.6
				c0,0.2-0.1,0.4-0.1,0.6c-0.1,0.4-0.3,0.8-0.5,1.1c-0.2,0.4-0.5,0.6-0.7,0.9c-0.2,0.2-0.5,0.4-0.6,0.5c-0.1,0.1-0.3,0.1-0.3,0.1
				L143.5,112.9z"/>
			<path opacity="0.59" fill="#474747" enable-background="new    " d="M126.6,113.1c0,0-0.1-0.1-0.1-0.2c-0.1-0.1-0.2-0.3-0.4-0.6
				c-0.3-0.5-0.6-1.1-0.7-1.8c-0.1-0.1-0.1-0.4-0.1-0.5s0-0.4,0-0.5c0-0.1,0-0.4,0-0.5s0-0.3,0.1-0.4c0.1-0.3,0.1-0.5,0.1-0.6
				s0.1-0.2,0.1-0.2s0,0.1,0,0.2s-0.1,0.4-0.1,0.6c0,0.1,0,0.3,0,0.4c0,0.1,0,0.3,0.1,0.4c0,0.1,0.1,0.4,0.1,0.5
				c0.1,0.1,0.1,0.4,0.1,0.5c0.2,0.6,0.6,1.2,0.9,1.6c0.3,0.4,0.6,0.6,0.6,0.6L126.6,113.1z"/>
			<path opacity="0.59" fill="#474747" enable-background="new    " d="M144.3,112.4c0,0,0.2,0,0.6-0.1c0.4-0.1,0.9-0.1,1.4-0.4
				c0.2-0.1,0.4-0.3,0.6-0.4c0.1-0.1,0.2-0.1,0.2-0.3c0.1-0.1,0.1-0.1,0.2-0.3s0.1-0.4,0.2-0.4c0.1-0.1,0.1-0.1,0.1-0.1s0,0.1,0,0.2
				c0,0.1-0.1,0.3-0.1,0.5c0,0.1-0.1,0.2-0.1,0.3c-0.1,0.1-0.1,0.2-0.2,0.3c-0.1,0.2-0.4,0.4-0.6,0.6c-0.9,0.6-2.1,0.9-2.1,0.9
				L144.3,112.4z"/>
			<path opacity="0.59" fill="#474747" enable-background="new    " d="M128.9,112.7c0,0-0.1-0.2-0.2-0.5c-0.1-0.3-0.3-0.7-0.4-1.1
				c-0.2-0.9-0.1-1.7-0.1-1.7s0.1,0.9,0.4,1.6c0.1,0.4,0.4,0.7,0.6,1c0.1,0.3,0.3,0.4,0.3,0.4L128.9,112.7z"/>
			<path opacity="0.59" fill="#474747" enable-background="new    " d="M138.2,113.6c0,0-0.2,0.5-0.4,1.3c-0.2,0.8-0.5,1.8-0.6,2.9
				c-0.1,0.6-0.1,1.1-0.1,1.6c0,0.3,0.1,0.5,0.1,0.7c0.1,0.2,0.1,0.4,0.1,0.6c0.1,0.2,0.1,0.4,0.2,0.5s0.1,0.3,0.2,0.4
				c0.1,0.2,0.1,0.4,0.1,0.4s-0.1-0.1-0.2-0.4c-0.1-0.1-0.1-0.2-0.2-0.4s-0.1-0.4-0.2-0.5c-0.1-0.2-0.1-0.4-0.2-0.6
				c-0.1-0.2-0.1-0.5-0.1-0.7c-0.1-0.5-0.1-1.1-0.1-1.6c0-1.1,0.2-2.3,0.4-3.1c0.1-0.9,0.4-1.4,0.4-1.4L138.2,113.6z"/>
			<path opacity="0.59" fill="#474747" enable-background="new    " d="M139.4,113.3c0,0-0.1,0.2-0.1,0.6c-0.1,0.4-0.1,0.9-0.1,1.3
				c-0.1,1-0.1,1.9-0.1,1.9s-0.1-1-0.3-1.9c-0.1-0.5-0.1-1-0.1-1.4c0-0.4,0-0.6,0-0.6L139.4,113.3z"/>
			<path opacity="0.59" fill="#474747" enable-background="new    " d="M119.2,112c0,0-0.1,0-0.1,0c-0.1,0-0.1-0.1-0.3-0.1
				c-0.2-0.1-0.5-0.3-0.6-0.5c-0.2-0.2-0.3-0.5-0.3-0.7c-0.1-0.2,0-0.4,0-0.4s0.1,0.1,0.1,0.3c0.1,0.1,0.3,0.4,0.4,0.5
				c0.2,0.1,0.4,0.2,0.6,0.2c0.1,0,0.1,0,0.2,0c0.1,0,0.1,0,0.1,0L119.2,112z"/>
			<path opacity="0.59" fill="#474747" enable-background="new    " d="M153.5,111.8C153.5,111.8,153.6,111.8,153.5,111.8
				c0.1,0.1,0.2,0.1,0.3,0.2c0.1,0.1,0.3,0.4,0.4,0.6c0.2,0.4,0.2,0.9,0.2,0.9s-0.2-0.4-0.5-0.6c-0.1-0.1-0.3-0.2-0.4-0.3
				c-0.1,0-0.1,0-0.1-0.1c0,0,0,0-0.1,0L153.5,111.8z"/>
			<path opacity="0.59" fill="#474747" enable-background="new    " d="M127.8,113.1c0,0-0.1,0.1-0.4,0.4c-0.2,0.3-0.5,0.6-0.6,1.1
				c-0.1,0.2-0.1,0.4-0.1,0.6c0,0.2,0,0.4,0,0.6c0.1,0.4,0.2,0.6,0.2,0.6s-0.1-0.2-0.3-0.6c-0.1-0.1-0.1-0.4-0.1-0.6
				c0-0.2,0-0.5,0-0.8c0.1-0.5,0.3-1,0.5-1.4c0.2-0.4,0.4-0.6,0.4-0.6L127.8,113.1z"/>
		</g>
		<g id="TETTEN">
			<path opacity="0.48" fill="#474747" enable-background="new    " d="M173.5,143.9c-0.8,0-1.7-0.1-2.8,0s-2.3,0.1-3.6,0.2
				c-0.6,0.1-1.4,0.1-2.1,0.2c-0.7,0.1-1.4,0.2-2.2,0.4c-0.4,0.1-0.8,0.1-1.1,0.2c-0.4,0.1-0.8,0.2-1.1,0.3
				c-0.8,0.2-1.6,0.4-2.4,0.6c-0.8,0.3-1.6,0.5-2.4,0.8c-0.8,0.3-1.6,0.6-2.5,1c-0.8,0.4-1.6,0.7-2.4,1.2c-0.8,0.4-1.6,0.9-2.3,1.4
				c-0.8,0.5-1.6,1-2.3,1.6c-0.4,0.3-0.7,0.6-1.1,0.9c-0.4,0.3-0.7,0.6-1,0.9c-0.9,0.8-1.7,1.6-2.4,2.6c-0.1-0.3-0.4-0.6-0.6-0.9
				c-0.2-0.3-0.4-0.6-0.7-1c-0.3-0.4-0.5-0.7-0.9-1c-0.3-0.4-0.6-0.7-1-1.1c-0.4-0.4-0.7-0.6-1.1-1c-0.8-0.7-1.7-1.4-2.6-2
				c-0.5-0.3-1-0.6-1.4-0.9c-0.5-0.3-1-0.6-1.5-0.9c-1.1-0.5-2.1-1.1-3.2-1.4c-0.6-0.2-1.1-0.4-1.6-0.6c-0.6-0.2-1.1-0.4-1.6-0.5
				c-0.6-0.1-1.1-0.3-1.6-0.4s-1.1-0.2-1.6-0.4c-1.1-0.2-2.1-0.4-3.1-0.6c-1-0.1-1.9-0.2-2.8-0.3c-0.9-0.1-1.6-0.1-2.3-0.1
				s-1.3-0.1-1.8-0.1c-1,0-1.6-0.1-1.6-0.1s0.6,0.1,1.6,0.2c0.5,0.1,1.1,0.1,1.8,0.2c0.7,0.1,1.5,0.1,2.3,0.4
				c0.9,0.1,1.8,0.4,2.7,0.6c0.9,0.2,1.9,0.6,3,0.8c0.5,0.1,1.1,0.3,1.6,0.5c0.5,0.2,1,0.4,1.6,0.6c0.5,0.2,1.1,0.4,1.6,0.6
				c0.5,0.2,1,0.5,1.5,0.7c1,0.4,1.9,1.1,2.9,1.6c0.5,0.3,0.9,0.6,1.4,0.9s0.9,0.6,1.3,0.9c0.8,0.7,1.6,1.3,2.1,2
				c0.6,0.6,1.2,1.4,1.7,2c0.2,0.3,0.4,0.6,0.6,0.9c0.2,0.3,0.4,0.6,0.5,0.9c0.4,0.6,0.6,1.1,0.7,1.4c0.1,0.3,0.2,0.6,0.3,0.8
				c-0.5,0.9-1,1.7-1.4,2.6c-0.7,1.4-1.1,2.8-1.5,4.1c-0.4,1.3-0.6,2.6-0.6,3.6c-0.1,1.1-0.1,2.1-0.1,2.8s0.1,1.4,0.1,1.8
				c0.1,0.4,0.1,0.6,0.1,0.6s0.1-0.9,0.4-2.3c0.1-0.7,0.4-1.6,0.7-2.6c0.4-1,0.7-2.1,1.2-3.3c0.5-1.1,1.1-2.3,1.9-3.6
				c0.8-1.2,1.6-2.4,2.6-3.6c0.5-0.6,1.1-1.1,1.6-1.7c0.3-0.3,0.6-0.6,0.9-0.8c0.3-0.3,0.6-0.6,0.9-0.8l0.9-0.8
				c0.3-0.3,0.6-0.5,1-0.7c0.6-0.5,1.4-0.9,2.1-1.4c0.7-0.5,1.4-0.9,2.1-1.3c0.7-0.4,1.5-0.8,2.2-1.1c0.7-0.4,1.5-0.7,2.2-1
				c0.7-0.4,1.5-0.6,2.2-0.9c0.7-0.4,1.5-0.5,2.2-0.8c0.4-0.1,0.7-0.3,1.1-0.4c0.4-0.1,0.7-0.2,1.1-0.4c0.7-0.2,1.4-0.4,2.1-0.6
				c0.6-0.2,1.4-0.4,1.9-0.6c1.2-0.4,2.4-0.6,3.4-0.9c1-0.3,1.9-0.5,2.7-0.6c1.5-0.4,2.3-0.6,2.3-0.6S174.9,143.9,173.5,143.9z"/>
			<path fill="#F4F2F2" d="M137.3,186.7c0,0,23-49.4,66.8-28.5c5.4,2.4,2.3,8.5-1.1,8c-3.4-0.4,6.5,1.5,2.1,7.2
				c-4.5,5.7,4.1-0.9,0,6.6C201,187.6,177.5,218.9,137.3,186.7z"/>
			<path fill="#F2F2F2" d="M138.7,186.7c0,0-23-49.4-66.8-28.5c-5.4,2.4-2.3,8.5,1.1,8c3.4-0.4-6.5,1.5-2.1,7.2
				c4.5,5.7-4.1-0.9,0,6.6C75,187.6,98.5,218.9,138.7,186.7z"/>
			<path opacity="0.2" enable-background="new    " d="M202.9,166.2c0,0-0.9-0.4-2.3-0.8c-1.5-0.4-3.8-1-6.4-1.3
				c-1.4-0.1-2.8-0.3-4.3-0.3c-1.6-0.1-3.1,0.1-4.8,0.1c-1.6,0.1-3.3,0.4-5.1,0.8c-0.9,0.1-1.7,0.4-2.6,0.6
				c-0.9,0.2-1.7,0.5-2.6,0.8c-1.7,0.6-3.3,1.3-4.9,2c-1.6,0.8-3.1,1.6-4.6,2.4c-0.7,0.4-1.4,0.9-2.1,1.3c-0.6,0.4-1.4,0.9-2,1.4
				c-0.6,0.4-1.2,0.9-1.8,1.4c-0.6,0.4-1.1,0.9-1.7,1.3c-0.5,0.4-1.1,0.9-1.5,1.2c-0.5,0.4-0.9,0.8-1.4,1.1
				c-0.9,0.7-1.6,1.4-2.1,1.9c-1.1,1.1-1.8,1.7-1.8,1.7s0.6-0.7,1.6-2c0.5-0.6,1.1-1.4,1.9-2.2c0.4-0.4,0.8-0.9,1.2-1.4
				c0.4-0.4,0.9-0.9,1.4-1.4c1-1,2.1-1.9,3.3-3c0.6-0.5,1.3-1,1.9-1.5c0.6-0.5,1.4-1,2.1-1.5s1.5-0.9,2.3-1.4
				c0.8-0.5,1.6-0.9,2.4-1.3c1.6-0.9,3.3-1.6,5.1-2.2c0.9-0.3,1.8-0.6,2.7-0.8c0.9-0.2,1.8-0.5,2.7-0.6c0.4-0.1,0.9-0.1,1.4-0.3
				c0.4-0.1,0.9-0.1,1.4-0.1c0.9-0.1,1.8-0.1,2.6-0.2c1.8-0.1,3.4-0.1,5.1,0.1c1.6,0.1,3.1,0.4,4.5,0.7c1.4,0.3,2.6,0.6,3.6,1
				c1.1,0.4,2,0.8,2.7,1.1c0.7,0.4,1.3,0.6,1.6,0.9C202.8,166.1,202.9,166.2,202.9,166.2z"/>
			<path opacity="0.2" enable-background="new    " d="M73.1,166.2c0,0,0.9-0.5,2.6-1.1c1.7-0.6,4.2-1.4,7.3-2.1
				c1.6-0.3,3.3-0.6,5.1-0.6c1.8-0.1,3.7-0.2,5.7-0.1c2,0.1,4.1,0.3,6.1,0.6c1,0.2,2.1,0.4,3.1,0.6l1.6,0.4l1.5,0.4
				c2.1,0.6,4,1.4,5.9,2.3c0.9,0.4,1.8,0.9,2.8,1.4c0.9,0.5,1.8,1.1,2.6,1.6c0.9,0.5,1.6,1.1,2.4,1.6s1.5,1.1,2.2,1.7
				c0.7,0.6,1.4,1.1,2,1.7c0.6,0.6,1.3,1.1,1.8,1.6c1.1,1.1,2.1,2.1,3,3.1c0.9,0.9,1.6,1.8,2.1,2.6c1.1,1.4,1.7,2.3,1.7,2.3
				s-0.8-0.7-2.1-2c-0.6-0.6-1.5-1.4-2.4-2.2c-0.9-0.9-2.1-1.8-3.2-2.8c-0.6-0.5-1.3-1-1.9-1.5c-0.6-0.5-1.4-1.1-2.1-1.5
				c-1.4-1-3-2-4.7-3c-0.9-0.4-1.7-0.9-2.6-1.4c-0.9-0.4-1.8-0.9-2.7-1.3c-1.8-0.8-3.7-1.6-5.7-2.1l-1.4-0.4l-1.5-0.4
				c-1-0.3-2-0.4-3-0.6c-2-0.4-3.9-0.6-5.8-0.8c-1.9-0.1-3.8-0.2-5.5-0.2s-3.4,0.1-5,0.3c-1.6,0.1-2.9,0.4-4.2,0.6
				c-1.2,0.2-2.3,0.4-3.2,0.6C74.1,165.9,73.1,166.2,73.1,166.2z"/>
			<path opacity="0.2" enable-background="new    " d="M71.9,176c0,0,2.9,2.3,7.7,5c1.2,0.6,2.5,1.4,3.9,2.1
				c1.4,0.7,2.9,1.4,4.4,2.1c1.6,0.6,3.2,1.3,4.9,1.8c1.7,0.6,3.4,1.1,5.1,1.6c1.8,0.4,3.5,0.9,5.3,1.1c1.8,0.3,3.5,0.6,5.2,0.7
				c0.9,0.1,1.6,0.1,2.5,0.2c0.8,0.1,1.6,0.1,2.4,0.1c0.8,0,1.6,0,2.3,0s1.4,0,2.1-0.1c0.7,0,1.4-0.1,1.9-0.1
				c0.6-0.1,1.2-0.1,1.8-0.1c1.1-0.1,2.1-0.2,2.8-0.4c1.6-0.2,2.5-0.4,2.5-0.4s-0.9,0.3-2.4,0.8c-0.8,0.2-1.7,0.4-2.8,0.7
				c-1.1,0.3-2.3,0.5-3.7,0.6c-0.7,0.1-1.4,0.1-2.1,0.3c-0.8,0.1-1.5,0.1-2.3,0.1c-0.8,0.1-1.6,0.1-2.5,0.1c-0.9,0-1.7,0-2.6-0.1
				c-0.9,0-1.8-0.1-2.6-0.2c-0.9-0.1-1.8-0.2-2.7-0.4c-1.8-0.3-3.6-0.7-5.5-1.1c-1.8-0.5-3.6-1.1-5.3-1.7c-1.7-0.6-3.3-1.4-5-2.1
				c-1.6-0.8-3.1-1.6-4.4-2.3c-1.4-0.8-2.6-1.6-3.8-2.4c-2.3-1.6-4.1-3.1-5.2-4.2C72.6,176.7,71.9,176,71.9,176z"/>
			<path opacity="0.2" enable-background="new    " d="M203.6,176c0,0-0.5,0.9-1.5,2.1c-1,1.3-2.6,3.1-4.8,5
				c-1.1,0.9-2.3,1.9-3.7,2.8c-1.4,0.9-2.8,1.8-4.5,2.7c-1.6,0.9-3.3,1.6-5.1,2.2c-0.9,0.3-1.8,0.6-2.7,0.9
				c-0.5,0.1-0.9,0.3-1.4,0.4l-1.4,0.3c-1.9,0.4-3.8,0.6-5.7,0.8c-0.9,0.1-1.9,0.1-2.8,0.1c-0.9,0-1.8-0.1-2.8-0.1
				c-0.9-0.1-1.8-0.1-2.6-0.2c-0.9-0.1-1.7-0.2-2.5-0.4c-0.8-0.1-1.6-0.3-2.3-0.4c-0.8-0.1-1.5-0.3-2.2-0.5
				c-1.4-0.4-2.6-0.7-3.7-1.1c-1.1-0.4-2.1-0.7-2.8-1.1c-1.6-0.6-2.4-1-2.4-1s0.9,0.2,2.5,0.6c0.8,0.2,1.8,0.4,2.9,0.6
				c1.1,0.3,2.4,0.4,3.8,0.7c0.7,0.1,1.4,0.2,2.1,0.3c0.8,0.1,1.5,0.2,2.3,0.3c0.8,0.1,1.6,0.1,2.4,0.2c0.9,0,1.7,0.1,2.6,0.1
				c0.9,0,1.8,0,2.6-0.1s1.8-0.1,2.7-0.2c1.8-0.2,3.6-0.4,5.4-0.9l1.4-0.3c0.4-0.1,0.9-0.2,1.4-0.4c0.9-0.2,1.8-0.5,2.6-0.8
				s1.7-0.6,2.6-0.9c0.9-0.4,1.6-0.6,2.4-1.1c1.6-0.7,3.1-1.5,4.4-2.3c1.4-0.9,2.6-1.6,3.8-2.5c1.1-0.9,2.1-1.6,3-2.3
				c0.9-0.7,1.6-1.4,2.2-2C202.9,176.7,203.6,176,203.6,176z"/>
			<path opacity="0.2" enable-background="new    " d="M88.3,174.6c0,0,0.2,0.1,0.5,0.2c0.4,0.1,0.9,0.4,1.5,0.6
				c0.6,0.3,1.4,0.6,2.3,0.9c0.9,0.4,1.8,0.7,3,1.1c1.1,0.4,2.3,0.9,3.5,1.4c1.2,0.5,2.6,0.9,3.9,1.4s2.8,0.9,4.3,1.4
				c1.5,0.4,2.9,0.9,4.4,1.3s3,0.9,4.5,1.1c0.7,0.1,1.5,0.4,2.2,0.5c0.7,0.2,1.4,0.3,2.1,0.4c0.7,0.1,1.4,0.2,2.1,0.4
				c0.7,0.1,1.4,0.2,2,0.3c1.3,0.1,2.6,0.4,3.7,0.4c1.1,0.1,2.2,0.2,3.1,0.3c0.9,0,1.8,0.1,2.4,0.1c1.4,0.1,2.1,0.1,2.1,0.1
				s-0.8,0.1-2.1,0.3c-0.7,0.1-1.5,0.2-2.5,0.3c-0.9,0.1-2.1,0.1-3.2,0.1c-1.2,0.1-2.5,0-3.8-0.1c-0.6-0.1-1.4-0.1-2.1-0.1
				s-1.4-0.2-2.1-0.3c-1.5-0.1-3-0.4-4.5-0.8c-1.5-0.3-3.1-0.7-4.6-1.1c-1.5-0.4-3-0.9-4.5-1.4c-0.7-0.2-1.4-0.5-2.1-0.8
				s-1.4-0.5-2.1-0.8c-1.4-0.6-2.7-1.1-3.9-1.7c-0.6-0.3-1.2-0.6-1.8-0.9c-0.6-0.3-1.1-0.6-1.6-0.9c-1.1-0.5-2-1.1-2.8-1.6
				c-0.9-0.5-1.6-0.9-2.1-1.3c-0.6-0.4-1-0.7-1.4-0.9C88.4,174.7,88.3,174.6,88.3,174.6z"/>
			<path opacity="0.2" enable-background="new    " d="M145.3,186.7c0,0,3.2-0.6,8.1-1.6c1.2-0.3,2.5-0.5,3.9-0.8
				c1.4-0.3,2.8-0.6,4.3-0.9c1.5-0.4,3.1-0.7,4.6-1.1s3.2-0.7,4.8-1.1c0.8-0.2,1.6-0.4,2.4-0.6c0.8-0.2,1.6-0.4,2.3-0.6
				c0.8-0.2,1.6-0.4,2.3-0.6c0.8-0.2,1.5-0.4,2.3-0.6c0.7-0.2,1.5-0.4,2.2-0.6s1.4-0.4,2.1-0.6c1.4-0.4,2.6-0.8,3.8-1.1
				c1.1-0.4,2.3-0.7,3.2-1c0.9-0.4,1.8-0.6,2.5-0.9c1.4-0.4,2.1-0.7,2.1-0.7s-0.7,0.4-2,1.1c-0.6,0.4-1.4,0.8-2.3,1.2
				c-0.9,0.4-1.9,0.9-3.1,1.4s-2.3,1-3.7,1.5c-0.6,0.3-1.4,0.5-2.1,0.8c-0.7,0.3-1.4,0.5-2.1,0.7c-1.5,0.5-3,1-4.6,1.4
				c-1.6,0.5-3.2,0.9-4.8,1.3c-1.6,0.4-3.2,0.7-4.8,1.1c-1.6,0.4-3.2,0.6-4.7,0.9c-3.1,0.5-5.9,0.9-8.4,1.1
				c-1.2,0.1-2.3,0.2-3.3,0.3s-1.9,0.1-2.6,0.1C146.1,186.7,145.3,186.7,145.3,186.7z"/>
		</g>
	</g>
	<g id="haar">
		<path fill="#474747" d="M106.5,15.9c0,0,28.1-30.8,89.8-6.6c49.2,19.3,0.3,71,12.3,101s3.4,39.9,3.4,39.9s-4.7,10,6,12.8
			c-14-0.9-22.8-9.4-21.7-16.6c1.1-7.1,4.3-16.1,0-23.5c-4.3-7.4-16.4-29.3-6.8-62S106.5,15.9,106.5,15.9z"/>
		<g opacity="0.25">
			<path d="M205.5,149.9c1.1-7.1,4.3-16.1,0-23.5s-16.4-29.3-6.8-62c4.6-15.6-14-26.5-34.7-33.7c16.6,7.1,29.3,16.9,25.5,30.2
				c-9.5,32.7,2.5,54.6,6.8,62c4.3,7.4,1.1,16.3,0,23.5c-0.9,6.3,5.8,13.6,16.9,15.9C207.7,158.9,204.9,154.2,205.5,149.9z"/>
		</g>
		<path fill="#474747" d="M114.1,12.1c0,0,1.3-6.2-11.7-8S58.2,17.2,65.9,50c5.1,19.1,0.4,36.4,0.4,36.4s-2.3,6.1,0,10.7
			c0-3.6,1-5.3,1.8-7c0.9-1.8,9-10.7,8.6-20.1c-0.4-9.5,17.1-44.8,30.9-48.8C115.1,18.5,114.1,12.1,114.1,12.1z"/>
		<path opacity="0.15" fill="#FFFFFF" enable-background="new    " d="M70.7,86.4c0.9-7.4,1.4-19.1-1.8-31.4
			C61,21.3,90.6,4.9,105.8,4.7c-1-0.3-2.1-0.5-3.3-0.6C89.5,2.1,58.3,17.2,65.9,50c5.1,19.1,0.4,36.4,0.4,36.4s-2.3,6.1,0,10.7
			c0-3.6,1-5.3,1.8-7C68.4,89.5,69.5,88.2,70.7,86.4z"/>
		<g opacity="0.22">
			<path d="M122.7,12.1c0,0,0.6-0.3,1.8-0.8c1.2-0.5,3.1-1.2,5.4-2c2.3-0.8,5.2-1.6,8.6-2.5c3.3-0.8,7.2-1.6,11.5-1.9
				c2.1-0.2,4.3-0.3,6.7-0.3c1.1,0,2.3,0.1,3.6,0.1c1.1,0.1,2.4,0.2,3.6,0.3c4.8,0.5,10,1.4,15.2,2.8s10.5,3.1,15.5,5.9
				c2.5,1.4,5,3,7.2,5.1c1.1,1.1,2.1,2.2,3,3.6l0.3,0.5l0.1,0.3l0.1,0.2c0.1,0.3,0.4,0.6,0.5,0.9c0.4,0.6,0.6,1.4,1,2
				c1.2,2.7,2.1,5.5,2.7,8.4c0.6,2.9,0.7,5.8,0.6,8.7c-0.1,5.8-1.4,11.2-2.7,16.4c-1.4,5.2-3.1,10-4.3,14.6c-1.3,4.6-2.4,9-3.1,13.2
				c-0.7,4.1-1,7.9-1.1,11.3c0,3.4,0.3,6.3,0.6,8.8c0.1,0.6,0.1,1.2,0.3,1.7c0.1,0.6,0.2,1.1,0.3,1.5c0.1,0.9,0.4,1.7,0.5,2.3
				c0.3,1.3,0.4,2,0.4,2s-0.2-0.6-0.6-1.9c-0.2-0.6-0.4-1.4-0.7-2.3c-0.1-0.4-0.3-0.9-0.4-1.5s-0.3-1.1-0.4-1.7
				c-0.3-1.2-0.5-2.6-0.8-4.1c-0.1-0.7-0.2-1.5-0.3-2.3c-0.1-0.8-0.1-1.6-0.2-2.5c-0.2-3.5-0.1-7.4,0.4-11.7
				c0.5-4.3,1.4-8.8,2.6-13.5c0.6-2.3,1.2-4.8,1.9-7.3c0.6-2.5,1.4-4.9,2-7.5c1.2-5.1,2.1-10.4,2.3-15.7c0.1-2.7-0.1-5.3-0.6-8
				c-0.5-2.6-1.4-5.1-2.5-7.6c-0.3-0.6-0.6-1.2-0.9-1.8c-0.1-0.3-0.4-0.6-0.5-0.9l-0.1-0.2l-0.1-0.2l-0.2-0.4
				c-0.6-1.1-1.5-2-2.4-2.9c-1.8-1.8-4.1-3.3-6.4-4.6c-4.7-2.6-9.7-4.5-14.7-5.9s-10-2.4-14.7-3.1c-1.2-0.1-2.3-0.3-3.5-0.4
				c-1.1-0.1-2.3-0.2-3.4-0.3c-2.2-0.1-4.4-0.1-6.5-0.1c-4.1,0.2-8,0.6-11.3,1.2c-3.3,0.6-6.3,1.2-8.7,1.8
				C125.4,11.2,122.7,12.1,122.7,12.1z"/>
		</g>
		<g opacity="0.22">
			<path d="M122.7,13.9c1.2-0.4,2.5-0.6,3.8-0.9c1.3-0.2,2.6-0.4,3.8-0.6c1.3-0.1,2.6-0.3,3.8-0.4c1.3-0.1,2.6-0.2,3.8-0.2
				c1.3,0,2.6-0.1,3.8,0l3.8,0.1l3.8,0.4l1,0.1l0.9,0.1l1.9,0.3l1.9,0.3c0.6,0.1,1.3,0.3,1.9,0.4c1.3,0.3,2.6,0.5,3.8,0.9l3.7,1.1
				c1.3,0.3,2.5,0.8,3.7,1.2l1.8,0.6c0.6,0.2,1.2,0.4,1.8,0.7l3.6,1.6c1.2,0.5,2.3,1.1,3.5,1.8l3.4,1.9h0.1l0,0l1.3,1.1
				c0.2,0.2,0.4,0.4,0.6,0.6l0.6,0.6c0.4,0.4,0.9,0.8,1.2,1.2l1.1,1.3c0.4,0.4,0.7,0.9,1.1,1.4c0.4,0.4,0.7,0.9,1,1.4
				c0.3,0.5,0.6,0.9,0.9,1.4l0.8,1.5c0.3,0.5,0.5,1,0.7,1.5l0.4,0.8l0.3,0.8c0.4,1.1,0.7,2.1,1.1,3.2c0.3,1.1,0.6,2.1,0.7,3.3
				c0.1,0.6,0.2,1.1,0.3,1.6c0.1,0.6,0.1,1.1,0.2,1.6l0.1,1.6l0.1,1.6c0,1.1,0,2.2,0,3.3c0,1.1-0.1,2.2-0.2,3.3
				c-0.1,1.1-0.2,2.2-0.4,3.3c-0.1,1.1-0.4,2.1-0.6,3.2c-0.2,1.1-0.4,2.1-0.7,3.2c-0.5,2.1-1.1,4.2-1.9,6.2c0.3-1.1,0.6-2.1,0.8-3.1
				s0.4-2.1,0.6-3.2c0.2-1.1,0.4-2.1,0.5-3.2c0.1-1.1,0.3-2.1,0.4-3.2c0.1-1.1,0.1-2.1,0.2-3.2c0.1-1.1,0.1-2.1,0.1-3.2
				c0-1.1-0.1-2.1-0.1-3.2l-0.1-1.6l-0.2-1.6c-0.1-0.5-0.1-1.1-0.2-1.6c-0.1-0.5-0.2-1.1-0.3-1.6c-0.2-1.1-0.5-2.1-0.8-3.1
				c-0.4-1-0.6-2-1.1-3l-0.3-0.7l-0.4-0.7c-0.2-0.5-0.4-0.9-0.7-1.4l-0.8-1.4c-0.3-0.4-0.6-0.9-0.9-1.3c-0.3-0.4-0.6-0.9-0.9-1.3
				c-0.4-0.4-0.6-0.9-1-1.2l-1.1-1.1c-0.4-0.4-0.8-0.7-1.1-1.1l-0.6-0.6c-0.2-0.1-0.4-0.4-0.6-0.5l-1.2-1l0.1,0.1l-3.3-1.8l-1.6-0.9
				c-0.6-0.4-1.1-0.6-1.7-0.9l-3.4-1.6c-0.6-0.3-1.1-0.5-1.8-0.7l-1.8-0.6c-1.2-0.4-2.3-0.9-3.6-1.3l-3.6-1.1
				c-1.2-0.4-2.5-0.6-3.7-0.9c-0.6-0.1-1.2-0.3-1.8-0.4l-1.8-0.4l-1.8-0.4l-0.9-0.1l-0.9-0.1l-3.8-0.5l-3.8-0.3
				c-1.3-0.1-2.6-0.1-3.8-0.1c-1.3,0-2.6,0-3.8,0c-1.3,0-2.6,0.1-3.8,0.1c-1.3,0.1-2.6,0.1-3.8,0.4
				C125.2,13.6,123.9,13.7,122.7,13.9z"/>
		</g>
	</g>
</g>
<g id="jet">
		<g id="leftJet">
			<g>
				<defs>
					<path id="SVGID_1_" d="M71.9,212.6c2.3-0.3,4.2-1.3,5.3-2.2l0.9-0.8l0.1-0.9c0.4-0.3,3-2.1,13.2,0.9l1.7-5.7
						c-8.6-2.6-14.5-2.7-18-0.3c-1.1,0.7-1.8,1.6-2.3,2.5c-1.3,0.7-4.6,1.6-8.9-2.4c-5.2-4.9,3.9-16.5,4-16.6l-4.6-3.8
						c-4.9,5.9-11.1,17.7-3.5,24.8C64.2,212.2,68.5,213.1,71.9,212.6z"/>
				</defs>
				<clipPath id="SVGID_2_">
					<use xlink:href="#SVGID_1_"  overflow="visible"/>
				</clipPath>
				<path clip-path="url(#SVGID_2_)" fill="#A09F72" d="M71.9,212.6c2.3-0.3,4.2-1.3,5.3-2.2l0.9-0.8l0.1-0.9
					c0.4-0.3,3-2.1,13.2,0.9l1.7-5.7c-8.6-2.6-14.5-2.7-18-0.3c-1.1,0.7-1.8,1.6-2.3,2.5c-1.3,0.7-4.6,1.6-8.9-2.4
					c-5.2-4.9,3.9-16.5,4-16.6l-4.6-3.8c-4.9,5.9-11.1,17.7-3.5,24.8C64.2,212.2,68.5,213.1,71.9,212.6z"/>
				<path opacity="0.12" clip-path="url(#SVGID_2_)" d="M73.7,217.6c2.8-0.4,5.1-1.5,6.5-2.6l1.1-0.9l0.1-1.1
					c0.5-0.4,3.6-2.6,16,1.1l2.1-7c-10.4-3.1-17.6-3.2-21.8-0.4c-1.3,0.9-2.2,2-2.8,3c-1.6,0.8-5.6,2-10.8-3c-6.3-6,4.8-20,4.9-20.1
					l-5.6-4.6c-5.9,7.1-13.4,21.4-4.3,30C64.4,217.1,69.6,218.2,73.7,217.6z"/>
			</g>
			<g>
				<path fill="#38BFD6" d="M69.6,183.4l5-0.7c6.5-0.9,11.2-7,10.3-13.5l-7.3-54.5c-0.9-6.5-7-11.2-13.5-10.3l-5,0.7
					c-6.5,0.9-11.2,7-10.3,13.5l7.3,54.5C57,179.7,63.1,184.3,69.6,183.4z"/>
				<g>
					<defs>
						<path id="SVGID_3_" d="M69.6,183.4l5-0.7c6.5-0.9,11.2-7,10.3-13.5l-7.3-54.5c-0.9-6.5-7-11.2-13.5-10.3l-5,0.7
							c-6.5,0.9-11.2,7-10.3,13.5l7.3,54.5C57,179.7,63.1,184.3,69.6,183.4z"/>
					</defs>
					<clipPath id="SVGID_4_">
						<use xlink:href="#SVGID_3_"  overflow="visible"/>
					</clipPath>
					
						<rect x="66.5" y="93.9" transform="matrix(-0.991 0.1336 -0.1336 -0.991 174.6915 274.1186)" opacity="0.29" clip-path="url(#SVGID_4_)" fill="#FFFFFF" width="23.4" height="98"/>
					<path opacity="0.1" clip-path="url(#SVGID_4_)" d="M59,100.6L59,100.6c0.3,2.1-0.7,4.1-2.4,5.3c-3.5,2.5-5.6,6.8-5,11.4
						l7.3,54.5c0.6,4.6,3.8,8.2,7.8,9.7c2,0.7,3.4,2.4,3.7,4.4l0.1,1c0.4,3-1.7,5.7-4.7,6.1l-12.4,1.7c-3,0.4-5.7-1.7-6.1-4.7
						l-11.6-86.3c-0.4-3,1.7-5.7,4.7-6.1l12.4-1.7C55.9,95.5,58.6,97.6,59,100.6z"/>
				</g>
			</g>
			<polygon fill="#637682" points="91.9,125.7 9.9,187.2 11.7,200.1 100.4,188.2 			"/>
			
				<rect x="11.6" y="194.1" transform="matrix(0.991 -0.1336 0.1336 0.991 -25.7375 9.2848)" fill="#8BA3AF" width="89.5" height="4.7"/>
			<g>
				<defs>
					<polygon id="SVGID_5_" points="91.9,125.7 100.4,188.2 101,192.8 12.3,204.8 11.7,200.1 9.9,187.2 					"/>
				</defs>
				<clipPath id="SVGID_6_">
					<use xlink:href="#SVGID_5_"  overflow="visible"/>
				</clipPath>
				<polygon opacity="0.19" clip-path="url(#SVGID_6_)" fill="#FFFFFF" points="43.8,146.7 63.2,178 49.9,173.2 69.2,203.9 
					2.3,212.9 1.1,162.7 				"/>
				<path opacity="0.2" clip-path="url(#SVGID_6_)" d="M20.2,171.1c0,0,10.1,4.7,4.8,35.7s-23,3.1-23,3.1S-16.4,165.2,20.2,171.1z"
					/>
				<polygon opacity="0.1" clip-path="url(#SVGID_6_)" fill="#FFFFFF" points="97.2,135.5 10.7,188.6 11.8,215.5 -2.8,211.9 
					-4.9,161.7 82.3,132.3 				"/>
				<path opacity="0.19" clip-path="url(#SVGID_6_)" d="M59.9,186.9l-0.1-0.7L58,173l1.6,0.6l-0.2-1.5l3.5-0.5l0.4,3.4l1.7,0.4
					l1.4,10.6l1.7-0.3l0.3,2.2l0.1,0.8l-3.2,0.4l1.1,8.1c0.5,3.3,3.5,5.7,6.9,5.2l20.6-2.8l0.5,3.6l-20.6,2.8
					c-5.3,0.7-10.3-3-11-8.4l-1.1-8.1l-3.1,0.4l-0.1-0.8l-0.3-2.2L59.9,186.9z"/>
			</g>
			<g>
				<path fill="#494949" d="M69.1,205.4l28.2-3.8l-0.7-5l-28.2,3.8c-4.6,0.6-8.8-2.6-9.5-7.2L57,178l-5,0.7l2,15.2
					C55,201.2,61.8,206.4,69.1,205.4z"/>
				
					<rect x="50.7" y="158.2" transform="matrix(-0.991 0.1336 -0.1336 -0.991 128.0489 326.2902)" fill="#FF5050" width="4.8" height="18.4"/>
				
					<rect x="53" y="158.5" transform="matrix(-0.991 0.1336 -0.1336 -0.991 128.8593 321.3343)" opacity="0.47" fill="#FFFFFF" width="1.4" height="12.9"/>
				<polygon fill="#333333" points="50.2,179.6 59.1,178.3 57.1,163.2 47.5,159.9 				"/>
				<g>
					<defs>
						<polygon id="SVGID_7_" points="50.2,179.6 59.1,178.3 57.1,163.2 47.5,159.9 						"/>
					</defs>
					<clipPath id="SVGID_8_">
						<use xlink:href="#SVGID_7_"  overflow="visible"/>
					</clipPath>
					<polygon opacity="0.11" clip-path="url(#SVGID_8_)" fill="#FFFFFF" points="54.8,179.9 63.7,178.7 61.7,163.6 52.1,160.3 					
						"/>
				</g>
				
					<rect x="50.2" y="177.3" transform="matrix(-0.991 0.1336 -0.1336 -0.991 132.8468 349.846)" opacity="0.28" width="9" height="4.1"/>
				
					<rect x="47.9" y="178.3" transform="matrix(-0.991 0.1336 -0.1336 -0.991 133.2451 351.8015)" fill="#333333" width="13.8" height="4.1"/>
				
					<rect x="48.1" y="181.3" transform="matrix(-0.991 0.1336 -0.1336 -0.991 133.8533 354.7878)" opacity="0.19" width="13.8" height="1.1"/>
			</g>
			<g>
				<path fill="#FF5050" d="M11.3,168.9c1.4-0.7,3.3-0.7,4.7,0c3.5,1.8,9.6,6.3,9.4,16.4c-0.4,14.1-6,30.6-6,30.6l-5.9,0l-5.9,0
					c0,0-5.5-16.5-5.8-30.6C1.6,175.1,7.8,170.6,11.3,168.9z"/>
				<path opacity="0.27" d="M10.4,184.5c0.6,1,1.3,1.8,2.1,2.7c0.8,0.8,1.6,1.7,2.5,2.4l0.2-1.5c-1,0.4-1.9,0.9-2.9,1.4
					c-0.9,0.5-1.9,1-2.7,1.6l-1.3,0.8l1.1,0.7c0.5,0.4,1,0.7,1.5,1.1c0.5,0.3,1,0.7,1.6,1c1.1,0.7,2.3,1.3,3.5,1.8
					c-0.6-1-1.3-1.9-2.1-2.8c-0.4-0.4-0.8-0.9-1.2-1.3c-0.4-0.4-0.8-0.8-1.3-1.2l-0.2,1.5c1-0.4,1.9-0.9,2.9-1.4
					c0.9-0.5,1.9-1,2.7-1.6l1.3-0.8l-1.1-0.7c-1-0.7-2-1.3-3.1-2C12.8,185.6,11.7,185,10.4,184.5z"/>
				<path fill="#FFEE52" d="M10.2,184c0.6,1,1.3,1.8,2.1,2.7c0.8,0.8,1.6,1.7,2.5,2.4l0.2-1.5c-1,0.4-1.9,0.9-2.9,1.4
					c-0.9,0.5-1.9,1-2.7,1.6L8,191.3l1.1,0.7c0.5,0.4,1,0.7,1.5,1.1c0.5,0.3,1,0.7,1.6,1c1.1,0.7,2.3,1.3,3.5,1.8
					c-0.6-1-1.3-1.9-2.1-2.8c-0.4-0.4-0.8-0.9-1.2-1.3c-0.4-0.4-0.8-0.8-1.3-1.2l-0.2,1.5c1-0.4,1.9-0.9,2.9-1.4
					c0.9-0.5,1.9-1,2.7-1.6l1.3-0.8l-1.1-0.7c-1-0.7-2-1.3-3.1-2C12.6,185.1,11.5,184.5,10.2,184z"/>
				<g>
					<defs>
						<path id="SVGID_9_" d="M11.3,168.9c1.4-0.7,3.3-0.7,4.7,0c3.5,1.8,9.6,6.3,9.4,16.4c-0.4,14.1-6,30.6-6,30.6l-5.9,0l-5.9,0
							c0,0-5.5-16.5-5.8-30.6C1.6,175.1,7.8,170.6,11.3,168.9z"/>
					</defs>
					<clipPath id="SVGID_10_">
						<use xlink:href="#SVGID_9_"  overflow="visible"/>
					</clipPath>
					
						<rect x="3.3" y="209.9" transform="matrix(-1 -3.533507e-03 3.533507e-03 -1 25.8592 426.3275)" opacity="0.2" clip-path="url(#SVGID_10_)" fill="#FFFFFF" width="20" height="6.5"/>
					
						<rect x="1.8" y="166" transform="matrix(-1 -3.533507e-03 3.533507e-03 -1 26.3045 342.3251)" opacity="0.2" clip-path="url(#SVGID_10_)" fill="#FFFFFF" width="23.2" height="10.2"/>
					
						<rect x="1.8" y="166" transform="matrix(-1 -3.533507e-03 3.533507e-03 -1 26.3261 338.2471)" opacity="0.43" clip-path="url(#SVGID_10_)" width="23.2" height="6.1"/>
					<path opacity="0.11" clip-path="url(#SVGID_10_)" d="M16,168.9c0,0-9,7.5-6.6,18.5s3.5,29.2,3.5,29.2l-11.2-1
						c0,0-8.6-37.8-2.9-43.4c5.7-5.6,14.2-7.2,14.2-7.2L16,168.9z"/>
				</g>
			</g>
			<g class="fire">
				<path fill="#F9E100" d="M6.9,215.6l6.6,0l6.6,0c0,0,15,6,13.3,19.4c-1.7,13.4-19.9,17.5-19.9,43.8c0-26.3-18.2-30.4-19.9-43.8
					S6.9,215.6,6.9,215.6z"/>
				<path fill="#F7B000" d="M10.3,215.6l3.2,0l3.2,0c0,0,7.3,3.2,6.5,10.5c-0.8,7.3-9.7,9.5-9.7,23.7c0-14.2-8.8-16.4-9.7-23.7
					S10.3,215.6,10.3,215.6z"/>
			</g>
		</g>
		<g id="rightJet">
			<g>
				<defs>
					<path id="SVGID_11_" d="M211.6,212.6c-2.3-0.3-4.2-1.3-5.3-2.2l-0.9-0.8l-0.1-0.9c-0.4-0.3-3-2.1-13.2,0.9l-1.7-5.7
						c8.6-2.6,14.5-2.7,18-0.3c1.1,0.7,1.8,1.6,2.3,2.5c1.3,0.7,4.6,1.6,8.9-2.4c5.2-4.9-3.9-16.5-4-16.6l4.6-3.8
						c4.9,5.9,11.1,17.7,3.5,24.8C219.2,212.2,214.9,213.1,211.6,212.6z"/>
				</defs>
				<clipPath id="SVGID_12_">
					<use xlink:href="#SVGID_11_"  overflow="visible"/>
				</clipPath>
				<path clip-path="url(#SVGID_12_)" fill="#A09F72" d="M211.6,212.6c-2.3-0.3-4.2-1.3-5.3-2.2l-0.9-0.8l-0.1-0.9
					c-0.4-0.3-3-2.1-13.2,0.9l-1.7-5.7c8.6-2.6,14.5-2.7,18-0.3c1.1,0.7,1.8,1.6,2.3,2.5c1.3,0.7,4.6,1.6,8.9-2.4
					c5.2-4.9-3.9-16.5-4-16.6l4.6-3.8c4.9,5.9,11.1,17.7,3.5,24.8C219.2,212.2,214.9,213.1,211.6,212.6z"/>
				<path opacity="0.12" clip-path="url(#SVGID_12_)" d="M209.8,217.6c-2.8-0.4-5.1-1.5-6.5-2.6l-1.1-0.9l-0.1-1.1
					c-0.5-0.4-3.6-2.6-16,1.1l-2.1-7c10.4-3.1,17.6-3.2,21.8-0.4c1.3,0.9,2.2,2,2.8,3c1.6,0.8,5.6,2,10.8-3c6.3-6-4.8-20-4.9-20.1
					l5.6-4.6c5.9,7.1,13.4,21.4,4.3,30C219,217.1,213.8,218.2,209.8,217.6z"/>
			</g>
			<g>
				<path fill="#38BFD6" d="M213.8,183.4l-5-0.7c-6.5-0.9-11.2-7-10.3-13.5l7.3-54.5c0.9-6.5,7-11.2,13.5-10.3l5,0.7
					c6.5,0.9,11.2,7,10.3,13.5l-7.3,54.5C226.4,179.7,220.4,184.3,213.8,183.4z"/>
				<g>
					<defs>
						<path id="SVGID_13_" d="M213.8,183.4l-5-0.7c-6.5-0.9-11.2-7-10.3-13.5l7.3-54.5c0.9-6.5,7-11.2,13.5-10.3l5,0.7
							c6.5,0.9,11.2,7,10.3,13.5l-7.3,54.5C226.4,179.7,220.4,184.3,213.8,183.4z"/>
					</defs>
					<clipPath id="SVGID_14_">
						<use xlink:href="#SVGID_13_"  overflow="visible"/>
					</clipPath>
					
						<rect x="193.6" y="93.9" transform="matrix(0.991 0.1336 -0.1336 0.991 20.9267 -26.1396)" opacity="0.29" clip-path="url(#SVGID_14_)" fill="#FFFFFF" width="23.4" height="98"/>
					<path opacity="0.1" clip-path="url(#SVGID_14_)" d="M224.5,100.6L224.5,100.6c-0.3,2.1,0.7,4.1,2.4,5.3c3.5,2.5,5.6,6.8,5,11.4
						l-7.3,54.5c-0.6,4.6-3.8,8.2-7.8,9.7c-2,0.7-3.4,2.4-3.7,4.4l-0.1,1c-0.4,3,1.7,5.7,4.7,6.1l12.4,1.7c3,0.4,5.7-1.7,6.1-4.7
						l11.6-86.3c0.4-3-1.7-5.7-4.7-6.1l-12.4-1.7C227.6,95.5,224.9,97.6,224.5,100.6z"/>
				</g>
			</g>
			<polygon fill="#637682" points="191.5,125.7 273.5,187.2 271.8,200.1 183.1,188.2 			"/>
			
				<rect x="182.4" y="194.1" transform="matrix(-0.991 -0.1336 0.1336 -0.991 425.9625 421.5525)" fill="#8BA3AF" width="89.5" height="4.7"/>
			<g>
				<defs>
					<polygon id="SVGID_15_" points="191.5,125.7 183.1,188.2 182.5,192.8 271.2,204.8 271.8,200.1 273.5,187.2 					"/>
				</defs>
				<clipPath id="SVGID_16_">
					<use xlink:href="#SVGID_15_"  overflow="visible"/>
				</clipPath>
				<polygon opacity="0.19" clip-path="url(#SVGID_16_)" fill="#FFFFFF" points="239.6,146.7 220.3,178 233.5,173.2 214.3,203.9 
					281.2,212.9 282.3,162.7 				"/>
				<path opacity="0.2" clip-path="url(#SVGID_16_)" d="M263.2,171.1c0,0-10.1,4.7-4.8,35.7c5.3,31,23,3.1,23,3.1
					S299.9,165.2,263.2,171.1z"/>
				<polygon opacity="0.1" clip-path="url(#SVGID_16_)" fill="#FFFFFF" points="186.3,135.5 272.7,188.6 271.6,215.5 286.3,211.9 
					288.3,161.7 201.2,132.3 				"/>
				<path opacity="0.19" clip-path="url(#SVGID_16_)" d="M223.6,186.9l0.1-0.7l1.8-13.1l-1.6,0.6l0.2-1.5l-3.5-0.5l-0.4,3.4
					l-1.7,0.4l-1.4,10.6l-1.7-0.3l-0.3,2.2l-0.1,0.8l3.2,0.4l-1.1,8.1c-0.5,3.3-3.5,5.7-6.9,5.2l-20.6-2.8l-0.5,3.6l20.6,2.8
					c5.3,0.7,10.3-3,11-8.4l1.1-8.1l3.1,0.4l0.1-0.8l0.3-2.2L223.6,186.9z"/>
			</g>
			<g>
				<path fill="#494949" d="M214.3,205.4l-28.2-3.8l0.7-5l28.2,3.8c4.6,0.6,8.8-2.6,9.5-7.2l2-15.2l5,0.7l-2,15.2
					C228.4,201.2,221.6,206.4,214.3,205.4z"/>
				
					<rect x="228" y="158.2" transform="matrix(0.991 0.1336 -0.1336 0.991 24.4263 -29.2683)" fill="#FF5050" width="4.8" height="18.4"/>
				
					<rect x="229.1" y="158.5" transform="matrix(0.991 0.1336 -0.1336 0.991 24.0939 -29.2139)" opacity="0.47" fill="#FFFFFF" width="1.4" height="12.9"/>
				<polygon fill="#333333" points="233.3,179.6 224.4,178.3 226.4,163.2 235.9,159.9 				"/>
				<g>
					<defs>
						<polygon id="SVGID_17_" points="233.3,179.6 224.4,178.3 226.4,163.2 235.9,159.9 						"/>
					</defs>
					<clipPath id="SVGID_18_">
						<use xlink:href="#SVGID_17_"  overflow="visible"/>
					</clipPath>
					<polygon opacity="0.11" clip-path="url(#SVGID_18_)" fill="#FFFFFF" points="228.7,179.9 219.8,178.7 221.8,163.6 231.3,160.3 
											"/>
				</g>
				
					<rect x="224.3" y="177.3" transform="matrix(0.991 0.1336 -0.1336 0.991 26.0064 -28.9464)" opacity="0.28" width="9" height="4.1"/>
				
					<rect x="221.7" y="178.3" transform="matrix(0.991 0.1336 -0.1336 0.991 26.1375 -28.9197)" fill="#333333" width="13.8" height="4.1"/>
				
					<rect x="221.5" y="181.3" transform="matrix(0.991 0.1336 -0.1336 0.991 26.3379 -28.8789)" opacity="0.19" width="13.8" height="1.1"/>
			</g>
			<g>
				<path fill="#FF5050" d="M272.2,168.9c-1.4-0.7-3.3-0.7-4.7,0c-3.5,1.8-9.6,6.3-9.4,16.4c0.4,14.1,6,30.6,6,30.6l5.9,0l5.9,0
					c0,0,5.5-16.5,5.8-30.6C281.8,175.1,275.7,170.6,272.2,168.9z"/>
				<path opacity="0.27" d="M273.1,184.5c-0.6,1-1.3,1.8-2.1,2.7c-0.8,0.8-1.6,1.7-2.5,2.4l-0.2-1.5c1,0.4,1.9,0.9,2.9,1.4
					c0.9,0.5,1.9,1,2.7,1.6l1.3,0.8l-1.1,0.7c-0.5,0.4-1,0.7-1.5,1.1c-0.5,0.3-1,0.7-1.6,1c-1.1,0.7-2.3,1.3-3.5,1.8
					c0.6-1,1.3-1.9,2.1-2.8c0.4-0.4,0.8-0.9,1.2-1.3c0.4-0.4,0.8-0.8,1.3-1.2l0.2,1.5c-1-0.4-1.9-0.9-2.9-1.4
					c-0.9-0.5-1.9-1-2.7-1.6l-1.3-0.8l1.1-0.7c1-0.7,2-1.3,3.1-2C270.7,185.6,271.8,185,273.1,184.5z"/>
				<path fill="#FFEE52" d="M273.3,184c-0.6,1-1.3,1.8-2.1,2.7c-0.8,0.8-1.6,1.7-2.5,2.4l-0.2-1.5c1,0.4,1.9,0.9,2.9,1.4
					c0.9,0.5,1.9,1,2.7,1.6l1.3,0.8l-1.1,0.7c-0.5,0.4-1,0.7-1.5,1.1c-0.5,0.3-1,0.7-1.6,1c-1.1,0.7-2.3,1.3-3.5,1.8
					c0.6-1,1.3-1.9,2.1-2.8c0.4-0.4,0.8-0.9,1.2-1.3c0.4-0.4,0.8-0.8,1.3-1.2l0.2,1.5c-1-0.4-1.9-0.9-2.9-1.4
					c-0.9-0.5-1.9-1-2.7-1.6l-1.3-0.8l1.1-0.7c1-0.7,2-1.3,3.1-2C270.8,185.1,272,184.5,273.3,184z"/>
				<g>
					<defs>
						<path id="SVGID_19_" d="M272.2,168.9c-1.4-0.7-3.3-0.7-4.7,0c-3.5,1.8-9.6,6.3-9.4,16.4c0.4,14.1,6,30.6,6,30.6l5.9,0l5.9,0
							c0,0,5.5-16.5,5.8-30.6C281.8,175.1,275.7,170.6,272.2,168.9z"/>
					</defs>
					<clipPath id="SVGID_20_">
						<use xlink:href="#SVGID_19_"  overflow="visible"/>
					</clipPath>
					
						<rect x="260.2" y="209.9" transform="matrix(1 -3.533597e-03 3.533597e-03 1 -0.7515 0.9559)" opacity="0.2" clip-path="url(#SVGID_20_)" fill="#FFFFFF" width="20" height="6.5"/>
					
						<rect x="258.4" y="166" transform="matrix(1 -3.533597e-03 3.533597e-03 1 -0.6031 0.9552)" opacity="0.2" clip-path="url(#SVGID_20_)" fill="#FFFFFF" width="23.2" height="10.2"/>
					
						<rect x="258.4" y="166" transform="matrix(1 -3.533597e-03 3.533597e-03 1 -0.5958 0.9551)" opacity="0.43" clip-path="url(#SVGID_20_)" width="23.2" height="6.1"/>
					<path opacity="0.11" clip-path="url(#SVGID_20_)" d="M267.4,168.9c0,0,9,7.5,6.6,18.5s-3.5,29.2-3.5,29.2l11.2-1
						c0,0,8.6-37.8,2.9-43.4c-5.7-5.6-14.2-7.2-14.2-7.2L267.4,168.9z"/>
				</g>
			</g>
			<g class="fire">
				<path fill="#F9E100" d="M276.6,215.6l-6.6,0l-6.6,0c0,0-15,6-13.3,19.4c1.7,13.4,19.9,17.5,19.9,43.8
					c0-26.3,18.2-30.4,19.9-43.8C291.6,221.6,276.6,215.6,276.6,215.6z"/>
				<path fill="#F7B000" d="M273.2,215.6l-3.2,0l-3.2,0c0,0-7.3,3.2-6.5,10.5c0.8,7.3,9.7,9.5,9.7,23.7c0-14.2,8.8-16.4,9.7-23.7
					C280.4,218.8,273.2,215.6,273.2,215.6z"/>
			</g>
		</g>
	</g>
</svg>
