<?xml version="1.0" encoding="utf-8"?>
<!-- Generator: Adobe Illustrator 18.1.1, SVG Export Plug-In . SVG Version: 6.00 Build 0)  -->
<!DOCTYPE svg PUBLIC "-//W3C//DTD SVG 1.0//EN" "http://www.w3.org/TR/2001/REC-SVG-20010904/DTD/svg10.dtd">
<svg version="1.0" id="Layer_1" xmlns="http://www.w3.org/2000/svg" xmlns:xlink="http://www.w3.org/1999/xlink" x="0px" y="0px"
	 viewBox="0 0 183.5 193.6" enable-background="new 0 0 183.5 193.6" xml:space="preserve">
<g id="filip">
	<circle fill="#63BC9D" cx="91.8" cy="96.8" r="91.8"/>
	<path fill="#42B387" d="M91.8,178.6c-49,0-89-38.4-91.6-86.8C0,93.5,0,95.1,0,96.8c0,50.7,41.1,91.8,91.8,91.8s91.8-41.1,91.8-91.8
		c0-1.7,0-3.3-0.1-5C180.8,140.2,140.7,178.6,91.8,178.6z"/>
	<circle fill="#D5EBE5" cx="44.7" cy="87.9" r="38.1"/>
	<circle fill="#D5EBE5" cx="137.9" cy="87.9" r="38.1"/>
	<path fill="#353535" d="M44.7,62.8c-2,0-3.8,0.2-5.7,0.6c5.9,2,10.1,7.5,10.1,14.1c0,8.2-6.6,14.8-14.8,14.8
		c-6.5,0-12.1-4.2-14.1-10.1c-0.4,1.8-0.6,3.7-0.6,5.7c0,13.9,11.2,25.1,25.1,25.1s25.1-11.2,25.1-25.1S58.6,62.8,44.7,62.8z"/>
	<path fill="#353535" d="M137.9,62.8c-2,0-3.8,0.2-5.7,0.6c5.9,2,10.1,7.5,10.1,14.1c0,8.2-6.6,14.8-14.8,14.8
		c-6.5,0-12.1-4.2-14.1-10.1c-0.4,1.8-0.6,3.7-0.6,5.7c0,13.9,11.2,25.1,25.1,25.1c13.9,0,25.1-11.2,25.1-25.1
		S151.8,62.8,137.9,62.8z"/>
	<path fill="#4A4A4A" d="M90.2,132.1c0,6.2-5.1,11.3-11.3,11.3c-19.4,0-23.4,11-23.4,4.8s6.6-27.4,23.4-27.4
		C85.1,120.8,90.2,125.9,90.2,132.1z"/>
	<path fill="#4A4A4A" d="M91.5,132.1c0,6.2,5.1,11.3,11.3,11.3c19.4,0,23.4,11,23.4,4.8s-6.6-27.4-23.4-27.4
		C96.6,120.8,91.5,125.9,91.5,132.1z"/>
</g>
<g id="megan">
	<circle fill="#8BCFD8" cx="91.8" cy="96.8" r="91.8"/>
	<path opacity="0.1" fill="#010202" d="M91.8,178.6c-49,0-89-38.4-91.6-86.8C0,93.5,0,95.1,0,96.8c0,50.7,41.1,91.8,91.8,91.8
		s91.8-41.1,91.8-91.8c0-1.7,0-3.3-0.1-5C180.8,140.2,140.7,178.6,91.8,178.6z"/>
	<g>
		<g>
			<circle opacity="0.13" fill="#010202" cx="60.1" cy="90.1" r="32.3"/>
			<circle fill="#EAE9E6" cx="58.7" cy="87.2" r="32.3"/>
			<g>
				<g>
					<circle fill="#484848" cx="59.4" cy="80.1" r="21.1"/>
					<path fill="#07A6B7" d="M59.4,71c5,0,9.1,4.1,9.1,9.1c0,5-4.1,9.1-9.1,9.1s-9.1-4.1-9.1-9.1C50.3,75.1,54.4,71,59.4,71
						 M59.4,59c-11.7,0-21.1,9.4-21.1,21.1s9.4,21.1,21.1,21.1s21.1-9.4,21.1-21.1S71.1,59,59.4,59L59.4,59z"/>
				</g>
				<path opacity="0.69" fill="#484848" d="M59.3,101.1c0,0-0.2-0.6-0.5-1.7c-0.1-0.6-0.3-1.2-0.4-2c-0.1-0.8-0.2-1.7-0.3-2.7
					c-0.1-1-0.1-2.1,0-3.2c0.1-1.1,0.3-2.3,0.5-3.6c0.2-1.2,0.4-2.5,0.3-3.8c0-1.3-0.2-2.6-0.4-3.9c-0.2-1.3-0.4-2.6-0.5-3.9
					c-0.1-1.3-0.2-2.6-0.2-3.8c-0.1-2.5,0-4.8,0.2-6.8c0.2-2,0.5-3.6,0.7-4.7c0.2-1.2,0.5-1.8,0.5-1.8h0.3c0,0,0.2,0.6,0.5,1.8
					c0.2,1.2,0.5,2.8,0.7,4.8c0.2,2,0.4,4.3,0.2,6.8c-0.1,1.2-0.1,2.5-0.2,3.8c-0.1,1.3-0.3,2.6-0.5,3.9c-0.2,1.3-0.4,2.6-0.4,3.9
					c0,1.3,0.1,2.6,0.3,3.8c0.2,1.2,0.5,2.4,0.5,3.6c0.1,1.1,0,2.2,0,3.2c-0.1,1-0.2,1.9-0.3,2.7c-0.1,0.8-0.2,1.4-0.4,2
					c-0.2,1.2-0.5,1.7-0.5,1.7H59.3z"/>
				<path opacity="0.8" fill="#484848" d="M38,80c0,0,0.8-0.2,1.9-0.5c0.6-0.1,1.3-0.3,2.2-0.4c0.8-0.1,1.7-0.2,2.7-0.3
					c1-0.1,2.1-0.1,3.2,0c1.1,0.1,2.3,0.3,3.6,0.5c1.2,0.2,2.5,0.4,3.8,0.3c1.3,0,2.6-0.2,3.9-0.4c1.3-0.2,2.6-0.4,3.9-0.5
					c1.3-0.1,2.6-0.2,3.8-0.2c2.5-0.1,4.8,0,6.8,0.2c2,0.2,3.4,0.5,4.5,0.7C79.6,79.8,80,80,80,80v0.3c0,0-0.4,0.2-1.5,0.5
					c-1.2,0.2-2.7,0.5-4.7,0.7c-2,0.2-4.2,0.4-6.7,0.2c-1.2-0.1-2.5-0.1-3.8-0.2c-1.3-0.1-2.6-0.3-3.9-0.5c-1.3-0.2-2.6-0.4-3.9-0.4
					c-1.3,0-2.6,0.1-3.8,0.3c-1.2,0.2-2.4,0.5-3.6,0.5c-1.1,0.1-2.2,0-3.2,0c-1-0.1-1.9-0.2-2.7-0.3c-0.8-0.1-1.6-0.2-2.2-0.4
					c-1.2-0.2-1.9-0.5-1.9-0.5V80z"/>
				<path opacity="0.69" fill="#484848" d="M39.9,88.3c0,0,0.5-0.4,1.5-1c1-0.6,2.5-1.4,4.2-2.3c0.9-0.4,1.9-0.9,2.9-1.3
					c1.1-0.4,2.2-0.7,3.4-1.1c2.4-0.7,4.8-1.7,7.1-3c1.2-0.6,2.3-1.3,3.5-1.8c1.2-0.6,2.3-1.1,3.5-1.6c1.1-0.5,2.2-1,3.3-1.4
					c1.1-0.4,2.1-0.8,3-1.1c1.9-0.6,3.5-1.1,4.6-1.4c1.1-0.3,1.8-0.4,1.8-0.4l0.1,0.2c0,0-0.6,0.4-1.6,1c-1,0.6-2.4,1.4-4.2,2.3
					c-0.9,0.4-1.9,0.9-2.9,1.4c-1,0.5-2.1,0.9-3.3,1.4c-1.2,0.4-2.4,0.9-3.6,1.3c-1.2,0.5-2.5,0.8-3.8,1.2c-2.6,0.8-5,1.8-7.2,3
					c-1.1,0.6-2.1,1.2-3.2,1.7c-1,0.5-2,0.9-3,1.2c-1.9,0.7-3.4,1.2-4.6,1.5c-1.1,0.3-1.8,0.4-1.8,0.4L39.9,88.3z"/>
				<path opacity="0.69" fill="#484848" d="M51.3,60.6c0,0,0.5,0.5,1.2,1.5c0.3,0.5,0.7,1.1,1.1,1.8c0.4,0.7,0.9,1.5,1.3,2.4
					c0.4,0.9,0.9,1.9,1.3,2.9c0.4,1.1,0.6,2.3,0.9,3.5c0.3,1.2,0.6,2.5,1.2,3.7c0.5,1.2,1.2,2.4,1.9,3.5c0.7,1.1,1.4,2.3,2,3.4
					c0.6,1.2,1.2,2.3,1.7,3.4c1.1,2.2,1.8,4.4,2.4,6.3c0.6,1.9,1,3.5,1.2,4.7c0.2,1.2,0.3,1.9,0.3,1.9l-0.3,0.1c0,0-0.5-0.5-1.1-1.5
					c-0.7-1-1.6-2.4-2.5-4.1c-1-1.8-2-3.8-2.8-6.2c-0.4-1.2-0.9-2.4-1.3-3.6c-0.4-1.2-0.7-2.5-1.1-3.8c-0.3-1.3-0.7-2.6-1.2-3.8
					c-0.5-1.2-1.1-2.3-1.8-3.4c-0.7-1.1-1.4-2.1-1.9-3.1c-0.5-1-0.9-2-1.2-3c-0.3-0.9-0.6-1.8-0.8-2.6c-0.2-0.8-0.4-1.5-0.5-2.1
					c-0.2-1.2-0.3-1.9-0.3-1.9L51.3,60.6z"/>
				<path opacity="0.5" fill="#484848" d="M78.7,88.8c0,0-0.7-0.1-1.8-0.4c-1.1-0.3-2.7-0.8-4.5-1.6c-0.9-0.4-1.9-0.8-2.9-1.3
					c-1-0.5-2.1-1.1-3.1-1.8c-2.1-1.3-4.6-2.4-7.1-3.2c-1.3-0.4-2.5-0.8-3.7-1.3c-1.2-0.5-2.4-1-3.6-1.4c-1.1-0.5-2.2-0.9-3.3-1.5
					c-1-0.5-2-1-2.9-1.4c-1.8-0.9-3.2-1.8-4.2-2.4c-1-0.6-1.5-1-1.5-1l0.1-0.2c0,0,0.7,0.1,1.8,0.5c1.1,0.3,2.7,0.8,4.6,1.5
					c0.9,0.3,1.9,0.7,3,1.2c1.1,0.4,2.1,0.9,3.3,1.5c1.1,0.6,2.3,1.1,3.4,1.7c1.2,0.6,2.3,1.3,3.5,1.9c2.3,1.4,4.7,2.5,7.1,3.2
					c1.2,0.4,2.4,0.7,3.4,1.1c1.1,0.4,2,0.9,2.9,1.3c1.8,0.9,3.2,1.7,4.2,2.3c1,0.6,1.5,1,1.5,1L78.7,88.8z"/>
				<path opacity="0.69" fill="#484848" d="M50.6,99.4c0,0,0-0.7,0.2-1.9c0.2-1.2,0.5-2.8,1.2-4.7c0.3-0.9,0.7-1.9,1.3-2.9
					c0.5-1,1.3-2,2.1-3c0.8-1,1.5-2.1,2-3.3c0.5-1.2,0.9-2.5,1.2-3.8c0.3-1.3,0.6-2.6,1-3.9c0.4-1.2,0.8-2.5,1.3-3.6
					c0.8-2.3,2-4.4,3-6.1c0.5-0.8,1-1.6,1.5-2.3c0.5-0.7,0.9-1.2,1.3-1.7c0.8-0.9,1.3-1.4,1.3-1.4l0.4,0.2c0,0,0,0.7-0.2,1.9
					c-0.1,0.6-0.2,1.3-0.4,2.1c-0.2,0.8-0.4,1.7-0.7,2.7c-0.6,1.9-1.3,4.1-2.5,6.3c-0.6,1.1-1.2,2.2-1.8,3.4
					c-0.6,1.1-1.4,2.2-2.2,3.3c-0.8,1.1-1.5,2.2-2.1,3.4c-0.6,1.2-0.9,2.4-1.1,3.7c-0.2,1.3-0.4,2.5-0.8,3.5c-0.4,1.1-0.9,2-1.4,2.9
					c-1,1.7-1.9,3.1-2.7,4c-0.8,0.9-1.3,1.4-1.3,1.4L50.6,99.4z"/>
			</g>
			<path opacity="0.34" fill="#FAFAFA" d="M77.2,60.8c3.7,5.2,5.9,11.6,5.9,18.5c0,17.8-14.4,32.3-32.3,32.3
				c-6.9,0-13.3-2.2-18.5-5.9c5.8,8.3,15.5,13.7,26.4,13.7c17.8,0,32.3-14.4,32.3-32.3C91,76.3,85.5,66.7,77.2,60.8z"/>
			<g>
				<defs>
					<path id="SVGID_1_" d="M90.5,91.6c0-9.5-14.4-17.2-32.3-17.2c-11.1,0-21,3-26.8,7.6c-3.5,2.7-7.9,1-9.8-1.9l14.8-43.9l54,11.5
						l4.8,41.6L90.5,91.6z"/>
				</defs>
				<clipPath id="SVGID_2_">
					<use xlink:href="#SVGID_1_"  overflow="visible"/>
				</clipPath>
				<g clip-path="url(#SVGID_2_)">
					<circle fill="#9C7FB8" cx="58.7" cy="87.2" r="32.3"/>
					<path opacity="0.71" fill="#FAFAFA" d="M77.2,60.8c3.7,5.2,5.9,11.6,5.9,18.5c0,17.8-14.4,32.3-32.3,32.3
						c-6.9,0-13.3-2.2-18.5-5.9c5.8,8.3,15.5,13.7,26.4,13.7c17.8,0,32.3-14.4,32.3-32.3C91,76.3,85.5,66.7,77.2,60.8z"/>
				</g>
			</g>
			<path fill="#484848" d="M90.2,91.6c0,0-0.1-0.3-0.3-0.9c-0.2-0.5-0.5-1.3-1-2.1c-0.5-0.8-1.3-1.8-2.3-2.7c-1-0.9-2.3-1.8-3.7-2.6
				c-2.9-1.6-6.7-3-10.9-4.1c-2.1-0.6-4.3-1.1-6.6-1.6c-2.3-0.4-4.6-0.7-7-0.9c-2.4-0.1-4.7-0.1-7.1,0.1c-2.3,0.2-4.6,0.5-6.8,1
				C40,78.7,36,80.2,33,82.1c-0.4,0.3-0.8,0.5-1.2,0.7c-0.2,0.1-0.4,0.2-0.6,0.3c-0.2,0.1-0.5,0.2-0.7,0.3c-0.9,0.4-1.8,0.5-2.7,0.5
				c-1.7,0-3.1-0.6-4-1.2c-1-0.6-1.6-1.3-1.9-1.8c-0.2-0.2-0.3-0.4-0.4-0.6c-0.1-0.1-0.1-0.2-0.1-0.2c-0.1-0.1,0-0.3,0.1-0.4
				c0.1-0.1,0.3-0.1,0.4,0.1l0,0c0,0,0,0.1,0.1,0.2c0.1,0.1,0.2,0.3,0.4,0.5c0.4,0.4,1,0.9,1.9,1.4c0.9,0.4,2.1,0.8,3.4,0.6
				c0.7-0.1,1.3-0.3,2-0.6c0.1-0.1,0.3-0.2,0.4-0.3c0.2-0.1,0.3-0.3,0.5-0.4c0.3-0.3,0.7-0.6,1-0.9c3-2.4,7.1-4.5,11.7-5.9
				c2.3-0.7,4.7-1.3,7.2-1.7c2.5-0.4,5.1-0.7,7.6-0.8c2.6-0.1,5.2-0.1,7.7,0.1c2.6,0.2,5.1,0.5,7.5,1.1c2.4,0.6,4.7,1.5,6.7,2.6
				c2,1.1,3.9,2.3,5.4,3.7c1.5,1.4,2.8,2.9,3.6,4.3c0.9,1.5,1.4,2.9,1.6,4.1C91.1,89,91,90,91,90.6c-0.1,0.6-0.2,0.9-0.2,0.9
				c0,0.2-0.2,0.3-0.4,0.2C90.3,91.8,90.2,91.7,90.2,91.6z"/>
			<path fill="#010202" d="M32.3,48.6c0,0,0.2-0.2,0.5-0.5c0.3-0.3,0.8-0.7,1.5-1.2c0.7-0.5,1.5-1.1,2.6-1.6
				c0.5-0.3,1.1-0.6,1.7-0.9c0.6-0.3,1.2-0.6,1.9-0.9c1.4-0.5,2.9-1.1,4.5-1.5c0.8-0.2,1.7-0.4,2.6-0.5c0.4-0.1,0.9-0.2,1.3-0.2
				c0.5,0,0.9-0.1,1.4-0.1c0.5,0,0.9-0.1,1.4-0.1c0.5,0,1,0,1.4,0c1,0.1,2,0,2.9,0.2c0.5,0.1,1,0.2,1.5,0.2c0.5,0.1,1,0.1,1.5,0.3
				c1,0.3,1.9,0.6,2.9,0.9c1.9,0.8,3.8,1.6,5.4,2.7c0.4,0.3,0.8,0.5,1.3,0.8l0.3,0.2l0.1,0c-0.1,0,0,0,0,0l0.1,0.1l0.6,0.4
				c0.7,0.5,1.5,1,2.2,1.5c1.4,0.9,2.7,1.9,4.1,2.7c0.7,0.4,1.3,0.8,1.9,1.2c0.3,0.2,0.6,0.4,0.9,0.5c0.3,0.2,0.6,0.3,0.9,0.5
				c0.6,0.3,1.2,0.6,1.7,0.8c0.6,0.3,1.1,0.4,1.6,0.6c1,0.3,1.9,0.6,2.7,0.6c0.8,0,1.4-0.1,1.8-0.3c0.4-0.2,0.6-0.3,0.6-0.3
				s-0.1,0.2-0.4,0.6c-0.3,0.3-0.9,0.8-1.8,1c-0.9,0.3-1.9,0.4-3.2,0.3c-1.2-0.1-2.6-0.3-4-0.7c-0.7-0.2-1.5-0.4-2.2-0.7
				c-0.8-0.3-1.5-0.5-2.3-0.9c-1.5-0.6-3.1-1.4-4.7-2.3c-0.8-0.4-1.5-0.9-2.3-1.3l-0.6-0.3l-0.1-0.1l-0.1-0.1l-0.1,0L66,50.4
				c-0.4-0.2-0.7-0.4-1.1-0.6c-1.5-0.9-3.1-1.5-4.6-2.2c-0.8-0.3-1.6-0.5-2.4-0.8c-0.8-0.3-1.7-0.4-2.5-0.6
				c-0.8-0.2-1.7-0.3-2.5-0.4c-0.4,0-0.8-0.1-1.2-0.1c-0.4,0-0.8,0-1.2,0c-0.4,0-0.8,0-1.2-0.1c-0.4,0-0.8,0-1.2,0
				c-0.8,0-1.6,0-2.3,0.1c-1.5,0.1-3,0.3-4.3,0.5c-0.7,0.1-1.3,0.2-1.9,0.4c-0.6,0.1-1.2,0.3-1.7,0.4c-1.1,0.3-2.1,0.5-2.8,0.8
				C33.2,48.3,32.3,48.6,32.3,48.6z"/>
		</g>
		<g>
			<circle opacity="0.13" fill="#010202" cx="128.3" cy="90.1" r="32.3"/>
			<circle fill="#EAE9E6" cx="129.7" cy="87.2" r="32.3"/>
			<g>
				<g>
					<circle fill="#484848" cx="129.7" cy="80.1" r="21.1"/>
					<path fill="#07A6B7" d="M129.7,71c5,0,9.1,4.1,9.1,9.1c0,5-4.1,9.1-9.1,9.1s-9.1-4.1-9.1-9.1C120.6,75.1,124.7,71,129.7,71
						 M129.7,59c-11.7,0-21.1,9.4-21.1,21.1s9.4,21.1,21.1,21.1s21.1-9.4,21.1-21.1S141.4,59,129.7,59L129.7,59z"/>
				</g>
				<path opacity="0.69" fill="#484848" d="M129.6,101.1c0,0-0.2-0.6-0.5-1.7c-0.1-0.6-0.3-1.2-0.4-2c-0.1-0.8-0.2-1.7-0.3-2.7
					c-0.1-1-0.1-2.1,0-3.2c0.1-1.1,0.3-2.3,0.5-3.6c0.2-1.2,0.4-2.5,0.3-3.8c0-1.3-0.2-2.6-0.4-3.9c-0.2-1.3-0.4-2.6-0.5-3.9
					c-0.1-1.3-0.2-2.6-0.2-3.8c-0.1-2.5,0-4.8,0.2-6.8c0.2-2,0.5-3.6,0.7-4.7c0.2-1.2,0.5-1.8,0.5-1.8h0.3c0,0,0.2,0.6,0.5,1.8
					c0.2,1.2,0.5,2.8,0.7,4.8c0.2,2,0.4,4.3,0.2,6.8c-0.1,1.2-0.1,2.5-0.2,3.8c-0.1,1.3-0.3,2.6-0.5,3.9c-0.2,1.3-0.4,2.6-0.4,3.9
					c0,1.3,0.1,2.6,0.3,3.8c0.2,1.2,0.5,2.4,0.5,3.6c0.1,1.1,0,2.2,0,3.2c-0.1,1-0.2,1.9-0.3,2.7c-0.1,0.8-0.2,1.4-0.4,2
					c-0.2,1.2-0.5,1.7-0.5,1.7H129.6z"/>
				<path opacity="0.8" fill="#484848" d="M108,80c0,0,0.9-0.2,2.1-0.5c0.6-0.1,1.4-0.3,2.2-0.4c0.8-0.1,1.8-0.2,2.8-0.3
					c1-0.1,2.1-0.1,3.2,0c1.1,0.1,2.4,0.3,3.6,0.5c1.2,0.2,2.5,0.4,3.8,0.3c1.3,0,2.6-0.2,3.9-0.4c1.3-0.2,2.6-0.4,3.9-0.5
					c1.3-0.1,2.6-0.2,3.8-0.2c2.5-0.1,4.8,0,6.8,0.2c2,0.2,3.2,0.5,4.4,0.7c1.2,0.2,1.4,0.5,1.4,0.5v0.3c0,0-0.2,0.2-1.4,0.5
					c-1.2,0.2-2.6,0.5-4.6,0.7c-2,0.2-4.2,0.4-6.7,0.2c-1.2-0.1-2.5-0.1-3.8-0.2c-1.3-0.1-2.6-0.3-3.9-0.5c-1.3-0.2-2.6-0.4-3.9-0.4
					c-1.3,0-2.6,0.1-3.8,0.3c-1.2,0.2-2.4,0.5-3.6,0.5c-1.1,0.1-2.2,0-3.2,0c-1-0.1-1.9-0.2-2.7-0.3c-0.8-0.1-1.8-0.2-2.4-0.4
					c-1.2-0.2-2.1-0.5-2.1-0.5V80z"/>
				<path opacity="0.69" fill="#484848" d="M110.2,88.3c0,0,0.5-0.4,1.5-1c1-0.6,2.5-1.4,4.2-2.3c0.9-0.4,1.9-0.9,2.9-1.3
					c1.1-0.4,2.2-0.7,3.4-1.1c2.4-0.7,4.8-1.7,7.1-3c1.2-0.6,2.3-1.3,3.5-1.8c1.2-0.6,2.3-1.1,3.5-1.6c1.1-0.5,2.2-1,3.3-1.4
					c1.1-0.4,2.1-0.8,3-1.1c1.9-0.6,3.5-1.1,4.6-1.4c1.1-0.3,1.8-0.4,1.8-0.4l0.1,0.2c0,0-0.6,0.4-1.6,1c-1,0.6-2.4,1.4-4.2,2.3
					c-0.9,0.4-1.9,0.9-2.9,1.4c-1,0.5-2.1,0.9-3.3,1.4c-1.2,0.4-2.4,0.9-3.6,1.3c-1.2,0.5-2.5,0.8-3.8,1.2c-2.6,0.8-5,1.8-7.2,3
					c-1.1,0.6-2.1,1.2-3.2,1.7c-1,0.5-2,0.9-3,1.2c-1.9,0.7-3.4,1.2-4.6,1.5c-1.1,0.3-1.8,0.4-1.8,0.4L110.2,88.3z"/>
				<path opacity="0.69" fill="#484848" d="M121.6,60.6c0,0,0.5,0.5,1.2,1.5c0.3,0.5,0.7,1.1,1.1,1.8c0.4,0.7,0.9,1.5,1.3,2.4
					c0.4,0.9,0.9,1.9,1.3,2.9c0.4,1.1,0.6,2.3,0.9,3.5c0.3,1.2,0.6,2.5,1.2,3.7c0.5,1.2,1.2,2.4,1.9,3.5c0.7,1.1,1.4,2.3,2,3.4
					c0.6,1.2,1.2,2.3,1.7,3.4c1.1,2.2,1.8,4.4,2.4,6.3c0.6,1.9,1,3.5,1.2,4.7c0.2,1.2,0.3,1.9,0.3,1.9l-0.3,0.1c0,0-0.5-0.5-1.1-1.5
					c-0.7-1-1.6-2.4-2.5-4.1c-1-1.8-2-3.8-2.8-6.2c-0.4-1.2-0.9-2.4-1.3-3.6c-0.4-1.2-0.7-2.5-1.1-3.8c-0.3-1.3-0.7-2.6-1.2-3.8
					c-0.5-1.2-1.1-2.3-1.8-3.4c-0.7-1.1-1.4-2.1-1.9-3.1c-0.5-1-0.9-2-1.2-3c-0.3-0.9-0.6-1.8-0.8-2.6c-0.2-0.8-0.4-1.5-0.5-2.1
					c-0.2-1.2-0.3-1.9-0.3-1.9L121.6,60.6z"/>
				<path opacity="0.5" fill="#484848" d="M149,88.8c0,0-0.7-0.1-1.8-0.4c-1.1-0.3-2.7-0.8-4.5-1.6c-0.9-0.4-1.9-0.8-2.9-1.3
					c-1-0.5-2.1-1.1-3.1-1.8c-2.1-1.3-4.6-2.4-7.1-3.2c-1.3-0.4-2.5-0.8-3.7-1.3c-1.2-0.5-2.4-1-3.6-1.4c-1.1-0.5-2.2-0.9-3.3-1.5
					c-1-0.5-2-1-2.9-1.4c-1.8-0.9-3.2-1.8-4.2-2.4c-1-0.6-1.5-1-1.5-1l0.1-0.2c0,0,0.7,0.1,1.8,0.5c1.1,0.3,2.7,0.8,4.6,1.5
					c0.9,0.3,1.9,0.7,3,1.2c1.1,0.4,2.1,0.9,3.3,1.5c1.1,0.6,2.3,1.1,3.4,1.7c1.2,0.6,2.3,1.3,3.5,1.9c2.3,1.4,4.7,2.5,7.1,3.2
					c1.2,0.4,2.4,0.7,3.4,1.1c1.1,0.4,2,0.9,2.9,1.3c1.8,0.9,3.2,1.7,4.2,2.3c1,0.6,1.5,1,1.5,1L149,88.8z"/>
				<path opacity="0.69" fill="#484848" d="M120.9,99.4c0,0,0-0.7,0.2-1.9c0.2-1.2,0.5-2.8,1.2-4.7c0.3-0.9,0.7-1.9,1.3-2.9
					c0.5-1,1.3-2,2.1-3c0.8-1,1.5-2.1,2-3.3c0.5-1.2,0.9-2.5,1.2-3.8c0.3-1.3,0.6-2.6,1-3.9c0.4-1.2,0.8-2.5,1.3-3.6
					c0.8-2.3,2-4.4,3-6.1c0.5-0.8,1-1.6,1.5-2.3c0.5-0.7,0.9-1.2,1.3-1.7c0.8-0.9,1.3-1.4,1.3-1.4l0.4,0.2c0,0,0,0.7-0.2,1.9
					c-0.1,0.6-0.2,1.3-0.4,2.1c-0.2,0.8-0.4,1.7-0.7,2.7c-0.6,1.9-1.3,4.1-2.5,6.3c-0.6,1.1-1.2,2.2-1.8,3.4
					c-0.6,1.1-1.4,2.2-2.2,3.3c-0.8,1.1-1.5,2.2-2.1,3.4c-0.6,1.2-0.9,2.4-1.1,3.7c-0.2,1.3-0.4,2.5-0.8,3.5c-0.4,1.1-0.9,2-1.4,2.9
					c-1,1.7-1.9,3.1-2.7,4c-0.8,0.9-1.3,1.4-1.3,1.4L120.9,99.4z"/>
			</g>
			<path opacity="0.34" fill="#FAFAFA" d="M148.2,60.8c3.7,5.2,5.9,11.6,5.9,18.5c0,17.8-14.4,32.3-32.3,32.3
				c-6.9,0-13.3-2.2-18.5-5.9c5.8,8.3,15.5,13.7,26.4,13.7c17.8,0,32.3-14.4,32.3-32.3C162,76.3,156.5,66.7,148.2,60.8z"/>
			<g>
				<defs>
					<path id="SVGID_3_" d="M166.5,79.3c-1.9,2.9-6.3,4.6-9.8,1.9c-5.8-4.6-15.6-7.6-26.8-7.6c-17.8,0-32.3,7.7-32.3,17.2L82.9,55
						l38.2-18.8l48.8,12L166.5,79.3z"/>
				</defs>
				<clipPath id="SVGID_4_">
					<use xlink:href="#SVGID_3_"  overflow="visible"/>
				</clipPath>
				<g clip-path="url(#SVGID_4_)">
					<circle fill="#9C7FB8" cx="129.7" cy="87.2" r="32.3"/>
					<path opacity="0.71" fill="#FAFAFA" d="M148.2,60.8c3.7,5.2,5.9,11.6,5.9,18.5c0,17.8-14.4,32.3-32.3,32.3
						c-6.9,0-13.3-2.2-18.5-5.9c5.8,8.3,15.5,13.7,26.4,13.7c17.8,0,32.3-14.4,32.3-32.3C162,76.3,156.5,66.7,148.2,60.8z"/>
				</g>
			</g>
			<path fill="#484848" d="M97.4,90.8c0,0-0.1-0.3-0.2-0.9c-0.1-0.6-0.1-1.6,0.1-2.8c0.2-1.2,0.7-2.6,1.6-4.1
				c0.9-1.5,2.1-2.9,3.6-4.3c1.5-1.4,3.4-2.6,5.4-3.7c2-1.1,4.3-1.9,6.7-2.6c2.4-0.6,4.9-1,7.5-1.1c2.6-0.2,5.1-0.2,7.7-0.1
				c2.5,0.1,5.2,0.4,7.6,0.8c2.5,0.4,4.9,1,7.2,1.7c4.6,1.4,8.7,3.5,11.7,5.9c0.4,0.3,0.7,0.6,1,0.9c0.2,0.1,0.4,0.3,0.5,0.4
				c0.1,0.1,0.3,0.2,0.4,0.3c0.6,0.3,1.3,0.6,2,0.6c1.3,0.2,2.5-0.2,3.4-0.6c0.9-0.4,1.5-1,1.9-1.4c0.2-0.2,0.3-0.4,0.4-0.5
				c0.1-0.1,0.1-0.2,0.1-0.2l0,0c0.1-0.1,0.3-0.1,0.4,0c0.1,0.1,0.1,0.3,0.1,0.4c0,0,0,0.1-0.1,0.2c-0.1,0.1-0.2,0.3-0.4,0.6
				c-0.4,0.5-1,1.2-1.9,1.8c-1,0.6-2.3,1.2-4,1.2c-0.9,0-1.8-0.2-2.7-0.5c-0.2-0.1-0.5-0.2-0.7-0.3c-0.2-0.1-0.4-0.2-0.6-0.3
				c-0.4-0.2-0.8-0.5-1.2-0.7c-3-1.9-7-3.4-11.4-4.3c-2.2-0.5-4.5-0.8-6.8-1c-2.4-0.2-4.7-0.2-7.1-0.1c-2.4,0.1-4.7,0.4-7,0.9
				c-2.3,0.5-4.5,1-6.6,1.6c-4.2,1.1-8,2.5-10.9,4.1c-1.5,0.8-2.7,1.7-3.7,2.6c-1,0.9-1.8,1.8-2.3,2.7c-0.6,0.8-0.8,1.6-1,2.1
				c-0.2,0.6-0.3,0.9-0.3,0.9c-0.1,0.2-0.2,0.3-0.4,0.2C97.5,91,97.4,90.9,97.4,90.8z"/>
			<path fill="#010202" d="M155.5,52.9c0,0-0.9-0.3-2.5-0.8c-1.6-0.5-3.9-1.1-6.6-1.8c-2.7-0.6-5.9-1.3-9.3-1.6
				c-1.7-0.2-3.5-0.3-5.2-0.3c-1.8,0-3.6,0-5.3,0.2c-1.8,0.2-3.5,0.4-5.3,0.8l-0.3,0.1l-0.1,0l0,0c0.1,0,0,0,0,0l0,0l-0.2,0
				l-0.7,0.2c-0.5,0.1-0.9,0.2-1.3,0.3c-0.9,0.2-1.7,0.5-2.5,0.7c-0.8,0.2-1.6,0.5-2.4,0.7c-0.8,0.2-1.6,0.5-2.3,0.8
				c-0.7,0.3-1.5,0.5-2.1,0.8c-0.3,0.1-0.7,0.3-1,0.4c-0.3,0.2-0.6,0.3-1,0.4c-1.3,0.6-2.4,1.2-3.3,1.8c-0.9,0.6-1.8,1.2-2.4,1.7
				c-1.3,1.1-1.8,1.9-1.8,1.9s0-0.2,0.2-0.7c0.2-0.4,0.4-1.1,0.9-1.8c0.4-0.8,1.1-1.6,1.9-2.5c0.8-0.9,1.8-1.9,3-2.7
				c0.3-0.2,0.6-0.5,0.9-0.7c0.3-0.2,0.7-0.4,1-0.7c0.7-0.5,1.4-0.9,2.1-1.3c0.7-0.4,1.5-0.8,2.3-1.2c0.4-0.2,0.8-0.4,1.2-0.6
				c0.4-0.2,0.9-0.3,1.3-0.5c0.9-0.3,1.8-0.7,2.6-1c0.4-0.1,0.9-0.3,1.3-0.4l0.7-0.2l0.2-0.1l0.2-0.1l0.4-0.1c1.9-0.6,3.9-0.9,6-1.1
				c2-0.2,4.1-0.2,6-0.1c2,0.1,3.9,0.4,5.7,0.8c3.7,0.8,6.9,2,9.6,3.3c2.7,1.3,4.7,2.6,6.1,3.6C154.8,52.2,155.5,52.9,155.5,52.9z"
				/>
		</g>
		<circle fill="#484848" cx="124" cy="128.1" r="2.9"/>
		<g>
			<path opacity="0.15" fill="#010202" d="M127.6,140.8c0,0-5.3,1.9-7.8-1.2c-2.5-3.1-6.9-8.4-15.6-8.4s-10.3,4.7-10.3,4.7l0,0
				c0,0-1.9-4.7-10.6-4.7s-13.1,5.5-15.6,8.6s-7.8,1.1-7.8,1.1s8.1,20.6,33.9,20.6S127.6,140.8,127.6,140.8z"/>
			<path fill="#EB5B5D" d="M127.6,140.8c0,0-5.3-0.9-7.8-4.1c-2.5-3.1-6.9-8.4-15.6-8.4S93.9,133,93.9,133l0,0c0,0-1.9-4.7-10.6-4.7
				s-13.1,5.5-15.6,8.6s-7.8,4-7.8,4s8.1,17.7,33.9,17.7S127.6,140.8,127.6,140.8z"/>
			<path fill="#484848" d="M59.9,140.9c0,0,0.3,0.1,0.8,0.2c0.5,0.1,1.2,0.2,2.1,0.4c1.8,0.4,4.5,0.8,7.6,1.2
				c1.6,0.2,3.3,0.4,5.1,0.6c1.8,0.2,3.7,0.4,5.7,0.5c2,0.1,4,0.2,6.1,0.2c1,0,2.1,0,3.2,0c1.1,0,2.1,0,3.2,0c2.1,0,4.2,0,6.3,0
				c2.1,0,4.1-0.2,6.1-0.3c0.5,0,1,0,1.5-0.1c0.5-0.1,1-0.1,1.4-0.1c1-0.1,1.9-0.2,2.8-0.3c1.8-0.2,3.5-0.4,5.1-0.7
				c1.6-0.3,3-0.4,4.3-0.6c1.3-0.2,2.4-0.5,3.3-0.6c1.8-0.3,2.9-0.5,2.9-0.5s-1,0.3-2.8,0.9c-0.9,0.3-2,0.6-3.2,1
				c-1.3,0.4-2.7,0.7-4.3,1c-0.8,0.2-1.6,0.4-2.5,0.6c-0.9,0.2-1.7,0.3-2.7,0.5c-1.8,0.3-3.7,0.7-5.8,0.8c-1,0.1-2,0.2-3.1,0.3
				c-0.5,0.1-1,0.1-1.6,0.2c-0.5,0-1.1,0-1.6,0.1c-2.1,0.1-4.3,0.2-6.4,0.2c-1.1,0-2.2,0-3.2,0c-1.1,0-2.1-0.1-3.2-0.1
				c-2.1-0.1-4.2-0.3-6.2-0.5c-2-0.2-3.9-0.5-5.8-0.8c-1.8-0.3-3.5-0.6-5.1-1c-1.6-0.3-3-0.7-4.3-1c-1.3-0.3-2.4-0.7-3.3-0.9
				C60.9,141.3,59.9,140.9,59.9,140.9z"/>
			<path opacity="0.59" fill="#484848" d="M101.7,144.6c0,0,0.1,0,0.3-0.1c0.2-0.1,0.5-0.3,0.8-0.5c0.3-0.3,0.7-0.6,1-1
				c0.3-0.4,0.6-0.9,0.8-1.4c0.1-0.3,0.2-0.5,0.3-0.8c0.1-0.3,0.2-0.5,0.2-0.8c0.1-0.5,0.2-1,0.2-1.4c0.1-0.4,0-0.8,0.1-1
				c0-0.3,0-0.4,0-0.4s0,0.1,0,0.4c0,0.3,0.1,0.6,0.1,1c0,0.4,0,0.9-0.1,1.5c0,0.3-0.1,0.5-0.1,0.8c0,0.3-0.1,0.6-0.2,0.9
				c-0.2,0.6-0.4,1.1-0.7,1.6c-0.3,0.5-0.7,0.9-1,1.2c-0.3,0.3-0.7,0.5-0.9,0.7c-0.2,0.1-0.4,0.2-0.4,0.2L101.7,144.6z"/>
			<path opacity="0.59" fill="#484848" d="M78,144.8c0,0-0.1-0.1-0.2-0.3c-0.1-0.2-0.3-0.4-0.5-0.8c-0.4-0.7-0.8-1.6-1-2.6
				c-0.1-0.2-0.1-0.5-0.1-0.7c0-0.2,0-0.5,0-0.7c0-0.2,0-0.5,0-0.7c0-0.2,0-0.4,0.1-0.6c0.1-0.4,0.1-0.7,0.2-0.9
				c0.1-0.2,0.1-0.3,0.1-0.3s0,0.1,0,0.3c0,0.2-0.1,0.5-0.1,0.9c0,0.2,0,0.4,0,0.6c0,0.2,0,0.4,0.1,0.6c0,0.2,0.1,0.5,0.1,0.7
				c0.1,0.2,0.1,0.5,0.2,0.7c0.3,0.9,0.8,1.7,1.2,2.2c0.4,0.6,0.8,0.8,0.8,0.8L78,144.8z"/>
			<path opacity="0.59" fill="#484848" d="M102.8,143.9c0,0,0.3,0,0.9-0.1c0.5-0.1,1.2-0.2,1.9-0.6c0.3-0.2,0.6-0.4,0.9-0.6
				c0.1-0.1,0.3-0.2,0.3-0.4c0.1-0.1,0.2-0.2,0.3-0.4c0.1-0.2,0.2-0.5,0.3-0.6c0.1-0.2,0.1-0.2,0.1-0.2s0,0.1,0,0.3
				c0,0.2-0.1,0.4-0.2,0.7c0,0.1-0.1,0.3-0.2,0.4c-0.1,0.2-0.2,0.3-0.3,0.4c-0.2,0.3-0.5,0.6-0.8,0.8c-1.3,0.9-2.9,1.2-2.9,1.2
				L102.8,143.9z"/>
			<path opacity="0.59" fill="#484848" d="M81.2,144.3c0,0-0.2-0.3-0.3-0.7c-0.2-0.4-0.4-1-0.5-1.6c-0.3-1.2-0.1-2.4-0.1-2.4
				s0.1,1.2,0.6,2.3c0.2,0.5,0.5,1,0.8,1.4c0.2,0.4,0.4,0.5,0.4,0.5L81.2,144.3z"/>
			<path opacity="0.59" fill="#484848" d="M94.2,145.5c0,0-0.3,0.7-0.6,1.8c-0.3,1.1-0.7,2.6-0.8,4.1c-0.1,0.8-0.1,1.5-0.1,2.3
				c0,0.4,0.1,0.7,0.1,1c0.1,0.3,0.1,0.6,0.2,0.9c0.1,0.3,0.2,0.5,0.3,0.7c0.1,0.2,0.2,0.4,0.3,0.6c0.2,0.3,0.2,0.5,0.2,0.5
				s-0.1-0.2-0.3-0.5c-0.1-0.2-0.2-0.3-0.3-0.5c-0.1-0.2-0.2-0.5-0.3-0.7c-0.1-0.3-0.2-0.6-0.3-0.9c-0.1-0.3-0.1-0.7-0.2-1
				c-0.1-0.7-0.1-1.5-0.1-2.3c0-1.6,0.3-3.2,0.5-4.3c0.2-1.2,0.5-1.9,0.5-1.9L94.2,145.5z"/>
			<path opacity="0.59" fill="#484848" d="M96,145.1c0,0-0.1,0.3-0.1,0.8c-0.1,0.5-0.2,1.2-0.2,1.8c-0.1,1.4-0.1,2.7-0.1,2.7
				s-0.2-1.4-0.4-2.7c-0.1-0.7-0.1-1.4-0.1-1.9c0-0.5,0-0.9,0-0.9L96,145.1z"/>
			<path opacity="0.59" fill="#484848" d="M67.6,143.3c0,0-0.1,0-0.2,0c-0.1,0-0.2-0.1-0.4-0.2c-0.3-0.1-0.7-0.4-0.9-0.7
				c-0.3-0.3-0.4-0.7-0.4-1c-0.1-0.3,0-0.5,0-0.5s0.1,0.2,0.2,0.4c0.1,0.2,0.4,0.5,0.6,0.7c0.3,0.2,0.6,0.3,0.8,0.3
				c0.1,0,0.2,0,0.3,0c0.1,0,0.1,0,0.1,0L67.6,143.3z"/>
			<path opacity="0.59" fill="#484848" d="M115.8,143c0,0,0.1,0,0.1,0.1c0.1,0.1,0.2,0.1,0.3,0.2c0.2,0.2,0.4,0.5,0.5,0.8
				c0.3,0.6,0.3,1.2,0.3,1.2s-0.3-0.6-0.7-0.9c-0.2-0.2-0.4-0.3-0.6-0.4c-0.1,0-0.2,0-0.2-0.1c0,0,0,0-0.1,0L115.8,143z"/>
			<path opacity="0.59" fill="#484848" d="M79.7,144.8c0,0-0.2,0.2-0.5,0.6c-0.3,0.4-0.7,0.9-0.9,1.5c-0.1,0.3-0.2,0.6-0.2,0.9
				c0,0.3,0,0.6,0,0.9c0.1,0.5,0.3,0.8,0.3,0.8c0,0-0.2-0.3-0.4-0.8c-0.1-0.2-0.2-0.6-0.2-0.9c0-0.3,0-0.7,0-1.1
				c0.1-0.7,0.4-1.4,0.7-1.9c0.3-0.5,0.5-0.8,0.5-0.8L79.7,144.8z"/>
		</g>
	</g>
</g>
<g id="boris">
	<circle fill="#F194BE" cx="91.8" cy="101.9" r="91.8"/>
	<path opacity="0.1" fill="#010202" d="M91.8,183.6c-49,0-89-38.4-91.6-86.8c-0.1,1.7-0.1,3.3-0.1,5c0,50.7,41.1,91.8,91.8,91.8
		s91.8-41.1,91.8-91.8c0-1.7,0-3.3-0.1-5C180.8,145.2,140.7,183.6,91.8,183.6z"/>
	<g>
		<circle fill="#353535" cx="38.5" cy="100.9" r="8"/>
		<circle fill="#353535" cx="144.5" cy="100.9" r="8"/>
	</g>
	<path fill="#353535" d="M67.3,140.2c-1.8,0-3.4-1.2-3.9-3.1c-0.5-2.1,0.8-4.3,3-4.8c0.8-0.2,20.2-4.7,49.8-0.1
		c2.2,0.3,3.7,2.4,3.3,4.6s-2.4,3.7-4.6,3.3c-28-4.4-46.5-0.1-46.7-0.1C67.9,140.2,67.6,140.2,67.3,140.2z"/>
	<path fill="#353535" d="M159.6,84.1h-136c-5,0-9-4-9-9s4-9,9-9h136c5,0,9,4,9,9S164.5,84.1,159.6,84.1z"/>
	<path fill="#353535" d="M111.2,16.5c-1.3,0-2.5-0.9-2.9-2.2C108.3,14,105.6,6,92.3,6C78.7,6,75.2,14.2,75,14.6
		c-0.6,1.5-2.4,2.3-3.9,1.7c-1.5-0.6-2.3-2.3-1.7-3.8C69.6,11.9,74.4,0,92.3,0c18.1,0,21.7,12.2,21.9,12.7c0.5,1.6-0.5,3.3-2.1,3.7
		C111.8,16.5,111.5,16.5,111.2,16.5z"/>
</g>
<g id="daryl">
	<circle fill="#814A97" cx="91.8" cy="96.8" r="91.8"/>
	<path fill="#744393" d="M91.8,178.6c-49,0-89-38.4-91.6-86.8C0,93.5,0,95.1,0,96.8c0,50.7,41.1,91.8,91.8,91.8s91.7-41.1,91.7-91.8
		c0-1.7,0-3.3-0.1-5C180.8,140.2,140.7,178.6,91.8,178.6z"/>
	<path fill="#6DC2B5" d="M67.5,133.4H36.8c-9.9,0-18-8.1-18-18V84.7c0-9.9,8.1-18,18-18h30.7c9.9,0,18,8.1,18,18v30.7
		C85.5,125.3,77.4,133.4,67.5,133.4z"/>
	<path fill="#6DC2B5" d="M148.5,133.4h-30.7c-9.9,0-18-8.1-18-18V84.7c0-9.9,8.1-18,18-18h30.7c9.9,0,18,8.1,18,18v30.7
		C166.5,125.3,158.4,133.4,148.5,133.4z"/>
	<path fill="#D7EDEF" d="M128,127.3c-0.8,0-1.5-0.2-2.2-0.5c-1.9-1-3-3-2.7-5.2l4-28.8l-24.2,24.8l-7.2-7L130.4,75
		c1.5-1.5,3.8-1.9,5.8-1c1.9,0.9,3.1,3,2.8,5.2l-4,29l26.4-26.7l7.1,7l-37,37.4C130.6,126.8,129.3,127.3,128,127.3z"/>
	<path fill="#D7EDEF" d="M48,127.3c-0.8,0-1.5-0.2-2.2-0.5c-1.9-1-3-3-2.7-5.2l4-28.8l-24.2,24.8l-7.2-7L50.4,75
		c1.5-1.5,3.8-1.9,5.8-1c1.9,0.9,3.1,3,2.8,5.2l-4,29l26.4-26.7l7.1,7l-37,37.4C50.6,126.8,49.3,127.3,48,127.3z"/>
	<path fill="#4A4A4A" d="M67.5,137.4H36.8c-12.1,0-22-9.9-22-22V84.8c0-12.1,9.9-22,22-22h30.7c12.1,0,22,9.9,22,22v30.7
		C89.5,127.5,79.6,137.4,67.5,137.4z M36.8,70.8c-7.7,0-14,6.3-14,14v30.7c0,7.7,6.3,14,14,14h30.7c7.7,0,14-6.3,14-14V84.8
		c0-7.7-6.3-14-14-14H36.8z"/>
	<path fill="#4A4A4A" d="M148.5,137.4h-30.7c-12.1,0-22-9.9-22-22V84.8c0-12.1,9.9-22,22-22h30.7c12.1,0,22,9.9,22,22v30.7
		C170.5,127.5,160.6,137.4,148.5,137.4z M117.8,70.8c-7.7,0-14,6.3-14,14v30.7c0,7.7,6.3,14,14,14h30.7c7.7,0,14-6.3,14-14V84.8
		c0-7.7-6.3-14-14-14H117.8z"/>
	<g>
		<line fill="#6DC2B5" x1="86" y1="88.1" x2="100" y2="88.1"/>
		<rect x="86" y="84.1" fill="#4A4A4A" width="14" height="8"/>
	</g>
</g>
<g id="ludo">
	<circle fill="#D8AE37" cx="91.8" cy="96.8" r="91.8"/>
	<path fill="#C29525" d="M91.8,178.6c-49,0-89-38.4-91.6-86.8C0,93.5,0,95.1,0,96.8c0,50.7,41.1,91.8,91.8,91.8s91.7-41.1,91.7-91.8
		c0-1.7,0-3.3-0.1-5C180.8,140.2,140.7,178.6,91.8,178.6z"/>
	<circle fill="#C29525" cx="56.5" cy="103.3" r="30.7"/>
	<circle fill="#C29525" cx="125.5" cy="103.3" r="30.7"/>
	<circle fill="#EAE9E6" cx="56.5" cy="98.3" r="30.7"/>
	<path fill="#DDDBD7" d="M72.6,72.2c2.9,4.7,4.6,10.2,4.6,16.1c0,16.9-13.7,30.7-30.7,30.7c-5.9,0-11.4-1.7-16.1-4.6
		c5.4,8.7,15.1,14.6,26.1,14.6c16.9,0,30.7-13.7,30.7-30.7C87.2,87.2,81.3,77.6,72.6,72.2z"/>
	<circle fill="#EAE9E6" cx="125.5" cy="98.3" r="30.7"/>
	<path fill="#DDDBD7" d="M135.5,118.9c-16.9,0-30.7-13.7-30.7-30.7c0-5.9,1.7-11.4,4.6-16.1c-8.7,5.4-14.6,15.1-14.6,26.1
		c0,16.9,13.7,30.7,30.7,30.7c11,0,20.7-5.8,26.1-14.6C146.9,117.3,141.4,118.9,135.5,118.9z"/>
	<circle fill="#484848" cx="46.5" cy="88.3" r="4.7"/>
	<circle fill="#484848" cx="135.5" cy="88.3" r="4.7"/>
	<circle fill="#484848" cx="93.2" cy="160.8" r="3.9"/>
</g>
<g id="dirk">
	<circle fill="#E9887F" cx="91.8" cy="96.8" r="91.8"/>
	<path fill="#C66664" d="M91.8,178.6c-49,0-89-38.4-91.6-86.8C0,93.5,0,95.1,0,96.8c0,50.7,41.1,91.8,91.8,91.8s91.7-41.1,91.7-91.8
		c0-1.7,0-3.3-0.1-5C180.8,140.2,140.7,178.6,91.8,178.6z"/>
	<circle fill="#C66664" cx="91.8" cy="102.8" r="28.1"/>
	<circle fill="#EAE9E6" cx="91.8" cy="96.8" r="28.1"/>
	<circle fill="#484848" cx="91.8" cy="96.8" r="18.1"/>
	<circle fill="#EAE9E6" cx="90.8" cy="96.8" r="4.1"/>
	<path fill="#EAE9E6" d="M84.1,93.2c2.5-3.6,8.9-3.3,5.4-5.8c-3.6-2.5-8.5-1.7-11,1.9c-2.5,3.6-1.7,8.5,1.9,11
		C84,102.7,81.6,96.8,84.1,93.2z"/>
	<path fill="#484848" d="M91.8,163.4c-17.7,0-34.4-7-47-19.7c-12.5-12.6-19.4-29.2-19.4-46.7c0-1.1,0.9-2,2-2s2,0.9,2,2
		c0,16.5,6.5,32.1,18.3,43.9c11.9,11.9,27.5,18.5,44.1,18.5c16.6,0,32.3-6.6,44.1-18.5c11.8-11.9,18.3-27.5,18.3-43.9
		c0-1.1,0.9-2,2-2s2,0.9,2,2c0,17.5-6.9,34.1-19.4,46.7C126.1,156.4,109.4,163.4,91.8,163.4z"/>
	<path fill="#484848" d="M27.8,98.3c-5.7,0-10.3-4.6-10.3-10.3c0-1.1,0.9-2,2-2s2,0.9,2,2c0,3.4,2.9,6.3,6.3,6.3S34,91.4,34,88
		c0-1.1,0.9-2,2-2s2,0.9,2,2C38,93.7,33.4,98.3,27.8,98.3z"/>
	<path fill="#484848" d="M155.7,98.3c-5.7,0-10.3-4.6-10.3-10.3c0-1.1,0.9-2,2-2s2,0.9,2,2c0,3.4,2.9,6.3,6.3,6.3
		c3.4,0,6.3-2.9,6.3-6.3c0-1.1,0.9-2,2-2s2,0.9,2,2C166,93.7,161.4,98.3,155.7,98.3z"/>
</g>
<path class="line" fill="none" stroke="#EB5769" stroke-width="22" stroke-linecap="round" stroke-miterlimit="10" d="M16.6,168.1
	L166,18.2"/>
</svg>
